<svg xmlns="http://www.w3.org/2000/svg" viewBox="0 0 72 72"><path fill="#d0cfce" d="M59.035 60h-46.07a.968.968 0 0 1-.965-.965v-46.07c0-.53.434-.965.965-.965h46.07c.53 0 .965.434.965.965v46.07c0 .53-.434.965-.965.965z"/><g fill="none" stroke="#000" stroke-width="2" stroke-miterlimit="10"><path d="M59.035 60h-46.07a.968.968 0 0 1-.965-.965v-46.07c0-.53.434-.965.965-.965h46.07c.53 0 .965.434.965.965v46.07c0 .53-.434.965-.965.965z"/><path stroke-linecap="round" stroke-linejoin="round" d="M39.052 31.152v9.446m0-3.321l5.397-6.125m-2.799 3.177l3.234 6.269m-13.394 0h0a3.373 3.373 0 0 1-3.374-3.374v-2.698a3.373 3.373 0 0 1 3.373-3.374h0a3.373 3.373 0 0 1 3.374 3.374v2.698a3.373 3.373 0 0 1-3.373 3.374z"/></g></svg>