<svg xmlns="http://www.w3.org/2000/svg" viewBox="0 0 72 72"><path fill="#D22F27" d="M59.035 60h-46.07a.968.968 0 0 1-.965-.965v-46.07c0-.53.434-.965.965-.965h46.07c.53 0 .965.434.965.965v46.07c0 .53-.434.965-.965.965z"/><g fill="none" stroke="#000" stroke-width="2" stroke-miterlimit="10"><path d="M59.035 60h-46.07a.968.968 0 0 1-.965-.965v-46.07c0-.53.434-.965.965-.965h46.07c.53 0 .965.434.965.965v46.07c0 .53-.434.965-.965.965z"/><path stroke-linecap="round" stroke-linejoin="round" d="M36.5 39.471h0a2.857 2.857 0 0 1-2.857-2.857v-2.286a2.857 2.857 0 0 1 2.857-2.857h0a2.857 2.857 0 0 1 2.857 2.857v2.286a2.857 2.857 0 0 1-2.857 2.857zm-6.516-6.409c-.234-.91-1.246-1.595-2.458-1.595h0c-1.386 0-2.51.894-2.51 1.998 0 1.103 1.123 1.998 2.51 1.998l-.051.007c1.386 0 2.51.895 2.51 1.998 0 1.104-1.124 1.998-2.51 1.998h0c-1.213 0-2.225-.684-2.459-1.595m22.968-4.809c-.234-.91-1.246-1.595-2.458-1.595h0c-1.387 0-2.51.894-2.51 1.998s1.123 1.998 2.51 1.998l-.052.007c1.387 0 2.51.895 2.51 1.998 0 1.104-1.123 1.998-2.51 1.998h0c-1.212 0-2.224-.684-2.458-1.595"/></g></svg>