<svg xmlns="http://www.w3.org/2000/svg" viewBox="0 0 72 72"><path fill="#EA5A47" d="M68 4v7.07c-31.44 0-56.93 25.49-56.93 56.93H4C4 32.65 32.65 4 68 4z"/><path fill="#F4AA41" d="M68 11.07v6.53c-27.84 0-50.4 22.56-50.4 50.4h-6.53c0-31.44 25.49-56.93 56.93-56.93z"/><path fill="#FCEA2B" d="M68 17.6v6.01c-24.54 0-44.52 19.88-44.52 44.39H17.6c0-27.84 22.56-50.4 50.4-50.4z"/><path fill="#B1CC33" d="M68 23.61v5.58c-21.54 0-39.01 17.38-39.01 38.81h-5.51c0-24.51 19.98-44.39 44.52-44.39z"/><path fill="#92D3F5" d="M68 29.19v5.19c-18.64 0-33.76 15.05-33.76 33.62h-5.25c0-21.43 17.47-38.81 39.01-38.81z"/><path fill="#B399C8" d="M68 34.38v4.67c-15.99 0-28.95 12.96-28.95 28.95h-4.81c0-18.57 15.12-33.62 33.76-33.62z"/><g fill="none" stroke="#000" stroke-width="2" stroke-linecap="round" stroke-linejoin="round" stroke-miterlimit="10"><path d="M68 4v7.07c-31.44 0-56.93 25.49-56.93 56.93H4C4 32.65 32.65 4 68 4z"/><path d="M68 11.07v6.53c-27.84 0-50.4 22.56-50.4 50.4h-6.53c0-31.44 25.49-56.93 56.93-56.93z"/><path d="M68 17.6v6.01c-24.54 0-44.52 19.88-44.52 44.39H17.6c0-27.84 22.56-50.4 50.4-50.4z"/><path d="M68 23.61v5.58c-21.54 0-39.01 17.38-39.01 38.81h-5.51c0-24.51 19.98-44.39 44.52-44.39z"/><path d="M68 29.19v5.19c-18.64 0-33.76 15.05-33.76 33.62h-5.25c0-21.43 17.47-38.81 39.01-38.81z"/><path d="M68 34.38v4.67c-15.99 0-28.95 12.96-28.95 28.95h-4.81c0-18.57 15.12-33.62 33.76-33.62z"/></g></svg>