<svg xmlns="http://www.w3.org/2000/svg" viewBox="0 0 72 72"><path d="M34.578 44.5a12.983 12.983 0 0 1 4.134-2.1c2.356-.66 3.646-.71 5.162-2.96l-8.386-2.27a37.167 37.167 0 0 0 1.125 8.434 8.73 8.73 0 0 1 .023 2.74c-.015 1.237.604 2.187.744 3.28l8.84-1.196c-1.396-4.253-5.384-6.509-8.315-9.67-3.946-4.256-10.3 2.12-6.364 6.364 1.088 1.174 2.34 2.142 3.494 3.244.498.474.923 1.012 1.41 1.494l.552.508q1.56 1.166.544.452c1.485 4.524 9.517 4.098 8.84-1.196-.142-1.106-.665-2.255-.759-3.315-.115-1.298.354-2.35.058-3.731a36.681 36.681 0 0 1-1.192-7.408c-.084-4.627-5.935-5.907-8.386-2.271l-.342.507 3.886-2.228c-3.456-.145-6.832 1.66-9.61 3.55-4.761 3.24-.264 11.041 4.542 7.771z" fill="#8967aa"/><g fill="none" stroke="#000" stroke-linecap="round" stroke-linejoin="round" stroke-width="2"><path d="M47.13 65.622L26.48 39.21s4.096-.476 3.973-3.636c0 0 3.16-.122 3.39-2.347 0 0 3.866 1.749 5.032-.828"/><path d="M38.874 32.398c2.93 2.101 4.834-.137 4.834-.137l3.421 33.361M30.453 35.574l16.323 29.112m0 0L27.5 17.5s-1-3-3-2a5.124 5.124 0 0 0-2.009 1.529A2.3 2.3 0 0 0 22.5 19.5m16.374 12.898l7.902 32.288"/></g></svg>