<svg xmlns="http://www.w3.org/2000/svg" viewBox="0 0 72 72"><path d="M35.97 6.037l-8.2 16.633-18.353 2.674 13.285 12.94-3.128 18.28 16.412-8.636 16.419 8.624-3.142-18.278 13.275-12.95-18.354-2.66zM14.164 41.46l-9.305.576 1.617 4.697zm43.673-.48l9.304.577-1.617 4.696zM22.072 15.592l-3.424-8.67-3.967 2.988zm28.328.494l7.585-5.42-3.86-3.126zM35.92 56.978l-2.484 8.985h4.967z" fill="#FCEA2B"/><path d="M35.925 6.037L27.723 22.67 9.371 25.344l13.285 12.94-3.128 18.28 16.412-8.636 16.419 8.624-3.142-18.278 13.276-12.95-18.354-2.66zm.007 50.941l-2.484 8.985h4.968zm21.884-15.9l7.778 5.14 1.535-4.725zm-43.64.382l-9.305.576 1.617 4.697zm36.237-25.374l7.584-5.42-3.86-3.126zm-28.329-.494l-3.424-8.67-3.967 2.988z" fill="none" stroke="#000" stroke-width="2" stroke-linecap="round" stroke-linejoin="round" stroke-miterlimit="10"/></svg>