<svg xmlns="http://www.w3.org/2000/svg" viewBox="0 0 72 72"><path d="M21.549 30.124a1.5 1.5 0 0 0 0-3 1.5 1.5 0 0 0 0 3z" fill="#fcea2b"/><path d="M8 36a28 28 0 0 0 28 28V8A28 28 0 0 0 8 36z" fill="#fcea2b" stroke="#fcea2b" stroke-linecap="round" stroke-linejoin="round"/><path d="M64 36A28 28 0 0 0 36 8v56a28 28 0 0 0 28-28z" fill="#3f3f3f" stroke="#3f3f3f" stroke-linecap="round" stroke-linejoin="round" stroke-width="2"/><g fill="none" stroke="#000" stroke-linecap="round" stroke-linejoin="round" stroke-width="2"><circle cx="36" cy="36" r="28"/><path d="M8 36a28 28 0 0 0 28 28V8A28 28 0 0 0 8 36z"/></g></svg>