<svg xmlns="http://www.w3.org/2000/svg" viewBox="0 0 72 72"><path fill="#FFA7C0" stroke="#FFA7C0" stroke-miterlimit="10" d="M57.234 26.32a4.57 4.57 0 0 0-4.41-4.726c2.677-3.554-1.502-8.267-5.541-5.558h-.01a4.568 4.568 0 1 0-9.132.272l-.035.031c-3.558-2.631-8.88 1.537-6.164 5.567v.003a4.57 4.57 0 0 0 .32 9.136l-.236-6.793.244 6.785c-2.677 3.555 1.505 8.27 5.544 5.556l.002.001a4.57 4.57 0 0 0 9.136-.313h.003c3.556 2.678 8.274-1.51 5.553-5.551h0a4.571 4.571 0 0 0 4.726-4.41z"/><path fill="#FCEA2B" d="M40.82 28.398c-1.834 0-3.32-1.443-3.32-3.223 0-1.369.769-2.538 2.009-3.006a.701.701 0 0 1 .693.144l3.437 2.853 3.273 2.77c.37.311.566.808.44 1.275-.37 1.386-1.669 2.41-3.213 2.41-1.833 0-3.32-1.443-3.32-3.223"/><path fill="#B1CC33" d="M21.818 33.265c3.992 4.886 2.805 12.462 2.805 12.462s-7.66-.347-11.653-5.233-2.805-12.462-2.805-12.462 7.661.35 11.653 5.233z"/><path fill="none" stroke="#000" stroke-width="2" stroke-linecap="round" stroke-linejoin="round" d="M21.818 33.276c3.992 4.886 2.805 12.462 2.805 12.462s-7.66-.347-11.653-5.233-2.805-12.462-2.805-12.462 7.661.35 11.653 5.233zm11.175 8.554c-3.438 3.549-7.676 10.247-5.829 20.736"/><path fill="none" stroke="#000" stroke-width="2" stroke-linecap="round" stroke-linejoin="round" stroke-miterlimit="10" d="M43.011 26.373s3.03-3.917-.071-7.5m3.47 10.152a3 3 0 1 1-6 0m0 0a3 3 0 0 1-.736-5.91m-2.007-7.855a5 5 0 1 1 9.994-.347m5.727 16.067a5 5 0 1 0 .347-9.994m0 0c2.93-3.891-1.652-9.053-6.074-6.073m-.348 22.139c3.891 2.93 9.053-1.652 6.074-6.073M47.31 37.05a5 5 0 1 1-9.994.346m-6.067-6.08c-2.93 3.891 1.652 9.053 6.073 6.074m.345-22.13c-3.891-2.93-9.757 1.646-6.777 6.068m.35 9.997a5 5 0 1 1-.347-9.994"/><circle cx="47.825" cy="25.042" r="1"/><circle cx="47.731" cy="19.443" r="1"/></svg>