<svg xmlns="http://www.w3.org/2000/svg" viewBox="0 0 72 72"><g stroke-width=".75" stroke-linecap="round" stroke-linejoin="round" stroke-miterlimit="10"><path fill="#fcea2b" stroke="#fcea2b" d="M51.963 52.29c-8.349 9.895-23.138 11.162-33.033 2.821a23.248 23.248 0 0 1-7.806-13.028l1.58-1.267a18.83 18.83 0 0 0 2.565 2.624c7.921 6.679 19.75 5.667 26.429-2.254 5.776-6.855 5.79-16.64.565-23.473-.072-.094 2.198-1.532 2.198-1.532l.009.008a23.58 23.58 0 0 1 4.672 3.068c9.895 8.34 11.161 23.13 2.82 33.033z"/><path fill="#F1B31C" stroke="#F1B31C" d="M11.124 42.083c25.145 27.39 54.41-4.746 33.346-25.894a23.58 23.58 0 0 1 4.671 3.068c9.896 8.34 11.162 23.13 2.822 33.033-8.349 9.895-23.138 11.162-33.033 2.822a23.248 23.248 0 0 1-7.806-13.03"/></g><g fill="none" stroke="#000" stroke-width="2" stroke-linecap="round" stroke-linejoin="round" stroke-miterlimit="10"><path d="M41.238 13.801l-2.782-3.326m-18.1 39.072c18.69 10.317 36.03-7.088 30.182-23.935"/><path d="M51.963 52.29c-8.349 9.895-23.138 11.162-33.033 2.821a23.248 23.248 0 0 1-7.806-13.028l1.58-1.267a18.83 18.83 0 0 0 2.565 2.624c7.921 6.679 19.75 5.667 26.429-2.254 5.776-6.855 5.79-16.64.565-23.473-.072-.094 2.198-1.532 2.198-1.532l.009.008a23.58 23.58 0 0 1 4.672 3.068c9.895 8.34 11.161 23.13 2.82 33.033z"/></g></svg>