<svg xmlns="http://www.w3.org/2000/svg" viewBox="0 0 72 72"><circle cx="24.5" cy="37" r="6" fill="#8967aa"/><circle cx="20.5" cy="28" r="6" fill="#8967aa"/><path d="M29.5 34a5.997 5.997 0 1 0-5.29-3.168" fill="#8967aa"/><circle cx="39.5" cy="46" r="6" fill="#8967aa"/><circle cx="29.5" cy="46" r="6" fill="#8967aa"/><circle cx="45.5" cy="37" r="6" fill="#8967aa"/><circle cx="34.5" cy="36" r="6" fill="#b399c8"/><path d="M34.5 30a6 6 0 0 0 0 12" fill="#8967aa"/><circle cx="47.5" cy="28" r="6" fill="#8967aa"/><path d="M43.852 30.716a5.991 5.991 0 1 0-3.738 3.064" fill="#8967aa"/><circle cx="34.5" cy="55" r="6" fill="#b399c8"/><path d="M34.5 49a6 6 0 0 0 0 12" fill="#8967aa"/><g fill="none" stroke="#000"><path d="M34.896 23.267c-1.2-6.55-5.56-20.041-20.396-6.767" stroke-linecap="round" stroke-linejoin="round" stroke-width="2"/><path d="M50.37 33.167a5.962 5.962 0 1 0-7.242-9.223M29.064 39.887a5.914 5.914 0 0 1-.847-3.054 5.986 5.986 0 0 1 4.876-5.863" stroke-miterlimit="10"/><circle cx="34.5" cy="55" r="6" stroke-miterlimit="10" stroke-width="2"/><path d="M34.5 49a6 6 0 0 0 0 12m5-9q.228 0 .452-.017m0 0a5.997 5.997 0 1 0-5.848-3.356m.225-6.189a6 6 0 1 0-5.394 9.536m11.424-18.069a6.01 6.01 0 0 0-.25 5.732m4.52 3.3a6 6 0 1 0-4.27-9.032m-11.356-.87a6 6 0 1 0-5.496 9.883m0 0A6.048 6.048 0 0 0 24.5 43m5.165-3.447a6.023 6.023 0 0 0 .584.682m2.661-10.022a6.002 6.002 0 0 0-3.246 9.34m3.204-9.329a6.002 6.002 0 0 0-3.158 9.39m20.803-6.424a6 6 0 1 0-7.428-9.252m.448 7.33a5.988 5.988 0 1 0-3.276 2.47m-6.415-9.879a6.001 6.001 0 0 0-9.734 6.775m.635-6.877a6 6 0 1 0-5.549 10.1" stroke-miterlimit="10" stroke-width="2"/><path d="M47 12s-2.996 6.822-13.998 4.911" stroke-linecap="round" stroke-linejoin="round" stroke-width="2"/></g></svg>