<svg xmlns="http://www.w3.org/2000/svg" viewBox="0 0 72 72"><path d="M52.598 12.598a28.142 28.142 0 0 1-39.799 39.799z" fill="#f4aa41"/><path d="M47.623 17.573a21.107 21.107 0 0 1-29.85 29.85z" fill="#fcea2b"/><path d="M41.67 23.526A12.903 12.903 0 0 1 23.727 41.47z" fill="#f1b31c"/><path fill="none" stroke="#000" stroke-linecap="round" stroke-linejoin="round" stroke-width="2.345" d="M52.598 12.598l-4.975 4.975-5.953 5.953-17.943 17.943-5.953 5.953-4.975 4.975"/><path d="M52.598 12.598a28.142 28.142 0 0 1-39.799 39.799z" fill="none" stroke="#000" stroke-miterlimit="10" stroke-width="2.251"/><path d="M47.623 17.573a21.107 21.107 0 0 1-29.85 29.85z" fill="none" stroke="#000" stroke-miterlimit="10" stroke-width="2.251"/><path d="M41.67 23.526A12.903 12.903 0 0 1 23.727 41.47z" fill="none" stroke="#000" stroke-miterlimit="10" stroke-width="2.345"/><path d="M30.211 49.91s20.729 2.487 19.9-19.9" fill="none" stroke="#000" stroke-linecap="round" stroke-linejoin="round" stroke-width="2.251"/><circle cx="49.281" cy="25.864" r="1.173"/></svg>