<svg xmlns="http://www.w3.org/2000/svg" viewBox="0 0 72 72"><path fill="#a57939" d="M49.334 35.25L39.209 46H56a2 2 0 0 0 2-2v-6.75a2 2 0 0 0-2-2h-6.666M32.875 46H16a2 2 0 0 1-2-2v-6.75a2 2 0 0 1 2-2h6.584L32.875 46z"/><path fill="#f4aa41" d="M32.875 46H15a2 2 0 0 0-2 2v6a2 2 0 0 0 2 2h42a2 2 0 0 0 2-2v-6a2 2 0 0 0-2-2H39.209"/><path fill="#e27022" d="M48 46h9a2 2 0 0 1 2 2v6a2 2 0 0 1-2 2h-9V46z"/><path fill="#f4aa41" d="M59 33.176a2 2 0 0 1-2 2H15a2 2 0 0 1-2-2C14.484 21.792 24.212 13 36 13s21.516 8.792 23 20.176z"/><path fill="#e27022" d="M42 13.844c3.074 5.148 5.156 12.21 6 21.332h9a2 2 0 0 0 2-2c-1.5-11.239-10.656-17.989-17-19.332z"/><path fill="#fcea2b" d="M49.941 35.25H22.06L36 49.191z"/><path fill="#6A462F" d="M48 35.176V46h8a2 2 0 0 0 2-2v-6.75a2 2 0 0 0-2-2h-6.666"/><g fill="none" stroke="#000" stroke-width="2" stroke-linecap="round" stroke-linejoin="round" stroke-miterlimit="10"><path d="M32.875 46H16a2 2 0 0 1-2-2v-6.75a2 2 0 0 1 2-2h40a2 2 0 0 1 2 2V44a2 2 0 0 1-2 2H39.209m-6.334 0H15a2 2 0 0 0-2 2v6a2 2 0 0 0 2 2h42a2 2 0 0 0 2-2v-6a2 2 0 0 0-2-2H39.209M59 33.176a2 2 0 0 1-2 2H15a2 2 0 0 1-2-2C14.484 21.792 24.212 13 36 13s21.516 8.792 23 20.176z"/><path d="M49.941 35.25H22.06L36 49.191z"/></g></svg>