<svg xmlns="http://www.w3.org/2000/svg" viewBox="0 0 72 72"><ellipse fill="#FFF" cx="35.921" cy="35.272" rx="11.314" ry="5.657"/><path fill="#FFF" d="M46.941 33.757a2.824 2.824 0 0 1-1.844 4.962 2.824 2.824 0 0 1-2.823 2.823 2.798 2.798 0 0 1-1.452-.413 2.81 2.81 0 0 1-.787 2.41 2.823 2.823 0 0 1-3.993 0c-.046-.046-.078-.1-.12-.148a2.805 2.805 0 0 1-2.119.975 2.824 2.824 0 0 1-2.823-2.824c0-.142.021-.278.042-.414-.426.258-.92.414-1.454.414a2.824 2.824 0 0 1-2.823-2.823 2.823 2.823 0 0 1-1.996-4.82"/><path fill="#EA5A47" d="M25.024 18.292c.506-6.644 5.897-11.02 10.897-11.02 6 0 9.002 1.39 10.882 2.379 10.492 5.524 8.78 17.345 7.972 22.64.05-.003.095-.02.146-.02.742 0 1.382.41 1.727 1.01a1.989 1.989 0 0 1 1.737.99c.37.643.337 1.402-.01 2 .347.6.38 1.358.01 2a1.991 1.991 0 0 1-1.737.992c-.345.6-.985 1.009-1.727 1.009s-1.382-.409-1.727-1.009a1.99 1.99 0 0 1-1.737-.991 1.991 1.991 0 0 1 .01-2 1.991 1.991 0 0 1-.01-2c.054-.094.127-.168.193-.25l-1.031-.483-25.595-15.247z"/><path fill="#D22F27" d="M25.393 18.639l19.528-.367s4-3-1-10c14 4 11.073 22.8 11.084 22.937-.02-.026-.077.084-.23 1.083.05-.004.095-.02.146-.02l-3.464 2c.054-.094.127-.168.193-.25l-1.06.566-25.197-15.95z"/><path fill="#D22F27" d="M55.005 31.209c.012.017.007.094 0 0z"/><path fill="#FFF" d="M50.921 36.272a4 4 0 1 0 4-4c-2 1-2 1-3.296 1.733a3.981 3.981 0 0 0-.704 2.267z"/><path fill="#6A462F" d="M16.054 56.532a9.977 9.977 0 0 1-3.454-7.56c0-4.503 3.989-7.646 7.63-8.654 1.374-.38 2.84.032 3.78 1.103 2.198 2.501 6.047 7.995 4.59 14.55"/><path fill="#FFF" d="M46.743 18.272H25.1c-.65 0-1.178.417-1.178.932v3.135c0 .515.527.933 1.178.933h21.644c.65 0 1.178-.418 1.178-.933v-3.135c0-.515-.527-.932-1.178-.932z"/><path fill="#EA5A47" d="M54.796 58.872s2-13.9-10-13.9c-3.192 2.128-5.926 3.598-9 3.592h.125c-3.074.006-5.808-1.464-9-3.592-12 0-10 13.9-10 13.9"/><path fill="#D22F27" d="M44.796 44.972c-3.17 2.113-4.875 3-8.938 3.588 13.063.412 13.063 6.312 13.825 10.312h5.113s2-13.9-10-13.9z"/><path fill="#FFF" d="M38.921 58.972v-5.91c5.508-.346 9.52-2.794 10.974-7.026-1.33-.659-2.995-1.064-5.099-1.064-3.17 2.113-5.89 3.574-8.938 3.588-3.047-.014-5.767-1.475-8.937-3.588-2.047 0-3.68.384-4.991 1.012 2.472 4.12 6.142 6.365 10.991 6.959v6.029"/><path fill="#A57939" d="M12.6 48.972c0-4.503 3.989-7.646 7.63-8.654 1.374-.38 2.84.032 3.78 1.103 2.198 2.501 6.047 7.995 4.59 14.55 0 0-9-9-11-9"/><path fill="#FCEA2B" d="M46.54 23.292c.465 1.55.72 3.227.72 4.98 0 1.789-.339 5-.75 5.077-5.589-3.077-12.715-4.752-21.152.085-.437-1.162-.776-3.34-.776-5.162 0-1.476.18-2.899.516-4.237"/><path fill="none" stroke="#000" stroke-width="2" stroke-linecap="round" stroke-linejoin="round" stroke-miterlimit="10" d="M46.941 33.757a2.824 2.824 0 0 1-1.844 4.962 2.824 2.824 0 0 1-2.823 2.823 2.798 2.798 0 0 1-1.452-.413 2.81 2.81 0 0 1-.787 2.41 2.823 2.823 0 0 1-3.993 0c-.046-.046-.078-.1-.12-.148a2.805 2.805 0 0 1-2.119.975 2.824 2.824 0 0 1-2.823-2.824c0-.142.021-.278.042-.414-.426.258-.92.414-1.454.414a2.824 2.824 0 0 1-2.823-2.823 2.823 2.823 0 0 1-1.996-4.82m-8.695 22.633a9.977 9.977 0 0 1-3.454-7.56c0-4.503 3.989-7.646 7.63-8.654 1.374-.38 2.84.032 3.78 1.103 2.198 2.501 6.047 7.995 4.59 14.55m17.94-32.679c.465 1.55.72 3.227.72 4.98 0 1.789-.339 5-.75 5.077-5.589-3.077-12.715-4.752-21.152.085-.437-1.162-.776-3.34-.776-5.162 0-1.476.18-2.899.516-4.237"/><path d="M29.92 26.91a2 2 0 1 0 4.002 0 2 2 0 0 0-4.001 0m7.999 0a2 2 0 1 0 4.002 0 2 2 0 0 0-4.001 0m-2 10.003c1.152 0 2.304-.286 3.447-.858a1 1 0 1 0-.894-1.789c-1.718.86-3.388.86-5.106 0a1 1 0 0 0-.894 1.79c1.143.571 2.295.857 3.447.857z"/><path fill="none" stroke="#000" stroke-width="2" stroke-linecap="round" stroke-linejoin="round" stroke-miterlimit="10" d="M46.818 18.292a23.783 23.783 0 0 0-.36-2.751m.285 2.731H25.1c-.65 0-1.178.417-1.178.932v3.135c0 .515.527.933 1.178.933h21.644c.65 0 1.178-.418 1.178-.933v-3.135c0-.515-.527-.932-1.178-.932z"/><path fill="none" stroke="#000" stroke-width="2" stroke-linecap="round" stroke-linejoin="round" stroke-miterlimit="10" d="M25.024 18.292c.506-6.644 5.897-11.02 10.897-11.02 6 0 9.002 1.39 10.882 2.379 10.492 5.524 8.78 17.345 7.972 22.64.05-.003.095-.02.146-.02.742 0 1.382.41 1.727 1.01a1.989 1.989 0 0 1 1.737.99c.37.643.337 1.402-.01 2 .347.6.38 1.358.01 2a1.991 1.991 0 0 1-1.737.992c-.345.6-.985 1.009-1.727 1.009s-1.382-.409-1.727-1.009a1.99 1.99 0 0 1-1.737-.991 1.991 1.991 0 0 1 .01-2 1.991 1.991 0 0 1-.01-2c.054-.094.127-.168.193-.25l-1.031-.483M16.054 56.532a9.977 9.977 0 0 1-3.454-7.56c0-4.503 3.989-7.646 7.63-8.654 1.374-.38 2.84.032 3.78 1.103 2.198 2.501 6.047 7.995 4.59 14.55 0 0-9-9-11-9"/><path fill="none" stroke="#000" stroke-width="2" stroke-linecap="round" stroke-linejoin="round" stroke-miterlimit="10" d="M25.024 18.292c.506-6.644 5.897-11.02 10.897-11.02 6 0 9.002 1.39 10.882 2.379 10.492 5.524 8.78 17.345 7.972 22.64.05-.003.095-.02.146-.02.742 0 1.382.41 1.727 1.01a1.989 1.989 0 0 1 1.737.99c.37.643.337 1.402-.01 2 .347.6.38 1.358.01 2a1.991 1.991 0 0 1-1.737.992c-.345.6-.985 1.009-1.727 1.009s-1.382-.409-1.727-1.009a1.99 1.99 0 0 1-1.737-.991 1.991 1.991 0 0 1 .01-2 1.991 1.991 0 0 1-.01-2c.054-.094.127-.168.193-.25l-1.031-.483M16.92 57.97s-.97-6.3 2.49-10.13M54.8 57.97s1.36-8.85-4.9-11.93l-.51-.24c-.18-.07-.36-.14-.55-.21-.19-.06-.38-.12-.58-.18-.4-.11-.82-.2-1.26-.28-.68-.1-1.41-.16-2.2-.16-.6.4-1.18.78-1.75 1.12-.2.12-.39.24-.59.35l-.54.3c-.18.11-.36.21-.54.3-.37.19-.74.36-1.11.52s-.73.3-1.1.42c-.18.06-.36.12-.55.17-.14.04-.28.08-.42.11-.2.05-.39.09-.58.13l-.19.03c-.32.06-.65.1-.98.12-.19.01-.39.02-.59.02h-.14c-.18 0-.35-.01-.53-.03-.12 0-.24-.02-.36-.03-.18-.02-.36-.04-.54-.08-.09-.01-.19-.03-.28-.05-.18-.03-.35-.07-.53-.11l-.1-.03c-.1-.02-.2-.05-.3-.08-.18-.05-.36-.11-.53-.17-.37-.12-.73-.26-1.1-.42-1.47-.63-2.94-1.53-4.53-2.59-.12 0-.24 0-.35.01m2.31 6.98c1.24.48 2.59.81 4.04.98v5.03"/><path fill="none" stroke="#000" stroke-width="2" stroke-linecap="round" stroke-linejoin="round" stroke-miterlimit="10" d="M38.92 57.97v-4.91c5.51-.34 9.52-2.79 10.98-7.02l-.51-.24c-.18-.07-.36-.14-.55-.21-.19-.06-.38-.12-.58-.18-.4-.11-.82-.2-1.26-.28-.68-.1-1.41-.16-2.2-.16-.6.4-1.18.78-1.75 1.12-.2.12-.39.24-.59.35-.18.11-.36.22-.54.3-.18.11-.36.21-.54.3-.37.19-.74.36-1.11.52s-.73.3-1.1.42a3.5 3.5 0 0 1-.55.17c-.14.04-.28.08-.42.11-.2.05-.39.09-.58.13l-.19.03c-.32.06-.65.1-.98.12-.19.01-.39.02-.59.02h-.14c-.18 0-.35-.01-.53-.03-.12 0-.24-.02-.36-.03-.18-.02-.36-.04-.54-.08-.09-.01-.19-.03-.28-.05-.21-.04-.42-.09-.63-.14-.1-.02-.2-.05-.3-.08-.18-.05-.36-.11-.53-.17-.37-.12-.73-.26-1.1-.42-1.47-.63-2.94-1.53-4.53-2.59-.12 0-.24 0-.35.01"/><path fill="none" stroke="#000" stroke-width="2" stroke-linecap="round" stroke-linejoin="round" stroke-miterlimit="10" d="M12.6 48.972c0-4.503 3.989-7.646 7.63-8.654 1.374-.38 2.84.032 3.78 1.103 2.198 2.501 6.047 7.995 4.59 14.55 0 0-9-9-11-9"/></svg>