<svg xmlns="http://www.w3.org/2000/svg" viewBox="0 0 72 72"><path fill="#D22F27" d="M33.976 42.69l.03 6.46.03 6.459-5.92-3.807-5.919-3.807 5.89-2.652z"/><circle fill="#EA5A47" cx="45" cy="27" r="23"/><path fill="#D22F27" d="M60.827 10.549a23.041 23.041 0 0 0-4.361-3.417c5.36 8.847 4.224 20.525-3.418 28.166s-19.32 8.778-28.166 3.418a23.042 23.042 0 0 0 3.417 4.36c8.982 8.982 23.545 8.982 32.528 0 8.982-8.982 8.982-23.545 0-32.527z"/><g fill="none" stroke="#000" stroke-miterlimit="10"><path stroke-width="2.122" stroke-linecap="round" stroke-linejoin="round" d="M34 47.21l.01 1.94.03 6.46-5.92-3.81L22.2 48l5.89-2.66 1.95-.88"/><circle stroke-width="2" cx="45" cy="27" r="23"/><path stroke-width="2" stroke-linecap="round" stroke-linejoin="round" d="M17.725 65.09c.505.04 1.026 0 1.547-.129 2.704-.664 4.41-3.457 3.812-6.238"/><path stroke-width="2" stroke-linecap="round" stroke-linejoin="round" d="M23.14 58.907a4.875 4.875 0 0 1-.258-1.53c-.024-2.785 2.26-5.13 5.102-5.237"/></g></svg>