<svg xmlns="http://www.w3.org/2000/svg" viewBox="0 0 72 72"><path fill="#fcea2b" d="M36 27.737l5.248 16.151H58.23L44.49 53.87l5.248 16.15L36 60.04l-13.739 9.982L27.51 53.87l-13.74-9.982h16.982z"/><path fill="#ea5a47" d="M56 8.98V2.02H16v6.96l20 14.757z"/><g fill="none" stroke="#000" stroke-width="2" stroke-linecap="round" stroke-linejoin="round" stroke-miterlimit="10"><path d="M36 27.737l5.248 16.151H58.23L44.49 53.87l5.248 16.15L36 60.04l-13.739 9.982L27.51 53.87l-13.74-9.982h16.982zm0-8.673V2.021M56 8.98V2.02H16v6.96l20 14.757z"/><path d="M36 27.737l5.248 16.151H58.23L44.49 53.87l5.248 16.15L36 60.04l-13.739 9.982L27.51 53.87l-13.74-9.982h16.982zm0-8.673V2.021M56 8.98V2.02H16v6.96l20 14.757z"/></g></svg>