<svg xmlns="http://www.w3.org/2000/svg" viewBox="0 0 72 72"><path fill="#6A462F" d="M57.63 26.169v6.052l-1.03 9.437 2.422 10.164s.19 7.099 7.774 4.845l-1.335-1.88-2.027-6.065s-.143-9.432-.135-9.83c.007-.397-.613-6.671-.613-6.671l-2.139-4.543-2.917-1.51z"/><path fill="#A57939" d="M10.81 13.287l.5 1.858-1.172 2.532-1.38 2.772-3.07 6.113 1.428 2.206h3.347l1.6-2.706 2.458-.569.95-.74 1.43 3.122 2.842 3.768.593 4.103.966 3.837 2.43 2.71 2.421 1.556 2.339 8.592.958 6.48-.463 2.95.726 1.584 2.219-.564 1.244-3.181-.64-4.923-.717-5.538.331-6.648 9 .399 4.31-2.19 1.815-.435 2.113-1.125 2.45 4.677 2.741 4.198.642 2.56-1.06 6.642-1.277 3.705.637 2.136 2.478-.612 1.755-5.04 1.418-6.366.32-2.988-2.893-6.504 3.534-4.521s2.205-3.762-1.608-10.7l-5-1.5-5.632.458-5.814 1.123-8.696-.34-3.426-.807-5.308-6.48-5.271-3.043-3.592-1.312-2.51-1.619-2.467.37"/><path fill="#6A462F" d="M21.875 41l.65 6.214 1.508 3.036-1.133 6.472-1.025 3.903 1.079 1.571 2.258-.617s1.876-1.642 1.876-2.017 2-7.187 2-7.187l-1.938-6.902-1.669-2.66L21.875 41z"/><g fill="none" stroke="#000" stroke-width="2" stroke-linecap="round" stroke-linejoin="round" stroke-miterlimit="10"><path d="M16.313 22.625c-.264 3.606-4.25 3.438-4.25 3.438l-1.572 1.736c-1.303 2.826-4.803.826-4.803-1.236 1.507-3.415 3.062-5.75 3.062-5.75-.125-2.792 3.313-4.625 3.313-4.625l-1.278-1.772a.907.907 0 0 1 .641-1.455c1.253-.119 3.615-.146 4.574 1.977 0 0 8.865.932 13.957 10.432.238.445 9.876 2.308 16.074.443 4.284-1.29 17.052-2.063 17.281 10.5.117 6.406-1.251 15.1 2.999 19.52"/><path d="M59.188 37.016c-.442 1.63-1.22 3.426-2.589 4.642 0 0 1.096 4.786 3.172 6.804L57.06 60.63l-1.062 1.927a1.737 1.737 0 0 1-1.521.899h0c-1.252 0-2.096-1.277-1.594-2.424.968-2.212 2.16-5.956 2.39-11.3 0 0-7.266-10.206-5.652-15.742m-31.845-6.5l2.669 5.634s-1.153 6.343 3.287 9.168l2.421 1.557 2.514 9.234.916 6.834-.483 1.212a1.697 1.697 0 0 0 1.575 2.326h0c.713 0 1.35-.446 1.594-1.115l.747-2.045c.24-.658.298-1.368.169-2.056l-1.33-7.089-.16-8.684s8.117 2.784 14.829-2.404m-23.012 7.152l.604 4.42-1.741 7.287-.367.919a1.838 1.838 0 0 0 1.706 2.52h0c.734 0 1.397-.437 1.687-1.11l.79-1.832"/></g></svg>