<svg xmlns="http://www.w3.org/2000/svg" viewBox="0 0 72 72"><path fill="#E27022" d="M47.254 44.375l2.658 2.696 5.591 1.246-1.29 4.058.75 3.218 2.208-.714 2.625-4.978 1.208-5.155-3.385-5.131c-1.79-1.403-2.273-3.538-3.49-5.782l-6.875 10.542zm-16.306-.584l-1.819 2.842-1.583 7.534-1.601 1.754-2.94-1.088-.334-5.25s.5-4.51 1-6.547c.5-2.036 5.333-2.366 5.333-2.366l1.944 3.121z"/><path fill="#F4AA41" d="M50.8 29.277zm.954 1.231l-.284-.367.284.367zm-.284-.367l-.67-.864.67.864zM67.588 16.75l-2.667-.557-4.29 1.557-.729 4.406-.374 3.14-3.25 3.822-2.645 1.549-1.761.005c-.04-.054-.075-.11-.118-.164h-3.288l-5.324-2.035-5.971-2.085-9.892.54-6.441 1.239-6.324-2.755-4.26-2.829-3.623.74.218.425 1.532 2.99-3.318 5.101.941 4.237 5.09.118h2.077l3.288-.118-.411 2.59 1.11 2.738-1.11 1.983-3.71 2.949-.486 4.093 2.798 3.29s3.938-.313 2.344-4.577l2.799-2.733 4.746-1.235 1.974-1.216 4.435.788h8.41l2.13 3.404-1.424 4.683.095 2.76 2.556-.27 2.948-3.93 1.937-2.57v-3.49l3.639-3.572 2.349-4.939s.02-.138.033-.376l.012.016s6.106-3.003 8.33-7.525c2.187-4.446-.252-8.125 4.437-8.312 1.355-.054 2.75-2.25 1.188-3.875z"/><g fill="none" stroke="#000" stroke-width="2" stroke-linecap="round" stroke-linejoin="round" stroke-miterlimit="10"><path d="M12.465 35.739c-2.334 1-4.917.833-4.917.833-1.677.146-3.115-4.01-2.485-4.733l3.318-5.1-1.75-3.417s5.009-1.415 7.883 2.09c.344.42.794.743 1.28.987l.09.046c2.594 1.289 5.547 1.571 8.385.998 7.223-1.458 14.072-1.37 21.696 2.213 7.624 3.583 14.833-2.25 13.937-7.5-.793-4.648 3.563-7.584 6.75-5M16.048 48.822c.6-2.205 8.491-3.648 8.491-3.648s3.228-1.2 1.427-4.504"/><path d="M18.298 33.239c-1.543 1.834-3.893 4.803-.44 9.158 0 0-6.757 2.852-6.006 8.032 0 0 .362 2.477 2.402 2.403m9.241-2.806c-1.155 7.255 2.386 6.055 3.017 5.66 1.148-.716 1.848-9.853 3.953-11.312 1.592-1.103 8.166-.302 8.166-.302m-.186-2.746c.09 1.742.753 3.402 1.734 4.845.661.972 1.803 2.32 1.452 2.984-4.479 8.5.623 7.023 1.084 6.167 3.187-5.917 6.125-4.104 4.646-10.523 0 0 5.27-1.81 5.52-7.977"/><path d="M48.152 45.593s2.367 3.204 7.758 2.693c0 0-3.326 6.762 0 7.62 1.916.494 4.721-11.16 4.721-11.16s-2.666-2.45-3.583-4.366"/></g></svg>