<svg xmlns="http://www.w3.org/2000/svg" viewBox="0 0 72 72"><path fill="#B1CC33" d="M24.893 49v-7.227s-10.76-4.065-8.608-11.924S28 22 30.902 23.887c6.499 4.226 4.753 17.616 4.753 17.616L36 43.97"/><path fill="#5C9E31" d="M32 59c-3.095-3.248-6.473-11.187-6.473-11.187l10.642-5.328S40.02 47.788 42 49L32 59zm15 0s9-1 10-5-7-4-8-4"/><path fill="#B1CC33" d="M32 57l8.631-8.05s7.373.172 9.369.05l-3 10-15-2z"/><path d="M22.025 22.608L21 19m5.519 3.187L28 18m30.354 33.146l-.708.708M25 46v-4.75s-10-3.75-8-11 7.167-8.75 13.583-5.5S35 41 35 41m-9.514 7.255s1.123 4.531 4.278 7.31L29 57m7.238-13.843s.897 3.033 2.862 4.1m-13.574 1.539l-1.519.949m3.161 2.942l-1.299 1.123m15.761-4.921s3.055.814 5.05.692m-14.65 9.915l.895-2.059s1.42.592 4.011 1c1.86.294 4.325.493 7.301.31l.123 1.997m-3.113-.811l.061.998m-3.174-1.809l.122 1.996m-2.935-2.826l-.178 2.015M48 59s8-1 9-5-6-4-7-4m-.898 9.014l.136 1.247m3.751-2.224l.362 1.201m2.446-3.105l.747 1.008" fill="none" stroke="#000" stroke-width="2" stroke-linecap="round" stroke-linejoin="round" stroke-miterlimit="10"/></svg>