<svg xmlns="http://www.w3.org/2000/svg" viewBox="0 0 72 72"><path fill="#D0CFCE" stroke="#D0CFCE" stroke-width="1.8" stroke-miterlimit="10" d="M32 29.96s-20-15.924-20-3.982 7 5.971 9 9.952 5 .995 5 .995L31 40m9-10s20-16 20-4-7 6-9 10-5 1-5 1l-5 3"/><ellipse fill="#FCEA2B" cx="36" cy="27" rx="4" ry="3"/><ellipse fill="#A57939" cx="36" cy="32" rx="4" ry="2"/><path fill="#FCEA2B" d="M35 34.167C22.312 34.789 36 53 36 53s16-19.667-1-18.833z"/><g fill="none" stroke="#000" stroke-width="2" stroke-linecap="round" stroke-linejoin="round" stroke-miterlimit="10"><path d="M34 23.583L32 20m6.333 3.667L40 20"/><ellipse cx="36" cy="27" rx="4" ry="3"/><ellipse cx="36" cy="32" rx="4" ry="2"/><path d="M35 34.167C22.312 34.789 36 53 36 53s16-19.667-1-18.833zM32 30s-20-16-20-4 7 6 9 10 5 1 5 1"/><path d="M46 37s3 3 5-1 9 2 9-10-20 4-20 4"/></g></svg>