<svg xmlns="http://www.w3.org/2000/svg" viewBox="0 0 72 72"><path fill="#5C9E31" stroke="#5C9E31" stroke-miterlimit="10" d="M40 46s7 0 9-1 3.563.688 3.563.688C53.124 44.374 52 43 52 43c4 2 6 0 6 0 3 0 3-12-5-13s-8 9-8 9l-2 1s0 2-3 6z"/><path fill="#B1CC33" d="M43 39s-9-9-19-5-9 14-9 14 7 5 16 2 10.125-5.625 10.125-5.625S43 43 43 39"/><path fill="#A57939" d="M20.16 51.067l-7.173 2.56s3.806 3.242 7.86 2.493 4.303-4.742 4.303-4.742l-4.99-.31m13.778-2.193L37 55s5 1 8 0-5.375-8.125-7.688-7.563"/><path fill="#5C9E31" stroke="#5C9E31" stroke-miterlimit="10" d="M30.945 39.523L23 42s0 2-1 4 11 1 13-2l-4.055-4.477z"/><g fill="none" stroke="#000" stroke-width="2" stroke-linecap="round" stroke-linejoin="round" stroke-miterlimit="10"><path d="M40 46s7 0 9-1 3.563.688 3.563.688C53.124 44.374 52 43 52 43c4 2 6 0 6 0 3 0 3-12-5-13s-8 9-8 9l-2 1s0 2-3 6z"/><path d="M43 39s-9-9-19-5-9 14-9 14 7 5 16 2 10.125-5.625 10.125-5.625S43 43 43 39m-27 5.466S30.423 53.293 41 38m-19 8s3-4.375-4-7"/><path d="M23 42l7.945-2.477L32 34m2.75 9.5L31 40M20.16 51.067l-7.173 2.56s3.806 3.242 7.86 2.493 4.303-4.742 4.303-4.742l-4.99-.31m13.778-2.193L37 55s5 1 8 0-5.375-8.125-7.688-7.563"/></g></svg>