<svg xmlns="http://www.w3.org/2000/svg" viewBox="0 0 72 72"><path fill="#3F3F3F" d="M31 25s24-15 33 9c0 0 2 4-16 4 0 0-2 5-9 5 0 0-2 0 1-5 0 0-10-.5-15.5 9.75 0 0 6.5 6.25 2.5 6.25s-5-1-5-1-1 5-6 7c0 0-.667-7.667 3.667-10.833C19.667 49.167 19 33 31 25"/><path fill="#FFF" d="M63 35s-3.5-.167-5.75-.583c-2.25-.417-3.879-1.364-8.064-.39S46 35 46 35l3 3"/><path fill="none" stroke="#000" stroke-width="2" stroke-linecap="round" stroke-linejoin="round" stroke-miterlimit="10" d="M40 16l-3-9m6.571 9.947s-.892-8.198 1.808-5.808m-7.111 7.457s-5.2-6.399-5.4-2.799"/><circle cx="47" cy="13" r="1"/><path fill="none" stroke="#000" stroke-width="2" stroke-linecap="round" stroke-linejoin="round" stroke-miterlimit="10" d="M31 25s24-15 33 9c0 0 2 4-16 4 0 0-2 5-9 5 0 0-2 0 1-5 0 0-10-.5-15.5 9.75 0 0 6.5 6.25 2.5 6.25s-5-1-5-1-1 5-6 7c0 0-.667-7.667 3.667-10.833C19.667 49.167 19 33 31 25"/><path fill="none" stroke="#000" stroke-width="2" stroke-linecap="round" stroke-linejoin="round" stroke-miterlimit="10" d="M63 35s-3.5-.167-5.75-.583c-2.25-.417-3.879-1.364-8.064-.39S46 35 46 35l3 3"/></svg>