<svg xmlns="http://www.w3.org/2000/svg" viewBox="0 0 72 72"><path fill="none" d="M51 47.424V33.137"/><g fill="#fcea2b"><path d="M39.01 44.16c-.26 1.94-2.04 5.52-3.97 5.26a3.7 3.7 0 0 1-.82-.23c.66-2.43 4.3-6.22 4.8-7.52l-.01 1.56c.04.31.04.63 0 .93zm-6.94-18.43l-.01.96h.01c.04-.33.04-.65 0-.96zm7-.9v.92c.04-.31.04-.63 0-.92z"/><path d="M50.65 29.34c-.16-.12-1.37-.43-1.37-.43l-2.17-.01c-.47-.22-1.04-1.06-1.04-3.21a3.53 3.53 0 0 0-3.03-3.97 3.53 3.53 0 0 0-3.97 3.03v.08c.04.29.04.61 0 .92v-.92a3.522 3.522 0 0 0-3.03-3.04 3.53 3.53 0 0 0-3.97 3.03v.91c.04.31.04.63 0 .96h-.01l.01-.96a3.553 3.553 0 0 0-3.03-3.01 3.53 3.53 0 0 0-3.97 3.97v1h-.06c.25-1.94-1.1-3.71-3.04-3.97a3.52 3.52 0 0 0-3.96 3.03c-.05.31-.05.63 0 .94h-.03l.03 8.61a3.535 3.535 0 0 0 3.03 3.97c1.93.25 3.71-1.1 3.97-3.04.01-.09.02-.18.02-.28l-.02 4.28a3.535 3.535 0 0 0 3.03 3.97c.94.13 1.84-.13 2.55-.65.17-.34.47-.69.92-1.01.26-.41.43-.87.5-1.38v1.07c-.18.1-.35.21-.5.31-.23.4-.55.74-.92 1.01-.92 1.87 1.82 3.95 3.63 4.64-.12.46-.14.87-.01 1.2.63 1.61 7.05-.2 8.05-.15 2.12.1 8.86-1.9 8.92-2.28.04-.31.04-6.41 0-6.72.14-1.63.93-10.76-.53-11.9zm-25.62 7.25c0-.09-.01-.19-.02-.29l.02-.22v.51zm6.98 5.5l.01-2.67c.03.69.02 2.26-.01 2.67zm.01-2.76c0-.1 0-.17-.01-.21l.04-8.54-.03 8.75z"/><path d="M31.51 43.54c-.23.4-.55.74-.92 1.01.17-.34.47-.69.92-1.01zm.51-4.12c.03.69.02 2.26-.01 2.67l.01-2.67z"/><path d="M31.51 43.54c-.23.4-.55.74-.92 1.01.17-.34.47-.69.92-1.01zm.5-1.45l.01-2.67c.03.69.02 2.26-.01 2.67zm.06-15.4h-.01l.01-.96c.04.31.04.63 0 .96zm7-.94v-.92c.04.29.04.61 0 .92zM51 47.424a4.308 4.308 0 0 1-4.236 3.993h-10L51 47.424zm-14.236 3.993c-2.023 0-7.832 3.57-6.647-6.187l6.647 6.187zM51 33.137c0-1.492 0-3.233-1.579-3.233L51 33.137z"/></g><g fill="none" stroke="#000" stroke-width="2" stroke-linecap="round" stroke-linejoin="round"><path d="M39.069 36v5.443a3.531 3.531 0 1 0 7 0V25.687m-28.094 2l.032 8.613a3.531 3.531 0 1 0 7 0v-1.03"/><path d="M31.975 32l.032 11.231a3.531 3.531 0 1 0 7 0l.062-12.168"/><path d="M25.038 32.563l-.031 8.668a3.531 3.531 0 0 0 7 .934c.04-.31.04-2.73 0-3.04V35.27m-7.001-7.583a3.531 3.531 0 1 0-7 0m28.063-2.001a3.531 3.531 0 0 0-7-.933m-7 1.934a3.531 3.531 0 1 0-7 0m14-.933a3.531 3.531 0 0 0-7-.934M51 47.424a4.308 4.308 0 0 1-4.236 3.993h-10M51 47.424V33.137"/><path stroke-miterlimit="10" d="M36.764 51.417c-2.023 0-5.737.473-5.737-2.39M51 33.137c0-1.492 0-3.233-1.579-3.233"/></g></svg>