<svg xmlns="http://www.w3.org/2000/svg" viewBox="0 0 72 72"><path d="M40.622 31.518s5.428 2.913 11.683 0c-.037-6.9-5.73-10.563-5.73-10.563s-5.916 3.663-5.953 10.563zm-19.927 0s5.428 2.913 11.683 0c-.037-6.9-5.73-10.563-5.73-10.563s-5.915 3.663-5.953 10.563zm15.8 15.057H23.943s4.637 2.883 7.565 6.496a71.026 71.026 0 0 1 4.987 7.01h.046s2.06-3.397 4.988-7.01c2.928-3.613 7.564-6.496 7.564-6.496H36.541" fill="#B399C8" stroke-width="2" stroke-linecap="round" stroke-linejoin="round" stroke-miterlimit="10"/><path d="M40.622 31.518s5.428 2.913 11.683 0c-.037-6.9-5.73-10.563-5.73-10.563s-5.916 3.663-5.953 10.563zm-19.927 0s5.428 2.913 11.683 0c-.037-6.9-5.73-10.563-5.73-10.563s-5.915 3.663-5.953 10.563zm14.867.299h1.876M26.537 10.958v6.344m19.926-6.344v6.344m-9.968 29.273H23.943s4.637 2.883 7.565 6.496a71.026 71.026 0 0 1 4.987 7.01h.046s2.06-3.397 4.988-7.01c2.928-3.613 7.564-6.496 7.564-6.496H36.541" fill="none" stroke="#000" stroke-width="2" stroke-linecap="round" stroke-linejoin="round" stroke-miterlimit="10"/></svg>