<svg xmlns="http://www.w3.org/2000/svg" viewBox="0 0 72 72"><g fill="#3F3F3F" stroke-width="2" stroke-linecap="round" stroke-linejoin="round" stroke-miterlimit="10"><path d="M21.039 49.154c-.981-6.527-10.253-25.948-10.198-27.974.159-5.812 13.708-6.908 14.634-3.276.788 3.097 3.025 21.57 6.45 28.813 1.22 2.849-1.22 5.989-4.225 6.662-3.006.672-5.888-.766-6.661-4.225z"/><circle cx="6.57" cy="16.726" r="2"/><ellipse transform="rotate(-27.285 12.171 11.681)" cx="12.17" cy="11.681" rx="2" ry="2"/><ellipse transform="rotate(-30 19.637 10.354)" cx="19.637" cy="10.353" rx="2" ry="2"/><circle cx="27.203" cy="11.681" r="2"/><path d="M51.207 61.154c.98-6.527 10.253-25.948 10.197-27.974-.158-5.812-13.708-6.908-14.633-3.275-.789 3.096-3.025 21.57-6.45 28.813-1.22 2.848 1.219 5.988 4.225 6.66 3.006.674 5.887-.765 6.661-4.224z"/><circle cx="65.676" cy="28.726" r="2"/><ellipse transform="rotate(-62.715 60.077 23.682)" cx="60.075" cy="23.681" rx="2" ry="2"/><ellipse transform="rotate(-60 52.61 22.354)" cx="52.608" cy="22.353" rx="2" ry="2"/><circle cx="45.043" cy="23.681" r="2"/></g><g fill="none" stroke="#000" stroke-width="2" stroke-linecap="round" stroke-linejoin="round" stroke-miterlimit="10"><path d="M21.039 49.154c-.981-6.527-10.253-25.948-10.198-27.974.159-5.812 13.708-6.908 14.634-3.276.788 3.097 3.025 21.57 6.45 28.813 1.22 2.849-1.22 5.989-4.225 6.662-3.006.672-5.888-.766-6.661-4.225z"/><circle cx="6.57" cy="16.726" r="2"/><ellipse transform="rotate(-27.285 12.171 11.681)" cx="12.17" cy="11.681" rx="2" ry="2"/><ellipse transform="rotate(-30 19.637 10.354)" cx="19.637" cy="10.353" rx="2" ry="2"/><circle cx="27.203" cy="11.681" r="2"/><path d="M51.207 61.154c.98-6.527 10.253-25.948 10.197-27.974-.158-5.812-13.708-6.908-14.633-3.275-.789 3.096-3.025 21.57-6.45 28.813-1.22 2.848 1.219 5.988 4.225 6.66 3.006.674 5.887-.765 6.661-4.224z"/><circle cx="65.676" cy="28.726" r="2"/><ellipse transform="rotate(-62.715 60.077 23.682)" cx="60.075" cy="23.681" rx="2" ry="2"/><ellipse transform="rotate(-60 52.61 22.354)" cx="52.608" cy="22.353" rx="2" ry="2"/><circle cx="45.043" cy="23.681" r="2"/></g></svg>