<svg xmlns="http://www.w3.org/2000/svg" viewBox="0 0 72 72"><g fill="#FCEA2B"><path d="M33.722 41.385l-1.95-19.007c-.114-2.3-2.505-4.17-4.755-4.192h-5.999c-2.249.022-4.787 1.832-4.902 4.131L14.513 41.76c-.006.13.899.787.846.906l2.47-1.04-.25 20.653c-.033.315.596.581.788.83.038.048.092.08.152.09.214 0 .657-.428.736-1.126l2.541-22.534a4.93 4.93 0 0 1 .352-1.341l.984-.623h1.625l1.177.736c.154.394.257.807.306 1.228l2.06 22.68c.079.698 1.002.982 1.216.982a.242.242 0 0 0 .152-.09c.193-.248 1.04-.577 1.008-.893l-.244-20.65 3.655.913c-.072-.134-.358-.943-.365-1.096z"/><circle cx="24.033" cy="10.68" r="2.969"/><path d="M38.227 41.383l1.95-19.007c.114-2.299 2.505-4.17 4.755-4.192h5.999c2.25.022 4.787 1.832 4.902 4.132l1.603 19.442c.006.13-.899.788-.846.906l-2.47-1.04.25 20.654c.033.315-.596.581-.788.83a.241.241 0 0 1-.152.09c-.214 0-.657-.428-.736-1.126l-2.541-22.534a4.93 4.93 0 0 0-.352-1.341l-.984-.624h-1.624l-1.178.737a4.966 4.966 0 0 0-.306 1.228l-2.06 22.68c-.079.698-1.002.981-1.216.981a.242.242 0 0 1-.152-.09c-.193-.248-1.04-.577-1.008-.892l.244-20.651-3.655.913c.072-.134.358-.943.365-1.096z"/><circle cx="47.916" cy="10.678" r="2.969"/></g><g fill="none" stroke="#000" stroke-width="2"><circle stroke-miterlimit="10" cx="24.041" cy="10.68" r="2.969"/><path stroke-linecap="round" stroke-linejoin="round" d="M29 24c-2.352 3.533-.677 6.107-.032 8 .459 1.345.756 4.2.898 5.614.6 5.976 1.002 24.004 1.002 24.004.055 1.1-.575 2-1.4 2a2.076 2.076 0 0 1-1.729-1.987L25.2 39.6c-.126-1.093-.679-1.987-1.229-1.987s-1.1.894-1.229 1.987L20.2 61.631a2.076 2.076 0 0 1-1.729 1.987c-.825 0-1.455-.9-1.4-2 0 0 .523-17.841 1.073-23.763.137-1.472.371-4.449.827-5.855.618-1.902 2.416-4.74.029-8"/><path stroke-linecap="round" stroke-linejoin="round" d="M14.968 42l.792-19a5.274 5.274 0 0 1 5.208-5h6a5.274 5.274 0 0 1 5.208 5s-.264 6.95-.05 9.254c.228 2.47 2.175 9.767 2.175 9.767"/><circle stroke-miterlimit="10" cx="47.909" cy="10.678" r="2.969"/><path stroke-linecap="round" stroke-linejoin="round" d="M42.95 23.999c2.351 3.533.676 6.107.03 8-.458 1.345-.754 4.2-.897 5.613-.6 5.976-1.002 24.005-1.002 24.005-.055 1.1.575 2 1.4 2a2.076 2.076 0 0 0 1.729-1.987l2.539-22.031c.126-1.093.679-1.987 1.229-1.987s1.1.894 1.229 1.987l2.542 22.03c.028.99.752 1.823 1.729 1.988.825 0 1.455-.9 1.4-2 0 0-.523-17.842-1.073-23.763-.137-1.472-.37-4.45-.827-5.855-.617-1.903-2.416-4.74-.029-8"/><path stroke-linecap="round" stroke-linejoin="round" d="M56.98 41.999l-.791-19a5.274 5.274 0 0 0-5.208-5h-6a5.274 5.274 0 0 0-5.208 5s.264 6.95.051 9.254c-.229 2.47-2.176 9.767-2.176 9.767"/></g></svg>