<svg xmlns="http://www.w3.org/2000/svg" viewBox="0 0 72 72"><g fill="#FCEA2B"><path d="M55.752 41.756l-.792-19.439c-.114-2.3-1.959-4.11-4.209-4.131h-6c-2.25.022-4.094 1.832-4.209 4.131L38.245 41.76c-.006.13.182.73.13.848l4.2-2.51-.932 22.111c-.033.315.264.652.456.9.038.048.093.08.153.09.213 0 .656-.428.735-1.125l2.542-22.535c.054-.462.173-.914.352-1.341l.984-.623h1.625l.725.805c.154.394.353.771.403 1.192l2.898 22.503c.08.7.521 1.126.735 1.126a.242.242 0 0 0 .152-.09c.193-.248.283-.564.25-.879l-.713-22.133 2.933 2.094a1.02 1.02 0 0 1-.12-.437z"/><circle cx="47.672" cy="10.68" r="2.969"/><path d="M17.202 42.164l2.934-2.094-.714 22.133c-.032.315.058.63.25.88a.25.25 0 0 0 .152.09c.214 0 .656-.428.735-1.126l2.899-22.504c.05-.42.249-.798.403-1.192l.724-.805h1.625l.984.623c.18.428.298.88.352 1.341l2.542 22.535c.08.698.522 1.125.736 1.125a.242.242 0 0 0 .152-.09c.192-.248.49-.585.457-.9L30.5 40.07l4.2 2.509c-.053-.119.136-.718.13-.848l-2.298-19.443c-.115-2.299-1.959-4.11-4.209-4.131h-6c-2.25.022-4.094 1.832-4.209 4.131l-.792 19.44a1.017 1.017 0 0 1-.12.436z"/><circle cx="25.404" cy="10.651" r="2.969"/></g><g fill="none" stroke="#000" stroke-width="2"><circle stroke-miterlimit="10" cx="47.672" cy="10.68" r="2.969"/><path stroke-linecap="round" stroke-linejoin="round" d="M52.703 23.618l1.9 38c.055 1.1-.575 2-1.4 2a2.076 2.076 0 0 1-1.73-1.987L48.936 39.6c-.126-1.093-.68-1.987-1.23-1.987s-1.1.894-1.228 1.987l-2.542 22.031a2.076 2.076 0 0 1-1.73 1.987c-.824 0-1.454-.9-1.4-2l1.9-38"/><path stroke-linecap="round" stroke-linejoin="round" d="M37.734 42s1.254-7.567 1.478-10.111c.204-2.31.283-9.271.283-9.271a5.274 5.274 0 0 1 5.208-5h6a5.274 5.274 0 0 1 5.208 5l.792 19"/><circle stroke-miterlimit="10" cx="25.404" cy="10.651" r="2.969"/><path stroke-linecap="round" stroke-linejoin="round" d="M30.37 23.59l1.9 38c.055 1.1-.575 2-1.4 2a2.076 2.076 0 0 1-1.73-1.988l-2.54-22.03c-.13-1.094-.68-1.988-1.23-1.988s-1.102.894-1.228 1.987L21.6 61.602a2.076 2.076 0 0 1-1.728 1.987c-.825 0-1.455-.9-1.4-2l1.9-38"/><path stroke-linecap="round" stroke-linejoin="round" d="M16.373 41.59l.792-19a5.274 5.274 0 0 1 5.208-5h6a5.274 5.274 0 0 1 5.208 5s.079 6.96.282 9.27c.224 2.545 1.478 10.111 1.478 10.111"/></g></svg>