<svg xmlns="http://www.w3.org/2000/svg" viewBox="0 0 72 72"><path fill="#D0CFCE" d="M56.784 32.378c0 5.478-1.672 11.05-4.2 15.913C51.95 49.511 50.73 49.881 50 51c-.608.932-.713 2.63-1.37 3.476C44.637 59.609 39.868 63 36 63c-3.827 0-8.535-3.319-12.502-8.36-.682-.867.132-2.68-.498-3.64-.531-.81-2.515-.755-2.998-1.621-2.852-5.11-4.786-11.11-4.786-17.001C15.216 17.417 25.608 10 36 10s20.784 7.417 20.784 22.378z"/><path fill="#9B9B9A" d="M37 63c6-5 11.927-48.054 12-49 2.216 3.118 7.027 9.872 7.652 13.979 1.164 7.656-1.996 13.811-5.001 20.481C46 61 37 63 37 63"/><path fill="#3F3F3F" d="M22.627 42.348c1.993 3.7 5.344 5.712 7.486 4.494 2.142-1.217 2.263-5.204.27-8.904s-5.344-5.712-7.486-4.494-2.263 5.204-.27 8.904zm26.463 0c-1.994 3.7-5.345 5.712-7.487 4.494-2.142-1.217-2.263-5.204-.27-8.904s5.344-5.712 7.486-4.494c2.142 1.217 2.263 5.204.27 8.904z"/><g fill="none" stroke="#000" stroke-width="2" stroke-miterlimit="10"><path stroke-linecap="round" stroke-linejoin="round" d="M30.804 53.669c.43.405 2.334 2.11 5.102 1.927 2.245-.148 3.751-1.452 4.25-1.927"/><path d="M22.627 42.348c1.993 3.7 5.344 5.712 7.486 4.494 2.142-1.217 2.263-5.204.27-8.904s-5.344-5.712-7.486-4.494-2.263 5.204-.27 8.904z"/><path stroke-linecap="round" stroke-linejoin="round" d="M36 63c-10 0-13.51-11.778-13.51-11.778s-7.274-5.889-7.274-18.844C15.216 17.417 25.608 10 36 10s20.784 7.417 20.784 22.378c0 12.955-7.07 18.38-7.274 18.844C45.353 60.644 40.379 63 36 63z"/><path d="M49.09 42.348c-1.994 3.7-5.345 5.712-7.487 4.494-2.142-1.217-2.263-5.204-.27-8.904s5.344-5.712 7.486-4.494c2.142 1.217 2.263 5.204.27 8.904z"/></g></svg>