<svg xmlns="http://www.w3.org/2000/svg" viewBox="0 0 72 72"><path d="M51.423 19.365a5.047 5.047 0 0 1-1.964.378c-4.329.002-8.078 1.828-12.338 2.136-5.023.362-9.373-1.716-14.265-2.062a5.338 5.338 0 0 1-1.654-.378 5.351 5.351 0 0 1-1.255.265 22.537 22.537 0 1 0 31.477-.339z" fill="#ea5a47"/><path d="M57.408 27.453a7.356 7.356 0 0 1 5.985.813s.958-6.604-8.62-11.32l5.6-1.354-6.919-3.953A79.42 79.42 0 0 0 48 10.88V16s-4 0-5-1l.971-4.457C38 9 33 9 28.114 10.6L28 14c0 1-4 2-4 2l-1.615-4.921c-2.816.293-4.513.56-4.513.56l-5.93 3.953c1.977-.988 6.433.41 6.433.41s-8.62.944-10.536 13.207c0 0 3.832-2.83 6.705-2.83 0 0-10.536 3.774-6.705 20.754 0 0 1.916-4.717 4.79-5.66 0 0-3.832 8.49 5.746 17.924 0 0 1.505-4.314 2.463-5.258 0 0 1.338 8.088 7.085 9.031 0 0-.927-1.887.989-4.717A13.75 13.75 0 0 0 39.447 66s-1.654-6.964 3.135-7.907c0 0 1.654.36 1.654 4.134 0 0 5.265-4.314 5.265-8.088a5.69 5.69 0 0 1 4.314 4.314s4.55-4.854 3.593-16.174c0 0 4.07-1.75 6.943 3.91 0 .001 2.635-10.246-6.943-18.736zM58 40c-3 10-11 18-20 18s-23-5-24-15-2-14 5-23c0 0 13 1 18 2 0 0 13-4 16-2 0 0 8 10 5 20z" fill="#6a462f"/><path d="M28.653 12.211Q25.048 9.807 26.25 5c-5.609 1.603-4.807 8.012-2.404 12.018a5 5 0 0 0 4.807-4.807zm18.167 4.807C49.224 13.012 50.025 6.602 44.416 5q1.202 4.807-2.404 7.211a5 5 0 0 0 4.808 4.807z" fill="#d22f27"/><path fill="none" stroke="#000" stroke-linecap="round" stroke-linejoin="round" stroke-width="2" d="M48.875 24.646l-7.644 2.253m-23.359-15.26c-4.942 1.976-6.202 4.363-6.202 4.363s3.831-.943 6.705 0c0 0-8.62.944-10.536 13.207 0 0 3.831-2.83 6.705-2.83 0 0-10.537 3.774-6.705 20.754 0 0 1.915-4.717 4.789-5.66 0 0-3.831 8.49 5.747 17.924 0 0 1.505-4.314 2.462-5.258 0 0 1.339 8.088 7.086 9.031 0 0-.928-1.887.988-4.717A13.75 13.75 0 0 0 39.447 66s-1.654-6.964 3.135-7.907c0 0 1.654.36 1.654 4.134 0 0 5.265-4.314 5.265-8.088a5.69 5.69 0 0 1 4.314 4.314s4.55-4.854 3.593-16.174c0 0 4.07-1.75 6.943 3.91 0 0 2.635-10.246-6.943-18.736a7.356 7.356 0 0 1 5.985.813s.958-6.604-8.62-11.32c0 0 3.831-1.887 5.747-.944 0 0-4.732-3.328-6.887-3.846"/><path fill="none" stroke="#000" stroke-linecap="round" stroke-miterlimit="2" stroke-width="2" d="M31.396 43.223l-.491 3.482m9.884-3.482l.491 3.482"/><path fill="none" stroke="#000" stroke-linecap="round" stroke-linejoin="round" stroke-width="2" d="M30.095 26.899l-7.643-2.253m8.944-14.216a13.335 13.335 0 0 1 8.22 0m-11.86 31.849h16.803"/><path d="M30.03 31.494a2.965 2.965 0 1 1-2.965-2.965 2.912 2.912 0 0 1 2.965 2.965m17.79 0a2.965 2.965 0 1 1-2.965-2.965 2.912 2.912 0 0 1 2.966 2.965"/><path d="M53.044 20.805a22.733 22.733 0 1 1-34.48-.326" fill="none" stroke="#000" stroke-linecap="round" stroke-miterlimit="10" stroke-width="2"/><path d="M18.568 20.483s4.977-1.294 9.188.051a22.343 22.343 0 0 0 7.86 1.134" fill="none" stroke="#000" stroke-linecap="round" stroke-linejoin="round" stroke-width="2"/><path d="M52.419 20.483s-4.978-1.294-9.189.051a22.343 22.343 0 0 1-7.86 1.134m-6.717-9.457Q25.048 9.807 26.25 5c-5.609 1.603-4.807 8.012-2.404 12.018 4.247.802 4.807-4.807 4.807-4.807zm18.167 4.807C49.224 13.012 50.025 6.602 44.416 5q1.202 4.807-2.404 7.211s.56 5.609 4.808 4.807z" fill="none" stroke="#000" stroke-linecap="round" stroke-linejoin="round" stroke-width="2"/></svg>