<svg xmlns="http://www.w3.org/2000/svg" viewBox="0 0 72 72"><path fill="#ea5a47" stroke="#ea5a47" stroke-miterlimit="10" d="M13 12h41v34l-1 5-3 4-3 4-3 2-4 2h-6l-7-1-5-2-3-3-3-4-2-3-1-6V12z"/><rect x="22.354" y="22.193" width="7.793" height="13" rx="3.537" fill="#fff" stroke="#fff" stroke-linecap="round" stroke-linejoin="round" transform="rotate(-50.815 26.25 28.693)"/><rect x="38.354" y="22.193" width="7.793" height="13" rx="3.537" fill="#fff" stroke="#fff" stroke-linecap="round" stroke-linejoin="round" transform="rotate(-129.185 42.25 28.693)"/><g fill="#d22f27"><path d="M34 42l10-6h17l1 1 1 1v3l-2 1H34z"/><rect x="34" y="36" width="14" height="6" rx="2.554"/></g><path fill="none" stroke="#000" stroke-linecap="round" stroke-linejoin="round" stroke-width="2" d="M13.187 43V12h41v21.201"/><path d="M54.105 44.85A20.5 20.5 0 0 1 13.188 43M41.5 51.541a20.571 20.571 0 0 0-15.627 0" fill="none" stroke="#000" stroke-linecap="round" stroke-miterlimit="10" stroke-width="2"/><path d="M31.317 29.925a3 3 0 1 1-3-3 3.001 3.001 0 0 1 3 3m12 0a3 3 0 1 1-3-3 3.001 3.001 0 0 1 3 3"/><path fill="none" stroke="#000" stroke-linecap="round" stroke-linejoin="round" stroke-width="2" d="M23 18l7 6m15-6l-7 6m15.059 12H36.941M58 36h-4.882m1.07 6H59s4 0 4-3a2.938 2.938 0 0 0-3-3h-2m-24 6h20.188M34 46s4-3 8 0a6.423 6.423 0 0 0 2.615 1.264m-11-1.264s-4-3-8 0A6.423 6.423 0 0 1 23 47.264"/></svg>