<svg xmlns="http://www.w3.org/2000/svg" viewBox="0 0 72 72"><path d="M18.735 52.938H9s1.77 7.965 6.195 8.85 11.504 0 11.504 0zm34.513 0h9.734s-1.77 7.965-6.194 8.85-11.505 0-11.505 0z" fill="#d0cfce"/><path d="M16.08 53.823a11.712 11.712 0 0 0 5.31 7.08l1.342 1.163 3.968-.278s-7.925-8.091-7.503-8.913zm39.823 0a11.712 11.712 0 0 1-5.31 7.08l-1.342 1.163-3.968-.278s7.925-8.091 7.502-8.913z" fill="#9b9b9a"/><ellipse cx="35.905" cy="42.684" rx="18.644" ry="20.733" transform="rotate(-.723 35.905 42.686)" fill="#fcea2b"/><path d="M34.664 22.85h5.31c1.344.033-1.871 11.503-5.31 7.965-.836-.86 1.068-5.256 0-7.965z" fill="#f1b31c"/><ellipse cx="36.876" cy="16.212" rx="16.372" ry="2.212" fill="none" stroke="#000" stroke-miterlimit="10" stroke-width="2"/><path d="M19.197 52.875H9s1.609 8.913 8.044 8.913h10.517" fill="none" stroke="#000" stroke-miterlimit="10" stroke-width="2"/><ellipse cx="35.991" cy="42.982" rx="18.879" ry="21.018" fill="none" stroke="#000" stroke-miterlimit="10" stroke-width="2"/><path d="M52.763 52.875h10.196s-1.609 8.913-8.044 8.913H44.398" fill="none" stroke="#000" stroke-miterlimit="10" stroke-width="2"/><path d="M39.974 22.85s1.77 1.77-.885 6.195-7.965 2.655-7.965 2.655 3.93-.388 4.425-3.54c0 0 .885-2.655-1.77-5.31" fill="none" stroke="#000" stroke-linecap="round" stroke-miterlimit="10" stroke-width="2"/><path d="M31.904 41.839A2.839 2.839 0 1 1 29.065 39a2.847 2.847 0 0 1 2.839 2.839m13.624 0A2.839 2.839 0 1 1 42.69 39a2.847 2.847 0 0 1 2.84 2.839"/><path d="M31.409 52.74c-.047.01 5.015 2.83 9.591 0" fill="none" stroke="#000" stroke-linecap="round" stroke-miterlimit="10" stroke-width="2"/></svg>