<svg xmlns="http://www.w3.org/2000/svg" viewBox="0 0 72 72"><path fill="#D0CFCE" stroke="#D0CFCE" stroke-width="1.8" stroke-linejoin="round" stroke-miterlimit="10" d="M46.589 25.622l-.78-.78a1.003 1.003 0 0 1 0-1.414l8.115-8.116a1.003 1.003 0 0 1 1.415 0l.78.78a1.003 1.003 0 0 1 0 1.415l-8.116 8.115a1.003 1.003 0 0 1-1.414 0z"/><path fill="#FFF" d="M50.407 23.753l-3.902-3.903a1.014 1.014 0 0 0-1.428 0L22.035 42.892a1.001 1.001 0 0 0 0 1.418l3.902 3.902"/><path fill="#D0CFCE" d="M50.984 18.209l3.12-3.045c.31-.302.877-.228 1.261.166l.77.79c.385.393.446.962.136 1.265l-2.995 2.923"/><path fill="none" d="M52.871 12.871l6.258 6.258"/><path fill="#FFF" d="M46.505 19.85a1.014 1.014 0 0 0-1.428 0L22.035 42.892a1.001 1.001 0 0 0 0 1.418l3.902 3.902.574-.573 16.091-16.082 7.805-7.804-3.902-3.903z"/><path fill="#EA5A47" d="M44.523 33.408l-15.98 15.981a1.002 1.002 0 0 1-1.419 0l-1.187-1.177.574-.573 1.82 1.82 16.082-16.092"/><path fill="#D0CFCE" d="M44.413 33.368l-1.81-1.81 7.804-7.805 1.177 1.177a1.001 1.001 0 0 1 0 1.418l-7.06 7.06"/><path fill="#D22F27" d="M44.413 33.368L28.33 49.459l-1.82-1.82 16.091-16.082z"/><path fill="#EA5A47" d="M22.066 43.196L38.16 27.112l4.441 4.444L26.507 47.64z"/><path fill="none" d="M50.96 23.189l-.553.564m-10.329 6.854l.658.658"/><g fill="none" stroke="#000" stroke-width="2" stroke-linejoin="round" stroke-miterlimit="10"><path d="M50.407 23.753l-3.902-3.903a1.014 1.014 0 0 0-1.428 0L22.035 42.892a1.001 1.001 0 0 0 0 1.418l3.902 3.902"/><path stroke-linecap="round" d="M24.58 46.86l-13.2 13.19m39.604-41.841l3.12-3.045c.31-.302.877-.228 1.261.166l.77.79c.385.393.446.962.136 1.265l-2.995 2.923m-.405-7.437l6.258 6.258"/><path d="M50.407 23.753l1.177 1.177a1.001 1.001 0 0 1 0 1.418l-7.06 7.06"/><path d="M27.124 49.396l-5.09-5.09a1.003 1.003 0 0 1 0-1.413l23.05-23.05a1.003 1.003 0 0 1 1.415 0l5.09 5.089a1.003 1.003 0 0 1 0 1.414l-23.05 23.05a1.003 1.003 0 0 1-1.415 0z"/><path stroke-linecap="round" d="M40.078 30.607l.658.658"/></g></svg>