<svg xmlns="http://www.w3.org/2000/svg" viewBox="0 0 72 72"><path fill="#D22F27" d="M57.83 51.563l.006-.012.006-.012a1.8 1.8 0 0 0-.008-1.862c-2.376-5.347-2.471-10.543-2.539-14.727-.07-4.264-.124-7.632-2.444-9.722-1.508-1.359-3.663-1.866-6.78-1.59-2.09.187-2.352.45-3.392-.195-1.04-.646-.92-.997-1.68-2.957-1.146-2.944-2.562-4.663-4.458-5.413-2.889-1.142-5.907.304-9.729 2.133-3.77 1.806-8.456 4.037-14.325 4.29-.684-.084-1.393.199-1.773.811-.572.921-.146 2.078.599 2.546.468.674.95 3.243 1.34 5.336 1.283 6.89 3.224 17.304 11.793 22.624s18.763 2.44 25.508.533c2.048-.58 4.565-1.287 5.377-1.167.87.535 1.997.192 2.499-.616z"/><path fill="#FFF" stroke-width="2" stroke-miterlimit="10" d="M43.819 42.077c-.937-1.413-1.118-2.853-1.285-4.183-.076-.606-.15-1.2-.3-1.759l-.002-.01a4.234 4.234 0 0 0-.655-1.409 3.547 3.547 0 0 0-1.089-1.007c-.942-.585-2.01-.553-2.8-.562-.475-.005-.953-.125-.953-.125l.953.125-.954-.127c-.007-.016-1.02-2.275-2.386-3.123-1.522-.945-2.75-.61-4.592.054-1.257.451-2.619.941-4.3.73-.559-.07-.877.631-.472 1.024 3.463 3.357 5.193 7.555 5.833 9.413a1.186 1.186 0 0 0 1.284.795c1.943-.25 6.456-.562 10.993 1.042a.614.614 0 0 0 .685-.187.565.565 0 0 0 .04-.691zm-12.502-.331z"/><g fill="none" stroke="#000" stroke-width="2" stroke-miterlimit="10"><path d="M57.83 51.563l.006-.012.006-.012a1.8 1.8 0 0 0-.008-1.862c-2.376-5.347-2.471-10.543-2.539-14.727-.07-4.264-.124-7.632-2.444-9.722-1.508-1.359-3.663-1.866-6.78-1.59-2.09.187-2.352.45-3.392-.195-1.04-.646-.92-.997-1.68-2.957-1.146-2.944-2.562-4.663-4.458-5.413-2.889-1.142-5.907.304-9.729 2.133-3.77 1.806-8.456 4.037-14.325 4.29-.684-.084-1.393.199-1.773.811-.572.921-.146 2.078.599 2.546.468.674.95 3.243 1.34 5.336 1.283 6.89 3.224 17.304 11.793 22.624s18.763 2.44 25.508.533c2.048-.58 4.565-1.287 5.377-1.167.87.535 1.997.192 2.499-.616z"/><path d="M43.819 42.077c-.937-1.413-1.118-2.853-1.285-4.183-.076-.606-.15-1.2-.3-1.759l-.002-.01a4.234 4.234 0 0 0-.655-1.409 3.547 3.547 0 0 0-1.089-1.007c-.942-.585-2.01-.553-2.8-.562-.475-.005-.953-.125-.953-.125l.953.125-.954-.127c-.007-.016-1.02-2.275-2.386-3.123-1.522-.945-2.75-.61-4.592.054-1.257.451-2.619.941-4.3.73-.559-.07-.877.631-.472 1.024 3.463 3.357 5.193 7.555 5.833 9.413.093.27.272.488.5.628h0c.226.14.5.204.784.167 1.943-.25 6.456-.562 10.993 1.042a.614.614 0 0 0 .685-.187.565.565 0 0 0 .04-.691zm-12.502-.331h0z"/></g></svg>