<svg xmlns="http://www.w3.org/2000/svg" viewBox="0 0 72 72"><path fill="#FFF" d="M66.031 15.5H5.968c-1.363 0-1.468.105-1.468 1.468v37.063c0 1.364.105 1.469 1.468 1.469h60.063c1.364 0 1.469-.105 1.469-1.468V16.968c0-1.364-.105-1.469-1.469-1.469z"/><path fill="#EA5A47" d="M30.512 27.668a5.597 5.597 0 0 0-5.574 5.607 5.576 5.576 0 0 0 .82 2.9l.322.47 9.965 12.697 9.948-12.833a5.543 5.543 0 0 0 1.064-3.3 5.597 5.597 0 0 0-5.608-5.573 5.551 5.551 0 0 0-5.022 3.182.485.485 0 0 1-.874.002 5.552 5.552 0 0 0-5.04-3.152z"/><path fill="#D22F27" d="M41.77 27.667c3.335.01 6.041 2.525 6.032 5.608a5.264 5.264 0 0 1-.886 2.9l-.348.47-10.78 12.695-.819-.977c11.797-14.81 6.8-20.696 6.8-20.696z"/><g fill="none" stroke="#000" stroke-width="2" stroke-linecap="round" stroke-miterlimit="10"><path stroke-linejoin="round" d="M30.512 27.668a5.597 5.597 0 0 0-5.574 5.607 5.576 5.576 0 0 0 .82 2.9l.322.47 9.965 12.697 9.948-12.833a5.543 5.543 0 0 0 1.064-3.3 5.597 5.597 0 0 0-5.608-5.573 5.551 5.551 0 0 0-5.022 3.182.485.485 0 0 1-.874.002 5.552 5.552 0 0 0-5.04-3.152z"/><path stroke-linejoin="round" d="M65.086 55.5H6.877A2.877 2.877 0 0 1 4 52.623V17.248A2.248 2.248 0 0 1 6.248 15h59.446A2.306 2.306 0 0 1 68 17.306v35.28a2.914 2.914 0 0 1-2.914 2.914z"/><path d="M5 16l15 16m47-16L52 32"/></g></svg>