<svg xmlns="http://www.w3.org/2000/svg" viewBox="0 0 72 72"><path fill="#FFA7C0" d="M26.28 51.043l8.014 10.274 20.583-26.392a11.425 11.425 0 0 0 2.213-6.793c0-6.354-5.17-11.523-11.524-11.523-4.453 0-8.427 2.502-10.371 6.528a1 1 0 0 1-1.801 0c-1.944-4.026-5.919-6.528-10.371-6.528-6.354 0-11.523 5.17-11.523 11.523 0 2.116.578 4.185 1.672 5.981l.113 1.443 11.94 15.305m.547-.469l.508.651"/><path fill="#e67a94" d="M46.196 16.61c7.025 0 10.657 4.94 10.657 11.39 0 2.15.168 4.176-1.041 6h.049l-22 28L32 59.96c24.755-31.063 14.196-43.35 14.196-43.35z"/><path fill="#61b2e4" d="M17.821 54.179l.275 6.725-5.989 5.989-.275-6.725 5.99-5.99"/><path fill="#92d3f5" d="M5.882 59.668h6.45l5.99-5.99h-6.45l-5.99 5.99"/><path fill="#92d3f5" stroke-width="2" stroke-linecap="round" stroke-linejoin="round" stroke-miterlimit="10" d="M66.18 5.628l-1.256 4.852-1.255 4.851-3.596-3.596-3.596-3.596 4.851-1.255z"/><path d="M21.51 44.96c-3.428-4.4-7.678-9.873-7.678-9.873l-.66-.974a11.495 11.495 0 0 1-1.672-5.981c0-6.354 5.17-11.523 11.523-11.523 4.452 0 8.427 2.502 10.37 6.528a1 1 0 0 0 1.802 0c1.944-4.026 5.918-6.528 10.37-6.528 6.355 0 11.525 5.17 11.525 11.523 0 2.47-.771 4.828-2.213 6.793L34.294 61.317 26.28 51.044M32.5 39.5L19 53m42-42l-5 5M18.596 53.454h-6.95l-6.453 6.453h6.95v6.95l6.453-6.453zM66.18 5.628l-1.256 4.852-1.255 4.851-3.596-3.596-3.596-3.596 4.851-1.255z" fill="none" stroke="#000" stroke-width="2" stroke-linecap="round" stroke-linejoin="round" stroke-miterlimit="10"/></svg>