<svg xmlns="http://www.w3.org/2000/svg" viewBox="0 0 72 72"><path fill="#EA5A47" d="M49.566 15.61c-4.322 0-8.187 2.36-10.189 6.18L36 29.679l7 6.017-6 8.424L42 51l-3.585 9.162 20.462-26.237a11.425 11.425 0 0 0 2.213-6.793c0-6.354-5.17-11.523-11.524-11.523z"/><path fill="#d22f27" d="M49.339 15.61c6.353 0 11.522 5.168 11.522 11.522 0 2.116-.578 4.185-1.671 5.981l-.66.974-20.463 26.23L39 58c22.39-30.596 10.34-42.39 10.34-42.39z"/><path fill="#EA5A47" d="M37.1 50.984l-5.054-6.961 5.939-8.046-7.046-5.946s1.622-7.549 1.455-7.894c-1.944-4.026-5.918-6.528-10.371-6.528-6.354 0-11.523 5.17-11.523 11.523 0 2.116.578 4.185 1.672 5.981l.66.974 20.462 26.23.35-.45 3.455-8.883z"/><g fill="none" stroke="#000" stroke-width="2" stroke-miterlimit="10"><path stroke-linecap="round" stroke-linejoin="round" d="M49.566 15.61c-4.322 0-8.187 2.36-10.189 6.18L36 29.679l7 6.017-6 8.424L42 51l-3.585 9.162 20.462-26.237a11.425 11.425 0 0 0 2.213-6.793c0-6.354-5.17-11.523-11.524-11.523z"/><path d="M37.1 50.984l-5.054-6.961 5.939-8.046-7.046-5.946s1.622-7.549 1.455-7.894c-1.944-4.026-5.918-6.528-10.371-6.528-6.354 0-11.523 5.17-11.523 11.523 0 2.116.578 4.185 1.672 5.981l.66.974 20.462 26.23.35-.45 3.455-8.883z"/></g></svg>