<svg xmlns="http://www.w3.org/2000/svg" viewBox="0 0 72 72"><path fill="#E67A94" d="M24.716 17c-6.527 0-11.837 5.31-11.837 11.836 0 2.175.593 4.3 1.717 6.145l.678 1 21.02 26.945 21.144-27.111a11.736 11.736 0 0 0 2.273-6.979C59.711 22.31 54.401 17 47.873 17c-4.574 0-8.656 2.57-10.654 6.706a1.027 1.027 0 0 1-1.85 0C33.372 19.57 29.29 17 24.716 17z"/><path fill="#fcea2b" d="M26.676 43.305c.105.581.668 1.056 1.421 1.198l8.599 1.624c.402.077.407.508.004.584l-8.608 1.627c-.753.142-1.311.616-1.416 1.197l-2.28 12.634c-.062.347-.727.347-.79 0l-2.28-12.634c-.104-.581-.662-1.055-1.415-1.197l-8.609-1.626c-.402-.076-.402-.507 0-.583l8.609-1.627c.753-.142.846-.825.951-1.406l1.793-10.178c.063-.347 1.679-2.595 1.741-2.248l2.28 12.635z"/><path fill="#f1b31c" d="M23.837 62.169l1.775-11.125c-1.924-3.336-3.347-6.796-4.243-9.26l-.244 1.53c-.093.582-.586 1.055-1.251 1.197l-7.607 1.626c-.356.076-.356.507 0 .583l7.606 1.625c.666.143 1.159.616 1.252 1.197l2.014 12.627c.055.347.643.347.698 0z"/><path fill="#fcea2b" d="M52.882 24.936c.087.464.55.842 1.168.955l7.066 1.296c.331.06.335.405.004.465l-7.074 1.297c-.619.114-1.077.491-1.164.955L51.01 39.978c-.051.277-.598.277-.65 0l-1.873-10.074c-.086-.463-.544-.841-1.163-.955l-7.075-1.296c-.33-.061-.33-.405 0-.465l7.075-1.297c.619-.114.695-.658.782-1.122l1.473-8.116c.052-.277 1.38-2.07 1.431-1.792l1.873 10.075z"/><path fill="#f1b31c" d="M51.075 39.978l1.21-8.87c-1.312-2.66-2.283-5.42-2.894-7.385l-.166 1.22c-.064.464-.4.841-.854.955l-5.189 1.296c-.243.06-.243.404 0 .465l5.189 1.296c.454.114.79.491.854.955l1.374 10.068c.037.277.438.277.476 0z"/><g fill="none" stroke="#000" stroke-width="2" stroke-linecap="round" stroke-linejoin="round" stroke-miterlimit="10"><path d="M22.556 37.45l1.546-8.06.506 3.016 1.682 10.043c.19 1.127 1.187 2.033 2.543 2.309L37 46.42l-8.173 1.663c-1.352.275-2.348 1.181-2.537 2.308L24.103 63.45l-2.188-13.058c-.189-1.128-1.185-2.034-2.537-2.309l-8.173-1.663 8.173-1.663c1.352-.275 2.267-1.847 2.455-2.974m28.015-21.516l1.234-6.428.403 2.406 1.341 8.008c.151.899.947 1.622 2.028 1.841l6.512 1.326-6.517 1.326c-1.078.22-1.872.942-2.023 1.84L51.082 41l-1.745-10.413c-.15-.899-.944-1.621-2.023-1.84l-6.517-1.327 6.517-1.326c1.079-.22 1.808-1.473 1.958-2.371"/><path d="M46.32 17.675c-3.938.42-7.364 2.815-9.125 6.462a1 1 0 0 1-1.801 0c-1.944-4.026-5.919-6.528-10.371-6.528-6.354 0-11.523 5.17-11.523 11.523 0 2.116.578 4.185 1.672 5.981l.66.974 1.683 2.157M29.517 53.63l6.777 8.688 20.583-26.392a11.376 11.376 0 0 0 1.867-3.97m-29.486 21.34l.259.332M17.515 38.244l.647.83"/></g></svg>