<svg xmlns="http://www.w3.org/2000/svg" viewBox="0 0 72 72"><path fill="#b399c8" stroke-width="2" stroke-linecap="round" stroke-linejoin="round" stroke-miterlimit="10" d="M11 11h50v50H11z"/><path fill="#8967AA" d="M29.894 59.934l30 .132.212-48-14.21-.062z"/><path fill="#FFF" stroke-width="2" stroke-linecap="round" stroke-linejoin="round" stroke-miterlimit="10" d="M28.86 23.643c-4.024 0-7.298 3.274-7.298 7.298a7.28 7.28 0 0 0 1.059 3.789l.418.617 12.96 16.613 13.037-16.716a7.236 7.236 0 0 0 1.402-4.303c0-4.024-3.275-7.298-7.3-7.298-2.82 0-5.337 1.585-6.568 4.135a.633.633 0 0 1-1.14 0c-1.233-2.55-3.75-4.135-6.57-4.135z"/><path fill="#FFF" stroke-width="2" stroke-linecap="round" stroke-linejoin="round" stroke-miterlimit="10" d="M28.86 23.643c-4.024 0-7.298 3.274-7.298 7.298a7.28 7.28 0 0 0 1.059 3.789l13.378 17.23 13.037-16.716a7.236 7.236 0 0 0 1.402-4.302c0-4.025-3.275-7.299-7.3-7.299-2.82 0-5.337 1.585-6.569 4.135a.633.633 0 0 1-1.14 0c-1.232-2.55-3.749-4.135-6.569-4.135z"/><g fill="none" stroke="#000" stroke-width="2" stroke-linecap="round" stroke-linejoin="round" stroke-miterlimit="10"><path d="M11 11h50v50H11z"/><path d="M28.86 23.643c-4.024 0-7.298 3.274-7.298 7.298a7.28 7.28 0 0 0 1.059 3.789l.418.617 12.96 16.613 13.037-16.716a7.236 7.236 0 0 0 1.402-4.303c0-4.024-3.275-7.298-7.3-7.298-2.82 0-5.337 1.585-6.568 4.135a.633.633 0 0 1-1.14 0c-1.233-2.55-3.75-4.135-6.57-4.135z"/><path d="M28.86 23.643c-4.024 0-7.298 3.274-7.298 7.298a7.28 7.28 0 0 0 1.059 3.789l13.378 17.23 13.037-16.716a7.236 7.236 0 0 0 1.402-4.302c0-4.025-3.275-7.299-7.3-7.299-2.82 0-5.337 1.585-6.569 4.135a.633.633 0 0 1-1.14 0c-1.232-2.55-3.749-4.135-6.569-4.135z"/></g></svg>