<svg xmlns="http://www.w3.org/2000/svg" viewBox="0 0 72 72"><ellipse fill="#FCEA2B" cx="20.761" cy="38.474" rx="8.655" ry="11.289"/><path fill="#A57939" d="M64.442 52.172c-.294.308 2.212-6.077.155-9.814a19.144 19.144 0 0 1-.872-2.073c-1.107-2.575-1.522-3.539-1.767-8.29.02-2.908-2.103-5.343-4.873-5.586a.741.741 0 0 1-.518-.27c-.07-.08-1.813-2.092-5.452-2.092-4.666 0-8.61 2.664-9.59 6.48a15.24 15.24 0 0 0-.425 4.864 10.947 10.947 0 0 1-.572 4.696 5.45 5.45 0 0 1-.842 1.645c-2.84 3.48-1.093 10.549-1.238 10.318 0 0 12.32 11.784 25.994.122z"/><path fill="#FCEA2B" d="M43.583 39.322c0 6.021 3.763 10.537 8.28 10.537s8.278-4.516 8.278-10.537c0-3.763-1.505-6.02-4.516-9.031-3.01 3.01-12.042 6.773-12.042 8.279v.752z"/><path fill="#A57939" d="M9.848 33.206c.641-8.716 7.225-8.81 10.536-8.279.322.052 1.222.036 1.505 0 6.021-.752 9.032 6.02 9.032 9.031 0 1.065 0 3.763-1.505 5.269 0 0-3.447-4.173-3.605-6.602 0 0-11.447 4.344-12.2.58 0 0-.753 3.011-1.505 3.764v3.01s-2.534-3.02-2.258-6.773z"/><path fill="#EA5A47" d="M38.785 10.525a4.27 4.27 0 0 0-2.107 2.056.371.371 0 0 1-.669 0 4.28 4.28 0 1 0-7.513 4.078l.245.362 7.273 9.324c3.451-4.629 5.796-11.048 2.77-15.82z"/><path fill="#D22F27" d="M40.531 10.156a4.28 4.28 0 0 0-1.746.369c3.025 4.771.68 11.191-2.771 15.818l.33.423.583-.746 7.065-9.06a4.282 4.282 0 0 0-3.46-6.804h-.001z"/><path fill="#92D3F5" d="M66 62.831a.758.758 0 0 1-.755-.76v-2.279c0-3.382-3.399-5.934-6.534-6.072-4.686 3.808-9.434 3.808-14.123 0-3.138.139-6.534 2.69-6.534 6.072v2.28c0 .42-.338.76-.755.76m-2.598-.001a.758.758 0 0 1-.755-.76v-2.279c0-3.382-3.399-5.934-6.534-6.072-4.686 3.808-9.434 3.808-14.123 0-3.138.139-6.534 2.69-6.534 6.072v2.28c0 .42-.338.76-.755.76"/><path fill="none" stroke="#000" stroke-width="2" stroke-miterlimit="10" d="M29.393 37.662c.015.268.023.539.023.812 0 6.235-3.875 11.29-8.655 11.29s-8.655-5.055-8.655-11.29c0-.23.005-.457.015-.683"/><path fill="none" stroke="#000" stroke-width="2" stroke-linecap="round" stroke-linejoin="round" d="M39.068 51.364c-3.01-4.516-.63-7.74.752-11.29 1.23-3.16-.157-4.854.972-9.056 1.113-4.14 5.477-6.748 10.317-6.748 4.065 0 6.021 2.258 6.021 2.258a6.12 6.12 0 0 1 5.573 6.049c.292 5.403.77 5.382 2.58 9.65a8.73 8.73 0 0 1-1.38 9.137"/><path fill="none" stroke="#000" stroke-width="2" stroke-linecap="round" stroke-linejoin="round" stroke-miterlimit="10" d="M43.583 39.322c0 6.021 3.763 10.537 8.28 10.537s8.278-4.516 8.278-10.537c0-3.763-1.505-6.02-4.516-9.031-3.01 3.01-12.042 6.773-12.042 8.279v.752h0z"/><path fill="none" stroke="#000" stroke-width="2" stroke-linecap="round" stroke-linejoin="round" d="M9.848 33.206c.641-8.716 7.225-8.81 10.536-8.279.322.052 1.222.036 1.505 0 6.021-.752 9.032 6.02 9.032 9.031 0 1.065 0 3.763-1.505 5.269 0 0-3.447-4.173-3.605-6.602 0 0-11.447 4.344-12.2.58 0 0-.753 3.011-1.505 3.764v3.01s-2.534-3.02-2.258-6.773zm26.497-5.824l-7.91-10.143-.255-.377a4.65 4.65 0 1 1 8.165-4.431 4.65 4.65 0 1 1 7.94 4.77l-7.94 10.18zm.954 34.513V59.63c0-3.772 3.782-6.797 7.553-6.797 4.532 3.776 9.063 3.776 13.595 0 3.772 0 7.553 3.025 7.553 6.797v2.266m-60-.001V59.63c0-3.772 3.782-6.797 7.553-6.797 4.532 3.776 9.063 3.776 13.595 0 3.772 0 7.553 3.025 7.553 6.797v2.266"/><path d="M56 39.185a1.395 1.395 0 1 1-2.79 0 1.395 1.395 0 0 1 2.79 0m-5.58 0a1.395 1.395 0 1 1-2.791 0 1.395 1.395 0 0 1 2.79 0"/><path fill="none" stroke="#000" stroke-width="2" stroke-linecap="round" stroke-linejoin="round" d="M49.721 44.94a4.447 4.447 0 0 0 4.186 0"/><path d="M25 39.185a1.395 1.395 0 1 1-2.79 0 1.395 1.395 0 0 1 2.79 0m-5.58 0a1.395 1.395 0 1 1-2.791 0 1.395 1.395 0 0 1 2.79 0"/><path fill="none" stroke="#000" stroke-width="2" stroke-linecap="round" stroke-linejoin="round" d="M18.721 44.94a4.447 4.447 0 0 0 4.186 0"/></svg>