<svg xmlns="http://www.w3.org/2000/svg" viewBox="0 0 72 72"><path fill="#FFA7C0" d="M20.246 28.09c-4.536 0-8.227 3.692-8.227 8.228 0 1.512.412 2.989 1.193 4.271l.472.696 14.61 18.73 14.698-18.846a8.158 8.158 0 0 0 1.58-4.85c0-4.537-3.692-8.228-8.229-8.228-3.18 0-6.017 1.786-7.405 4.661a.714.714 0 0 1-1.286 0c-1.389-2.875-4.226-4.661-7.406-4.661z"/><path fill="#E67A94" d="M36.186 28.09c4.536 0 8.227 3.692 8.227 8.228a8.207 8.207 0 0 1-1.193 4.271l-.472.696-14.61 18.73-1.12-1.435c15.987-21.847 9.168-30.49 9.168-30.49z"/><path fill="#FFA7C0" d="M48.343 12.366a4.054 4.054 0 0 0-3.462 6.15l.232.343 7.19 9.218 7.234-9.275c.507-.69.778-1.519.778-2.387a4.054 4.054 0 0 0-4.05-4.05c-1.565 0-2.961.88-3.645 2.295a.352.352 0 0 1-.633 0 4.021 4.021 0 0 0-3.644-2.294z"/><path fill="#E67A94" d="M55.805 12.366a4.054 4.054 0 0 1 3.462 6.15l-.232.343-7.191 9.218-.55-.706c7.867-10.752 4.511-15.005 4.511-15.005z"/><g fill="none" stroke="#000" stroke-width="2" stroke-linecap="round" stroke-miterlimit="10"><path d="M20.614 21.692C24.718 18.496 30.541 16.5 37 16.5c.69 0 1.374.023 2.049.068M61.92 30.261c.38 1.202.58 2.453.58 3.739 0 8.728-9.241 15.873-20.94 16.46"/><path stroke-linejoin="round" d="M20.246 27.772c-4.536 0-8.227 3.691-8.227 8.228a8.21 8.21 0 0 0 1.193 4.271l.472.695 14.61 18.73L42.993 40.85a8.158 8.158 0 0 0 1.58-4.85c0-4.538-3.692-8.228-8.229-8.228-3.18 0-6.017 1.786-7.405 4.66a.714.714 0 0 1-1.286 0c-1.389-2.874-4.226-4.66-7.406-4.66zm28.097-15.406a4.054 4.054 0 0 0-3.462 6.15l.232.343 7.19 9.218 7.234-9.275c.507-.69.778-1.519.778-2.387a4.054 4.054 0 0 0-4.05-4.05c-1.565 0-2.961.88-3.645 2.295a.352.352 0 0 1-.633 0 4.021 4.021 0 0 0-3.644-2.294z"/></g></svg>