<svg xmlns="http://www.w3.org/2000/svg" viewBox="0 0 72 72"><path fill="#61b2e4" d="M55.023 23.852c-.39 0-.775.022-1.155.059a8.034 8.034 0 0 0-11.529-4.697c-1.605-4.77-6.104-8.209-11.414-8.207-6.654.001-12.047 5.396-12.045 12.05 0 .55.05 1.088.121 1.619L4 31v11l14.889 5.884c0 .024-.004.047-.004.071.002 6.654 5.397 12.047 12.05 12.045 4.818-.001 8.962-2.837 10.889-6.923a7.986 7.986 0 0 0 4.37 1.297 8.032 8.032 0 0 0 7.877-6.475c.316.025.634.048.957.048 6.654-.001 12.046-5.396 12.045-12.05s-5.397-12.046-12.05-12.045z"/><path fill="#92d3f5" d="M55.486 23.852c-.39 0-.774.022-1.154.059a8.034 8.034 0 0 0-11.53-4.697c-1.604-4.77-6.103-8.209-11.414-8.207-6.653.001-12.046 5.396-12.045 12.05 0 .55.05 1.088.122 1.619l-3.978 1.692a12.093 12.093 0 0 1 5.852 6.846 8.034 8.034 0 0 1 11.529 4.697c.38-.037.765-.059 1.155-.059 6.653-.001 12.048 5.391 12.05 12.045 0 1.533-.297 2.993-.818 4.341.457.082.922.137 1.403.137a8.032 8.032 0 0 0 7.876-6.476c.317.025.634.048.958.048 6.653-.001 12.046-5.396 12.044-12.05s-5.396-12.046-12.05-12.045z"/><path d="M5 41.777l14.352 6.107c0 .024-.003.047-.003.071.001 6.654 5.396 12.047 12.05 12.045 4.818-.001 8.962-2.837 10.889-6.923a7.986 7.986 0 0 0 4.37 1.297 8.032 8.032 0 0 0 7.876-6.475c.317.025.634.048.957.048 6.654-.001 12.047-5.396 12.045-12.05S62.14 23.85 55.486 23.852c-.39 0-.774.022-1.154.059a8.034 8.034 0 0 0-11.53-4.697c-1.604-4.77-6.103-8.209-11.414-8.207-6.653.001-12.046 5.396-12.045 12.05 0 .55.05 1.088.122 1.619L5 30.83M5 25l9-4s-1-5 4-8M5 47l9 4s-1 5 4 8" fill="none" stroke="#000" stroke-width="2" stroke-linecap="round" stroke-linejoin="round" stroke-miterlimit="10"/></svg>