<svg xmlns="http://www.w3.org/2000/svg" viewBox="0 0 72 72"><g fill="#FFF"><path d="M48.407 51.773c-2.206 0-4 1.794-4 4s1.794 4 4 4c2.205 0 4-1.794 4-4s-1.795-4-4-4zm9.124 9.733c-.625 0-1.135.508-1.135 1.134 0 .626.51 1.135 1.135 1.135s1.135-.509 1.135-1.135-.51-1.134-1.135-1.134z"/><path d="M60.404 28.697c-.583-5.492-5.508-9.471-11-8.887a9.983 9.983 0 0 0-2.508.61C45.488 12.786 38.424 7.4 30.575 8.235c-6.705.713-11.906 5.74-13.137 12.03a10.08 10.08 0 0 0-1.167.05c-5.492.583-9.47 5.508-8.887 11a9.975 9.975 0 0 0 4.559 7.363 15.04 15.04 0 0 0 .031 2.709c.876 8.238 8.263 14.206 16.501 13.33a14.934 14.934 0 0 0 9.072-4.363c.827.658 1.757 2.187 2.758 2.558 5.451 1.263 10.61-.942 13.102-5.333 1.042-1.78.545-3.895.31-6.103a10.017 10.017 0 0 0-.468-2.127c4.568-1.322 7.676-5.757 7.155-10.651z"/><path d="M48.407 51.773c-2.206 0-4 1.794-4 4s1.794 4 4 4c2.205 0 4-1.794 4-4s-1.795-4-4-4zm9.124 9.733c-.625 0-1.135.508-1.135 1.134 0 .626.51 1.135 1.135 1.135s1.135-.509 1.135-1.135-.51-1.134-1.135-1.134z"/></g><path d="M48.407 61.773c-3.309 0-6-2.691-6-6s2.691-6 6-6c3.308 0 6 2.692 6 6s-2.692 6-6 6zm0-10c-2.206 0-4 1.794-4 4s1.794 4 4 4c2.205 0 4-1.794 4-4s-1.795-4-4-4zm9.124 14.002a3.138 3.138 0 0 1-3.135-3.135 3.138 3.138 0 0 1 3.135-3.134 3.138 3.138 0 0 1 3.135 3.134 3.138 3.138 0 0 1-3.135 3.135zm0-4.27a1.136 1.136 0 0 0 0 2.27 1.136 1.136 0 0 0 0-2.27z"/><path fill="none" stroke="#000" stroke-width="2" stroke-linecap="round" stroke-linejoin="round" stroke-miterlimit="10" d="M52.407 47.578a9.955 9.955 0 0 0 .842-8.23c4.568-1.322 7.676-5.757 7.155-10.651-.583-5.492-5.508-9.471-11-8.887a9.983 9.983 0 0 0-2.508.61C45.488 12.786 38.424 7.4 30.575 8.235c-6.705.713-11.906 5.741-13.137 12.03a10.08 10.08 0 0 0-1.167.05c-5.492.583-9.47 5.509-8.887 11a9.976 9.976 0 0 0 4.559 7.363 15.04 15.04 0 0 0 .031 2.709c.876 8.238 8.263 14.206 16.501 13.33a14.934 14.934 0 0 0 9.072-4.363 10.043 10.043 0 0 0 2.758 1.559"/></svg>