<svg xmlns="http://www.w3.org/2000/svg" viewBox="0 0 72 72"><path fill="#A57939" d="M22 31s-1.53-3-1-5c.305-1.151 1.264-1.809 3-3 1.568-1.076 2.032-1.67 3.008-2 .678-2.451 1.462-4.477 1.992-7a54.3 54.3 0 0 1 1-4 89.766 89.766 0 0 1 9 5c2.313 1.468 3.538 2.399 4 4 .606 2.102-.46 4.124-1 5 .42-.091 2.906-.588 5 1 .45.341 1.656 1.286 2 3 .425 2.118-.8 3.744-1 4a8.24 8.24 0 0 1 4 1c.821.451 2.408 1.324 3 3 .675 1.91-.157 4.266-2 6 .414-.057 2.322-.276 4 1 1.67 1.269 2.236 3.35 2 5-.504 3.53-4.65 4.89-5 5-2.17.676-5.329.162-10.178-.448-4.39-.552-12.035-.366-18.035-.366C20.287 53.292 12.983 50.954 13 48c.016-2.697 2.331-4.523 3-5a7.287 7.287 0 0 1 2-1c-1-2-2-3-2-4 0-1.218 1.095-3.156 3-5 2.143-2.074 3-2 3-2z"/><path fill="#6A462F" d="M30 10a89.766 89.766 0 0 1 9 5c2.313 1.468 3.538 2.399 4 4 .606 2.102-.46 4.124-1 5 .42-.091 2.906-.588 5 1 .45.341 1.656 1.286 2 3 .425 2.118-.8 3.744-1 4a8.24 8.24 0 0 1 4 1c.821.451 2.408 1.324 3 3 .675 1.91-.157 4.266-2 6 .414-.057 2.322-.276 4 1 1.67 1.269 2.236 3.35 2 5-.504 3.53-4.65 4.89-5 5-2.17.676-14.821-1.196-10-2 6-1 7.854-2.708 8-3 1-2-2-4-4-4 .24-3.345-.685-5.771-6-7 .695-3.21-.236-8.126-4-9 2-4 .407-7.186-1-10-2-4-3-6-7-8z"/><path fill="none" stroke="#000" stroke-width="2" stroke-linecap="round" stroke-linejoin="round" stroke-miterlimit="10" d="M18 42c-.114-.214-2.598-4.125-1-7 1.28-2.302 4.604-2.904 5-3m20-8c.26-.948 1.5-3.423 1-5-.421-1.328-.943-2.971-5-5l-8-4s.254 1.117 0 3c-.155 1.149-.744 3.27-1 5m24 24c.611.11 4.823.47 6 4 1 3-2 7-6 7-4.293 0-7.463-1.173-11.732-1.606M49 32c.673.07 2.688.37 4 2 1.345 1.67 2.55 4.45 0 7-3 3-5.757 4.586-10 6-6 2-15 5-21 5-5.099 0-9-1-9-5 0-5 10-5 11-5 6.266 0 12.148-.766 17-4 3-2 5.329-3.616 7-6 .174-.248 1.713-2.86 1-5-1-3-6.033-2.907-7-3a19.066 19.066 0 0 1-5 5c-6.21 4.214-13.04 3.326-15 3-.387-.662-1.111-2.118-1-4 .158-2.66 1.915-4.998 4-6 1.863-.896 2.731-.122 5-1 1.89-.731 3.183-2.001 4-3"/></svg>