<svg xmlns="http://www.w3.org/2000/svg" viewBox="0 0 72 72"><g fill="#FFF"><path d="M55.309 50.392a23.873 23.873 0 0 0 5.087-14.75c0-13.233-10.766-24-24-24s-24 10.767-24 24 10.767 24 24 24c1.956 0 3.855-.24 5.676-.684 5.919-1.48 10.325-4.34 13.236-8.566z"/><path d="M49.407 51.773c-2.206 0-4 1.794-4 4s1.794 4 4 4c2.205 0 4-1.794 4-4s-1.795-4-4-4zm9.124 9.733c-.625 0-1.135.508-1.135 1.134 0 .626.51 1.135 1.135 1.135s1.135-.509 1.135-1.135-.51-1.134-1.135-1.134z"/></g><path d="M49.407 61.773c-3.309 0-6-2.691-6-6s2.691-6 6-6c3.308 0 6 2.692 6 6s-2.692 6-6 6zm0-10c-2.206 0-4 1.794-4 4s1.794 4 4 4c2.205 0 4-1.794 4-4s-1.795-4-4-4z"/><path d="M41.516 57.035a21.963 21.963 0 0 1-5.12.607c-12.13 0-22-9.869-22-22 0-12.13 9.87-22 22-22s22 9.87 22 22c0 5.062-1.722 9.726-4.606 13.447.56.369 1.068.809 1.518 1.303a23.873 23.873 0 0 0 5.088-14.75c0-13.233-10.766-24-24-24s-24 10.767-24 24 10.767 24 24 24c1.956 0 3.855-.24 5.676-.684a7.934 7.934 0 0 1-.556-1.923zm17.015 8.74a3.138 3.138 0 0 1-3.135-3.135 3.138 3.138 0 0 1 3.135-3.134 3.138 3.138 0 0 1 3.135 3.134 3.138 3.138 0 0 1-3.135 3.135zm0-4.27a1.136 1.136 0 0 0 0 2.27 1.136 1.136 0 0 0 0-2.27z"/><circle cx="27.184" cy="35.642" r="2"/><circle cx="36.396" cy="35.642" r="2"/><circle cx="45.609" cy="35.642" r="2"/></svg>