<svg xmlns="http://www.w3.org/2000/svg" viewBox="0 0 72 72"><path fill="#D0CFCE" d="M35.712 64.653c4.779 0 7.51-3.553 8.156-8.156h-16.31c.647 4.603 3.376 8.156 8.154 8.156z"/><path fill="#FCEA2B" d="M45.498 10.408s-12.232-3.457-18.201 1.27c-5.97 4.726-7.652 15.603-7.652 15.604.585 2.213 4.227 8.493 4.227 8.493.54.911 2.253 7.981 3.249 11.856h17.173c.866-2.844 4.35-13.646 4.805-14.705.584-1.363 1.58-4.016 2.082-5.017 1.21-2.409.538-4.455.538-7.027 0-5.487-1.902-7.726-6.22-10.474z"/><path fill="#FFF" d="M35.707 7.202c-8.532 0-16.503 6.752-16.503 15.284 0 1.08-.264 4.491 1.217 4.491 0 0 2.393-7.825 8.362-12.552 5.97-4.726 15.52-3.725 15.52-3.725-.665-2.044-5.55-3.498-8.596-3.498z"/><g stroke="#000" stroke-width="2" stroke-linecap="round" stroke-linejoin="round" stroke-miterlimit="10"><path fill="none" d="M52.258 23.753c0 3.984-1.785 5.907-3.753 10.496-.503 1.173-4.211 13.382-4.211 13.382H27.12s-2.982-11.668-3.546-12.62c-2.37-3.998-4.419-6.91-4.419-11.258 0-9.141 7.41-16.551 16.551-16.551 9.141 0 16.551 7.41 16.551 16.55z"/><path d="M35.707 47.217V35.279m5.97 0H29.738"/><path fill="none" d="M52.258 23.753c0 3.984-1.785 5.907-3.753 10.496-.503 1.173-4.211 13.382-4.211 13.382H27.12s-2.982-11.668-3.546-12.62c-2.37-3.998-4.419-6.91-4.419-11.258 0-9.141 7.41-16.551 16.551-16.551 9.141 0 16.551 7.41 16.551 16.55z"/><path d="M27.157 52.192h17.112"/><path fill="none" d="M43.868 56.497a8.155 8.155 0 0 1-16.31 0h16.31z"/></g></svg>