<svg xmlns="http://www.w3.org/2000/svg" viewBox="0 0 72 72"><path fill="#D0CFCE" d="M13.563 18.734l34.629 42.242 10.584-8.17-34.723-42.613-10.49 8.54z"/><path fill="#9B9B9A" d="M23.888 10.428l-2.601 2.03 34.561 42.679 2.42-2.547z"/><path fill="#d0cfce" stroke-width="2" stroke-linecap="round" stroke-linejoin="round" stroke-miterlimit="10" d="M19.727 20.938l1.552-1.262"/><path d="M58.65 52.754L48.008 61.36 13.467 18.645l10.642-8.606zm-11.16 2.319l1.551-1.262m-4.075-1.841l1.551-1.262m-4.075-1.841l1.551-1.262m-6.599-4.945l1.552-1.262m-4.076-1.841l1.552-1.262m-4.076-1.841l1.552-1.262m-4.075-1.841l1.551-1.262m-6.599-4.945l1.551-1.262m-4.075-1.841l1.551-1.262m-4.075-1.841l1.552-1.262M39.812 45.85l2.648-2.154M27.193 30.334l2.647-2.154" fill="none" stroke="#000" stroke-width="2" stroke-linecap="round" stroke-linejoin="round" stroke-miterlimit="10"/></svg>