<svg xmlns="http://www.w3.org/2000/svg" viewBox="0 0 72 72"><path fill="#B1CC33" d="M18.315 33.6h8v21.412h-8z"/><path fill="#92D3F5" d="M46.252 40.384h8v14.625h-8z"/><path fill="#EA5A47" d="M32.283 21.119h8v33.893h-8z"/><g fill="none" stroke="#000" stroke-width="2" stroke-linecap="round" stroke-linejoin="round" stroke-miterlimit="10"><path d="M18.315 33.6h8v21.412h-8zm27.937 6.784h8v14.625h-8zM32.283 21.119h8v33.893h-8zm12.349 2.916h14.905m-46.794 0h15.605m16.089 11.982h15.009m-1.578 11.982h1.303m-46.744 0h2.417m33.424 10.837l.001.654m-.003-47.307l.001 24.298M36.283 58.834v.565m0-47.216v4.994M24.301 58.786v.521m0-47.124v21.206"/><path d="M12.052 12.015h47.897v47.897H12.052z"/><path d="M18.315 33.6h8v21.412h-8zm27.937 6.784h8v14.625h-8zM32.283 21.119h8v33.893h-8zM12.348 35.981h2.072"/></g></svg>