<svg xmlns="http://www.w3.org/2000/svg" viewBox="0 0 72 72"><path d="M21 45v-4.116s25.392-.507 40 8.546v4.596c-15.211-10.431-40-9.142-40-9.142" fill="#d0cfce"/><path d="M14.213 25.975H21V44.61h-6.787a2 2 0 0 1-2-2V27.975a2 2 0 0 1 2-2z" fill="#d22f27"/><rect x="61" y="15.289" width="6" height="40.007" rx="2" fill="#ea5a47"/><path fill="#9b9b9a" d="M21 44.919l2.835 15.039h-6.489l-2.835-15.039"/><path d="M12.213 28.795H9.727a2 2 0 0 0-2 2v8.922a2 2 0 0 0 2 2h2.486" fill="#ea5a47"/><g fill="none" stroke="#000" stroke-linecap="round" stroke-linejoin="round" stroke-width="2"><path d="M21 25.975s24.789 1.29 40-9.142M21 44.884s24.789-1.29 40 9.142M14.213 25.975H21V44.61h0-6.787a2 2 0 0 1-2-2V27.975a2 2 0 0 1 2-2z"/><rect x="61" y="15.289" width="6" height="40.007" rx="2"/><path d="M21 44.919l2.835 15.039h-6.489l-2.835-15.039M21 25.975s24.789 1.29 40-9.142M21 44.884s24.789-1.29 40 9.142M12.213 28.795H9.727a2 2 0 0 0-2 2v8.922a2 2 0 0 0 2 2h2.486M15 41h3"/></g></svg>