<svg xmlns="http://www.w3.org/2000/svg" viewBox="0 0 72 72"><circle fill="#FFF" cx="36" cy="36" r="26"/><path fill="#FFF" d="M42.685 19.34h-13.37a3.065 3.065 0 0 0-3.065 3.065v27.19a3.065 3.065 0 0 0 3.065 3.065h13.37a3.065 3.065 0 0 0 3.065-3.065v-27.19a3.065 3.065 0 0 0-3.065-3.065z"/><path fill="none" d="M29.483 20H43a2 2 0 0 1 2 2v13.517M42.517 52H29a2 2 0 0 1-2-2V36.483"/><path fill="#FFF" stroke-width="2" stroke-linecap="round" stroke-linejoin="round" stroke-miterlimit="10" d="M27 37.483V50h12.517m2 2H29a2 2 0 0 1-2-2h12.517l2 2zM45 34.517V22H32.483m-2-2H43a2 2 0 0 1 2 2H32.483l-2-2z"/><path fill="#ea5a47" stroke-width="2" stroke-linecap="round" stroke-linejoin="round" stroke-miterlimit="10" d="M36 7C19.984 7 7 19.984 7 36s12.984 29 29 29 29-12.984 29-29S52.016 7 36 7zM13 36c0-5.075 1.647-9.764 4.432-13.568l32.136 32.136A22.896 22.896 0 0 1 36 59c-12.703 0-23-10.297-23-23zm41.568 13.568L22.432 17.432A22.896 22.896 0 0 1 36 13c12.703 0 23 10.297 23 23 0 5.075-1.648 9.764-4.432 13.568z"/><g fill="none" stroke="#000" stroke-width="2" stroke-linecap="round" stroke-linejoin="round" stroke-miterlimit="10"><path d="M27 37.483V50h12.517m2 2H29a2 2 0 0 1-2-2h12.517l2 2zM45 34.517V22H32.483m-2-2H43a2 2 0 0 1 2 2H32.483l-2-2z"/><path d="M36 7C19.984 7 7 19.984 7 36s12.984 29 29 29 29-12.984 29-29S52.016 7 36 7zM13 36c0-5.075 1.647-9.764 4.432-13.568l32.136 32.136A22.896 22.896 0 0 1 36 59c-12.703 0-23-10.297-23-23zm41.568 13.568L22.432 17.432A22.896 22.896 0 0 1 36 13c12.703 0 23 10.297 23 23 0 5.075-1.648 9.764-4.432 13.568z"/></g></svg>