<svg xmlns="http://www.w3.org/2000/svg" viewBox="0 0 72 72"><path d="M56 29.5v3.067H28.156V41L15.5 29.5m40.5 0v-3.067H28.156V18L15.5 29.5" fill="#3f3f3f"/><g fill="none" stroke="#000" stroke-linecap="round" stroke-linejoin="round" stroke-width="2"><path d="M56 29.002v2.933H28.156v8.067l-12.656-11"/><path d="M56 29.002v-2.934H28.156v-8.066l-12.656 11m19.241 24.884l-4.097-10-4.096 10m1.366-2.395h5.461m15.02-7.163v9.558m0-3.36l5.461-6.198m-2.833 3.214l3.273 6.344m-9.782-.9a3.4 3.4 0 0 1-2.264.859h0a3.413 3.413 0 0 1-3.413-3.414V47.7a3.413 3.413 0 0 1 3.413-3.413h0a3.4 3.4 0 0 1 2.264.859M21.18 49.048h-3.645v-4.761h3.645a2.38 2.38 0 0 1 2.38 2.38h0a2.38 2.38 0 0 1-2.38 2.38z"/><path d="M21.18 53.809h-3.645v-4.761h3.645a2.38 2.38 0 0 1 2.38 2.38h0a2.38 2.38 0 0 1-2.38 2.381z"/></g></svg>