<svg xmlns="http://www.w3.org/2000/svg" viewBox="0 0 72 72"><path d="M16.5 27.5v3.067h27.844V39L57 27.5m-40.5 0v-3.067h27.844V16L57 27.5" fill="#3f3f3f"/><path d="M16.5 27.5v3.067h27.844V39L57 27.5m-40.5 0v-3.067h27.844V16L57 27.5M24.399 45.46a3.05 3.05 0 0 0-3.073-1.993h0c-1.733 0-3.137 1.118-3.137 2.497s1.404 2.498 3.137 2.498l-.064.01c1.732 0 3.137 1.118 3.137 2.497s-1.405 2.498-3.137 2.498h0a3.049 3.049 0 0 1-3.073-1.995m29.203 1.911v-10l7.142 10v-10m-13.571 9.962h0a3.571 3.571 0 0 1-3.571-3.571v-2.858a3.571 3.571 0 0 1 3.571-3.571h0a3.571 3.571 0 0 1 3.571 3.571v2.858a3.571 3.571 0 0 1-3.57 3.57zm-10 0h0a3.571 3.571 0 0 1-3.571-3.571v-2.858a3.571 3.571 0 0 1 3.571-3.571h0a3.571 3.571 0 0 1 3.571 3.571v2.858a3.571 3.571 0 0 1-3.57 3.57z" fill="none" stroke="#000" stroke-linecap="round" stroke-linejoin="round" stroke-width="2"/></svg>