<svg xmlns="http://www.w3.org/2000/svg" viewBox="0 0 72 72"><g data-name="1F52C"><path fill="#3f3f3f" d="M40.376 12.592l3.65 1.636-2.455 5.475-3.65-1.637z"/><path d="M40.5 28.409a15 15 0 0 1 9.438 26.659" fill="none" stroke="#d0cfce" stroke-miterlimit="10" stroke-width="2"/><path fill="#d0cfce" d="M16.5 54.409h37v5h-37zM28.89 32.1l7.773-17.337 8.212 3.682-7.773 17.337z"/></g><g data-name="1F52C" stroke="#000" stroke-width="2"><path d="M34.763 34.733a1.894 1.894 0 0 1-2.38.576 2 2 0 0 1-1.153-2.169" fill="#fff" stroke-linecap="round" stroke-linejoin="round"/><path fill="none" stroke-linecap="round" stroke-linejoin="round" d="M34.763 34.733l-5.873-2.634 7.773-17.337 8.212 3.682-7.773 17.337-2.339-1.048"/><path stroke-linecap="round" stroke-linejoin="round" fill="#9b9b9a" d="M18.055 43.538l19.162 8.591-.818 1.825-19.162-8.591z"/><path d="M39.721 30.252a1.994 1.994 0 0 0 .779.157 13 13 0 0 1 8.179 23.106 1.99 1.99 0 0 0-.653.97m-6.723-28.058A17.004 17.004 0 0 1 53.48 54.392" fill="none" stroke-miterlimit="10"/><path stroke-linecap="round" stroke-linejoin="round" fill="none" d="M16.5 54.409h37v5h-37zm23.876-41.817l3.65 1.636-1.336 2.978-3.65-1.636z"/></g></svg>