<svg xmlns="http://www.w3.org/2000/svg" viewBox="0 0 72 72"><path fill="#b399c8" d="M12 12h48v47.834H12z"/><path fill="none" stroke="#000" stroke-linecap="round" stroke-linejoin="round" stroke-width="3" d="M36 28.5h14.833l-2.792 4.438m-20.25-.366l7.188-13.166 2.516 4.651m-8.929 16.491l-8.185-12.571 5.288-.009M37 46.5H21.833l2.958-4.437m18.878-.339l-7.782 12.824-2.301-4.761m10.061-16.298l8.186 12.571-5.288.009"/><path d="M38.629 37.15a2.5 2.5 0 1 1-2.5-2.5 2.499 2.499 0 0 1 2.5 2.5z"/><path fill="none" stroke="#000" stroke-linecap="round" stroke-linejoin="round" stroke-width="2" d="M12.25 11.75h48v48h-48z"/></svg>