<svg xmlns="http://www.w3.org/2000/svg" viewBox="0 0 72 72"><path fill="#D0CFCE" d="M23.198 38.954L23.5 37.5c-1-1-1.075-2.116-1.032-2.623.032-.377-.145-3.074 4.614-7.687a7.075 7.075 0 0 0 1.224-1.552c.667-1.161 1.914-3.527 3.74-7.784 2.717-6.335 5.727 8.575 5.219 12.84-.067.558-.69 3.751-.783 4.306l-2.032 7.612"/><path fill="#FFF" d="M36.49 43.358c20.301-.654 13.098-26.85 12.443-23.575-.655 3.274-19.647 22.266-21.611 19.646-1.965-2.62-4.585-3.274-5.894-1.31-1.31 1.965-1.965 2.62-1.965 2.62s3.93-.655 4.584.655 2.732 5.607 6.55 5.894c0 0 1.303.445 3.928 5.894 3.062 6.354 15.717 0 11.788-3.275s-6.549-1.964-8.513-3.274-1.31-3.275-1.31-3.275z"/><g fill="none" stroke="#000" stroke-width="2" stroke-linecap="round" stroke-linejoin="round" stroke-miterlimit="10"><path d="M36.49 43.358c20.301-.654 13.098-26.85 12.443-23.575-.655 3.274-19.647 22.266-21.611 19.646-1.965-2.62-4.585-3.274-5.894-1.31-1.31 1.965-1.965 2.62-1.965 2.62s3.93-.655 4.584.655 2.732 5.607 6.55 5.894c0 0 1.303.445 3.928 5.894 3.062 6.354 15.717 0 11.788-3.275s-6.549-1.964-8.513-3.274-1.31-3.275-1.31-3.275z"/><path d="M36.545 29.314c.225-5.025-2.335-17.257-4.64-11.496-2.619 6.549-3.928 8.514-3.928 8.514-3.113 2.956-4.265 5.174-4.674 6.558"/></g></svg>