<svg xmlns="http://www.w3.org/2000/svg" viewBox="0 0 72 72"><g fill="#9B9B9A"><ellipse cx="36.5" cy="32.5" rx="6.5" ry="8.5"/><circle cx="36.5" cy="44.5" r="3.5"/></g><g fill="none" stroke="#000" stroke-width="2" stroke-linecap="round" stroke-linejoin="round" stroke-miterlimit="10"><path d="M29 16s-11 22 7 25m1 0c20-3 8-25 8-25m10.667 9.833S53 42.5 38 40.75M17.417 25.917S21.333 42 35.167 41m-.667 0S25 48.28 30 55m3-14.583S19 46 23 57m15.75-16.333S49 47 44 55m-2.917-14.417s14.084 5.917 9.5 17.167"/><ellipse cx="36.5" cy="32.5" rx="6.5" ry="8.5"/><circle cx="36.5" cy="44.5" r="3.5"/></g></svg>