<svg xmlns="http://www.w3.org/2000/svg" viewBox="0 0 72 72"><path fill="#9B9B9A" d="M24.125 23.75s7.5-.875 11.688-4.313c0 0 9.437 5.438 11.812 4.5 0 0 2.375 11.688 4.875 11.875 0 0-4.625 11.063-4.063 11.626 0 0-11.437 2.062-12.437 5.312 0 0-7-6.75-12-4.75 0 0-2.75-11.125-4.875-11.563 0 0 6.125-10.937 5-12.687z"/><path d="M12 36h48M36 12v48m16.971-40.971L19.029 52.971m33.942 0L19.029 19.029m-.696 17.054S24 30.5 23.5 23.75m12.608-5.378c-4.419 5.126-12.374 5.067-12.374 5.067m12.032-5.121s5.583 5.666 12.333 5.166m.311.234s-.06 7.955 5.067 12.375m.249.277s-5.667 5.583-5.167 12.333m-.234-.689s-7.955-.06-12.374 5.067m.343.054s-5.583-5.667-12.333-5.167M35.6 47s-3.144-3.192-6.946-2.91M23 49s.645-8.367-4.42-12.637m24.924 8.141s-4.874-.036-7.582 3.105m11.129-11.448s-3.472 3.421-3.165 7.557m1.728-16.46s-1.09 5.929 2.144 8.544M36.18 23.55s3.812 3.473 8.422 3.166m-16.814.418s4.874.036 7.582-3.105M24.434 35.557S27.906 32.136 27.6 28m-.582 15.814s.036-4.875-3.105-7.583" fill="none" stroke="#000" stroke-width="2" stroke-linecap="round" stroke-linejoin="round" stroke-miterlimit="10"/></svg>