<svg xmlns="http://www.w3.org/2000/svg" viewBox="0 0 72 72"><ellipse fill="#3F3F3F" cx="35.5" cy="34.5" rx="32.5" ry="13.5"/><path fill="#9B9B9A" d="M35.5 31c13.52 0 25.107 3.303 30.005 8C67.11 37.46 68 35.772 68 34c0-7.18-14.55-13-32.5-13S3 26.82 3 34c0 1.772.89 3.46 2.495 5 4.898-4.697 16.486-8 30.005-8z"/><g fill="none" stroke="#000" stroke-width="2" stroke-miterlimit="10"><ellipse cx="35.5" cy="34.5" rx="32.5" ry="13.5"/><path d="M35.5 31c13.52 0 25.107 3.303 30.005 8C67.11 37.46 68 35.772 68 34c0-7.18-14.55-13-32.5-13S3 26.82 3 34c0 1.772.89 3.46 2.495 5 4.898-4.697 16.486-8 30.005-8z"/></g></svg>