<svg xmlns="http://www.w3.org/2000/svg" viewBox="0 0 72 72"><path fill="#D0CFCE" d="M15.076 12.068v5.95H50.82l.644-5.95zM21.91 54.69l.5 5.281h21.517l.592-5.282z"/><path fill="#9B9B9A" d="M42.096 60.178h7.323l.515-5.73h-7.238zm14.433-47.89h-7.59l-.628 5.613h8.218z"/><g fill="none" stroke="#000" stroke-miterlimit="10"><path stroke-width="2" stroke-linecap="round" stroke-linejoin="round" d="M21.38 50.393l-3.607-28.381m36.49-.029l-3.757 28.395m-9.93-28.289l8.173 10.02M30.417 22.13l17.152 20.642M22.352 24.253l21.864 26.172M23.902 36.996L35.928 50.63m-10.611-1.234l1.363 1.357m-3.452-19.519l8.585-9.131M24.61 41.882L42.853 22.13m-15.968 28.5l22.497-23.915M36.574 50.63l11.543-11.946m-3.901 12.069l2.127-1.793M14.905 12.028H56.95v5.946H14.905z"/><path d="M42.853 54.404h7.271"/><path stroke-width="2" stroke-linecap="round" stroke-linejoin="round" d="M50.124 54.404l-.708 5.562H22.43l-.681-5.563h28.375"/></g></svg>