<svg xmlns="http://www.w3.org/2000/svg" viewBox="0 0 72 72"><path fill="#3F3F3F" d="M35 27.166h2s4-11 4-16v-.068a5 5 0 0 0-10-.005v.073c0 5 4 16 4 16"/><path fill="#9B9B9A" d="M28 27.166s-5 3 0 5c0 0 8-2 17 0 0 0 4-4-1-5 0 0-6 1-16 0z"/><path fill="#D0CFCE" d="M36 65.71a39.702 39.702 0 0 1-3.197-14.613l-.488-18.895s3.685-.492 7.685 0l-.488 18.895a39.698 39.698 0 0 1-3.197 14.613"/><g fill="none" stroke="#000" stroke-width="2" stroke-linecap="round" stroke-linejoin="round" stroke-miterlimit="10"><path d="M35 26.906h2s4-11 4-16v-.067a5 5 0 0 0-10-.006v.073c0 5 4 16 4 16m-7 0a3 3 0 1 0 0 6v-.015m16 0v.015a3 3 0 1 0 0-6m-16 0a32.985 32.985 0 0 0 16 0m0 5.985a32.983 32.983 0 0 0-16 0"/><path d="M36 65.71a39.702 39.702 0 0 1-3.197-14.613l-.488-18.895s3.685-.492 7.685 0l-.488 18.895a39.698 39.698 0 0 1-3.197 14.613"/></g></svg>