<svg xmlns="http://www.w3.org/2000/svg" viewBox="0 0 72 72"><g fill="#FFF" stroke-linecap="round" stroke-linejoin="round" stroke-miterlimit="10"><path stroke-width="2" d="M49 55l12 9-7-12"/><path stroke-width="2.089" d="M49.592 49.588l.012-.066 4.419 2.432m-5.33 2.825l.9-5.191m5.005 2.683l1.11.61-1.479-8.65-.206-1.208 4.146.538-3.512-6.49.68-.431 6.973-4.429-7.434-3.35 2.276-4.914-7.899 1.6.193-.643 2.51-8.364-7.62 2.896-.624.238-.013-.05-2.209-8.464-4.831 7.048-2.196 3.205-1.147-2.526L29.737 11l-3.579 7.887-.69 1.52-6.794-3.723 1.376 7.976-1.889.304-7.982 1.283 5.776 6.144.902.96-6.26 4.097 7.496 3.255.18.078-4.57 7.15 7.42-.347.091 1.55.513 8.783 6.091-5.77.89-.843 3.184 7.223 3.284-7.034.002.006L37.264 60l4.932-6.964.744-1.05 5.156 6.25.598-3.457m5.33-2.825l.574.317m-28.22-11.937"/></g><g fill="none" stroke="#000" stroke-linecap="round" stroke-linejoin="round" stroke-miterlimit="10"><path stroke-width="2" d="M49 55l12 9-7-12"/><path stroke-width="2.089" d="M49.592 49.588l.012-.066 4.419 2.432m-5.33 2.825l.9-5.191m5.005 2.683l1.11.61-1.479-8.65-.206-1.208 4.146.538-3.512-6.49.68-.431 6.973-4.429-7.434-3.35 2.276-4.914-7.899 1.6.193-.643 2.51-8.364-7.62 2.896-.624.238-.013-.05-2.209-8.464-4.831 7.048-2.196 3.205-1.147-2.526L29.737 11l-3.579 7.887-.69 1.52-6.794-3.723 1.376 7.976-1.889.304-7.982 1.283 5.776 6.144.902.96-6.26 4.097 7.496 3.255.18.078-4.57 7.15 7.42-.347.091 1.55.513 8.783 6.091-5.77.89-.843 3.184 7.223 3.284-7.034.002.006L37.264 60l4.932-6.964.744-1.05 5.156 6.25.598-3.457m5.33-2.825l.574.317m-28.22-11.937"/></g></svg>