<svg xmlns="http://www.w3.org/2000/svg" viewBox="0 0 72 72"><path fill="#FCEA2B" d="M34.197 13.582l-8.63 1.68-5.3 3.02-4.89 5.079-3.43 7.35v12.34l5.6 9.4 8.02 5.45 8.63 1.68 7.18-1.15 7.71-4.33 5.11-6.16 3-9.21-.75-7.98-3.81-7.91-4.21-4.32-7.25-3.86z"/><circle fill="none" stroke="#000" stroke-width="2" stroke-linecap="round" stroke-linejoin="round" stroke-miterlimit="10" cx="34.197" cy="36.581" r="23"/><path fill="none" stroke="#000" stroke-width="2" stroke-linecap="round" stroke-linejoin="round" stroke-miterlimit="10" d="M44.011 45.387c-5.851 4.708-14.1 4.688-19.63 0"/><path d="M30.08 34.775c-.367 0-.72-.203-.896-.553-.01-.02-1.213-2.322-3.418-2.322-2.23 0-3.406 2.299-3.418 2.322a1 1 0 1 1-1.789-.894c.07-.14 1.754-3.428 5.207-3.428s5.137 3.287 5.207 3.428a1 1 0 0 1-.892 1.447zm17.25 0c-.367 0-.72-.203-.896-.553-.01-.02-1.213-2.322-3.418-2.322-2.23 0-3.406 2.299-3.418 2.322a1 1 0 1 1-1.789-.894c.07-.14 1.754-3.428 5.207-3.428s5.137 3.287 5.207 3.428a1 1 0 0 1-.892 1.447z"/></svg>