<svg xmlns="http://www.w3.org/2000/svg" viewBox="0 0 72 72"><circle fill="#FCEA2B" cx="36.933" cy="36.382" r="22.933"/><path fill="#EA5A47" d="M46.001 50.498l1.652 2.302 2.983 2.912L52.91 57l2.328-.497 2.133-1.639.585-2.387-.779-1.979-1.382-1.761-1.382-1.241-1.145-1.34-1.982-1.464-1.116 1.29-1.551 2.11z"/><path fill="none" stroke="#000" stroke-width="2" stroke-linecap="round" stroke-linejoin="round" stroke-miterlimit="10" d="M58.25 45.196A22.93 22.93 0 0 0 60 36.382c0-12.703-10.298-23-23-23-12.703 0-23 10.297-23 23 0 12.702 10.297 23 23 23 3.37 0 6.572-.725 9.457-2.028"/><path d="M32.884 34.576c-.367 0-.72-.204-.896-.553-.01-.02-1.213-2.322-3.418-2.322-2.23 0-3.407 2.299-3.418 2.322a1 1 0 1 1-1.79-.895c.07-.14 1.755-3.427 5.208-3.427s5.136 3.287 5.207 3.427a1 1 0 0 1-.893 1.448zm17.25 0c-.367 0-.72-.204-.896-.553-.01-.02-1.213-2.322-3.418-2.322-2.23 0-3.407 2.299-3.418 2.322a1 1 0 1 1-1.79-.895c.07-.14 1.754-3.427 5.208-3.427s5.136 3.287 5.207 3.427a1 1 0 0 1-.893 1.448z"/><path fill="none" stroke="#000" stroke-width="2" stroke-miterlimit="10" d="M51.57 44.853s6.598 4.607 6.387 7.624l.002-.03c-.139 4.647-4.342 4.54-4.274 4.541-2.938.33-7.684-6.245-7.684-6.245"/><path fill="none" stroke="#000" stroke-width="2" stroke-linecap="round" stroke-linejoin="round" stroke-miterlimit="10" d="M21.166 41.74c2.232 6.6 8.478 11.354 15.834 11.354s13.602-4.753 15.835-11.356"/></svg>