<svg xmlns="http://www.w3.org/2000/svg" viewBox="0 0 72 72"><circle fill="#FCEA2B" cx="35.034" cy="36.051" r="23"/><path fill="#D22F27" d="M25.533 27.49c-1.265-3.355-6.44-3.57-6.117 1.317.044.649.281 1.272.642 1.814l5.318 6.422 5.22-6.266c.58-.696.923-1.578.906-2.485-.086-4.353-5.051-4.035-6.127-.804m19.46.002c-1.255-3.355-6.387-3.57-6.066 1.317.043.649.28 1.272.636 1.814l5.274 6.422 5.178-6.266c.575-.696.915-1.578.897-2.485-.085-4.353-5.009-4.035-6.076-.804"/><path fill="#FFF" d="M39.103 52.777l5.473-2.657 2.116-2.848.699-3.85-6.82.759-18.013-.758 2.347 6.697 5.718 2.657z"/><g fill="none" stroke="#000" stroke-width="2" stroke-linecap="round" stroke-linejoin="round" stroke-miterlimit="10"><circle cx="35.034" cy="36.051" r="23"/><path d="M22.558 42.724s12.757 3.098 24.893.067m.169-.067c0 5.63-4.178 10.105-12.554 10.105-8.374 0-12.607-4.489-12.607-10.105m3.074-15.234c-1.265-3.355-6.44-3.57-6.117 1.317.044.649.281 1.272.642 1.814l5.318 6.422h0l5.22-6.266c.58-.696.923-1.578.906-2.485-.086-4.353-5.051-4.035-6.127-.804m19.46.002c-1.255-3.355-6.387-3.57-6.066 1.317.043.649.28 1.272.636 1.814l5.274 6.422h0l5.178-6.266c.575-.696.915-1.578.897-2.485-.085-4.353-5.009-4.035-6.076-.804"/></g></svg>