<svg xmlns="http://www.w3.org/2000/svg" viewBox="0 0 72 72"><path fill="#FCEA2B" d="M34.109 61c12.702 0 23-10.165 23-22.703 0-5.677-2.11-10.867-5.6-14.847-.083-.096-.168-.19-.253-.285a23.036 23.036 0 0 0-4.217-3.646 23.104 23.104 0 0 0-12.93-3.925c-12.703 0-23 10.164-23 22.703 0 12.538 10.297 22.703 23 22.703z"/><path fill="none" stroke="#FCEA2B" stroke-width="1.8" stroke-miterlimit="10" d="M34.109 61c12.702 0 23-10.165 23-22.703 0-5.677-2.11-10.867-5.6-14.847-.083-.096-.168-.19-.253-.285a23.036 23.036 0 0 0-4.217-3.646 23.104 23.104 0 0 0-12.93-3.925c-12.703 0-23 10.164-23 22.703 0 12.538 10.297 22.703 23 22.703z"/><path fill="none" stroke="#000" stroke-width="2" stroke-linecap="round" stroke-linejoin="round" stroke-miterlimit="10" d="M43.924 47.4c-5.851 4.708-14.1 4.687-19.63 0"/><path d="M29.993 36.787c-.367 0-.72-.203-.896-.552-.01-.02-1.213-2.323-3.418-2.323-2.23 0-3.407 2.3-3.418 2.323a1 1 0 1 1-1.79-.895c.07-.14 1.755-3.428 5.208-3.428s5.136 3.287 5.207 3.428a1 1 0 0 1-.893 1.447zm17.25 0c-.367 0-.72-.203-.896-.552-.01-.02-1.213-2.323-3.418-2.323-2.23 0-3.407 2.3-3.418 2.323a1 1 0 1 1-1.79-.895c.07-.14 1.754-3.428 5.208-3.428 3.453 0 5.136 3.287 5.207 3.428a1 1 0 0 1-.893 1.447z"/><path fill="none" stroke="#000" stroke-width="2" stroke-linecap="round" stroke-linejoin="round" stroke-miterlimit="10" d="M45.88 18.663a22.841 22.841 0 0 0-11.739-3.225c-4.222 0-8.179 1.14-11.577 3.13m-6.744 5.996a22.847 22.847 0 0 0-4.627 13.822c0 12.673 10.273 22.948 22.948 22.948 12.673 0 22.948-10.275 22.948-22.948a22.848 22.848 0 0 0-4.726-13.951"/><ellipse fill="none" stroke="#000" stroke-width="2" stroke-miterlimit="10" cx="34" cy="17" rx="25" ry="5.288"/><ellipse fill="none" stroke="#61B2E4" stroke-width="2.1" stroke-miterlimit="10" cx="34" cy="17" rx="25" ry="5.288"/></svg>