<svg xmlns="http://www.w3.org/2000/svg" viewBox="0 0 72 72"><circle fill="#FCEA2B" cx="35.594" cy="36.262" r="23.955"/><path fill="#92D3F5" d="M53.843 17.157c-1.138 1.348-3.269 4.246-3.269 7.038a3.24 3.24 0 0 0 .956 2.31 3.25 3.25 0 0 0 2.314.96c1.747-.001 3.27-1.524 3.269-3.27 0-2.792-2.131-5.69-3.27-7.038z"/><path fill="#FFF" d="M50.478 41.87c0 1.59-.29 3.11-.87 4.49-12.49 3.03-25.43.34-27.49-.13-.55-1.34-.83-2.81-.83-4.36h.11s14.8 3.59 28.89.07l.19-.07z"/><path fill="#EA5A47" d="M49.608 46.36c-1.79 4.27-6.35 7.23-13.69 7.23-7.41 0-12.03-3.03-13.8-7.36 2.06.47 15 3.16 27.49.13z"/><path d="M57.552 27.903a5.21 5.21 0 0 1-3.708 1.535 5.211 5.211 0 0 1-3.71-1.536 5.202 5.202 0 0 1-1.534-3.707c0-4.614 4.36-9.026 4.546-9.211a.987.987 0 0 1 1.396 0c.185.185 4.545 4.597 4.545 9.21a5.204 5.204 0 0 1-1.535 3.71zm-3.709-10.746c-1.138 1.348-3.269 4.246-3.269 7.038a3.24 3.24 0 0 0 .956 2.31 3.25 3.25 0 0 0 2.314.96c1.747-.001 3.27-1.524 3.269-3.27 0-2.792-2.131-5.69-3.27-7.038z"/><path fill="none" stroke="#000" stroke-width="2" stroke-linecap="round" stroke-linejoin="round" stroke-miterlimit="10" d="M47.689 16.695a22.893 22.893 0 0 0-12.095-3.433c-12.703 0-23 10.297-23 23 0 12.702 10.297 23 23 23 12.702 0 23-10.298 23-23a23.09 23.09 0 0 0-.506-4.821"/><path d="M31.478 33.456c-.367 0-.72-.203-.896-.553-.01-.02-1.213-2.322-3.418-2.322-2.23 0-3.407 2.299-3.418 2.322a1 1 0 1 1-1.79-.894c.07-.141 1.755-3.428 5.208-3.428s5.136 3.287 5.207 3.428a1 1 0 0 1-.893 1.447zm17.25 0c-.367 0-.72-.203-.896-.553-.01-.02-1.213-2.322-3.418-2.322-2.23 0-3.407 2.299-3.418 2.322a1 1 0 1 1-1.79-.894c.07-.141 1.754-3.428 5.208-3.428 3.453 0 5.136 3.287 5.207 3.428a1 1 0 0 1-.893 1.447z"/><path fill="none" stroke="#000" stroke-width="2" stroke-linecap="round" stroke-linejoin="round" stroke-miterlimit="10" d="M50.478 41.87c0 1.59-.29 3.11-.87 4.49-12.49 3.03-25.43.34-27.49-.13-.55-1.34-.83-2.81-.83-4.36h.11s14.8 3.59 28.89.07l.19-.07z"/><path fill="none" stroke="#000" stroke-width="2" stroke-linecap="round" stroke-linejoin="round" stroke-miterlimit="10" d="M49.608 46.36c-1.79 4.27-6.35 7.23-13.69 7.23-7.41 0-12.03-3.03-13.8-7.36 2.06.47 15 3.16 27.49.13z"/></svg>