<svg xmlns="http://www.w3.org/2000/svg" viewBox="0 0 72 72"><circle cx="36.343" cy="36.877" r="23" fill="#fcea2b"/><path d="M21.864 42.74s14.805 3.595 28.887.077l.196-.077c0 6.533-4.849 11.726-14.568 11.726-9.717 0-14.63-5.21-14.63-11.726z" fill="#fff"/><path d="M22.567 47.098c2.013.46 14.978 3.179 27.51.136l-.006.014c-1.796 4.26-6.357 7.218-13.692 7.218-7.414 0-12.03-3.032-13.803-7.364z" fill="#ea5a47"/><circle cx="36.343" cy="36.877" r="23" fill="none" stroke="#000" stroke-linecap="round" stroke-linejoin="round" stroke-width="2"/><circle cx="27.532" cy="33.454" r="2.604"/><circle cx="44.782" cy="33.454" r="2.604"/><path d="M21.864 42.74s14.805 3.595 28.887.077l.196-.077c0 6.533-4.849 11.726-14.568 11.726-9.717 0-14.63-5.21-14.63-11.726z" fill="none" stroke="#000" stroke-linecap="round" stroke-linejoin="round" stroke-width="2"/><path d="M22.297 47.035s14.49 3.594 28.271.077" fill="none" stroke="#000" stroke-linejoin="round" stroke-width="2"/></svg>