<svg xmlns="http://www.w3.org/2000/svg" viewBox="0 0 72 72"><path fill="#D22F27" d="M49 21c3-2 4-5 3-9 7 2 6 10 3 15m-31.712-6c-3-2-4-5-3-9-7 2-6 10-3 15"/><path fill="#EA5A47" d="M36.2 18.316c-12.572 0-22.8 10.228-22.8 22.8 0 12.572 10.228 22.8 22.8 22.8 12.572 0 22.8-10.228 22.8-22.8 0-12.572-10.228-22.8-22.8-22.8z"/><circle fill="none" stroke="#000" stroke-width="2" stroke-miterlimit="10" cx="36" cy="41" r="23"/><path d="M30.317 37.925a3.001 3.001 0 0 1-6 0c0-1.655 1.345-3 3-3s3 1.345 3 3m18 0a3.001 3.001 0 0 1-6 0c0-1.655 1.345-3 3-3s3 1.345 3 3"/><path fill="none" stroke="#000" stroke-width="2" stroke-linecap="round" stroke-linejoin="round" stroke-miterlimit="10" d="M23 30l7 4m19-4l-7 4m7-13c3-2 4-5 3-9 7 2 6 10 3 15m-31.712-6c-3-2-4-5-3-9-7 2-6 10-3 15M43 48c-1.284.638-3.985 1.03-6.842.998-2.624-.03-4.99-.414-6.158-.998"/></svg>