<svg xmlns="http://www.w3.org/2000/svg" xmlns:xlink="http://www.w3.org/1999/xlink" viewBox="0 0 72 72"><defs><path id="a" d="M1 1h1L1 2z"/></defs><defs><path id="c" d="M-1-1h-1l1-1z"/></defs><clipPath id="b"><use xlink:href="#a" overflow="visible"/></clipPath><clipPath id="d" clip-path="url(#b)"><use xlink:href="#c" overflow="visible"/></clipPath><path clip-path="url(#d)" fill="#FCEA2B" d="M8.637 8.056h55.25v56H8.637z"/><circle fill="#FCEA2B" cx="35.887" cy="36.056" r="23"/><path fill="#3F3F3F" d="M45.331 38.564c3.963 0 7.178-2.862 7.178-6.389 0-1.765.448-3.53-.852-4.685s-4.345-1.704-6.326-1.704c-2.357 0-5.143.143-6.451 1.704-.894 1.065-.727 3.253-.727 4.685 0 3.527 3.212 6.389 7.178 6.389zm-19.593 0c3.963 0 7.179-2.862 7.179-6.389 0-1.765.447-3.53-.852-4.685s-4.345-1.704-6.327-1.704c-2.356 0-5.142.143-6.451 1.704-.893 1.065-.727 3.253-.727 4.685 0 3.527 3.213 6.389 7.178 6.389z"/><g fill="none" stroke="#000" stroke-width="2" stroke-linecap="round" stroke-linejoin="round" stroke-miterlimit="10"><circle cx="35.887" cy="36.056" r="23"/><path d="M45.702 44.862c-6.574 3.525-14.045 3.658-19.63 0m-7.189-14.398s-.953 8.55 6.86 7.918c2.62-.212 7.817-.65 7.867-8.342.005-.698-.007-1.6-.81-2.63-1.065-1.367-3.572-1.971-9.945-1.422 0 0-3.446-.1-3.972 4.476z"/><path d="M18.953 29.93l-.433-3.37 3.833-.528m30.388 4.432s.953 8.55-6.86 7.918c-2.62-.212-7.817-.65-7.868-8.342-.004-.698.008-1.6.811-2.63 1.065-1.367 3.572-1.971 9.945-1.422 0 0 3.446-.1 3.972 4.476zm-21.236-4.048s4.124 2.534 8.657 0m-6.626 4.902s2.202-3.751 4.536 0"/><path d="M52.664 29.933l.433-3.371-3.833-.528m-15.309 3.993s1.795-3.75 3.699 0"/></g></svg>