<svg xmlns="http://www.w3.org/2000/svg" viewBox="0 0 72 72"><circle fill="#FCEA2B" cx="36.5" cy="36.581" r="23"/><circle fill="none" stroke="#000" stroke-width="2" stroke-linecap="round" stroke-linejoin="round" stroke-miterlimit="10" cx="36.5" cy="36.581" r="23"/><path fill="none" stroke="#000" stroke-width="2" stroke-linecap="round" stroke-linejoin="round" stroke-miterlimit="10" d="M46.315 45.387c-5.852 4.708-14.1 4.688-19.63 0"/><path d="M41.006 29.9c.367 0 .72.203.896.553.01.02 1.213 2.322 3.419 2.322 2.23 0 3.406-2.299 3.418-2.322a1 1 0 1 1 1.789.894c-.07.14-1.754 3.428-5.207 3.428s-5.137-3.287-5.207-3.428a1 1 0 0 1 .892-1.447zm-17.25 0c.367 0 .72.203.896.553.01.02 1.213 2.322 3.418 2.322 2.231 0 3.407-2.299 3.418-2.322a1 1 0 1 1 1.79.894c-.07.14-1.754 3.428-5.207 3.428s-5.137-3.287-5.207-3.428a1 1 0 0 1 .892-1.447z"/><path fill="none" stroke="#000" stroke-width="2" stroke-linecap="round" stroke-linejoin="round" stroke-miterlimit="10" d="M22.349 27.726a7.403 7.403 0 0 1 3.98-3.521 7.4 7.4 0 0 1 5.318-.494m20.636 4.015a8.44 8.44 0 0 0-9.285-4.027"/></svg>