<svg xmlns="http://www.w3.org/2000/svg" viewBox="0 0 72 72"><path fill="none" stroke="#FFF" stroke-width="4" stroke-linejoin="round" stroke-miterlimit="10" d="M21.3 44.737s14.49 3.595 28.271.077"/><circle fill="#FCEA2B" cx="35.297" cy="36.41" r="23.955"/><path fill="#FFF" d="M50.18 42.019c0 1.59-.29 3.11-.87 4.49-12.49 3.03-25.43.34-27.49-.13-.55-1.34-.83-2.81-.83-4.36h.11s14.8 3.59 28.89.07l.19-.07z"/><path fill="#EA5A47" d="M49.31 46.508c-1.79 4.27-6.35 7.23-13.69 7.23-7.41 0-12.03-3.03-13.8-7.36 2.06.47 15 3.16 27.49.13z"/><g fill="none" stroke="#000" stroke-width="2" stroke-linejoin="round" stroke-miterlimit="10"><path stroke-linecap="round" d="M20.853 42.274s14.805 3.594 28.887.077m.196-.077c0 6.532-4.849 11.725-14.568 11.725-9.717 0-14.63-5.209-14.63-11.725"/><path d="M21.286 46.568s14.49 3.595 28.271.078"/><path stroke-linecap="round" d="M24.82 27.823l6.587 4.014-6.587 3.738m21.664-7.752l-6.587 4.014 6.587 3.738"/><circle stroke-linecap="round" cx="35.332" cy="36.41" r="23"/></g></svg>