<svg xmlns="http://www.w3.org/2000/svg" viewBox="0 0 72 72"><circle fill="#FCEA2B" cx="35.4" cy="36.596" r="23"/><path fill="#FFF" d="M50.478 41.87c0 1.59-.29 3.11-.87 4.49-12.49 3.03-25.43.34-27.49-.13-.55-1.34-.83-2.81-.83-4.36h.11s14.8 3.59 28.89.07l.19-.07z"/><path fill="#EA5A47" d="M49.608 46.36c-1.79 4.27-6.35 7.23-13.69 7.23-7.41 0-12.03-3.03-13.8-7.36 2.06.47 15 3.16 27.49.13z"/><circle fill="none" stroke="#000" stroke-width="2" stroke-linecap="round" stroke-linejoin="round" stroke-miterlimit="10" cx="35.4" cy="36.596" r="23"/><path d="M31.285 33.79c-.368 0-.721-.204-.897-.554-.01-.019-1.213-2.322-3.418-2.322-2.23 0-3.406 2.3-3.418 2.322a1 1 0 1 1-1.789-.894c.07-.14 1.754-3.428 5.207-3.428s5.137 3.287 5.207 3.428a1 1 0 0 1-.892 1.447zm17.25 0c-.368 0-.721-.204-.897-.554-.01-.019-1.213-2.322-3.418-2.322-2.23 0-3.406 2.3-3.418 2.322a1 1 0 1 1-1.789-.894c.07-.14 1.754-3.428 5.207-3.428s5.137 3.287 5.207 3.428a1 1 0 0 1-.892 1.447z"/><path fill="none" stroke="#000" stroke-width="2" stroke-linecap="round" stroke-linejoin="round" stroke-miterlimit="10" d="M50.478 41.87c0 1.59-.29 3.11-.87 4.49-12.49 3.03-25.43.34-27.49-.13-.55-1.34-.83-2.81-.83-4.36h.11s14.8 3.59 28.89.07l.19-.07z"/><path fill="none" stroke="#000" stroke-width="2" stroke-linecap="round" stroke-linejoin="round" stroke-miterlimit="10" d="M49.608 46.36c-1.79 4.27-6.35 7.23-13.69 7.23-7.41 0-12.03-3.03-13.8-7.36 2.06.47 15 3.16 27.49.13z"/></svg>