<svg xmlns="http://www.w3.org/2000/svg" viewBox="0 0 72 72"><circle fill="#FCEA2B" cx="34.607" cy="36" r="23.955"/><path fill="#EA5A47" d="M36.86 51.023l3.024-1.346 1.168-1.443.32-1.61-3.7.045h-9.968l1.314 3.008 3.159 1.346z"/><path fill="none" stroke="#000" stroke-width="2" stroke-linecap="round" stroke-linejoin="round" stroke-miterlimit="10" d="M19.255 30.01a6.283 6.283 0 0 1 2.66-3.642 6.28 6.28 0 0 1 4.32-1.376M49.61 31.07a7.163 7.163 0 0 0-8.508-1.17m.288 15.851c0 2.937-2.308 5.272-6.935 5.272-4.625 0-6.963-2.342-6.963-5.272m.054 0s7.047 2.52 13.75.055m4.314-9.963c-.804-.469-1.769-.905-2.87-.923-1.116-.018-2.117.309-3.18.776"/><circle cx="26.686" cy="35.291" r="2.556"/><circle fill="none" stroke="#000" stroke-width="2" stroke-linecap="round" stroke-linejoin="round" stroke-miterlimit="10" cx="34.607" cy="35.983" r="22.914"/></svg>