<svg xmlns="http://www.w3.org/2000/svg" viewBox="0 0 72 72"><circle fill="#FCEA2B" cx="35.782" cy="36.8" r="23.928"/><path fill="#FFF" d="M50.46 43.15c0 1.59-.29 3.11-.87 4.49-12.49 3.03-25.43.34-27.49-.13-.55-1.34-.83-2.81-.83-4.36h.11s14.8 3.59 28.89.07l.19-.07z"/><path fill="#EA5A47" d="M49.59 47.64c-1.79 4.27-6.35 7.23-13.69 7.23-7.41 0-12.03-3.03-13.8-7.36 2.06.47 15 3.16 27.49.13z"/><path fill="#92D3F5" d="M14.446 39.904c-1.866.158-5.639.733-7.734 2.828a3.439 3.439 0 0 0-1.017 2.45c0 .928.36 1.8 1.017 2.456 1.311 1.311 3.597 1.311 4.906 0 2.095-2.095 2.67-5.868 2.828-7.734zm45.136 7.734c1.31 1.311 3.595 1.311 4.906 0a3.448 3.448 0 0 0 1.017-2.455c0-.925-.36-1.796-1.017-2.451-2.095-2.095-5.868-2.67-7.734-2.828.158 1.866.733 5.639 2.828 7.734z"/><path fill="none" stroke="#000" stroke-width="2" stroke-linecap="round" stroke-linejoin="round" stroke-miterlimit="10" d="M58.63 34.14a22.538 22.538 0 0 0-.02-.167C57.215 22.603 47.526 13.8 35.781 13.8c-11.622 0-21.245 8.726-22.796 19.92-.015.107-.039.313-.052.42m4.032 15.889c4.179 5.768 11.149 9.771 18.817 9.771 7.667 0 14.578-3.919 18.757-9.687"/><path d="M31.576 36.993c-.368 0-.721-.203-.897-.552-.01-.02-1.213-2.323-3.418-2.323-2.23 0-3.406 2.3-3.418 2.323a1 1 0 1 1-1.789-.895c.07-.14 1.754-3.428 5.207-3.428s5.137 3.288 5.207 3.428a1 1 0 0 1-.892 1.447zm17.25 0c-.368 0-.721-.203-.897-.552-.01-.02-1.213-2.323-3.418-2.323-2.23 0-3.406 2.3-3.418 2.323a1 1 0 1 1-1.789-.895c.07-.14 1.754-3.428 5.207-3.428s5.137 3.288 5.207 3.428a1 1 0 0 1-.892 1.447zM9.165 50.75a5.529 5.529 0 0 1-3.934-1.63A5.53 5.53 0 0 1 3.6 45.182a5.52 5.52 0 0 1 1.63-3.932c3.462-3.462 10.044-3.501 10.322-3.501.58 0 1.048.469 1.048 1.047 0 .279-.039 6.86-3.5 10.322a5.521 5.521 0 0 1-3.935 1.63zm5.28-10.846c-1.865.158-5.638.733-7.733 2.828a3.439 3.439 0 0 0-1.017 2.45c0 .928.36 1.8 1.017 2.456 1.311 1.311 3.597 1.311 4.906 0 2.095-2.095 2.67-5.868 2.828-7.734zM58.1 49.12c-3.461-3.462-3.5-10.044-3.5-10.322 0-.58.469-1.048 1.048-1.048.278 0 6.86.039 10.321 3.5a5.52 5.52 0 0 1 1.631 3.933 5.53 5.53 0 0 1-1.63 3.936 5.529 5.529 0 0 1-3.935 1.63 5.521 5.521 0 0 1-3.934-1.63zm1.482-1.482c1.31 1.311 3.595 1.311 4.906 0a3.448 3.448 0 0 0 1.017-2.455c0-.925-.36-1.796-1.017-2.451-2.095-2.095-5.868-2.67-7.734-2.828.158 1.866.733 5.639 2.828 7.734z"/><path fill="none" stroke="#000" stroke-width="2" stroke-linecap="round" stroke-linejoin="round" stroke-miterlimit="10" d="M20.124 29a6.306 6.306 0 0 1 3.391-3 6.304 6.304 0 0 1 4.53-.42M50.735 29a7.19 7.19 0 0 0-7.91-3.43m7.635 17.58c0 1.59-.29 3.11-.87 4.49-12.49 3.03-25.43.34-27.49-.13-.55-1.34-.83-2.81-.83-4.36h.11s14.8 3.59 28.89.07l.19-.07z"/><path fill="none" stroke="#000" stroke-width="2" stroke-linecap="round" stroke-linejoin="round" stroke-miterlimit="10" d="M49.59 47.64c-1.79 4.27-6.35 7.23-13.69 7.23-7.41 0-12.03-3.03-13.8-7.36 2.06.47 15 3.16 27.49.13z"/></svg>