<svg xmlns="http://www.w3.org/2000/svg" viewBox="0 0 72 72"><circle fill="#FCEA2B" cx="36.332" cy="35.952" r="23"/><path fill="#FFF" d="M50.768 41.87c0 1.59-.29 3.11-.87 4.49-12.49 3.03-25.43.34-27.49-.13-.55-1.34-.83-2.81-.83-4.36h.11s14.8 3.59 28.89.07l.19-.07z"/><path fill="#EA5A47" d="M49.898 46.36c-1.79 4.27-6.35 7.23-13.69 7.23-7.41 0-12.03-3.03-13.8-7.36 2.06.47 15 3.16 27.49.13z"/><circle fill="none" stroke="#000" stroke-width="2" stroke-linecap="round" stroke-linejoin="round" stroke-miterlimit="10" cx="36.332" cy="35.952" r="23"/><ellipse cx="29.237" cy="30.77" rx="3" ry="5.404"/><ellipse cx="44.1" cy="30.773" rx="3" ry="5.404"/><path fill="none" stroke="#000" stroke-width="2" stroke-linecap="round" stroke-linejoin="round" stroke-miterlimit="10" d="M50.768 41.87c0 1.59-.29 3.11-.87 4.49-12.49 3.03-25.43.34-27.49-.13-.55-1.34-.83-2.81-.83-4.36h.11s14.8 3.59 28.89.07l.19-.07z"/><path fill="none" stroke="#000" stroke-width="2" stroke-linecap="round" stroke-linejoin="round" stroke-miterlimit="10" d="M49.898 46.36c-1.79 4.27-6.35 7.23-13.69 7.23-7.41 0-12.03-3.03-13.8-7.36 2.06.47 15 3.16 27.49.13z"/></svg>