<svg xmlns="http://www.w3.org/2000/svg" viewBox="0 0 72 72"><circle fill="#FCEA2B" cx="37.03" cy="36.4" r="22.569"/><path fill="#D22F27" d="M53.698 44.44a3.62 3.62 0 0 0-4.532 4.378l.11.352 3.798 9.721 8.556-6.086a3.585 3.585 0 0 0 1.275-1.843 3.62 3.62 0 0 0-2.43-4.5 3.59 3.59 0 0 0-3.704 1.033.314.314 0 0 1-.541-.162 3.59 3.59 0 0 0-2.532-2.894z"/><path fill="none" stroke="#000" stroke-width="2" stroke-linecap="round" stroke-linejoin="round" stroke-miterlimit="10" d="M21.275 30.056a6.306 6.306 0 0 1 2.67-3.656 6.303 6.303 0 0 1 4.336-1.38m23.463 6.1a7.19 7.19 0 0 0-8.54-1.175m4.524 5.965c-.806-.47-1.775-.908-2.88-.926-1.12-.017-2.125.31-3.191.779"/><path fill="none" stroke="#000" stroke-width="2" stroke-linecap="round" stroke-linejoin="round" stroke-miterlimit="10" d="M59.056 41.412c.411-1.72.629-3.515.629-5.361 0-12.703-10.298-23-23-23-12.704 0-23 10.297-23 23 0 12.702 10.296 23 23 23 3.62 0 7.045-.837 10.092-2.327"/><circle cx="28.724" cy="35.357" r="2.555"/><path fill="none" stroke="#000" stroke-width="2" stroke-linecap="round" stroke-linejoin="round" stroke-miterlimit="10" d="M37.099 42.142s10.524 3.195 0 5.564c0 0 10.457 2.988 0 4.912"/><path fill="none" stroke="#000" stroke-miterlimit="10" d="M52.838 59.68a.314.314 0 0 1-.202-.185l-3.951-10.117-.122-.387a4.242 4.242 0 0 1 5.314-5.153 4.204 4.204 0 0 1 2.844 2.836 4.205 4.205 0 0 1 3.933-.812 4.248 4.248 0 0 1 2.853 5.28A4.214 4.214 0 0 1 62 53.31l-8.891 6.325a.315.315 0 0 1-.272.045zm.86-15.24a3.62 3.62 0 0 0-4.532 4.378l.11.352 3.798 9.721 8.556-6.086a3.585 3.585 0 0 0 1.275-1.843 3.62 3.62 0 0 0-2.43-4.5 3.59 3.59 0 0 0-3.704 1.033.314.314 0 0 1-.541-.162 3.59 3.59 0 0 0-2.532-2.894z"/></svg>