<svg xmlns="http://www.w3.org/2000/svg" viewBox="0 0 72 72"><path fill="#FCEA2B" d="M35.25 13.05l-8.63 1.68-5.3 3.021-4.89 5.08L13 30.18v12.34l5.6 9.4 8.02 5.45 8.63 1.68 7.18-1.15 7.71-4.33 5.11-6.16 3-9.21-.75-7.98-3.81-7.91-4.21-4.32-7.25-3.86z"/><g fill="none" stroke="#000" stroke-width="2" stroke-linecap="round" stroke-linejoin="round" stroke-miterlimit="10"><path d="M35.836 42.142s10.525 3.195 0 5.564c0 0 10.458 2.988 0 4.912M20.53 27.251a6.306 6.306 0 0 1 3.39-3 6.304 6.304 0 0 1 4.53-.42m21.69 3.42a7.19 7.19 0 0 0-7.91-3.43M22.905 34.295s3.932-2.17 8 0m9.25 0s3.932-2.17 8 0"/><ellipse cx="35.421" cy="36.049" rx="23" ry="23"/></g></svg>