<svg xmlns="http://www.w3.org/2000/svg" viewBox="0 0 72 72"><path fill="#FCEA2B" d="M60.801 37.02c0 13.144-10.656 23.8-23.801 23.8s-23.802-10.656-23.802-23.8S23.878 12.435 37 13.217c8.43.502 23.801 10.656 23.801 23.801z"/><path fill="#92D3F5" d="M23.847 12c-1.933 1.978-4.592 5.261-4.91 9.621-.2 2.73 2.008 5.284 4.733 5.481a5.13 5.13 0 0 0 5.484-4.732C29.47 18.009 26 14 23.847 12z"/><g fill="none" stroke="#000" stroke-width="2" stroke-miterlimit="10"><path d="M20.56 25.012a5.027 5.027 0 0 1-1.481-3.579c0-4.45 4.206-8.708 4.385-8.887a.952.952 0 0 1 1.347 0c.18.18 4.386 4.437 4.387 8.888h0a5.066 5.066 0 0 1-5.06 5.059 5.018 5.018 0 0 1-3.577-1.48z"/><path stroke-linecap="round" stroke-linejoin="round" d="M29 47c1.58-2.558 4.904-4.135 8.421-4.004C40.65 43.116 43.562 44.66 45 47m-4-13.275c.413-.344 2.246-1.791 4.91-1.636 2.16.126 3.61 1.233 4.09 1.636m-27 0c.413-.344 2.246-1.791 4.91-1.636 2.16.126 3.61 1.233 4.09 1.636"/><path stroke-linecap="round" stroke-linejoin="round" d="M31.61 14.619c.99-.237 2.425-.515 3.898-.57 8.512-.32 23.478 6.605 24.444 21.46.824 12.675-8.784 23.619-21.46 24.443s-23.62-8.784-24.443-21.46c-.343-5.269 1.303-9.586 2.445-11.893"/></g></svg>