<svg xmlns="http://www.w3.org/2000/svg" viewBox="0 0 72 72"><path fill="#fcea2b" d="M36.2 13.316c-12.572 0-22.8 10.228-22.8 22.8 0 12.572 10.228 22.8 22.8 22.8 12.572 0 22.8-10.228 22.8-22.8 0-12.572-10.228-22.8-22.8-22.8z"/><path fill="#FFF" d="M41.748 46.593c2.018-1.09 3.628-2.752 4.497-4.775-1.985.985-6.158 1.593-10.574 1.543-4.055-.047-7.712-.641-9.518-1.543h-.238c.939 2.165 2.718 3.899 4.917 4.973"/><path fill="#ea5a47" d="M41.657 42.818c0 6.075-2.532 11-5.656 11-3.124 0-5.656-4.925-5.656-11"/><g fill="none" stroke="#000" stroke-width="2" stroke-miterlimit="10"><circle cx="36" cy="36" r="23"/><path stroke-linecap="round" stroke-linejoin="round" d="M24 27l7 4-7 4m24-8l-7 4 7 4M30.832 46.79c-2.2-1.073-3.978-2.807-4.917-4.972m20.33 0c-.87 2.023-2.479 3.685-4.497 4.775m-15.595-4.775c1.806.902 5.463 1.496 9.518 1.543 4.416.05 8.59-.558 10.574-1.543"/><path stroke-linejoin="round" d="M41.74 42.818c0 6.075-2.533 11-5.657 11s-5.656-4.925-5.656-11"/></g></svg>