<svg xmlns="http://www.w3.org/2000/svg" viewBox="0 0 72 72"><path fill="#FCEA2B" d="M34.162 12.506l-8.63 1.68-5.3 3.02-4.89 5.079-3.43 7.35v12.34l5.6 9.4 8.02 5.45 8.63 1.68 7.18-1.15 7.71-4.33 5.11-6.159 3-9.21-.75-7.98-3.81-7.91-4.21-4.32-7.25-3.86z"/><path fill="none" stroke="#000" stroke-width="2" stroke-linecap="round" stroke-linejoin="round" stroke-miterlimit="10" d="M34.748 41.597s10.525 3.195 0 5.563c0 0 10.458 2.989 0 4.913"/><path d="M30.131 33.7c-.367 0-.72-.204-.896-.554-.01-.02-1.213-2.322-3.418-2.322-2.23 0-3.406 2.299-3.418 2.322a1 1 0 1 1-1.79-.894c.071-.14 1.755-3.428 5.208-3.428s5.136 3.287 5.207 3.428a1 1 0 0 1-.893 1.447zm17.25 0c-.367 0-.72-.204-.896-.554-.01-.02-1.213-2.322-3.418-2.322-2.23 0-3.407 2.299-3.418 2.322a1 1 0 1 1-1.79-.894c.071-.14 1.755-3.428 5.208-3.428 3.453 0 5.136 3.287 5.207 3.428a1 1 0 0 1-.893 1.447z"/><ellipse fill="none" stroke="#000" stroke-width="2" stroke-linecap="round" stroke-linejoin="round" stroke-miterlimit="10" cx="34.333" cy="35.504" rx="23" ry="23"/></svg>