<svg xmlns="http://www.w3.org/2000/svg" viewBox="0 0 72 72"><path fill="#fcea2b" d="M36 13.116c-12.682 0-23 10.318-23 23s10.318 23 23 23 23-10.318 23-23-10.318-23-23-23z"/><circle fill="none" stroke="#000" stroke-width="2" stroke-miterlimit="10" cx="36" cy="36" r="23"/><path d="M30.317 30.925a3.001 3.001 0 0 1-6 0c0-1.655 1.345-3 3-3s3 1.345 3 3m18 0a3.001 3.001 0 0 1-6 0c0-1.655 1.345-3 3-3s3 1.345 3 3"/><path fill="none" stroke="#000" stroke-width="2" stroke-linecap="round" stroke-linejoin="round" stroke-miterlimit="10" d="M27 44.126c1.877-1.542 5.824-2.494 10-2.415 3.834.073 7.293 1.003 9 2.415M22 27c1.185-2.42 3-5 9-4m20 4c-1.185-2.42-3-5-9-4"/></svg>