<svg xmlns="http://www.w3.org/2000/svg" viewBox="0 0 72 72"><path fill="#fcea2b" d="M36 13.116c-12.682 0-23 10.318-23 23s10.318 23 23 23 23-10.318 23-23-10.318-23-23-23z"/><circle fill="none" stroke="#000" stroke-width="2" stroke-miterlimit="10" cx="36" cy="36" r="23"/><path fill="none" stroke="#000" stroke-width="2" stroke-linecap="round" stroke-linejoin="round" stroke-miterlimit="10" d="M29 43c1.284-.638 3.985-1.03 6.842-.998 2.624.03 4.99.414 6.158.998"/><circle cx="27.724" cy="30.715" r="3"/><circle cx="44.974" cy="30.715" r="3"/><path fill="none" stroke="#000" stroke-width="2" stroke-linecap="round" stroke-linejoin="round" stroke-miterlimit="10" d="M23 24.725c.413-.344 2.246-1.791 4.91-1.636 2.16.126 3.61 1.233 4.09 1.636m8-1.648c.413.344 2.246 1.792 4.91 1.637 2.16-.126 3.61-1.233 4.09-1.637m9.834-16.023c.714-1.465 2.487-2.273 4.28-1.845h0c2.048.488 3.346 2.404 2.899 4.279-.447 1.875-2.47 3-4.518 2.511l-.465 1.95"/><ellipse transform="rotate(-76.592 59.909 18.81)" cx="59.911" cy="18.812" rx="1.995" ry="1.995"/></svg>