<svg xmlns="http://www.w3.org/2000/svg" viewBox="0 0 72 72"><path d="M52 52.38c.877-1.631 1-5.38 1-7.38 0-4-4-11-4-11m-5 2s3 6.728 3 10c0 3.065-1 8-1 10m-26-3.6c-.877-1.631-1-5.4-1-7.4 0-4 4-11 4-11m5 2s-3 6.728-3 10c0 3.065 1 8 1 10" fill="none" stroke="#000" stroke-width="2" stroke-linecap="round" stroke-linejoin="round" stroke-miterlimit="10"/><path fill="#FCEA2B" d="M36.2 13.316c-12.572 0-22.8 10.228-22.8 22.8 0 12.572 10.228 22.8 22.8 22.8 12.572 0 22.8-10.228 22.8-22.8 0-12.572-10.228-22.8-22.8-22.8z"/><path fill="#FFF" d="M31.78 31.463A4.464 4.464 0 1 1 27.317 27c2.463 0 4.463 2 4.463 4.463m18 0c0 2.464-2 4.462-4.463 4.462a4.464 4.464 0 0 1-4.462-4.462c0-2.463 2-4.463 4.462-4.463s4.463 2 4.463 4.463M28 50c.27-.356 3.31-8.218 8.421-8.004C41.026 42.19 43.65 49.537 44 50H28z"/><path fill="#92D3F5" d="M44 36s3 6.728 3 10c0 3.065-1 8-1 10 0 1.803 5.146-2.412 6-4 .877-1.631 1-5 1-7 0-4-4-11-4-11m-21 2s-3 6.728-3 10c0 3.065 1 8 1 10 0 1.803-5.146-2.412-6-4-.877-1.631-1-5-1-7 0-4 4-11 4-11"/><path d="M29.317 31.925a2 2 0 1 1-4.001-.001 2 2 0 0 1 4.001.001m18 0a2 2 0 1 1-4.001-.001 2 2 0 0 1 4.001.001"/><path fill="none" stroke="#000" stroke-width="2" stroke-linecap="round" stroke-linejoin="round" stroke-miterlimit="10" d="M28 50c.27-.356 1-8 8.421-8.004C43 41.993 43.65 49.537 44 50H28zm-5.061-27.75c.487.228 2.627 1.16 5.163.333 2.058-.672 3.178-2.112 3.54-2.624m17 2.291c-.487.228-2.628 1.16-5.164.333-2.057-.672-3.177-2.112-3.54-2.624"/><path fill="none" stroke="#000" stroke-width="2" stroke-miterlimit="10" d="M31.78 31.463A4.464 4.464 0 1 1 27.317 27c2.463 0 4.463 2 4.463 4.463m18 0c0 2.464-2 4.462-4.463 4.462a4.464 4.464 0 0 1-4.462-4.462c0-2.463 2-4.463 4.462-4.463s4.463 2 4.463 4.463"/><circle fill="none" stroke="#000" stroke-width="2" stroke-miterlimit="10" cx="36" cy="36" r="23"/></svg>