<svg xmlns="http://www.w3.org/2000/svg" viewBox="0 0 72 72"><path fill="#fcea2b" d="M13.5 36.116c0 12.572 10.228 22.8 22.8 22.8 12.572 0 22.8-10.228 22.8-22.8 0-12.572-10.228-22.8-22.8-22.8-12.572 0-22.8 10.228-22.8 22.8z"/><path fill="#92d3f5" d="M14.74 47.363a5.13 5.13 0 0 0 1.019 7.172c2.183 1.643 5.525 1.171 7.17-1.017 2.627-3.494 2.695-7.847 2.54-10.608-2.697.618-8.1.959-10.729 4.453z"/><g fill="none" stroke="#000" stroke-width="2" stroke-miterlimit="10"><path stroke-linecap="round" stroke-linejoin="round" d="M25.666 56.293A22.899 22.899 0 0 0 36.5 59c12.703 0 23-10.297 23-23s-10.297-23-23-23-23 10.297-23 23c0 2.074.274 4.083.789 5.994"/><path stroke-linecap="round" stroke-linejoin="round" d="M41.5 31.077c.413.344 2.246 1.792 4.91 1.637 2.16-.126 3.61-1.233 4.09-1.637m-27 0c.413.344 2.246 1.792 4.91 1.637 2.16-.126 3.61-1.233 4.09-1.637"/><path d="M19.476 55.005a5.027 5.027 0 0 0 3.47-1.722c2.927-3.352 2.558-9.327 2.54-9.58a.952.952 0 0 0-1.014-.885c-.253.017-6.223.459-9.15 3.811h-.001a5.067 5.067 0 0 0 .486 7.138 5.019 5.019 0 0 0 3.669 1.237z"/><path stroke-linecap="round" stroke-linejoin="round" d="M42.5 46c-1.284-.638-3.985-1.03-6.842-.998-2.624.03-4.99.414-6.158.998m22.137-19.654a7.403 7.403 0 0 1-5.305-.324 7.4 7.4 0 0 1-4.11-3.411M21.4 26.335a8.44 8.44 0 0 0 9.413-3.717"/></g></svg>