<svg xmlns="http://www.w3.org/2000/svg" viewBox="0 0 72 72"><path fill="#fcea2b" d="M36.2 13.316c-12.572 0-22.8 10.228-22.8 22.8 0 12.572 10.228 22.8 22.8 22.8 12.572 0 22.8-10.228 22.8-22.8 0-12.572-10.228-22.8-22.8-22.8z"/><path fill="#FFF" d="M28 46s-.12-2.904 0-3c1.369-.73 3.965-1 8-1 4 0 6.652.28 8 1 .088.057 0 3 0 3H28z"/><circle fill="none" stroke="#000" stroke-width="2" stroke-miterlimit="10" cx="36" cy="36" r="23"/><path d="M30.317 30.925a3.001 3.001 0 0 1-6 0c0-1.655 1.345-3 3-3s3 1.345 3 3m18 0a3.001 3.001 0 0 1-6 0c0-1.655 1.345-3 3-3s3 1.345 3 3"/><path fill="none" stroke="#000" stroke-width="2" stroke-linecap="round" stroke-linejoin="round" stroke-miterlimit="10" d="M28 46s-.12-2.904 0-3c1.369-.73 3.965-1 8-1 4 0 6.652.28 8 1 .088.057 0 3 0 3H28zm-4.061-21.75c.487.228 2.627 1.16 5.163.333 2.058-.672 3.178-2.112 3.54-2.624m17 2.291c-.487.228-2.628 1.16-5.164.333-2.057-.672-3.177-2.112-3.54-2.624"/></svg>