<svg xmlns="http://www.w3.org/2000/svg" viewBox="0 0 72 72"><path fill="#fcea2b" d="M37.2 14.316c-.814 0-1.927-1.078-2.719-.995C27.151 14.095 19.16 18.421 16 26c-.385.923-1.6 6.89-1.6 11.116 0 12.572 10.228 22.8 22.8 22.8 12.572 0 22.8-10.228 22.8-22.8 0-12.572-10.228-22.8-22.8-22.8z"/><path fill="#FFF" d="M32.78 33.463A4.464 4.464 0 1 1 28.317 29c2.462 0 4.463 2 4.463 4.463m18 0c0 2.464-2 4.462-4.463 4.462a4.464 4.464 0 0 1-4.462-4.462c0-2.463 2-4.463 4.462-4.463 2.462 0 4.463 2 4.463 4.463"/><path fill="#92d3f5" d="M25 11c-1.933 1.978-4.745 5.302-5.063 9.662-.2 2.73 2.008 5.283 4.733 5.48a5.13 5.13 0 0 0 5.483-4.732C30.471 17.05 26.625 13.239 25 11z"/><path fill="none" stroke="#000" stroke-width="2" stroke-miterlimit="10" d="M32.78 33.463A4.464 4.464 0 1 1 28.317 29c2.462 0 4.463 2 4.463 4.463"/><path d="M30.317 33.925a2 2 0 1 1-4.001-.001 2 2 0 0 1 4.001.001"/><path fill="none" stroke="#000" stroke-width="2" stroke-miterlimit="10" d="M50.78 33.463c0 2.464-2 4.462-4.463 4.462a4.464 4.464 0 0 1-4.462-4.462c0-2.463 2-4.463 4.462-4.463 2.462 0 4.463 2 4.463 4.463"/><path d="M48.317 33.925a2 2 0 1 1-4.001-.001 2 2 0 0 1 4.001.001M23.855 33c0-2.462 2-4.463 4.462-4.463s4.463 2 4.463 4.463"/><path d="M41.855 33c0-2.462 2-4.463 4.462-4.463 2.463 0 4.463 2 4.463 4.463"/><path fill="none" stroke="#000" stroke-width="2" stroke-linecap="round" stroke-linejoin="round" stroke-miterlimit="10" d="M29 48c1.58-2.558 4.904-4.135 8.421-4.004C40.65 44.116 43.562 45.66 45 48"/><path fill="none" stroke="#000" stroke-width="2" stroke-miterlimit="10" d="M21.56 24.053a5.027 5.027 0 0 1-1.481-3.58c0-4.45 4.206-8.707 4.385-8.886a.952.952 0 0 1 1.347 0c.18.179 4.386 4.437 4.387 8.888h0a5.066 5.066 0 0 1-5.06 5.058 5.018 5.018 0 0 1-3.577-1.48z"/><path fill="none" stroke="#000" stroke-width="2" stroke-linecap="round" stroke-linejoin="round" stroke-miterlimit="10" d="M33.073 14.316c1.003-.172 2.453-.357 3.927-.316 8.514.234 23 8.114 23 23 0 12.703-10.297 23-23 23S14 49.703 14 37c0-5.28 1.922-9.481 3.212-11.709"/></svg>