<svg xmlns="http://www.w3.org/2000/svg" viewBox="0 0 72 72"><circle fill="#FCEA2B" cx="35" cy="36.056" r="23"/><ellipse fill="#FFF" cx="35.375" cy="48.452" rx="5.245" ry="6.538"/><path fill="none" stroke="#000" stroke-width="2" stroke-linecap="round" stroke-linejoin="round" stroke-miterlimit="10" d="M19.28 27.257a6.306 6.306 0 0 1 3.39-3 6.304 6.304 0 0 1 4.53-.421m22.69 3.421a7.19 7.19 0 0 0-7.91-3.43"/><circle fill="none" stroke="#000" stroke-width="2" stroke-linecap="round" stroke-linejoin="round" stroke-miterlimit="10" cx="35" cy="36.056" r="23"/><circle cx="43.176" cy="36.037" r="2.556"/><circle cx="25.926" cy="36.037" r="2.556"/><path fill="none" stroke="#000" stroke-width="2" stroke-linecap="round" stroke-linejoin="round" stroke-miterlimit="10" d="M19.28 27.257a6.306 6.306 0 0 1 3.39-3 6.304 6.304 0 0 1 4.53-.421m22.69 3.421a7.19 7.19 0 0 0-7.91-3.43"/><ellipse fill="none" stroke="#000" stroke-width="2" stroke-linecap="round" stroke-linejoin="round" stroke-miterlimit="10" cx="35.375" cy="48.452" rx="5.245" ry="6.538"/></svg>