<svg xmlns="http://www.w3.org/2000/svg" viewBox="0 0 72 72"><path fill="#fcea2b" d="M36.2 13.316c-12.572 0-22.8 10.228-22.8 22.8 0 12.572 10.228 22.8 22.8 22.8 3.695 0 7.188.08 10.278-1.487 5.723-2.902 10.914-8.828 12.603-15.146.502-1.878-.081-4.133-.081-6.167 0-12.572-10.228-22.8-22.8-22.8z"/><path fill="#92d3f5" d="M47.031 42.91c-.155 2.761-.087 7.114 2.54 10.608 1.645 2.188 4.987 2.66 7.17 1.017a5.13 5.13 0 0 0 1.019-7.172c-2.629-3.494-8.032-3.835-10.729-4.453z"/><g fill="none" stroke="#000" stroke-width="2" stroke-miterlimit="10"><path stroke-linecap="round" stroke-linejoin="round" d="M46.834 56.293A22.899 22.899 0 0 1 36 59c-12.703 0-23-10.297-23-23s10.297-23 23-23 23 10.297 23 23a23.03 23.03 0 0 1-.789 5.994"/><path stroke-linecap="round" stroke-linejoin="round" d="M40 32.725c.413-.344 2.246-1.791 4.91-1.636 2.16.126 3.61 1.233 4.09 1.636m-27 0c.413-.344 2.246-1.791 4.91-1.636 2.16.126 3.61 1.233 4.09 1.636"/><path d="M53.024 55.005a5.027 5.027 0 0 1-3.47-1.722c-2.927-3.352-2.558-9.327-2.54-9.58a.952.952 0 0 1 1.014-.885c.253.017 6.223.459 9.15 3.811h.001a5.067 5.067 0 0 1-.486 7.138 5.019 5.019 0 0 1-3.669 1.237z"/><path stroke-linecap="round" stroke-linejoin="round" d="M30 46c1.284-.638 3.985-1.03 6.842-.998 2.624.03 4.99.414 6.158.998"/></g></svg>