<svg xmlns="http://www.w3.org/2000/svg" viewBox="0 0 72 72"><path fill="#fcea2b" d="M36.2 13.316c-12.572 0-22.8 10.228-22.8 22.8 0 12.572 10.228 22.8 22.8 22.8 12.572 0 22.8-10.228 22.8-22.8 0-12.572-10.228-22.8-22.8-22.8z"/><circle fill="none" stroke="#000" stroke-width="2" stroke-miterlimit="10" cx="36" cy="36" r="23"/><path d="M30.317 30.925a3.001 3.001 0 0 1-6 0c0-1.655 1.345-3 3-3s3 1.345 3 3m18 0a3.001 3.001 0 0 1-6 0c0-1.655 1.345-3 3-3s3 1.345 3 3"/><path fill="none" stroke="#000" stroke-width="2" stroke-linecap="round" stroke-linejoin="round" stroke-miterlimit="10" d="M28 45.939c3 0 4.904.135 8.421.004 3.229-.12 6.141-1.664 7.579-4.004m-3-18.214c.413-.344 2.246-1.791 4.91-1.636 2.16.126 3.61 1.233 4.09 1.636"/></svg>