<svg xmlns="http://www.w3.org/2000/svg" viewBox="0 0 72 72"><path fill="#fcea2b" d="M37.2 13.316c-12.572 0-22.8 10.228-22.8 22.8 0 12.572 10.228 22.8 22.8 22.8 12.572 0 22.8-10.228 22.8-22.8 0-12.572-10.228-22.8-22.8-22.8z"/><circle fill="none" stroke="#000" stroke-width="2" stroke-miterlimit="10" cx="37" cy="36" r="23"/><path d="M31.317 30.925a3.001 3.001 0 0 1-6 0c0-1.655 1.345-3 3-3s3 1.345 3 3m18 0a3.001 3.001 0 0 1-6 0c0-1.655 1.345-3 3-3s3 1.345 3 3"/><path fill="none" stroke="#000" stroke-width="2" stroke-linecap="round" stroke-linejoin="round" stroke-miterlimit="10" d="M48.644 24.583c-.449.296-2.43 1.53-5.06 1.08-2.134-.365-3.45-1.627-3.884-2.081m-14 1.001c.45.296 2.431 1.53 5.06 1.08 2.134-.365 3.451-1.627 3.884-2.081"/><path stroke="#000" stroke-width="2" stroke-miterlimit="10" d="M43 45c0 2.21-2.79 4-5 4s-5-1.79-5-4 2.79-3 5-3 5 .79 5 3z"/></svg>