<svg xmlns="http://www.w3.org/2000/svg" viewBox="0 0 72 72"><path fill="#fcea2b" d="M37.2 13.316c-12.572 0-22.8 10.228-22.8 22.8 0 12.572 10.228 22.8 22.8 22.8 12.572 0 22.8-10.228 22.8-22.8 0-12.572-10.228-22.8-22.8-22.8z"/><path fill="#FFF" d="M32.78 31.463A4.464 4.464 0 1 1 28.317 27c2.462 0 4.463 2 4.463 4.463m18 0c0 2.464-2 4.462-4.463 4.462a4.464 4.464 0 0 1-4.462-4.462c0-2.463 2-4.463 4.462-4.463 2.462 0 4.463 2 4.463 4.463"/><circle fill="none" stroke="#000" stroke-width="2" stroke-miterlimit="10" cx="37" cy="36" r="23"/><path fill="none" stroke="#000" stroke-width="2" stroke-miterlimit="10" d="M32.78 31.463A4.464 4.464 0 1 1 28.317 27c2.462 0 4.463 2 4.463 4.463"/><path d="M30.317 31.925a2 2 0 1 1-4.001-.001 2 2 0 0 1 4.001.001"/><path fill="none" stroke="#000" stroke-width="2" stroke-miterlimit="10" d="M50.78 31.463c0 2.464-2 4.462-4.463 4.462a4.464 4.464 0 0 1-4.462-4.462c0-2.463 2-4.463 4.462-4.463 2.462 0 4.463 2 4.463 4.463"/><path d="M48.317 31.925a2 2 0 1 1-4.001-.001 2 2 0 0 1 4.001.001M23.855 31c0-2.462 2-4.463 4.462-4.463s4.463 2 4.463 4.463"/><path d="M41.855 31c0-2.462 2-4.463 4.462-4.463 2.463 0 4.463 2 4.463 4.463"/><path fill="none" stroke="#000" stroke-width="2" stroke-linecap="round" stroke-linejoin="round" stroke-miterlimit="10" d="M30 43c1.284-.638 3.985-1.03 6.842-.998 2.624.03 4.99.414 6.158.998"/></svg>