<svg xmlns="http://www.w3.org/2000/svg" viewBox="0 0 72 72"><path fill="#fcea2b" d="M36.2 13.316c-12.572 0-22.8 10.228-22.8 22.8 0 12.572 10.228 22.8 22.8 22.8 12.572 0 22.8-10.228 22.8-22.8 0-12.572-10.228-22.8-22.8-22.8z"/><path fill="#FFF" d="M31.78 31.463A4.464 4.464 0 1 1 27.317 27c2.463 0 4.463 2 4.463 4.463m18 0c0 2.464-2 4.462-4.463 4.462a4.464 4.464 0 0 1-4.462-4.462c0-2.463 2-4.463 4.462-4.463 2.462 0 4.463 2 4.463 4.463"/><path fill="#ea5a47" d="M41.657 42.818c0 6.075-2.532 11-5.656 11-3.124 0-5.656-4.925-5.656-11"/><circle fill="none" stroke="#000" stroke-width="2" stroke-miterlimit="10" cx="36" cy="36" r="23"/><path fill="none" stroke="#000" stroke-width="2" stroke-miterlimit="10" d="M31.78 31.463A4.464 4.464 0 1 1 27.317 27c2.463 0 4.463 2 4.463 4.463"/><path d="M28.338 32.47a2 2 0 1 1-4.002-.002 2 2 0 0 1 4.002.001"/><path fill="none" stroke="#000" stroke-width="2" stroke-miterlimit="10" d="M49.78 31.463c0 2.464-2 4.462-4.463 4.462a4.464 4.464 0 0 1-4.462-4.462c0-2.463 2-4.463 4.462-4.463 2.462 0 4.463 2 4.463 4.463"/><path d="M48.317 30.925a2 2 0 1 1-4.001-.001 2 2 0 0 1 4.001.001"/><path fill="none" stroke="#000" stroke-width="2" stroke-linecap="round" stroke-linejoin="round" stroke-miterlimit="10" d="M41.246 23.743c.413-.344 2.245-1.791 4.909-1.636 2.16.126 3.61 1.233 4.09 1.636m-27.428 0c.413-.344 2.246-1.791 4.91-1.636 2.16.126 3.61 1.233 4.09 1.636m-.985 23.047c-2.2-1.073-3.978-2.807-4.917-4.972m20.33 0c-.87 2.023-2.479 3.685-4.497 4.775m-15.595-4.775c1.806.902 5.463 1.496 9.518 1.543 4.416.05 8.59-.558 10.574-1.543"/><path fill="none" stroke="#000" stroke-width="2" stroke-miterlimit="10" d="M41.74 42.818c0 6.075-2.533 11-5.657 11s-5.656-4.925-5.656-11"/></svg>