<svg xmlns="http://www.w3.org/2000/svg" viewBox="0 0 72 72"><path fill="#fcea2b" d="M36.2 10.616c-12.958 0-24.067 10.542-24.067 23.5S22.368 57.73 36.2 57.73c12.958 0 23.5-10.656 23.5-23.614s-10.542-23.5-23.5-23.5z"/><path fill="#FFF" d="M31.78 29.463A4.464 4.464 0 1 1 27.317 25c2.463 0 4.463 2 4.463 4.463m18 0c0 2.464-2 4.462-4.463 4.462a4.464 4.464 0 0 1-4.462-4.462c0-2.463 2-4.463 4.462-4.463 2.462 0 4.463 2 4.463 4.463M28 48c.27-.356 3.31-8.218 8.421-8.004C41.026 40.19 43.65 47.537 44 48H28z"/><path fill="#fcea2b" d="M52.52 63c.422-4.115.48-3.29.387-6.07-.643-1.263-1.485-3.248-1.807-5.75-.253-1.962.013-2.696.361-7.018.46-5.685.21-7.01.904-7.15 1.246-.252 3.902 3.642 5.242 7.15 1.422 3.725 1.084 9.262 1.084 9.262L60 58.884M19.48 63c-.422-4.115-.48-3.29-.387-6.07.644-1.263 1.485-3.248 1.807-5.75.253-1.962-.012-2.696-.361-7.018-.46-5.685-.21-7.01-.904-7.15-1.246-.252-3.902 3.642-5.242 7.15-1.422 3.725-1.084 9.262-1.084 9.262L12 58.884"/><path fill="none" stroke="#000" stroke-width="2" stroke-linecap="round" stroke-linejoin="round" stroke-miterlimit="10" d="M22 23c1-1 4-7 10-2m19 2c-1-1-4-7-10-2"/><path fill="none" stroke="#000" stroke-width="2" stroke-miterlimit="10" d="M31.78 29.463A4.464 4.464 0 1 1 27.317 25c2.463 0 4.463 2 4.463 4.463"/><path d="M29.317 29.925a2 2 0 1 1-4.001-.001 2 2 0 0 1 4.001.001"/><path fill="none" stroke="#000" stroke-width="2" stroke-miterlimit="10" d="M49.78 29.463c0 2.464-2 4.462-4.463 4.462a4.464 4.464 0 0 1-4.462-4.462c0-2.463 2-4.463 4.462-4.463 2.462 0 4.463 2 4.463 4.463"/><path d="M47.317 29.925a2 2 0 1 1-4.001-.001 2 2 0 0 1 4.001.001"/><path fill="none" stroke="#000" stroke-width="2" stroke-linecap="round" stroke-linejoin="round" stroke-miterlimit="10" d="M28 48c.27-.356 1-8 8.421-8.004C43 39.993 43.65 47.537 44 48H28zm19.33 6.02A22.895 22.895 0 0 1 36 57c-3.994 0-7.75-1.018-11.022-2.808M13.392 38.251A23.127 23.127 0 0 1 13 34c0-12.703 10.297-23 23-23s23 10.297 23 23a23.08 23.08 0 0 1-.216 3.163"/><path fill="none" stroke="#000" stroke-width="2" stroke-linecap="round" stroke-linejoin="round" stroke-miterlimit="10" d="M19.48 62c-.422-4.115-.48-2.29-.387-5.07.644-1.263 1.485-3.248 1.807-5.75.253-1.962-.012-2.696-.361-7.018-.46-5.685-.21-7.01-.904-7.15-1.246-.252-3.902 3.642-5.242 7.15-1.422 3.725-1.084 9.262-1.084 9.262L12 57.884M52.52 62c.422-4.115.48-2.29.387-5.07-.643-1.263-1.485-3.248-1.807-5.75-.253-1.962.013-2.696.361-7.018.46-5.685.21-7.01.904-7.15 1.246-.252 3.902 3.642 5.242 7.15 1.422 3.725 1.084 9.262 1.084 9.262L60 57.884"/></svg>