<svg xmlns="http://www.w3.org/2000/svg" viewBox="0 0 72 72"><circle fill="#FCEA2B" cx="35.5" cy="36.056" r="23"/><path fill="#FFF" d="M42.68 51.927H28.31c0-4 2.39-7.18 7.18-7.18 4.79 0 7.21 3.19 7.21 7.18"/><path fill="none" stroke="#000" stroke-width="2" stroke-linecap="round" stroke-linejoin="round" stroke-miterlimit="10" d="M42.68 51.927H28.31c0-4 2.39-7.18 7.18-7.18 4.79 0 7.21 3.19 7.21 7.18m-22.92-24.67a6.306 6.306 0 0 1 3.39-3 6.304 6.304 0 0 1 4.53-.421m22.69 3.421a7.19 7.19 0 0 0-7.91-3.43"/><circle fill="none" stroke="#000" stroke-width="2" stroke-linecap="round" stroke-linejoin="round" stroke-miterlimit="10" cx="35.5" cy="36.056" r="23"/><path fill="none" stroke="#000" stroke-width="2" stroke-linecap="round" stroke-linejoin="round" stroke-miterlimit="10" d="M28.31 51.927c0-4 2.39-7.18 7.18-7.18 4.79 0 7.21 3.19 7.21 7.18"/><circle cx="43.676" cy="36.037" r="2.556"/><circle cx="26.426" cy="36.037" r="2.556"/><path fill="none" stroke="#000" stroke-width="2" stroke-linecap="round" stroke-linejoin="round" stroke-miterlimit="10" d="M19.78 27.257a6.306 6.306 0 0 1 3.39-3 6.304 6.304 0 0 1 4.53-.421m22.69 3.421a7.19 7.19 0 0 0-7.91-3.43"/></svg>