<svg xmlns="http://www.w3.org/2000/svg" viewBox="0 0 72 72"><circle fill="#FCEA2B" cx="35.571" cy="37.974" r="23"/><circle fill="#FFF" cx="35.24" cy="50.118" r="3.404"/><path fill="none" stroke="#000" stroke-width="2" stroke-linecap="round" stroke-linejoin="round" stroke-miterlimit="10" d="M44.34 16.705a22.858 22.858 0 0 0-8.77-1.73c-12.703 0-23 10.296-23 23 0 12.701 10.297 23 23 23s23-10.299 23-23c0-2.824-.508-5.53-1.44-8.028"/><circle fill="none" stroke="#000" stroke-width="2" stroke-linecap="round" stroke-linejoin="round" stroke-miterlimit="10" cx="35.24" cy="50.118" r="3.404"/><path fill="none" stroke="#000" stroke-width="2" stroke-linecap="round" stroke-linejoin="round" stroke-miterlimit="10" d="M49.67 34.834c-3.175 2.343-7.456 2.06-10 0m-8.33 0c-3.175 2.343-7.456 2.06-10 0"/><path d="M44.445 26H41.83a1.002 1.002 0 0 1-.868-1.496l1.76-3.082h-.892a1 1 0 1 1 0-2h2.616a1.002 1.002 0 0 1 .868 1.496L43.553 24h.892a1 1 0 1 1 0 2zm6.144-4h-3.76a1.002 1.002 0 0 1-.868-1.496l2.904-5.082H46.83a1 1 0 1 1 0-2h3.76a1.002 1.002 0 0 1 .868 1.496L48.553 20h2.036a1 1 0 1 1 0 2zm8.142 5H53.83a1.002 1.002 0 0 1-.868-1.496l4.047-7.082H53.83a1 1 0 1 1 0-2h4.902a1.002 1.002 0 0 1 .869 1.496L55.553 25h3.178a1 1 0 1 1 0 2z"/><path d="M44.445 26H41.83a1.002 1.002 0 0 1-.868-1.496l1.76-3.082h-.892a1 1 0 1 1 0-2h2.616a1.002 1.002 0 0 1 .868 1.496L43.553 24h.892a1 1 0 1 1 0 2zm6.144-4h-3.76a1.002 1.002 0 0 1-.868-1.496l2.904-5.082H46.83a1 1 0 1 1 0-2h3.76a1.002 1.002 0 0 1 .868 1.496L48.553 20h2.036a1 1 0 1 1 0 2zm8.142 5H53.83a1.002 1.002 0 0 1-.868-1.496l4.047-7.082H53.83a1 1 0 1 1 0-2h4.902a1.002 1.002 0 0 1 .869 1.496L55.553 25h3.178a1 1 0 1 1 0 2z" fill="#61B2E4" stroke="#61B2E4" stroke-width=".1" stroke-miterlimit="10"/></svg>