<svg xmlns="http://www.w3.org/2000/svg" viewBox="0 0 72 72"><path d="M18 40l2-2m0 6l4-4m30 0l-2-2m0 6l-4-4" fill="none" stroke="#000" stroke-width="2" stroke-linecap="round" stroke-linejoin="round" stroke-miterlimit="10"/><path fill="#FCEA2B" d="M36.2 13.316c-12.572 0-22.8 10.228-22.8 22.8 0 12.572 10.228 22.8 22.8 22.8 12.572 0 22.8-10.228 22.8-22.8 0-12.572-10.228-22.8-22.8-22.8z"/><path fill="#FFF" d="M31.78 31.463A4.464 4.464 0 1 1 27.317 27c2.463 0 4.463 2 4.463 4.463m18 0A4.464 4.464 0 1 1 45.317 27c2.462 0 4.463 2 4.463 4.463"/><path fill="none" stroke="#EA5A47" stroke-width="2" stroke-linecap="round" stroke-linejoin="round" stroke-miterlimit="10" d="M18 40l2-2m0 6l4-4m30 0l-2-2m0 6l-4-4"/><path d="M29.317 31.925a2 2 0 1 1-4.001-.001 2 2 0 0 1 4.001.001m18 0a2 2 0 1 1-4.001-.001 2 2 0 0 1 4.001.001"/><circle fill="none" stroke="#000" stroke-width="2" stroke-miterlimit="10" cx="36" cy="36" r="23"/><path fill="none" stroke="#000" stroke-width="2" stroke-miterlimit="10" d="M31.78 31.463A4.464 4.464 0 1 1 27.317 27c2.463 0 4.463 2 4.463 4.463m18 0A4.464 4.464 0 1 1 45.317 27c2.462 0 4.463 2 4.463 4.463"/><path fill="none" stroke="#000" stroke-width="2" stroke-linecap="round" stroke-linejoin="round" stroke-miterlimit="10" d="M23 23.725c.413-.344 2.246-1.791 4.91-1.636 2.16.126 3.61 1.233 4.09 1.636m9 0c.413-.344 2.246-1.791 4.91-1.636 2.16.126 3.61 1.233 4.09 1.636m-7 19.277c-1.284.637-3.985 1.03-6.842.998-2.624-.03-4.99-.415-6.158-.998"/></svg>