<svg xmlns="http://www.w3.org/2000/svg" viewBox="0 0 72 72"><path fill="#fcea2b" d="M37.2 13.316c-4.654 0-8.883.698-12.599 2.955-6.039 3.668-10.363 11.247-10.516 18.831-.007.338.136.676.145 1.014.344 12.4 10.398 22.8 22.97 22.8S61 48.688 61 36.116c0-12.572-11.228-22.8-23.8-22.8z"/><path fill="#92d3f5" d="M19.918 20c-2.123.544-6.365 1.938-8.376 4.759-1.259 1.767-.815 4.405.949 5.66a4.066 4.066 0 0 0 5.662-.947c2.01-2.822 1.943-7.287 1.765-9.472z"/><path d="M31.317 30.925a3.001 3.001 0 0 1-6 0c0-1.655 1.345-3 3-3s3 1.345 3 3m18 0a3.001 3.001 0 0 1-6 0c0-1.655 1.345-3 3-3s3 1.345 3 3"/><path fill="none" stroke="#000" stroke-width="2" stroke-linecap="round" stroke-linejoin="round" stroke-miterlimit="10" d="M28 48c1.877-3.833 5.824-6.197 10-6 3.834.18 7.293 2.493 9 6M24.939 24.25c.487.228 2.627 1.16 5.163.333 2.058-.672 3.178-2.112 3.54-2.624m17 2.291c-.487.228-2.628 1.16-5.164.333-2.057-.672-3.177-2.112-3.54-2.624"/><path fill="none" stroke="#000" stroke-width="2" stroke-miterlimit="10" d="M11.246 27.724a3.984 3.984 0 0 1 .47-3.034c1.832-3.014 6.434-4.165 6.629-4.213a.755.755 0 0 1 .912.555c.047.195 1.143 4.81-.689 7.825h0a4.015 4.015 0 0 1-5.51 1.342 3.977 3.977 0 0 1-1.812-2.475z"/><path fill="none" stroke="#000" stroke-width="2" stroke-linecap="round" stroke-linejoin="round" stroke-miterlimit="10" d="M23.989 17.735c.808-.619 2.007-1.456 3.33-2.105 7.65-3.747 24.139-3.495 31.052 9.688 5.899 11.25 1.561 25.152-9.688 31.05s-25.152 1.563-31.05-9.687c-2.453-4.676-2.702-9.29-2.594-11.86"/></svg>