<svg xmlns="http://www.w3.org/2000/svg" viewBox="0 0 72 72"><path fill="#F4AA41" d="M58.65 49.452c-3.59 9.098-12.606 15.125-23.16 15.125-9.1 0-19.219-5.836-22.81-14.935l-.125-.313c-1.14-2.854-1.954-6.347-1.954-9.613L15.26 7.41l10.206 10.058a24.117 24.117 0 0 1 9.492-1.935h1.061c3.367 0 6.575.69 9.492 1.935L56.717 6.41l3.715 33.81a24.85 24.85 0 0 1-1.767 9.238"/><path fill="#E27022" d="M35.489 64.275c10.478.338 20.103-5.93 23.656-14.935l.11-.228c1.127-2.824 1.933-6.811 1.933-10.044L56.497 6.712"/><path fill="#92D3F5" d="M14.247 43.426c-1.85.156-5.588.726-7.663 2.802a3.407 3.407 0 0 0-1.008 2.429c0 .918.357 1.782 1.008 2.433 1.299 1.299 3.564 1.299 4.86 0 2.077-2.076 2.647-5.815 2.803-7.664zm43.509 0c.156 1.85.726 5.588 2.802 7.664 1.3 1.299 3.564 1.297 4.862 0a3.444 3.444 0 0 0 .002-4.862c-2.076-2.076-5.815-2.645-7.666-2.802z"/><path fill="#EA5A47" stroke-width="2" stroke-linecap="round" stroke-linejoin="round" stroke-miterlimit="10" d="M25.099 49.613s7.785 4.152 10.38-3.114c2.594 7.266 10.783 3.064 10.783 3.064s-2.688 4.373-3.48 5.224c-4.01 4.305-9.383 4.046-13.645.116-.934-.86-4.038-5.29-4.038-5.29z"/><path fill="none" stroke="#000" stroke-width="2" stroke-linecap="round" stroke-linejoin="round" stroke-miterlimit="10" d="M61.95 54.803l-9.342-5.19m5.19 10.38l-9.342-5.19M11.74 38.563l3.501-31.507L26.2 17.75a23.811 23.811 0 0 1 9.282-1.871h1.038c3.292 0 6.43.667 9.282 1.871L56.76 7.056l3.522 31.698m-37.43 21.261a23.76 23.76 0 0 0 12.63 3.61h1.038c4.637 0 8.967-1.321 12.63-3.61M9.013 54.803l9.342-5.19m-4.152 10.38l9.342-5.19m31.658-16.239c-3.114-4.152-9.342-4.152-11.418 0m-26.987 0c3.114-4.152 9.342-4.152 11.418 0"/><path d="M9.014 54.173a5.478 5.478 0 0 1-3.898-1.616 5.48 5.48 0 0 1-1.616-3.9 5.47 5.47 0 0 1 1.616-3.896c3.43-3.43 9.952-3.47 10.228-3.47.573 0 1.038.465 1.038 1.039 0 .276-.039 6.797-3.47 10.228a5.472 5.472 0 0 1-3.898 1.615zm5.233-10.747c-1.85.156-5.588.726-7.663 2.802a3.407 3.407 0 0 0-1.008 2.429c0 .918.357 1.782 1.008 2.433 1.299 1.299 3.564 1.299 4.86 0 2.077-2.076 2.647-5.815 2.803-7.664zM62.99 54.173a5.48 5.48 0 0 1-3.9-1.616c-3.43-3.43-3.468-9.952-3.468-10.227 0-.574.464-1.038 1.038-1.038.275 0 6.8.038 10.23 3.468a5.52 5.52 0 0 1-.003 7.797 5.47 5.47 0 0 1-3.896 1.616zm-5.234-10.747c.156 1.85.726 5.588 2.802 7.664 1.3 1.299 3.564 1.297 4.862 0a3.444 3.444 0 0 0 .002-4.862c-2.076-2.076-5.815-2.645-7.666-2.802z"/><path fill="none" stroke="#000" stroke-width="2" stroke-linecap="round" stroke-linejoin="round" stroke-miterlimit="10" d="M31.327 46.499h8.303m-14.531 3.114s7.785 4.152 10.38-3.114c2.594 7.266 10.783 3.064 10.783 3.064s-2.688 4.373-3.48 5.224c-4.01 4.305-9.383 4.046-13.645.116-.934-.86-4.038-5.29-4.038-5.29z"/></svg>