<svg xmlns="http://www.w3.org/2000/svg" viewBox="0 0 72 72"><path fill="#FCEA2B" d="M35.914 13.325l-8.63 1.68-5.3 3.02-4.89 5.08-3.43 7.35v12.34l5.6 9.4 8.02 5.45 8.63 1.68 7.18-1.15 7.71-4.33 5.11-6.16 3-9.21-.75-7.98-3.81-7.91-4.21-4.32-7.25-3.86-6.98-1.08"/><circle fill="none" stroke="#FCEA2B" stroke-width="1.8" stroke-miterlimit="10" cx="36.1" cy="36.325" r="23"/><path fill="#FFF" d="M13.394 34.593v3.129l2.941 2.19 4.913 3.442 2.628 1.565h.908v-2.766l-2.222-1.302zm44.979-.18v3.13l-2.942 2.19-4.913 3.442-2.628 1.564h-.908v-2.766l2.222-1.302z"/><path fill="#FFF" d="M45.786 52.706H25.93a2.102 2.102 0 0 1-2.102-2.102v-9.702c0-1.16.94-2.102 2.102-2.102h19.857c1.161 0 2.102.942 2.102 2.102v9.702c0 1.16-.94 2.102-2.102 2.102z"/><g fill="none" stroke="#000" stroke-width="2" stroke-linecap="round" stroke-linejoin="round" stroke-miterlimit="10"><path d="M23.262 32.333s3.44-2.888 7.85-1.546m17.679 1.546s-3.439-2.888-7.849-1.546M23.83 45.47L13.1 38.21v-4.17l10.73 7.27m24.06-.12l11.21-7.33v4.17l-11.21 7.33m10.442-14.899c-2.588-9.842-11.536-17.11-22.192-17.135"/><path d="M13.859 42.26c2.611 9.806 11.54 17.04 22.173 17.066 10.658.024 19.64-7.205 22.273-17.036M36.14 13.326c-10.684-.025-19.682 7.236-22.291 17.103"/><path d="M45.786 52.706H25.93a2.102 2.102 0 0 1-2.102-2.102v-9.702c0-1.16.94-2.102 2.102-2.102h19.857c1.161 0 2.102.942 2.102 2.102v9.702c0 1.16-.94 2.102-2.102 2.102z"/></g></svg>