<svg xmlns="http://www.w3.org/2000/svg" viewBox="0 0 72 72"><path d="M22.494 65l-.218-2.813a23.426 23.426 0 0 1-4.336-3.518L21.917 48.6c1.023-2.591 1.635-3.56 3.023-2.591 3.007 2.099 6.346 2.922 7.625 3.85 4.328 3.692 12.34 4.625 19.34 1.46 3 0 9.57 3.821 9.57 9.09v4.546z" fill="#92d3f5"/><path d="M31.402 33.985c0 9 4.937 14 11 14 5.937 0 11.064-5 11.064-14a12.137 12.137 0 0 0-1-5c-3-3-7-8-7-8-4 3-7 6-13 7 0 0-1.064 1-1.064 6zM18.628 55.99c-2.624-3.249-5.712-4.458-6.212-6.458-.543-2.169-3.193-15.626-2.192-19.875a31.006 31.006 0 0 0 .25-7.667c-.06-.998.844-4.687.844-6.687a15.045 15.045 0 0 1 .375-3.938c1.187-2.562 4.275-2 3.78 0a15.597 15.597 0 0 1 .157-3.844c.188-1.281 3.698-2.219 3.188 1.25a11.889 11.889 0 0 1 .812-2.798 1.547 1.547 0 0 1 2.69 1.173 7.51 7.51 0 0 1-.038 1.078s2.254-.11 1.67 2.912c-.19.982-1.632 10.23-1.632 10.23.458-.458 1.445-4.507 3.028-4.507 2.12 0 2 1.457 2 1.457s-.602 1.433-1.28 2.674c-1.013 1.85-2.282 5.5-3.282 6.5a45.72 45.72 0 0 1-5.222 3l2.91 12.25s.167.538 2.496 2.256" fill="#fcea2b"/><path d="M52.583 29.077c-2.661-.856-7.367-7.937-7.367-7.937-2.661 3.232-12.737 6.986-12.737 6.986-2.994 2.994-.045 13.859-.045 13.859-4 0-4-6-4-13s4-14 14-14 14 7 14 14 0 13-4 13c1.325-2.253.149-12.908.149-12.908z" fill="#f1b31c"/><path d="M32.466 41.985c-4 0-4-6-4-13s4-14 14-14 14 7 14 14 0 13-4 13" fill="none" stroke="#000" stroke-linecap="round" stroke-linejoin="round" stroke-width="2"/><path d="M48.339 32.985a2 2 0 1 1-2-2 2 2 0 0 1 2 2m-8 0a2 2 0 1 1-2-2 2 2 0 0 1 2 2"/><path d="M31.402 33.985c0 9 4.937 14 11 14 5.937 0 11.064-5 11.064-14a12.137 12.137 0 0 0-1-5c-3-3-7-8-7-8-4 3-7 6-13 7 0 0-1.064 1-1.064 6z" fill="none" stroke="#000" stroke-linejoin="round" stroke-width="2"/><path d="M39.466 40.985a6.553 6.553 0 0 0 6 0M22.474 63.99a2.982 2.982 0 0 0-.842-2.698c-3.158-2.446-4.158-3.302-4.158-3.302l5-12M20.183 6.782c-.71 3.924-1.125 6.631-1.71 11.208m3.069 3.375c.293-2.162 1.098-6.75 1.557-11.375" fill="none" stroke="#000" stroke-linecap="round" stroke-linejoin="round" stroke-width="2"/><path d="M61.474 63.99s.09-2.25.09-3c0-7-9.09-10-9.09-10-7 2-11 2-16 1-3.276-.655-10.027-4.59-15-8 0 0-3.91-9.5-3.91-13.5 0-.583 5.552-1.994 7-6.5.782-2.431 1.811-5.674 1.811-5.674m-11.901-.326c.86-5.076 1.564-8.621 2-10m2.154 47.231c-5-4-6.588-5.12-7.154-8.231-2-11-1-14.582-1-18 0-1 .015 0 .015-6 .001-.812.508-4.394.985-7a25.278 25.278 0 0 1 1-4" fill="none" stroke="#000" stroke-linecap="round" stroke-linejoin="round" stroke-width="2"/></svg>