<svg xmlns="http://www.w3.org/2000/svg" viewBox="0 0 72 72"><path fill="none" stroke="#000" stroke-width="2" stroke-linecap="round" stroke-linejoin="round" stroke-miterlimit="10" d="M19.745 30.37c.735-1.436 1.847-2.672 3.236-3.51 4.232-2.552 10.528-1.089 13.49 3.837 3.038-4.917 9.314-6.349 13.491-3.837 1.456.875 2.553 2.166 3.252 3.65"/><path fill="#6A462F" d="M52.535 20.208c.33 0 7.023-2.183 10.307 3.921C66 30 64 36 59.356 38.441"/><path fill="#6A462F" d="M60.43 36.876c0 13.255-10.745 24-24 24s-24-10.745-24-24 10.745-23 24-23 24 9.745 24 23z"/><path fill="#6A462F" d="M20.296 19.783c-.347 0-7.502-2.36-10.828 4.119C6.532 29.622 9 36 13.13 37.886"/><path fill="#A57939" d="M26.42 57.897c-1.017-3.304-1.424-8.784-.067-14.784-.354-.07-5.265-1.123-7.026-5.573-1.569-3.963.168-8.578 3.654-10.68 4.232-2.552 10.528-1.089 13.49 3.837 3.038-4.917 9.314-6.349 13.492-3.837 3.577 2.15 4.989 6.817 3.653 10.68-1.575 4.558-6.278 5.986-6.745 6.12.722 2.183 2.423 8.348-.562 14.237-.59 1.165-.995 0-4.995 2"/><path fill="#FFF" d="M42.293 49.893c-.204.268-.753 6.022-6.339 6.025-4.952.002-5.441-5.676-5.705-6.025h12.044z"/><path fill="#A57939" d="M12.517 52.859c1.885-3.928-.188.875 1.696-3.053a29.355 29.355 0 0 1-1.538-7.009c-.425-4.565.123-10.46 1.538-10.662.555-.08 1.474.684 3.033 4.72 2.6-3.093 8.365-6.27 8.999-5.5.623.757-.09 2.538-.01 3.503 2.655-1.207 3.95-1.404 4.266-1.05.319.355-.082 1.694-1.772 4.35 3.116-.744 4.104.117 3.943.804-.608 2.586-2.7 5.93-6.437 9.606-2.096 2.063-4.74 2.573-6.399 2.914-.61 5.022-.48 2.36-1.089 7.381M59.64 53.15l-1.604-3.344a29.355 29.355 0 0 0 1.539-7.009c.425-4.565-.124-10.46-1.539-10.662-.555-.08-1.473.684-3.032 4.72-2.6-3.093-8.365-6.27-9-5.5-.622.757.091 2.538.01 3.503-2.655-1.207-3.95-1.404-4.266-1.05-.318.355.083 1.694 1.772 4.35-3.116-.744-4.104.117-3.942.804.607 2.586 2.7 5.93 6.436 9.606 2.097 2.063 4.741 2.573 6.4 2.914.609 5.022.346 2.868.956 7.89"/><path fill="#6A462F" d="M58.552 49.791c-.013-.027-.007-.014 0 0zm.008.017l-6.146 1.767s.458 2.778 1.293 8.73l6.651-6.515c-1.531-3.397-1.732-3.851-1.797-3.982zm-.008-.017l.008.017-.008-.017zm-44.442.024s-.008-.58-2.004 3.792l5.993 6.391c.1.118.291.053.31-.1.649-5.33 1.658-8.217 1.658-8.217l-5.957-1.866z"/><path fill="none" stroke="#000" stroke-width="2" stroke-linecap="round" stroke-linejoin="round" stroke-miterlimit="10" d="M52.62 20.53c.33 0 7.141-2.245 10.307 3.921 1.704 3.321 1.275 6.241-.076 8.808M20.092 20.53c-.33 0-7.14-2.245-10.306 3.921-1.611 3.14-1.317 5.92-.138 8.382m32.645 17.06c-.204.268-.753 6.022-6.339 6.025-4.952.002-5.441-5.676-5.705-6.025h12.044z"/><circle cx="34.413" cy="45.434" r="1"/><circle cx="38.052" cy="45.434" r="1"/><path fill="none" stroke="#000" stroke-width="2" stroke-linecap="round" stroke-linejoin="round" stroke-miterlimit="10" d="M49.205 55.898a22.893 22.893 0 0 1-12.934 3.978 22.893 22.893 0 0 1-12.86-3.928M15.349 27.31c3.63-7.927 11.633-13.434 20.922-13.434 9.22 0 17.172 5.424 20.84 13.255M59.64 53.15l-1.604-3.344a29.355 29.355 0 0 0 1.539-7.009c.425-4.565-.124-10.46-1.539-10.662-.555-.08-1.473.684-3.032 4.72-2.6-3.093-8.365-6.27-9-5.5-.622.757.091 2.538.01 3.503-2.655-1.207-3.95-1.404-4.266-1.05-.318.355.083 1.694 1.772 4.35-3.116-.744-4.104.117-3.942.804.607 2.586 2.7 5.93 6.436 9.606 2.097 2.063 4.741 2.573 6.4 2.914.609 5.022.346 2.868.956 7.89m-40.621-6.513l1.464-3.053a29.355 29.355 0 0 1-1.538-7.009c-.425-4.565.123-10.46 1.538-10.662.555-.08 1.474.684 3.033 4.72 2.6-3.093 8.365-6.27 8.999-5.5.623.757-.09 2.538-.01 3.503 2.655-1.207 3.95-1.404 4.266-1.05.319.355-.082 1.694-1.772 4.35 3.116-.744 4.104.117 3.943.804-.608 2.586-2.7 5.93-6.437 9.606-2.097 2.063-4.74 2.573-6.399 2.914l-.958 7.89"/></svg>