<svg xmlns="http://www.w3.org/2000/svg" viewBox="0 0 72 72"><path d="M50.384 47.206c-1.74 1.451-3.545 2.014-3.826 2.096 1.277 3.9 1.531 7.334.856 9.363M23.741 31.407c4.081-1.403 9.826.106 12.418 4.545 2.525-4.21 7.887-5.739 11.822-4.717m-22.26 28.34c-.71-2.818-.848-5.518.32-10.835-.222-.045-2.222-.485-4.122-1.928" fill="none" stroke="#000" stroke-width="2" stroke-linecap="round" stroke-linejoin="round" stroke-miterlimit="10"/><circle fill="#6A462F" cx="36.116" cy="38.979" r="23.9"/><path fill="#A57939" d="M26.108 60.966c-1.017-3.403-1.424-6.047-.067-12.226-.354-.072-5.265-1.156-7.027-5.74-1.568-4.082.169-8.835 3.654-11 4.232-2.628 10.528-1.121 13.491 3.952 3.038-5.064 9.313-6.539 13.491-3.952 3.578 2.216 4.99 7.021 3.654 11-1.575 4.694-6.278 6.165-6.746 6.302.941 4.107 1.205 6.235.856 8.063-.112.583-.697 1.054-1.414 2.635-.39.859-3.748.522-4 1"/><path fill="#FFF" d="M41.98 51.996c-.204.268-.753 6.022-6.34 6.025-4.952.002-5.44-5.676-5.704-6.025h12.043z"/><path fill="#6A462F" d="M19.232 21.517c-.36 0-8.025-2.127-11.489 4.621-3.059 5.96-.387 10.255 4.025 14.237m41.165-18.489c.346 0 8.002-2.559 11.327 3.919 2.937 5.72.469 11.892-4.161 14.184"/><path fill="#A57939" d="M18.945 53.534c-.48-6.04.04-.08-.441-6.119a31.458 31.458 0 0 0 2.059-8.442c.288-2.879-.015-3.956-.412-10.3-.523-8.345-.239-10.29-1.03-10.495-1.419-.37-4.444 5.346-5.97 10.496-1.621 5.467-1.56 10.32-1.236 13.594-.892 7.686-.308-2.418-1.2 5.269"/><path fill="#6A462F" d="M11.304 42.27l.061.044c.171-.763-.06-.044-.06-.044zM19 61c-.522-6.08-.535-13.548-.535-13.548l-7.1-5.138c-.13.578-.492 2.01-1.365 5.26L19 61z"/><path fill="#A57939" d="M53.402 53.534c.48-6.04-.04-.08.441-6.119a31.458 31.458 0 0 1-2.059-8.442c-.288-2.879.014-3.956.412-10.3.523-8.345.239-10.29 1.03-10.495 1.419-.37 4.444 5.346 5.97 10.496 1.621 5.467 1.559 10.32 1.236 13.594.892 7.686.599-1.14 1.49 6.546"/><path fill="#6A462F" d="M60.893 42.583l.428-.313s-.316-.252-.428.313zM62 49c-1.104-4.155-1.231-5.79-1.107-6.417L53.899 47.7s.044 7.926-.497 14.299L62 49z"/><circle cx="26.838" cy="41.23" r="3"/><circle cx="45.395" cy="41.23" r="3"/><path fill="none" stroke="#000" stroke-width="2" stroke-linecap="round" stroke-linejoin="round" stroke-miterlimit="10" d="M41.98 51.996c-.204.268-.753 6.022-6.34 6.025-4.952.002-5.44-5.676-5.704-6.025h12.043z"/><circle cx="34.099" cy="47.537" r="1"/><circle cx="37.738" cy="47.537" r="1"/><path fill="none" stroke="#000" stroke-width="2" stroke-linecap="round" stroke-linejoin="round" stroke-miterlimit="10" d="M11.684 23.163c-1.206.646-2.345 1.704-3.212 3.392-1.708 3.327-1.274 6.251.084 8.821M60.542 23.24c1.153.653 2.238 1.693 3.071 3.315 1.603 3.122 1.32 5.89.157 8.342m-13.758 22.29a22.9 22.9 0 0 1-14.055 4.792 22.897 22.897 0 0 1-13.654-4.49m1.535-38.061a22.892 22.892 0 0 1 12.12-3.449 22.89 22.89 0 0 1 12.453 3.66m-29.466 40.24c-.48-6.04.04-6.424-.441-12.464a31.458 31.458 0 0 0 2.059-8.442c.288-2.879-.015-3.956-.412-10.3-.523-8.345-.239-10.29-1.03-10.495-1.419-.37-4.444 5.346-5.97 10.496-1.621 5.467-1.236 13.594-1.236 13.594l-1.2 5.269m42.687 13.429c.48-6.04-.04-7.511.441-13.551a31.458 31.458 0 0 1-2.059-8.442c-.288-2.879.014-3.956.412-10.3.523-8.345.239-10.29 1.03-10.495 1.419-.37 4.444 5.346 5.97 10.496 1.621 5.467 1.236 13.593 1.236 13.593l1.49 6.547"/></svg>