<svg xmlns="http://www.w3.org/2000/svg" viewBox="0 0 72 72"><path fill="none" stroke="#000" stroke-width="2" stroke-linecap="round" stroke-miterlimit="10" d="M53.303 39c1.335-3.98-.077-8.785-3.654-11-4.178-2.587-10.454-1.112-13.491 3.952-2.963-5.074-9.259-6.58-13.491-3.952-3.485 2.165-5.223 6.918-3.654 11"/><path fill="#6A462F" d="M19.692 20.311c-.33 0-7.14-2.245-10.306 3.921-2.796 5.446.147 9.812 3.485 13.312M52.22 20.311c.33 0 7.142-2.245 10.307 3.921 2.795 5.446-.147 9.812-3.486 13.312"/><path fill="#6A462F" d="M59.515 36.98c0 13.254-10.145 24-23.4 24s-24-10.746-24-24c1.951-13.504 10.745-23.16 24-23.16 12.607 0 21.901 10.213 23.4 23.16z"/><path fill="#A57939" d="M49.649 28c-4.178-2.587-10.454-1.112-13.491 3.952-2.963-5.074-9.259-6.58-13.491-3.952-3.485 2.165-5.223 6.918-3.654 11 1.762 4.584 6.672 5.668 7.027 5.74-1.357 6.179-.95 11.823.067 15.226 6.658 1.345 13.287 1.357 19.888 0 1.827-3.513 2.108-7.918.562-14.664.468-.137 5.17-1.608 6.746-6.302 1.335-3.98-.077-8.785-3.654-11z"/><path fill="#FFF" d="M41.978 49.996c-.204.268-.753 6.022-6.339 6.025-4.952.002-5.44-5.676-5.704-6.025h12.043z"/><path fill="#A57939" d="M22.33 61.602c1.885-3.927-.796 1.661 1.088-2.266a29.355 29.355 0 0 1-1.538-7.01c-.425-4.564.123-10.459 1.538-10.662.555-.08 1.473.684 3.032 4.72 2.6-3.093 8.365-6.27 9-5.5.622.758-.091 2.538-.01 3.504 2.655-1.207 3.95-1.404 4.266-1.05.318.355-.083 1.693-1.772 4.349 3.116-.743 4.104.118 3.942.804-.607 2.586-2.7 5.931-6.436 9.607-2.097 2.063-4.741 2.573-6.4 2.913-.609 5.022.056-1.997-.553 3.025"/><path fill="#6A462F" d="M23.65 59.335s-1.094 1.828-1.736 3.1l6.156 2.433c.63-1.584 1.202-3.857 1.202-3.857l-5.623-1.676z"/><path fill="#A57939" d="M50.093 61.373c-1.884-3.928.603.978-1.28-2.95a29.355 29.355 0 0 0 1.538-7.009c.425-4.565-.124-10.46-1.539-10.662-.555-.08-1.473.683-3.032 4.72-2.6-3.093-8.365-6.27-9-5.5-.622.757.091 2.538.01 3.503-2.655-1.207-3.949-1.404-4.266-1.05-.318.355.083 1.694 1.772 4.349-3.115-.743-4.104.118-3.942.805.607 2.586 2.7 5.93 6.436 9.606 2.097 2.063 4.741 2.573 6.4 2.914.61 5.022-.132-1.085.477 3.937"/><path fill="#6A462F" d="M43.187 60.075c-.006-.048-.017-.141 0 0zm.003.024l-.003-.024.003.024zm5.562-1.659l.06-.017s-.154-.25-.06.018zm1.861 3.533s-1.77-3.273-1.86-3.532l-5.563 1.658c.032.263.142 1.173.478 4.937l6.945-3.063z"/><circle cx="26.837" cy="36.23" r="3"/><circle cx="45.393" cy="36.23" r="3"/><path fill="none" stroke="#000" stroke-width="2" stroke-linecap="round" stroke-linejoin="round" stroke-miterlimit="10" d="M19.777 20.634c-.33 0-7.14-2.246-10.306 3.92-2.796 5.446.146 9.813 3.485 13.312m39.349-17.232c.33 0 7.142-2.246 10.307 3.92 2.795 5.446-.147 9.813-3.486 13.312M28.49 64.04l.55-3.03s4.3-.85 6.4-2.91c.39-.38.76-.77 1.12-1.14m-.97-14c.12-.79.23-1.62-.14-2.07-.63-.78-6.4 2.4-9 5.49-1.56-4.03-2.48-4.79-3.03-4.72-1.42.21-1.97 6.1-1.54 10.67.28 2.98.97 5.39 1.54 7.01-.16.33-.29.59-.39.8v.01c-.01.03-.03.06-.04.08a.37.37 0 0 0-.05.11c-.02.04-.03.07-.05.09 0 .02-.01.03-.01.04-.01 0-.01.01-.01.02-.01.01-.02.03-.02.04-.02.04-.04.07-.05.1"/><path fill="none" stroke="#000" stroke-width="2" stroke-linecap="round" stroke-linejoin="round" stroke-miterlimit="10" d="M22.33 61.6c.15-.32.28-.58.38-.78 0 0 0-.01.01-.02v-.01c.01-.01.02-.02.02-.04l.06-.12c.01-.03.03-.06.05-.1 0-.01.01-.03.02-.04 0-.01 0-.02.01-.02.02-.05.04-.09.06-.13"/><path fill="none" stroke="#000" stroke-width="2" stroke-linecap="round" stroke-linejoin="round" stroke-miterlimit="10" d="M35.59 42.96c.12-.79.23-1.62-.14-2.07-.63-.78-6.4 2.4-9 5.49-1.56-4.03-2.48-4.79-3.03-4.72-1.42.21-1.97 6.1-1.54 10.67.28 2.98.97 5.39 1.54 7.01-.16.33-.29.59-.39.8v.01c-.01.03-.03.06-.04.08a.37.37 0 0 0-.05.11c-.02.04-.03.07-.05.09-.01.02-.02.04-.02.06-.01.01-.02.03-.02.04-.02.04-.04.07-.05.1l-.06.12c0 .02-.01.03-.02.04v.01c-.01.01-.01.02-.01.02-.1.2-.23.46-.38.78"/><path fill="none" stroke="#000" stroke-width="2" stroke-linecap="round" stroke-linejoin="round" stroke-miterlimit="10" d="M50.093 61.093l-1.28-2.67a29.355 29.355 0 0 0 1.538-7.009c.425-4.565-.124-10.46-1.539-10.662-.555-.08-1.473.683-3.032 4.72-2.6-3.093-8.365-6.27-9-5.5-.622.757.091 2.538.01 3.503-2.655-1.207-3.949-1.404-4.266-1.05-.318.355.083 1.694 1.772 4.349-3.115-.743-4.104.118-3.942.805.607 2.585 2.7 5.93 6.436 9.606 2.097 2.063 4.741 2.573 6.4 2.914.61 5.022-.132-1.085.477 3.937"/><path fill="none" stroke="#000" stroke-width="2" stroke-linecap="round" stroke-miterlimit="10" d="M17.866 51.185a22.902 22.902 0 0 1-4.91-14.206c0-12.702 10.298-23 23-23s23 10.298 23 23a22.898 22.898 0 0 1-4.641 13.858"/></svg>