<svg xmlns="http://www.w3.org/2000/svg" viewBox="0 0 72 72"><path fill="#ea5a47" stroke-width="2" stroke-linecap="round" stroke-linejoin="round" stroke-miterlimit="10" d="M36 7C19.984 7 7 19.984 7 36s12.984 29 29 29 29-12.984 29-29S52.016 7 36 7zM13 36c0-5.075 1.647-9.764 4.432-13.568l32.136 32.136A22.896 22.896 0 0 1 36 59c-12.703 0-23-10.297-23-23zm41.568 13.568L22.432 17.432A22.896 22.896 0 0 1 36 13c12.703 0 23 10.297 23 23 0 5.075-1.648 9.764-4.432 13.568z"/><path fill="none" stroke="#000" stroke-width="2" stroke-linecap="round" stroke-linejoin="round" stroke-miterlimit="10" d="M36 7C19.984 7 7 19.984 7 36s12.984 29 29 29 29-12.984 29-29S52.016 7 36 7zM13 36c0-5.075 1.647-9.764 4.432-13.568l32.136 32.136A22.896 22.896 0 0 1 36 59c-12.703 0-23-10.297-23-23zm41.568 13.568L22.432 17.432A22.896 22.896 0 0 1 36 13c12.703 0 23 10.297 23 23 0 5.075-1.648 9.764-4.432 13.568z"/></svg>