<svg xmlns="http://www.w3.org/2000/svg" viewBox="0 0 72 72"><path d="M44.367 51.948a20.262 20.262 0 0 1-.362-3.468c.012-1.25.225-2.51-.43-3.632a1.501 1.501 0 0 0-2.59 1.514c.247.425.03 1.397.023 1.872-.007.554-.015 1.11 0 1.664a22.692 22.692 0 0 0 .466 2.847c.293 1.903 3.185 1.095 2.893-.797zm-7.158.345c-.055-3.71 1.253-7.46.762-11.186-.249-1.887-3.252-1.912-3 0 .491 3.725-.817 7.467-.762 11.186a1.5 1.5 0 0 0 3 0zM34.305 39.63l.527-.7a1.51 1.51 0 0 0-.538-2.051 1.537 1.537 0 0 0-2.052.538l-.527.699a1.51 1.51 0 0 0 .538 2.052 1.537 1.537 0 0 0 2.052-.538z" fill="#fcea2b"/><path d="M16.637 22.928l4.965 2.739c1.691.933 3.207-1.657 1.514-2.59l-4.965-2.739c-1.692-.933-3.207 1.657-1.514 2.59z" fill="#d22f27"/><path d="M19.092 24.96c5.14 2.454 8.286 7.929 13.658 10.076a1.51 1.51 0 0 0 1.9-1.446c-.006-2.051-2.202-3.217-3.666-4.342a173.075 173.075 0 0 0-7.456-5.4c-1.596-1.095-3.098 1.504-1.514 2.59a181.17 181.17 0 0 1 5.304 3.776c.923.685 1.848 1.371 2.745 2.09.417.335 1.587 1.429 1.586 1.286l1.899-1.447c-5.03-2.01-8.056-7.441-12.941-9.773-1.734-.828-3.258 1.758-1.515 2.59z" fill="#d22f27"/><path d="M32.051 34.617c4.388 3.1 8.136 6.972 12.41 10.22a141.32 141.32 0 0 0 12.118 8.117 1.519 1.519 0 0 0 2.257-1.295c.39-3.673-6.3-6.726-8.82-8.524-2.799-1.996-5.895-3.54-8.682-5.526-.445-.318-6.643-4.938-6.65-4.847l-1.101 1.446c-.11.045 3.475 2.83 3.479 2.833a60.79 60.79 0 0 1 6.326 4.58c1.456 1.253 3.588-.86 2.12-2.121-2.694-2.319-5.75-4.02-8.501-6.229-1.155-.926-2.524-2.657-4.222-1.956a1.592 1.592 0 0 0-1.101 1.447c-.078 1.014.384 1.362 1.003 2.048 1.83 2.027 4.85 3.795 7.132 5.389 2.812 1.964 5.877 3.53 8.682 5.526 1.11.79 7.482 4.54 7.334 5.934l2.257-1.295a122.34 122.34 0 0 1-13.86-9.501c-3.588-2.926-6.878-6.159-10.667-8.837-1.58-1.117-3.08 1.484-1.514 2.59z" fill="#d22f27"/><path d="M56.436 52.116c-4.497 4.04-8.997 7.376-15.117 8.173-5.438.708-11.015.775-16.02-1.745l.537 2.052.55-.844a1.514 1.514 0 0 0-.897-2.204c-2.135-.608-4.018-.924-5.797-2.453-2.169-1.862-3.845-4.978-5.125-7.538a34.824 34.824 0 0 1-3.446-17.715 1.51 1.51 0 0 0-2.257-1.295c-4.805 3.13-2.068 12.497-.65 16.785a28.211 28.211 0 0 0 13.357 16.4c13.076 7.105 29.629 4.566 38.023-8.144 1.067-1.615-1.53-3.12-2.59-1.514-6.893 10.437-19.755 12.882-31.002 8.388a24.83 24.83 0 0 1-12.696-10.769 34.75 34.75 0 0 1-3.17-8.524c-.52-2.135-2.081-8.518.242-10.032l-2.257-1.295a37.692 37.692 0 0 0 4.597 20.634 30.624 30.624 0 0 0 5.95 7.89 8.185 8.185 0 0 0 3.224 2.1c.898.221 1.962-.264 2.8-.025l-.897-2.203-.55.845a1.51 1.51 0 0 0 .539 2.052c5.936 2.987 12.51 2.988 18.966 1.963 6.3-1 11.156-4.682 15.807-8.86 1.439-1.293-.688-3.41-2.122-2.122z" fill="#d22f27"/><path d="M11.51 30.127a11.302 11.302 0 0 1 2.434-6.004c.495-.614 1.557-2.018 2.378-2.098.794-.078 2.057 1.163 2.717 1.635 1.573 1.125 3.073-1.476 1.514-2.59-1.164-.833-2.56-2.249-4.105-2.231-1.536.017-2.984 1.395-3.986 2.433a14.59 14.59 0 0 0-3.952 8.855c-.186 1.92 2.815 1.908 3 0z" fill="#d22f27"/><path d="M9.918 30.425c3.711-9.835 10.47-18.558 21.367-20.568a31.724 31.724 0 0 1 15.529 1.223c4.968 1.806 9.285 6.835 12.428 10.915 1.162 1.508 3.769.016 2.59-1.514-3.396-4.41-7.63-9.385-12.818-11.745C44.189 6.54 37.372 6.048 32.19 6.71 19.43 8.34 11.326 18.23 7.025 29.628c-.682 1.808 2.217 2.59 2.893.797z" fill="#d22f27"/><path d="M60.61 21.291c-1.491-1.086-2.187-3.234-3.428-4.615a26.053 26.053 0 0 0-5.226-4.337A27.384 27.384 0 0 0 40.46 8.64a33.512 33.512 0 0 0-14.117 1.38 27.257 27.257 0 0 0-6.287 2.802c-2.047 1.325-3.378 3.377-5.393 4.735-1.593 1.074-.093 3.674 1.514 2.59 3.871-2.61 6.24-5.71 10.963-7.235a31.045 31.045 0 0 1 12.509-1.368 23.461 23.461 0 0 1 13.027 5.095c2.588 2.144 3.764 5.31 6.42 7.243 1.564 1.137 3.062-1.465 1.515-2.59z" fill="#d22f27"/><path d="M58.764 23.12c.126 2.784 1.361 5.237 1.738 7.998a38.027 38.027 0 0 1 .22 8.714c-.327 3.655-.639 6.381-2.582 9.575-.702 1.155-1.364 2.231-1.135 3.626a1.46 1.46 0 0 0 1.048 1.047c1.46.332 2.144-.598 2.863-1.748a22.586 22.586 0 0 0 3.577-8.649c.562-3.948 1.38-8.05.865-12.036-.518-4.002-2.272-7.707-3.995-11.307-.833-1.74-3.42-.22-2.59 1.514 3.362 7.026 3.997 12.53 2.937 20.224a17.736 17.736 0 0 1-2.16 6.155c-.167.325-1.43 2.21-1.225 2.585.4.728 3.121-.908 3.579-1.415 2.372-2.63 1.982-8.832 2.08-12.042a40.855 40.855 0 0 0-.644-7.588c-.369-2.26-1.472-4.348-1.576-6.654-.087-1.923-3.088-1.933-3 0z" fill="#d22f27"/><path d="M36.794 28.284c.084-.794.013-1.666.157-2.45.217-1.19.506-1.3 1.534-1.54 1.788-.417 3.128.452 3.194 2.051.122 2.95.539 5.876.64 8.826l2.561-1.06a56.732 56.732 0 0 0-4.666-4.025c-1.381-1.157-1.575-3.254-1.23-5.039l-1.048 1.048c1.264-.52 1.895 1.392 2.064 2.22a14.278 14.278 0 0 1 .002 2.672l2.56-1.061c-1.02-1.24-1.863-2.42-1.728-4.097.155-1.924-2.846-1.914-3 0-.2 2.495 1.084 4.367 2.607 6.218.854 1.039 2.561.155 2.56-1.06-.001-2.372.502-5.637-1.691-7.273-1.203-.898-4.117-1.327-5.068.177-.818 1.295-.415 4.995.168 6.366 1.05 2.47 4.514 4.064 6.348 5.975a1.516 1.516 0 0 0 2.561-1.06c-.101-2.952-.561-5.874-.64-8.827-.06-2.306-.824-3.727-3.113-4.646-1.623-.65-4.302-.743-5.813.272-2.126 1.429-1.726 4.11-1.959 6.313-.203 1.917 2.799 1.903 3 0zm2.081-10.471a1.5 1.5 0 0 0 0-3 1.5 1.5 0 0 0 0 3z" fill="#fcea2b"/><g stroke="#000" stroke-linecap="round" stroke-linejoin="round" stroke-width="2"><circle cx="36" cy="36" r="30" fill="none"/><circle cx="26.75" cy="40.25" r=".75"/><circle cx="25.25" cy="45.5" r=".75"/><circle cx="27.5" cy="52.25" r=".75"/><circle cx="20.75" cy="51.5" r=".75"/><circle cx="20.75" cy="46.25" r=".75"/><path d="M57.655 48.486a24.994 24.994 0 0 0-39.7-29.777zM14.87 22.645a24.995 24.995 0 0 0 39.864 29.9z" fill="none"/><path d="M34.922 38.405l-.657 13.806s0 1.789.596 1.789 1.193 0 1.79-1.193c.418-.837 1.13-7.847 1.518-11.95zm5.646 4.265c.353 4.38.854 10.137.854 10.137a1.193 1.193 0 1 0 2.385 0l-.37-7.97zm-8.46-7.095L31 39" fill="none"/><circle cx="39.036" cy="16.541" r="1.789" fill="none"/><path d="M43.587 37.09H45s0-8.946-.596-12.524-2.982-3.579-2.982-3.579H36.65a2.92 2.92 0 0 0-2.982 2.982s-.41 2.873-.55 5.214zm-.933-.705L41.53 25.108m-5.341 5.638l.269-5.638" fill="none"/></g></svg>