<svg xmlns="http://www.w3.org/2000/svg" viewBox="0 0 72 72"><path d="M21.4 51V36c0-8.2 6.6-15 14.9-15 8.2.1 14.9 6.8 14.9 15v15" fill="#e85b4c"/><path d="M21.4 51h30c2.8 0 5 2.2 5 5s-2.2 5-5 5h-30c-2.8 0-5-2.2-5-5s2.2-5 5-5z" fill="#cfcdcd"/><path d="M51.4 36c0-8.2-6.6-15-14.8-15-1.4 0-2.9.2-4.2.6 9.4 3.8 10.3 23.2 10.4 29.4h8.7V36z" fill="#d0312e"/><path d="M17.8 23.5l-4.7-4.7m41 4.7l4.7-4.7M36.4 14V8m-15 43V36c0-8.2 6.6-15 14.9-15 8.2.1 14.9 6.8 14.9 15v15m-30.1 0h30.5c2.6 0 4.8 2.1 4.8 4.8 0 2.6-2.1 4.8-4.8 4.8H21.1c-2.6 0-4.8-2.1-4.8-4.8.1-2.6 2.2-4.8 4.8-4.8z" fill="none" stroke="#000" stroke-width="2" stroke-linecap="round" stroke-linejoin="round"/></svg>