<svg xmlns="http://www.w3.org/2000/svg" viewBox="0 0 72 72"><path fill="#FFF" d="M15.732 56.02h-1.636c-.63 0-1.14-.51-1.14-1.139V24.145c0-.63.51-1.14 1.14-1.14h1.636c.63 0 1.14.51 1.14 1.14v30.738a1.14 1.14 0 0 1-1.14 1.139zm43.541 0h-1.637a1.14 1.14 0 0 1-1.139-1.139V24.145c0-.63.51-1.14 1.14-1.14h1.636c.629 0 1.14.51 1.14 1.14v30.738a1.14 1.14 0 0 1-1.14 1.139z"/><path fill="#FFF" d="M8.121 27.667h56.757v7.124H8.121z"/><path fill="#EA5A47" d="M8.121 27.667h11.351v7.124H8.121z"/><path fill="#FFF" d="M19.473 27.667h11.351v7.124H19.473z"/><path fill="#EA5A47" d="M30.779 27.667H42.13v7.124H30.779z"/><path fill="#FFF" d="M42.13 27.667h11.351v7.124H42.13z"/><path fill="#EA5A47" d="M53.482 27.667h11.351v7.124H53.482z"/><path fill="#FFF" d="M8.121 41.667h56.757v7.124H8.121z"/><path fill="#EA5A47" d="M8.121 41.667h11.351v7.124H8.121z"/><path fill="#FFF" d="M19.473 41.667h11.351v7.124H19.473z"/><path fill="#EA5A47" d="M30.779 41.667H42.13v7.124H30.779z"/><path fill="#FFF" d="M42.13 41.667h11.351v7.124H42.13z"/><path fill="#EA5A47" d="M53.482 41.667h11.351v7.124H53.482z"/><g fill="none" stroke="#000" stroke-width="2" stroke-linecap="round" stroke-linejoin="round" stroke-miterlimit="10"><path d="M12.956 41.13v-5.94m3.915 13.6v6.092a1.14 1.14 0 0 1-1.139 1.139h-1.636c-.63 0-1.14-.51-1.14-1.14V49.2m3.915-14.01v5.94m-3.915-14.807v-2.18c0-.629.51-1.139 1.14-1.139h1.636c.63 0 1.14.51 1.14 1.14v2.09m39.625 15.433V35.19m3.915 14.01v5.681c0 .63-.51 1.14-1.14 1.14h-1.636a1.14 1.14 0 0 1-1.139-1.14V49.2m3.915-14.01v5.586M56.497 27.12v-2.976c0-.63.51-1.14 1.14-1.14h1.636c.629 0 1.14.51 1.14 1.14v2.888m-52.292.635h56.757v7.124H8.121z"/><path d="M8.121 27.667h11.351v7.124H8.121zm11.352 0h11.351v7.124H19.473z"/><path d="M30.779 27.667H42.13v7.124H30.779zm11.351 0h11.351v7.124H42.13zm11.352 0h11.351v7.124H53.482zm-45.361 14h56.757v7.124H8.121z"/><path d="M8.121 41.667h11.351v7.124H8.121zm11.352 0h11.351v7.124H19.473z"/><path d="M30.779 41.667H42.13v7.124H30.779zm11.351 0h11.351v7.124H42.13zm18.282 0h4.421v7.123H53.482v-7.123h6.93"/></g></svg>