<svg xmlns="http://www.w3.org/2000/svg" viewBox="0 0 72 72"><path fill="#FFF" d="M17 33.13h34.001v8.7H17z"/><path fill="#9B9B9A" d="M50.999 33.06h4.002v8.8h-4.002z"/><path fill="#f1b31c" d="M17 34h7v7h-7z"/><path fill="#ea5a47" stroke-width="2" stroke-linecap="round" stroke-linejoin="round" stroke-miterlimit="10" d="M11 16l5-5 45 45-5 5z"/><g fill="none" stroke="#000" stroke-linecap="round" stroke-linejoin="round" stroke-miterlimit="10"><path stroke-width="1.99" d="M51.001 40.965v-7H44m-21.042 0H17l.001 7H30M55.001 34v7m-6-17a3 3 0 0 0 3 3 3 3 0 0 1 3 3"/><path stroke-width="2" d="M11 16l5-5 45 45-5 5z"/></g></svg>