<svg xmlns="http://www.w3.org/2000/svg" viewBox="0 0 72 72"><path d="M53.082 15.92a4.672 4.672 0 0 1 .536.715 1.5 1.5 0 1 0 2.59-1.515 9.977 9.977 0 0 0-1.005-1.321 1.5 1.5 0 0 0-2.121 2.121z" fill="#d22f27"/><path d="M54.548 16.88a21.159 21.159 0 0 0 2.014 3.328 13.535 13.535 0 0 1 1.97 2.82c.764 1.767 3.35.241 2.59-1.514a12.472 12.472 0 0 0-1.958-2.824 18.88 18.88 0 0 1-2.026-3.325c-.884-1.716-3.474-.2-2.59 1.515z" fill="#d22f27"/><path d="M57.8 23.766a28.934 28.934 0 0 1 2.787 13.287 24.298 24.298 0 0 1-.818 6.032c-.48 1.683-2.332 3.964-2.262 5.748.09 2.287 2.026 3.763 3.998 2.087 1.285-1.092 2.012-4.151 2.46-5.647a48.107 48.107 0 0 0 1.485-8.742 19.282 19.282 0 0 0-.703-7.383c-1.232-3.743-4.692-6.887-5.105-10.914l-2.947.399c1.007 3.574 4.124 6.049 5.34 9.728.603 1.825 3.501 1.043 2.893-.797a23.877 23.877 0 0 0-2.196-4.985c-.919-1.515-2.664-3.042-3.144-4.744-.442-1.567-3.125-1.336-2.946.399.492 4.795 4.346 8.191 5.485 12.774.707 2.844.176 5.507-.28 8.3a41.29 41.29 0 0 1-.596 4.699c-.242.873-1.25 2.049-1.146 2.887.322 2.612 2.526-2.889 2.736-3.764a29.016 29.016 0 0 0 .735-7.005 32.13 32.13 0 0 0-3.186-13.873c-.799-1.755-3.385-.232-2.59 1.514z" fill="#d22f27"/><path d="M56.28 17.052c-9.626-12.933-31.92-12.752-41.644.08-1.166 1.54 1.438 3.035 2.59 1.514 8.288-10.937 28.307-11.038 36.464-.08 1.14 1.53 3.745.037 2.59-1.514z" fill="#d22f27"/><path d="M16.353 18.225c1.799-6.01 14.027-8.99 19.426-8.901a21.748 21.748 0 0 1 10.636 3.051c1.93 1.09 5.22 1.432 6.844 2.624l1.156-2.742c-3.404-.73-5.864-3.164-9.455-3.817-1.887-.344-2.697 2.547-.797 2.893 3.617.658 6.018 3.08 9.454 3.817a1.508 1.508 0 0 0 1.156-2.742c-1.527-1.12-2.934-1.146-4.682-1.718-1.807-.59-3.274-1.662-5.034-2.425a24.472 24.472 0 0 0-13.614-1.614c-4.104.68-7.902 2.512-11.639 4.262-3.433 1.609-5.232 2.8-6.343 6.515-.555 1.853 2.34 2.645 2.892.797z" fill="#d22f27"/><path d="M15.256 21.382a261.47 261.47 0 0 0 22.021 15.402 97.502 97.502 0 0 1 11.694 8.812c1.631 1.343 3.696 3.804 5.625 4.634q1.382 2.263 3.026.12l-2.231-1.584c-6.743-4.786-13.236-9.874-20.027-14.547-3.553-2.444-6.497-5.658-10.03-8.134-3.617-2.534-7.7-4.25-10.121-8.143-1.018-1.636-3.614-.132-2.59 1.514 2.19 3.525 5.395 5.52 8.836 7.692 4.707 2.97 8.466 7.097 13.1 10.15 4.36 2.872 8.351 6.273 12.623 9.306 1.887 1.34 8.089 7.524 10.553 6.562 5.679-2.219-10.942-13.263-12.801-14.764-4.085-3.3-8.796-5.63-13.083-8.651q-7.615-5.368-15.08-10.96c-1.545-1.157-3.042 1.446-1.514 2.59z" fill="#d22f27"/><path d="M12.04 20.27c-4.554 6.686-5.495 16.704-2.628 24.19 1.585 4.14 2.607 7.753 6.047 10.682a55.768 55.768 0 0 0 9.48 6.193c1.7.914 3.217-1.675 1.514-2.59-2.064-1.111-4.388-2.712-6.43-3.924-4.413-2.62-5.988-6.637-7.718-11.158-2.596-6.783-1.798-15.825 2.326-21.878 1.09-1.6-1.509-3.102-2.59-1.514z" fill="#d22f27"/><path d="M24.976 62.219c6.411 1.272 12.99 3.07 19.287.753A54.302 54.302 0 0 0 51.64 59.2c3.272-1.825 5.066-4.912 8.412-6.42l-2.053-2.053c-2.215 4.063-4.992 6.39-9.04 8.542-1.706.906-.192 3.497 1.514 2.59 4.509-2.396 7.639-5.075 10.117-9.618a1.513 1.513 0 0 0-2.052-2.053 14.97 14.97 0 0 0-4.99 3.537c-2.194 2.263-4.43 3.407-7.226 4.86a19.56 19.56 0 0 1-8.41 2.623c-3.846.167-8.368-1.134-12.139-1.882-1.885-.374-2.692 2.516-.797 2.893z" fill="#d22f27"/><path d="M48.453 59.952c-10.872 2.956-24.318 3.267-32.26-6.257C8.914 44.968 5.13 28.79 15.26 20.37c1.486-1.235-.646-3.347-2.121-2.121-10.456 8.69-7.932 25.78-.737 35.48 8.807 11.873 23.615 12.713 36.847 9.115a1.501 1.501 0 0 0-.798-2.893z" fill="#d22f27"/><path d="M34.653 42.054c.201-1.1 1.016-2.039.69-3.154-.281-.96-1.247-1.328-1.82-2.066-.757-.979-2.165-.266-2.506.661-.865 2.352-1.372 5.335 1.573 6.07q.954-.039-.3-.286-1.026-.73-.946.635c-.503.793-.328 2.264-.523 3.202-.473 2.277-2.103 4.431-1.837 6.77.176 1.553 2.534 2.187 2.946.4a46.227 46.227 0 0 0 1.053-5.699c.224-2.211-.132-4.444.385-6.624.445-1.877-2.447-2.678-2.893-.797a21.746 21.746 0 0 0-.378 5.102 32.608 32.608 0 0 1-1.06 7.22l2.946.399c-.213-1.88 1.485-4.63 1.812-6.51.25-1.436.988-3.36.903-4.813a2.063 2.063 0 0 0-.823-1.704c-.182-.13-.96-.294-1.047-.386l-.4.054a3.868 3.868 0 0 0 1.48-2.235l-2.506.662c.352.454 1.02.787 1.274 1.28v-1.514a10.462 10.462 0 0 0-.916 2.536c-.345 1.887 2.546 2.697 2.893.797z" fill="#fcea2b"/><path d="M30.5 56.188a1.5 1.5 0 0 0 0-3 1.5 1.5 0 0 0 0 3zm4.938-15.746c-1.334 2.48.188 4.363 1.207 6.687a39.5 39.5 0 0 0 1.765 3.94c.761 1.311 1.924 2.303 2.62 3.667.877 1.72 3.466.204 2.59-1.514a12.898 12.898 0 0 0-1.475-2.178 15.149 15.149 0 0 1-1.89-3.437c-.462-1-2.809-4.57-2.227-5.65.915-1.7-1.674-3.217-2.59-1.515zm-.444-12.162a8.415 8.415 0 0 0 .25-1.853q.21-.627-.906.129l.118.235c-.006.142.096.373.11.531a18.19 18.19 0 0 0 .52 3.795c.55 1.845 3.447 1.06 2.892-.798-.6-2.008.113-5.185-2.132-6.365a2.43 2.43 0 0 0-2.891.522c-.877.933-.873 2.607-.961 3.805-.142 1.926 2.859 1.917 3 0zm-.056-10.186a1.5 1.5 0 0 0 0-3 1.5 1.5 0 0 0 0 3z" fill="#fcea2b"/><path d="M42.54 62.624a38.511 38.511 0 0 1-14.435-1.233c-1.854-.554-2.646 2.34-.798 2.893a40.61 40.61 0 0 0 15.233 1.34c1.913-.144 1.929-3.145 0-3z" fill="#d22f27"/><g fill="none" stroke="#000" stroke-linecap="round" stroke-linejoin="round" stroke-width="2"><circle cx="36" cy="36" r="30"/><path d="M57.655 48.486a24.994 24.994 0 0 0-39.7-29.777zM14.87 22.645a24.995 24.995 0 0 0 39.864 29.9z"/><path d="M31.596 28.94L32 26s3-7 6 0v7.744M35 26v5.494m-1 5.5L33 41m-2-6l-2 19s1 6 3 1l3-12s.341-3.006 1.67-4.003"/><path d="M38 39.906L39 43s1 4 2 5l3 4s0 6-3 3l-4-6s-2-4-2-5"/><circle cx="35" cy="17" r="2"/></g></svg>