<svg xmlns="http://www.w3.org/2000/svg" viewBox="0 0 72 72"><path d="M31.778 34.617c4.387 3.1 8.136 6.972 12.41 10.22a141.334 141.334 0 0 0 12.117 8.117 1.519 1.519 0 0 0 2.257-1.295c.39-3.673-6.3-6.726-8.82-8.524-2.798-1.996-5.894-3.54-8.681-5.526-.446-.318-6.643-4.938-6.65-4.847l-1.101 1.447c-.109.044 3.475 2.83 3.48 2.832a60.8 60.8 0 0 1 6.325 4.58c1.457 1.253 3.588-.86 2.121-2.121-2.695-2.318-5.75-4.02-8.502-6.229-1.155-.926-2.524-2.657-4.221-1.955a1.592 1.592 0 0 0-1.102 1.446c-.078 1.014.384 1.362 1.004 2.048 1.829 2.027 4.85 3.795 7.132 5.389 2.812 1.964 5.876 3.53 8.681 5.526 1.11.79 7.483 4.54 7.335 5.934l2.257-1.295a122.341 122.341 0 0 1-13.86-9.5c-3.588-2.927-6.878-6.16-10.668-8.838-1.58-1.116-3.08 1.484-1.514 2.59z" fill="#d22f27"/><path d="M56.162 52.116c-4.497 4.04-8.996 7.376-15.116 8.173-5.439.708-11.015.775-16.021-1.745l.538 2.052.55-.844a1.514 1.514 0 0 0-.897-2.204c-2.136-.608-4.018-.924-5.798-2.453-2.168-1.862-3.844-4.978-5.125-7.538a34.824 34.824 0 0 1-3.445-17.715 1.51 1.51 0 0 0-2.258-1.295c-4.804 3.13-2.067 12.497-.65 16.785a28.211 28.211 0 0 0 13.357 16.4c13.077 7.105 29.63 4.566 38.024-8.144 1.067-1.615-1.53-3.12-2.59-1.514-6.893 10.437-19.755 12.882-31.002 8.388a24.83 24.83 0 0 1-12.696-10.769 34.755 34.755 0 0 1-3.17-8.524c-.52-2.135-2.082-8.518.242-10.032l-2.257-1.295a37.693 37.693 0 0 0 4.597 20.634 30.626 30.626 0 0 0 5.95 7.89 8.185 8.185 0 0 0 3.224 2.1c.898.221 1.962-.264 2.8-.025l-.897-2.203-.55.845a1.51 1.51 0 0 0 .539 2.052c5.936 2.987 12.51 2.988 18.967 1.963 6.3-1 11.155-4.682 15.806-8.86 1.44-1.293-.688-3.41-2.121-2.122z" fill="#d22f27"/><path d="M58.49 23.12c.126 2.784 1.361 5.237 1.739 7.998a38.033 38.033 0 0 1 .219 8.714c-.327 3.655-.638 6.381-2.582 9.575-.702 1.155-1.363 2.231-1.134 3.626a1.46 1.46 0 0 0 1.048 1.047c1.46.332 2.144-.598 2.863-1.748a22.586 22.586 0 0 0 3.577-8.648c.561-3.949 1.38-8.051.865-12.037-.518-4.002-2.272-7.707-3.995-11.307-.833-1.74-3.42-.22-2.59 1.514 3.362 7.026 3.997 12.53 2.937 20.224a17.738 17.738 0 0 1-2.16 6.155c-.167.326-1.43 2.21-1.225 2.585.4.728 3.121-.907 3.58-1.415 2.372-2.63 1.982-8.832 2.078-12.042a40.846 40.846 0 0 0-.643-7.588c-.368-2.26-1.472-4.348-1.576-6.654-.087-1.922-3.087-1.933-3 0zM8.626 27.216c-.03.02-.34.206-.194.138.127-.06-.222.051-.23.053a1.493 1.493 0 0 0-1.075 1.646 1.522 1.522 0 0 0 1.473 1.3 7.329 7.329 0 0 0 1.728.037 1.625 1.625 0 0 0 1.356-2.07 1.532 1.532 0 0 0-1.845-1.048 1.516 1.516 0 0 0-1.048 1.845l.027.083.15-1.156-.048.081.896-.69c.149-.058.306-.002.036-.01-.149-.004-.298-.004-.448-.01a12.656 12.656 0 0 1-.804-.061l.399 2.946a3.14 3.14 0 0 0 1.141-.494 1.541 1.541 0 0 0 .538-2.052 1.512 1.512 0 0 0-2.052-.538z" fill="#d22f27"/><path d="M11.503 29.114c.412-1.004 1.147-4.06 1.768-4.679 1.35-1.34 1.844-.558 3.198.245 2.358 1.4 4.891 2.346 7.182 3.899 2.196 1.49 6.41 6.56 9.328 5.597a1.544 1.544 0 0 0 1.101-1.446c.018-2.647-4.188-4.792-5.913-6.202-3.185-2.603-6.42-5.756-10.085-7.698a5.414 5.414 0 0 0-6.404.467C8.873 21.4 9.287 24.713 7.573 27.51c-1.011 1.65 1.582 3.16 2.59 1.514.786-1.281 1.123-2.896 1.81-4.082.795-1.368 3.675-3.534 5.225-3.117 1.08.29 3.37 2.39 3.945 2.841 1.658 1.298 3.273 2.651 4.903 3.983.982.803 5.035 3.857 5.034 4.08l1.101-1.446c-.617.203-6.757-5.187-8.267-6.123-1.295-.803-2.6-1.4-3.96-2.074-1.513-.75-3.252-2.415-4.825-2.871-4.208-1.222-5.376 5.316-6.519 8.1-.732 1.785 2.169 2.563 2.893.798z" fill="#d22f27"/><path d="M18.012 18.917c3.263-5.878 15.923-9.212 22.205-7.808 6.155 1.376 15.142 7.366 18.3 12.662a1.501 1.501 0 0 0 2.59-1.514c-2.57-4.309-6.967-6.966-11.06-9.718-3.009-2.022-6.708-4.082-10.377-4.521-7.607-.911-20.292 2.257-24.249 9.385-.938 1.69 1.652 3.204 2.59 1.514z" fill="#d22f27"/><path d="M61.146 19.787c-7.25-8.475-15.872-14.23-27.52-13.423-4.75.33-9.695 2.715-13.892 4.86-3.766 1.926-7.047 4.763-8.37 8.867-.593 1.842 2.302 2.63 2.893.798 1.53-4.747 6.216-6.769 10.38-8.587 3.953-1.725 7.414-3.13 11.818-2.957 9.818.388 16.419 5.372 22.571 12.563 1.257 1.47 3.37-.661 2.121-2.121z" fill="#d22f27"/><path d="M21.494 46.638a7.587 7.587 0 0 1 2.571-.39 10.726 10.726 0 0 1 2.388.962c1.516.543 2.555-.105 4.039-.343 1.901-.304 1.094-3.196-.798-2.893-.793.127-1.547.622-2.36.372-.692-.212-1.286-.696-2-.893a9.103 9.103 0 0 0-4.638.292c-1.872.469-1.079 3.363.798 2.893z" fill="#92d3f5"/><path d="M27.88 46.395c-.688 1.174-1.582.127-2.464-.177a4.708 4.708 0 0 0-2.7-.025 2.533 2.533 0 0 0-2 3.275l2.74-1.156a9.335 9.335 0 0 1-1.07-1.996l-2.506 1.46c.439.43 1.805 2.123 1.331 2.754a1.509 1.509 0 0 0 .897 2.204 25.11 25.11 0 0 0 5.51.375c1.285.02 2.77-.243 2.895-1.812.33-4.156-5.398-2.669-7.75-2.52l1.06 2.56a2.334 2.334 0 0 1 1.197-.84c1.797-.66 1.02-3.561-.797-2.892a5.242 5.242 0 0 0-2.52 1.612c-.723.919-.376 2.651 1.06 2.56a32.633 32.633 0 0 1 5.727-.316l-1.06-.44.083.276.44-1.06c.336-.405-.16-.122-.63-.138q-.741-.024-1.482-.052a14.742 14.742 0 0 1-2.936-.206l.896 2.204c1.44-1.918-.376-4.993-1.8-6.39-1.003-.984-3.057-.004-2.507 1.46a12.572 12.572 0 0 0 1.373 2.712c.89 1.309 3.386.533 2.741-1.156l-.277.461a1.171 1.171 0 0 1 .83-.038 2.84 2.84 0 0 1 .987.373 4.648 4.648 0 0 0 2.045.517 3.905 3.905 0 0 0 3.277-2.075 1.501 1.501 0 0 0-2.59-1.514z" fill="#92d3f5"/><path d="M33.897 30.44c1.764 1.086 9.928 8.605 11.565 4.168a10.575 10.575 0 0 0 .152-3.316c.015-.988.207-2.16-.768-2.775-.806-.508-2.094-.39-3.012-.47a136.81 136.81 0 0 0-4.844-.33 1.511 1.511 0 0 0-.757 2.796q2.579 1.47 5.224 2.813c1.718.872 3.238-1.715 1.514-2.59q-2.646-1.344-5.224-2.813l-.757 2.794c1.155.06 2.308.13 3.461.218a12.856 12.856 0 0 1 3.239.324l-1.048-1.048a11.614 11.614 0 0 1-.073 3.6l.69-.897c-.387.27-3.25-1.714-3.668-1.988-1.453-.952-2.687-2.156-4.18-3.075-1.65-1.015-3.158 1.58-1.514 2.59zm17.482 1.726l1.536-.85a5.283 5.283 0 0 1 1.358-.728l-1.694-.69q-.171-1.054-.205-.151-.055.419-.113.838c-.054.407-.11.815-.16 1.223a26.521 26.521 0 0 0-.209 2.897l2.947-.399c-.53-1.326-2.088-3.364-3.726-3.193-1.9.198-1.921 3.2 0 3q-.479-.266-.174-.031.219.189.44.375a1.88 1.88 0 0 1 .567.647 1.508 1.508 0 0 0 2.946-.4 29.5 29.5 0 0 1 .29-3.521c.115-.879.49-1.985-.012-2.799a1.564 1.564 0 0 0-1.694-.69 5.832 5.832 0 0 0-1.691.819l-1.92 1.062c-1.69.935-.178 3.527 1.514 2.59zm-23.837 4.292a1.5 1.5 0 0 0 0-3 1.5 1.5 0 0 0 0 3z" fill="#d0cfce"/><path d="M26.958 36.75a1.5 1.5 0 0 0 0-3 1.5 1.5 0 0 0 0 3z" fill="#d0cfce"/><path d="M26.792 36.833a1.5 1.5 0 0 0 0-3 1.5 1.5 0 0 0 0 3zm14.416-16.294c-1.1-.004-2.251-.47-3.381-.538-1.371-.083-2.745-.13-4.117-.196-1.93-.091-1.925 2.909 0 3 1.37.065 2.749.095 4.117.196 1.152.085 2.228.534 3.38.538a1.5 1.5 0 0 0 0-3z" fill="#d0cfce"/><path d="M42.042 23.248a64.008 64.008 0 0 0 6.274-.631 1.512 1.512 0 0 0 1.048-1.845 1.537 1.537 0 0 0-1.845-1.048c-1.817.27-3.643.434-5.477.524-1.922.094-1.933 3.094 0 3z" fill="#d0cfce"/><g fill="none" stroke="#000" stroke-width="2"><path d="M49.22 32.901v-3.664a3.753 3.753 0 0 0 3.264-1.973h3.263v8.9h-3.263a3.753 3.753 0 0 0-3.264-1.972v-3.665" stroke-miterlimit="10"/><g stroke-miterlimit="10"><path d="M40.692 25.264h.89V23.78a3.468 3.468 0 0 1 2.374-.593 10.094 10.094 0 0 1 2.967.296c1.78.297 2.67-.593 2.67-1.78s0-2.967-2.373-2.67a46.026 46.026 0 0 0-4.748.89h-1.78"/><path d="M40.692 25.264h-.89V23.78a3.468 3.468 0 0 0-2.373-.593 10.094 10.094 0 0 0-2.967.296c-1.78.297-2.67-.593-2.67-1.78s0-2.967 2.373-2.67a46.026 46.026 0 0 1 4.748.89h1.78"/></g><path stroke-linecap="round" stroke-linejoin="round" d="M25.528 53h-4.451L19 39.648h12.758l-.93 5.978L29.681 53h-4.45"/><circle cx="36" cy="36" r="30" stroke-linecap="round" stroke-linejoin="round"/><path d="M57.655 48.486a24.994 24.994 0 0 0-39.7-29.777zM14.87 22.645a24.995 24.995 0 0 0 39.864 29.9z" stroke-linecap="round" stroke-linejoin="round"/><path stroke-linecap="round" stroke-linejoin="round" d="M33 28h13v8l-4.136.165M28.01 33S24 34.6 24 37h4s1.486-2.318 2.743-2.36"/></g></svg>