<svg xmlns="http://www.w3.org/2000/svg" viewBox="0 0 72 72"><path d="M31 45c-.6 0-1 .4-1 1 0 5.1-4.1 9.2-9.2 9.2s-9.2-4.1-9.2-9.2 4.1-9.2 9.2-9.2l.2-2h-.2c-6.2 0-11.2 5-11.2 11.2s5 11.2 11.2 11.2S32 52.2 32 46c0-.6-.4-1-1-1zm21.8-10.2c-1.4 0-2.7.3-3.9.7l.9 1.8c1-.3 2-.5 3-.5 5.1 0 9.2 4.1 9.2 9.2s-4.1 9.2-9.2 9.2c-4.9 0-8.9-3.9-9.1-8.7l-2-.1c.2 6 5.1 10.8 11.1 10.8C59 57.2 64 52.2 64 46s-5-11.2-11.2-11.2z"/><path d="M48 38.2l-.9-1.8c-2.8 1.7-4.8 4.5-5.3 7.9l2 .1c.5-2.6 2-4.8 4.2-6.2z"/><path fill="none" stroke="#000" stroke-width="2" stroke-linecap="round" stroke-linejoin="round" d="M23 22h4"/><path d="M42 25.7h6M21.1 46l1.7-21.4M36 45L23 30m22 0l8 16M23 30h21m2-1.6L36 45m0 0l17 1" fill="none" stroke="#000" stroke-width="2" stroke-linecap="round" stroke-linejoin="round" stroke-miterlimit="10"/><path d="M21.1 46l1.7-21.4M36 45L23 30m22 0l8 16M23 30h21m2-1.6L36 45m0 0l17 1" stroke="#ea5a47" stroke-width="2.1" fill="none" stroke-linecap="round" stroke-linejoin="round" stroke-miterlimit="10"/></svg>