<svg xmlns="http://www.w3.org/2000/svg" viewBox="0 0 72 72"><path fill="#61b2e4" stroke-width="2" stroke-linecap="round" stroke-linejoin="round" stroke-miterlimit="10" d="M59.917 61h-48a1 1 0 0 1-1-1V12a1 1 0 0 1 1-1h48a1 1 0 0 1 1 1v48a1 1 0 0 1-1 1z"/><path fill="#FFF" d="M52.239 40.873l-.634-15.551c-.092-1.84-1.567-3.288-3.367-3.305h-4.8c-1.8.017-3.276 1.466-3.367 3.305l-1.839 15.554c-.004.104.147.584.105.679l3.36-2.008-.746 17.689c-.026.252.212.52.365.72.03.038.074.064.122.072.171 0 .526-.343.589-.9L44.06 39.1c.043-.37.138-.731.282-1.073l.787-.499h1.3l.58.644c.123.316.283.617.322.954L49.65 57.13c.063.559.417.9.588.9a.194.194 0 0 0 .122-.072.986.986 0 0 0 .2-.703l-.571-17.707 2.347 1.676a.816.816 0 0 1-.097-.35z"/><circle fill="#FFF" cx="45.774" cy="16.012" r="2.375"/><path fill="#FFF" d="M34.202 40.576l-1.56-15.205c-.092-1.84-2.005-3.337-3.804-3.354h-4.799c-1.8.017-3.83 1.466-3.922 3.305l-1.282 15.554c-.005.104.719.63.677.725l1.975-.832-.2 16.523c-.026.252.477.465.63.663.031.04.074.065.122.073.171 0 .526-.343.589-.9L24.661 39.1a3.94 3.94 0 0 1 .282-1.073l.787-.499h1.3l.942.59c.123.315.205.645.244.982l1.648 18.143c.064.56.802.786.973.786a.193.193 0 0 0 .122-.072c.154-.199.832-.462.806-.714l-.195-16.52 2.924.73c-.058-.107-.287-.755-.292-.877z"/><circle fill="#FFF" cx="26.451" cy="16.012" r="2.375"/><g fill="none" stroke="#000" stroke-width="2"><path stroke-linecap="round" stroke-linejoin="round" stroke-miterlimit="10" d="M59.917 61h-48a1 1 0 0 1-1-1V12a1 1 0 0 1 1-1h48a1 1 0 0 1 1 1v48a1 1 0 0 1-1 1z"/><circle stroke-miterlimit="10" cx="45.774" cy="16.012" r="2.375"/><path stroke-linecap="round" stroke-linejoin="round" d="M49.799 26.363l1.52 30.4c.044.88-.46 1.6-1.12 1.6a1.66 1.66 0 0 1-1.383-1.59l-2.032-17.625c-.1-.874-.543-1.59-.983-1.59-.44 0-.88.716-.983 1.59l-2.034 17.625a1.66 1.66 0 0 1-1.383 1.59c-.66 0-1.164-.72-1.12-1.6l1.52-30.4"/><path stroke-linecap="round" stroke-linejoin="round" d="M37.824 41.068s1.003-6.053 1.183-8.089c.162-1.848.225-7.416.225-7.416a4.22 4.22 0 0 1 4.167-4h4.8a4.22 4.22 0 0 1 4.166 4l.634 15.2"/><circle stroke-miterlimit="10" cx="26.457" cy="16.012" r="2.375"/><path stroke-linecap="round" stroke-linejoin="round" d="M30.424 26.668c-1.882 2.827-.542 4.886-.025 6.4.367 1.077.604 3.36.718 4.491.48 4.781.802 19.204.802 19.204.044.88-.46 1.6-1.12 1.6a1.66 1.66 0 0 1-1.383-1.59l-2.032-17.625c-.1-.874-.543-1.59-.983-1.59-.44 0-.88.716-.983 1.59l-2.034 17.625a1.66 1.66 0 0 1-1.383 1.59c-.66 0-1.164-.72-1.12-1.6 0 0 .418-14.273.859-19.01.11-1.178.296-3.56.661-4.685.494-1.522 1.933-3.791.023-6.4"/><path stroke-linecap="round" stroke-linejoin="round" d="M19.199 41.068l.633-15.2a4.22 4.22 0 0 1 4.167-4h4.8a4.22 4.22 0 0 1 4.166 4s-.211 5.56-.04 7.404c.182 1.976 1.74 7.813 1.74 7.813"/></g></svg>