<svg xmlns="http://www.w3.org/2000/svg" viewBox="0 0 72 72"><circle fill="#FFF" cx="36" cy="36" r="26"/><path fill="#ea5a47" stroke-width="2" stroke-linecap="round" stroke-linejoin="round" stroke-miterlimit="10" d="M36 7C19.984 7 7 19.984 7 36s12.984 29 29 29 29-12.984 29-29S52.016 7 36 7zM13 36c0-5.075 1.647-9.764 4.432-13.568l32.136 32.136A22.896 22.896 0 0 1 36 59c-12.703 0-23-10.297-23-23zm41.568 13.568L22.432 17.432A22.896 22.896 0 0 1 36 13c12.703 0 23 10.297 23 23 0 5.075-1.648 9.764-4.432 13.568z"/><g fill="none" stroke="#000" stroke-width="2" stroke-linecap="round" stroke-linejoin="round" stroke-miterlimit="10"><path d="M39.251 29.768l.685-2.396h-3.08M30.957 40.44c.026.233.043.468.043.708a6.25 6.25 0 1 1-12.5 0 6.25 6.25 0 0 1 6.958-6.207m19.399.433c.22-.09.446-.166.677-.232l-2.22-7.77h-3.378l-.685 2.396"/><path d="M36.855 27.372h3.08L41 23.648l-1.064 3.724h3.378l2.22 7.77a6.24 6.24 0 0 1 1.716-.244 6.25 6.25 0 0 1 5.774 8.643M38.5 23.622h3.75-3.75zM25.458 34.94a6.25 6.25 0 1 0-.708 12.457 6.25 6.25 0 0 0 6.207-6.957"/><path d="M26.287 35.77l-1.537 5.378 1.537-5.379m19.611.646l-.364-1.273a6.206 6.206 0 0 0-.677.232m8.167 8.166a6.25 6.25 0 0 0-5.774-8.643 6.24 6.24 0 0 0-1.716.245l.364 1.273"/><path d="M36 7C19.984 7 7 19.984 7 36s12.984 29 29 29 29-12.984 29-29S52.016 7 36 7zM13 36c0-5.075 1.647-9.764 4.432-13.568l32.136 32.136A22.896 22.896 0 0 1 36 59c-12.703 0-23-10.297-23-23zm41.568 13.568L22.432 17.432A22.896 22.896 0 0 1 36 13c12.703 0 23 10.297 23 23 0 5.075-1.648 9.764-4.432 13.568z"/></g></svg>