<svg xmlns="http://www.w3.org/2000/svg" viewBox="0 0 72 72"><path fill="#A57939" d="M5 38h62v11H5z"/><path fill="#D0CFCE" d="M5 39v-4c0-1.65 1.35-3 3-3h56c1.65 0 3 1.35 3 3v4"/><path fill="#92D3F5" d="M22 32V22s.21-2.106 2-3c2-1 6 0 9-1 6.79-2.263 12.594 3.356 17 6 5 3 7 4.854 7 8M5.125 27.688S10 24 22 27v4L7 32l-.813 1.25-1.062-1.625L5 28l.125-.313z"/><path fill="#FCEA2B" d="M15.076 25.675a3 3 0 1 1 5.71.436"/><g fill="none" stroke="#000" stroke-width="2" stroke-linecap="round" stroke-linejoin="round" stroke-miterlimit="10"><path d="M5 38.083h62V49H5z"/><path d="M5 39v-4c0-1.65 1.35-3 3-3h56c1.65 0 3 1.35 3 3v4M5 55V17m62 10v28M15.076 25.675a3 3 0 1 1 5.71.436M22 32V22s.21-2.106 2-3c2-1 6 0 9-1 6.79-2.263 12.594 3.356 17 6 5 3 7 4.854 7 8M5.042 27.918C6.896 26.063 14.292 24.876 21 27"/></g></svg>