<svg xmlns="http://www.w3.org/2000/svg" viewBox="0 0 72 72"><g fill="#FCEA2B" stroke="#FCEA2B" stroke-linecap="round" stroke-linejoin="round" stroke-miterlimit="10"><circle stroke-width="1.8" cx="32.017" cy="25.036" r="3"/><path stroke-width="1.8" d="M47.864 53.587l-1.98 3.87c.63.07 1.46.39 1.46 1.57 0 1.91-1.82 1.93-1.82 1.93l-13.31-.02s-5.72.61-5.72-4.62c0-5.05 5.31-5.14 5.7-5.14h7.27c.42-3.146-3.663-9.479-6.447-11.979.52-2.37 1.547-5.702 4.537-7.072 5.23-2.41 14.21 14.38 10.31 21.46z"/><path stroke-width="2" d="M38.464 51.176l-.11-.26.08.07c.02.12.03.19.03.19z"/><path stroke-width="2" d="M38.464 51.176l-.11-.26.08.07.02.02c.01.06.01.11.01.17z"/></g><g fill="none" stroke="#000" stroke-width="2" stroke-linecap="round" stroke-linejoin="round" stroke-miterlimit="10"><path d="M11 25.036l25-14.21 25 13.64"/><circle cx="32.017" cy="25.036" r="3"/><path d="M36.544 43.577c2.15 2.33 2.92 7.6 2.92 7.6h-6.448"/><path d="M24.614 38.986s2.67 4.92 6.02 4.92.33-8.75 6.92-11.78c5.227-2.406 14.209 14.377 10.313 21.46m-15.65-2.413s-5.724-.092-5.724 5.14 5.724 4.623 5.724 4.623l13.307.022s1.824-.022 1.824-1.932-2.171-1.563-2.171-1.563h-8.004l-5.206-1.39"/></g></svg>