<svg xmlns="http://www.w3.org/2000/svg" xmlns:xlink="http://www.w3.org/1999/xlink" viewBox="0 0 72 72"><defs><path id="a" d="M1 1h1L1 2z"/></defs><defs><path id="c" d="M-1-1h-1l1-1z"/></defs><clipPath id="b"><use xlink:href="#a" overflow="visible"/></clipPath><clipPath id="d" clip-path="url(#b)"><use xlink:href="#c" overflow="visible"/></clipPath><path clip-path="url(#d)" fill="#FCEA2B" d="M6.637 8.056h55.25v56H6.637z"/><circle fill="#FCEA2B" cx="33.887" cy="36.056" r="23"/><circle fill="none" stroke="#FCEA2B" stroke-miterlimit="10" cx="33.887" cy="36.056" r="23"/><path fill="#FFF" d="M29.846 47.43c-.282 1.724-.435 5.489 3.856 4.64v-4.369s-.28 0-.732-.065m4.87-.206c.282 1.724.434 5.489-3.857 4.64v-4.369s.28 0 .732-.065"/><circle fill="none" stroke="#000" stroke-width="2" stroke-linecap="round" stroke-linejoin="round" stroke-miterlimit="10" cx="33.887" cy="36.056" r="23"/><path fill="none" stroke="#000" stroke-width="2" stroke-linecap="round" stroke-linejoin="round" stroke-miterlimit="10" d="M16.883 30.464s-.953 8.55 6.86 7.918c2.62-.212 7.817-.65 7.867-8.342.005-.698-.007-1.6-.81-2.63-1.065-1.367-3.572-1.971-9.945-1.422 0 0-3.446-.1-3.972 4.476z"/><path fill="none" stroke="#000" stroke-width="2" stroke-linecap="round" stroke-linejoin="round" stroke-miterlimit="10" d="M16.953 29.93l-.433-3.37 3.833-.528m30.388 4.432s.953 8.55-6.86 7.918c-2.62-.212-7.817-.65-7.868-8.342-.004-.698.008-1.6.811-2.63 1.065-1.367 3.572-1.971 9.945-1.422 0 0 3.446-.1 3.972 4.476zm-21.236-4.048s4.124 2.534 8.657 0m-6.626 4.902s2.202-3.751 4.536 0"/><path fill="none" stroke="#000" stroke-width="2" stroke-linecap="round" stroke-linejoin="round" stroke-miterlimit="10" d="M50.664 29.933l.433-3.371-3.833-.528m-15.309 3.993s1.795-3.75 3.699 0"/><path fill="none" stroke="#000" stroke-width="2" stroke-miterlimit="10" d="M29.846 47.43c-.282 1.724-.435 5.489 3.856 4.64v-4.369s-.28 0-.732-.065"/><circle cx="42.459" cy="32.037" r="2.556"/><circle cx="25.209" cy="32.037" r="2.556"/><path fill="none" stroke="#000" stroke-width="2" stroke-miterlimit="10" d="M37.84 47.43c.282 1.724.434 5.489-3.857 4.64v-4.369s.28 0 .732-.065"/><path fill="none" stroke="#000" stroke-width="2" stroke-linecap="round" stroke-linejoin="round" stroke-miterlimit="10" d="M43.702 44.862c-6.574 3.525-14.045 3.658-19.63 0"/></svg>