<svg xmlns="http://www.w3.org/2000/svg" viewBox="0 0 72 72"><circle fill="#FCEA2B" stroke="#FCEA2B" stroke-width="1.8" stroke-miterlimit="10" cx="36" cy="35.868" r="23"/><path fill="#FFF" d="M30.498 53.242c-4.296-1.49-6.461-4.8-6.461-8.683h.094s12.137 3.063 23.683.066l.16-.066c0 3.89-2.136 7.196-6.415 8.684"/><path fill="#B1CC33" d="M40.538 49.157s1.518 8.82-1.064 10.94l.025-.022c-3.83 3.416-7.06-.057-7.008 0-2.583-2.12-1.065-10.94-1.065-10.94"/><g fill="none" stroke="#000" stroke-width="2" stroke-linecap="round" stroke-linejoin="round" stroke-miterlimit="10"><path d="M30.498 53.242c-4.296-1.49-6.461-4.8-6.461-8.683h.094s12.137 3.063 23.683.066l.16-.066c0 3.89-2.136 7.196-6.415 8.684M20.28 27.069a6.306 6.306 0 0 1 3.39-3 6.304 6.304 0 0 1 4.53-.421m22.69 3.421a7.19 7.19 0 0 0-7.91-3.431"/><path d="M44.324 57.316C52.912 53.98 59 45.635 59 35.868c0-12.703-10.298-23-23-23-12.703 0-23 10.297-23 23 0 9.79 6.115 18.15 14.735 21.47"/><path d="M20.28 27.069a6.306 6.306 0 0 1 3.39-3 6.304 6.304 0 0 1 4.53-.421m22.69 3.421a7.19 7.19 0 0 0-7.91-3.431m-2.442 25.519s1.518 8.82-1.064 10.94l.025-.022c-3.83 3.416-7.06-.057-7.008 0-2.583-2.12-1.065-10.94-1.065-10.94M29.23 31.418c-.186-.723-.989-1.266-1.95-1.266h0c-1.1 0-1.992.71-1.992 1.585 0 .876.891 1.586 1.991 1.586l-.04.006c1.1 0 1.99.71 1.99 1.585s-.89 1.585-1.99 1.585h0c-.963 0-1.765-.543-1.951-1.266m1.971-5.081V28.64m0 9.371v-1.512m19.008-5.081c-.186-.723-.989-1.266-1.95-1.266h0c-1.1 0-1.992.71-1.992 1.585 0 .876.891 1.586 1.991 1.586l-.04.006c1.1 0 1.99.71 1.99 1.585s-.89 1.585-1.99 1.585h0c-.963 0-1.765-.543-1.951-1.266m1.971-5.081V28.64m0 9.371v-1.512"/><path d="M37.897 53.014c-.185-.722-.988-1.266-1.95-1.266h0c-1.1 0-1.992.71-1.992 1.586s.892 1.585 1.992 1.585l-.04.006c1.099 0 1.99.71 1.99 1.585s-.891 1.586-1.99 1.586h0c-.963 0-1.766-.544-1.951-1.266m1.97-5.082v-1.511m0 9.37v-1.511"/></g></svg>