<svg xmlns="http://www.w3.org/2000/svg" viewBox="0 0 72 72"><path fill="#FCEA2B" d="M64.73 33.52l-9.04 1.92c-1.07.25-2.07.56-3.35 2.15l-8.46 9.82c-.79.95-1.27 1.51-2.54 1.91l-20.9 7.74C16 58.19 12 57.06 13 48.63c-4.34 1.65-8.47.31-8.17-3.46l-.01-20.46c.58-4.26 4.39-6.29 7.68-6.63L63.83 16c5.09 4.59 5.49 12.43.9 17.52z"/><g fill="none" stroke="#000" stroke-width="2" stroke-linecap="round" stroke-linejoin="round" stroke-miterlimit="10"><path d="M43.875 47.406c-.781.959-1.266 1.517-2.531 1.917m2.531-1.917l8.469-9.812c1.281-1.594 2.281-1.907 3.343-2.157l9.04-1.92c4.591-5.084 4.19-12.927-.894-17.517L12.5 18.083c-3.292.334-7.099 2.364-7.682 6.623l.015 20.46c-.302 3.772 3.823 5.115 8.167 3.459-1 8.438 3 9.563 7.438 8.438l20.906-7.74"/><path d="M15.314 29.168c0 4.062 4.892 4.343 10.937 4.343-.5 4.031-2.593 8.625-10.03 12.995m27.654.9c-.781.959-1.266 1.517-2.531 1.917"/><path d="M43.875 47.406l8.469-9.812c1.281-1.594 2.281-1.907 3.343-2.157l9.04-1.92c4.591-5.084 4.19-12.927-.894-17.517L12.5 18.083c-3.292.334-7.099 2.364-7.682 6.623l.015 20.46c-.302 3.772 3.823 5.115 8.167 3.459-1 8.438 3 9.563 7.438 8.438l20.906-7.74"/><path d="M15.314 29.168c0 4.062 4.892 4.343 10.937 4.343-.5 4.031-2.593 8.625-10.03 12.995"/></g></svg>