<svg xmlns="http://www.w3.org/2000/svg" viewBox="0 0 72 72"><path fill="#D22F27" d="M34 17.782V15.27a2.5 2.5 0 0 1 5 0v2.5"/><path fill="#D0CFCE" d="M13.5 42.77a2.5 2.5 0 0 1-2.5-2.5v-8a2.5 2.5 0 0 1 5 0v8a2.5 2.5 0 0 1-2.5 2.5zm45 0a2.5 2.5 0 0 0 2.5-2.5v-8a2.5 2.5 0 0 0-5 0v8a2.5 2.5 0 0 0 2.5 2.5zM47.45 57.782h-22.9c-4.703 0-8.55-3.848-8.55-8.55v-22.9c0-4.703 3.847-8.55 8.55-8.55h22.9c4.703 0 8.55 3.847 8.55 8.55v22.9c0 4.702-3.847 8.55-8.55 8.55z"/><path fill="#9B9B9A" d="M34.998 57.781h13.286c3.969 0 7.216-3.847 7.216-8.55v-22.9c0-4.703-3.247-8.55-7.216-8.55h-2.352"/><ellipse fill="#FFF" cx="44.835" cy="30.773" rx="2.834" ry="2.834"/><ellipse fill="#FFF" cx="27.334" cy="30.773" rx="2.834" ry="2.834"/><path fill="#FFF" d="M44.5 49.27h-17c-2.2 0-4-1.8-4-4s1.8-4 4-4h17c2.2 0 4 1.8 4 4s-1.8 4-4 4z"/><g fill="none" stroke="#000" stroke-width="2" stroke-miterlimit="2"><path stroke-linecap="round" stroke-linejoin="round" d="M34 17.782V15.27a2.5 2.5 0 0 1 2.5-2.5h0a2.5 2.5 0 0 1 2.5 2.5v2.5"/><path stroke-linecap="round" stroke-linejoin="round" d="M47.45 57.77h-22.9c-4.703 0-8.55-3.847-8.55-8.549v-22.9c0-4.703 3.847-8.55 8.55-8.55h22.9c4.703 0 8.55 3.847 8.55 8.55v22.9c0 4.703-3.847 8.55-8.55 8.55z"/><ellipse stroke-linecap="round" stroke-linejoin="round" cx="44.835" cy="30.773" rx="2.834" ry="2.834"/><ellipse stroke-linecap="round" stroke-linejoin="round" cx="27.334" cy="30.773" rx="2.834" ry="2.834"/><path d="M44.5 49.27h-17c-2.2 0-4-1.8-4-4h0c0-2.2 1.8-4 4-4h17c2.2 0 4 1.8 4 4h0c0 2.2-1.8 4-4 4z"/><path stroke-linecap="round" stroke-linejoin="round" d="M13.5 42.77h0a2.5 2.5 0 0 1-2.5-2.5v-8a2.5 2.5 0 0 1 2.5-2.5h0a2.5 2.5 0 0 1 2.5 2.5v8a2.5 2.5 0 0 1-2.5 2.5zm45 0h0a2.5 2.5 0 0 0 2.5-2.5v-8a2.5 2.5 0 0 0-2.5-2.5h0a2.5 2.5 0 0 0-2.5 2.5v8a2.5 2.5 0 0 0 2.5 2.5zM28 41.771v7m5-7v7m5-7v7m5-7v7"/></g></svg>