<svg xmlns="http://www.w3.org/2000/svg" viewBox="0 0 72 72"><g fill="#FCEA2B"><path d="M12.24 44.111l-8.964-9.589C.108 24.287 7.48 8.167 20.506 8.752"/><path d="M11.96 42.37c2.79 0 32.647 18.096 32.647 16.203 5.87-5.873 9.768-5.198 8.164-9.257 4.104 1.996 7.604-1.129 7.062-4.644 3.633.656 5.855-2.305 4.834-5.836 8.333-5.67 8.552-22.588 0-27.878-3.23-2.458-4.417 6.23-9.667 4.336L37.085 9.736 26.343 6.753a4.308 4.308 0 0 0-5.15 2.715l-3.238 9.461a3.786 3.786 0 0 0 2.016 4.918 4.327 4.327 0 0 0 5.017-2.485l1.318-2.174c.937-1.99 2.635-4.447 5.235-3.364l26.084 15.093c2.708 1.791 6.458 6.279 7.042 7.919"/><path d="M64.871 39.868l-52.91 2.891 6.354-29.884 38.372 4.063zM30.928 53.756c1.177-1.555 2.935-1.825 4.54-.915 1.5.85 2.607 2.56 1.55 4.362 0 0-1.13 1.904-1.45 2.568-.136.282-.271.563-.46.813a3.531 3.531 0 1 1-5.632-4.261s1.453-2.566 1.452-2.567z"/><path d="M24.815 50.296c1.177-1.555 2.935-1.825 4.54-.915 1.5.85 2.607 2.56 1.55 4.362 0 0-1.13 1.904-1.45 2.568-.136.282-.271.563-.46.813a3.531 3.531 0 1 1-5.632-4.261s1.453-2.566 1.452-2.567z"/><path d="M18.702 46.836c1.177-1.555 2.935-1.825 4.54-.915 1.5.85 2.607 2.56 1.55 4.362 0 0-1.13 1.903-1.45 2.568-.136.282-.271.563-.46.812a3.531 3.531 0 1 1-5.632-4.26l1.452-2.567z"/><path d="M12.59 43.376c1.176-1.555 2.934-1.825 4.54-.915 1.5.85 2.606 2.56 1.55 4.362 0 0-1.131 1.903-1.451 2.568-.136.281-.271.563-.46.812a3.531 3.531 0 1 1-5.632-4.26l1.452-2.567z"/></g><g fill="none" stroke="#000" stroke-width="2" stroke-linecap="round" stroke-linejoin="round"><path opacity=".56" d="M37.648 41.063l15.123 8.253M31 45.625l16.587 8.326m12.246-9.279l-4.25-4.13-13.041-6.792"/><path stroke-miterlimit="10" d="M12.324 42.76s-6.866-6.337-8.412-9C-1.136 25.063 5.69 10.75 17.1 9.813"/><path d="M37.648 41.063l15.123 8.253M31 45.625l16.587 8.326m12.246-9.279l-5.468-4.765-11.823-6.157"/><path d="M37.436 56.088c9.29 5.896 11.671-.31 10.152-2.137 2.975 1.712 6.787-.576 5.183-4.635 4.104 1.996 7.604-1.129 7.062-4.644 3.633.656 5.855-2.305 4.834-5.836 8.333-5.67 8.552-22.588 0-27.878-3.23-2.458-4.417 6.23-9.667 4.336L37.085 9.736 26.343 6.753a4.308 4.308 0 0 0-5.15 2.715l-3.238 9.461a3.786 3.786 0 0 0 2.016 4.918 4.327 4.327 0 0 0 5.017-2.485l1.318-2.174c.937-1.99 2.635-4.447 5.235-3.364l26.084 15.093c2.708 1.791 6.458 6.279 7.042 7.919"/><path d="M30.928 53.756c1.177-1.555 2.935-1.825 4.54-.915 1.5.85 2.607 2.56 1.55 4.362 0 0-1.13 1.904-1.45 2.568-.136.282-.271.563-.46.813a3.531 3.531 0 1 1-5.632-4.261s1.453-2.566 1.452-2.567z"/><path d="M24.815 50.296c1.177-1.555 2.935-1.825 4.54-.915 1.5.85 2.607 2.56 1.55 4.362 0 0-1.13 1.904-1.45 2.568-.136.282-.271.563-.46.813a3.531 3.531 0 1 1-5.632-4.261s1.453-2.566 1.452-2.567z"/><path d="M18.702 46.836c1.177-1.555 2.935-1.825 4.54-.915 1.5.85 2.607 2.56 1.55 4.362 0 0-1.13 1.903-1.45 2.568-.136.282-.271.563-.46.812a3.531 3.531 0 1 1-5.632-4.26l1.452-2.567z"/><path d="M12.59 43.376c1.176-1.555 2.934-1.825 4.54-.915 1.5.85 2.606 2.56 1.55 4.362 0 0-1.131 1.903-1.451 2.568-.136.281-.271.563-.46.812a3.531 3.531 0 1 1-5.632-4.26l1.452-2.567z"/></g></svg>