<svg xmlns="http://www.w3.org/2000/svg" viewBox="0 0 72 72"><ellipse fill="#FCEA2B" cx="35.294" cy="35.749" rx="22.296" ry="22.296"/><path fill="#9B9B9A" d="M58.297 54.555L56.35 56.5a2.402 2.402 0 0 1-3.397 0l-4.86-4.86a2.402 2.402 0 0 1 0-3.397l1.946-1.947a2.402 2.402 0 0 1 3.397 0l4.86 4.86a2.402 2.402 0 0 1 0 3.398z"/><path fill="#D0CFCE" d="M50.355 48.144l-.512.512a.737.737 0 0 1-1.043 0l-1.615-1.615a.737.737 0 0 1 0-1.042l.512-.513a.737.737 0 0 1 1.042 0l1.616 1.616a.737.737 0 0 1 0 1.042z"/><ellipse cx="43.239" cy="31.884" rx="2.477" ry="2.477"/><ellipse cx="26.515" cy="31.821" rx="2.477" ry="2.477"/><path fill="none" stroke="#000" stroke-width="2" stroke-linecap="round" stroke-linejoin="round" stroke-miterlimit="10" d="M47.705 46.094l-23.665-.089m.521.27v3.303m1.911-7.143v3.303m1.941.537v3.303m1.912-7.143v3.303m1.928.537v3.303m1.911-7.143v3.303m1.941.537v3.303m1.912-7.143v3.303m1.915.537v3.303m1.912-7.143v3.303m1.969.537v3.303m1.887-7.143v3.303"/><path fill="none" stroke="#000" stroke-width="2" stroke-linecap="round" stroke-miterlimit="10" d="M50.918 45.737a2.402 2.402 0 0 1 2.518.56l4.86 4.86a2.402 2.402 0 0 1 0 3.398L56.35 56.5a2.402 2.402 0 0 1-3.397 0l-4.86-4.86a2.402 2.402 0 0 1-.604-2.387"/><path fill="none" stroke="#000" stroke-width="2" stroke-linecap="round" stroke-linejoin="round" stroke-miterlimit="10" d="M55.691 44.725a22.217 22.217 0 0 0 1.9-9.02c0-12.314-9.982-22.295-22.295-22.295C22.982 13.41 13 23.39 13 35.705c0 12.314 9.982 22.296 22.296 22.296a22.19 22.19 0 0 0 11.843-3.402"/></svg>