<svg xmlns="http://www.w3.org/2000/svg" viewBox="0 0 72 72"><g fill="#FCEA2B"><path d="M36.34 8.862l-8.63 1.68-5.3 3.02-4.89 5.079-3.43 7.35v12.34l5.6 9.4 8.02 5.451 8.63 1.68 7.18-1.15 7.71-4.33 5.11-6.16 3-9.21-.75-7.98-3.81-7.91-4.21-4.32-7.25-3.86z"/><path d="M25.172 66.183a46.868 46.868 0 0 1-2.216-1.675c-1.369-1.119-4.853-1.458-7.627-2.613-.923-.384-4.493-2.194-6.29-3.072 0 0-1.818-3.114-2.716-3.553s1.776-1.358 2.215-2.257c-.899-.438-3.594-1.755-3.155-2.654-.51-1.485 3.114-1.817 3.552-2.716 0 0 .878-1.797 2.675-.92l7.189 3.512c-.21-.613 1.601-1.869 1.316-2.696-.46-1.337-.02-2.236-.02-2.236s1.337-.46 1.797.878c.726 2.115 4.074 5.33 4.534 6.667.325.945-.857 4.033-.857 4.033l3.155 2.654m18.827 6.648a46.868 46.868 0 0 0 2.217-1.675c1.369-1.119 4.853-1.458 7.627-2.613.923-.384 4.493-2.194 6.29-3.072 0 0 1.818-3.114 2.716-3.553s-1.776-1.358-2.215-2.257c.898-.438 3.594-1.755 3.155-2.654.51-1.485-3.114-1.817-3.553-2.716 0 0-.877-1.797-2.675-.92-.898.44-7.188 3.512-7.188 3.512.21-.613-1.601-1.869-1.317-2.696.46-1.337.021-2.236.021-2.236s-1.337-.46-1.797.878c-.727 2.115-4.074 5.33-4.534 6.667-.325.945.857 4.033.857 4.033L44 59.535"/></g><path fill="none" stroke="#000" stroke-width="2" stroke-linecap="round" stroke-linejoin="round" stroke-miterlimit="10" d="M56.342 43.223a22.894 22.894 0 0 0 2.998-11.361c0-12.703-10.298-23-23-23-12.703 0-23 10.297-23 23a22.9 22.9 0 0 0 3.117 11.57m13.51 10.536c2.024.582 4.162.894 6.373.894 2.133 0 4.198-.29 6.158-.834m3.656-13.361c-5.85 4.709-14.1 4.688-19.629 0"/><path d="M32.224 30.055c-.367 0-.72-.203-.897-.553-.01-.02-1.213-2.322-3.418-2.322-2.23 0-3.406 2.299-3.418 2.322a1 1 0 1 1-1.789-.894c.07-.14 1.754-3.428 5.207-3.428s5.137 3.287 5.207 3.428a1 1 0 0 1-.892 1.447zm17.25 0c-.367 0-.72-.203-.897-.553-.01-.02-1.213-2.322-3.418-2.322-2.23 0-3.406 2.299-3.418 2.322a1 1 0 1 1-1.789-.894c.07-.14 1.754-3.428 5.207-3.428s5.137 3.287 5.207 3.428a1 1 0 0 1-.892 1.447z"/><path fill="none" stroke="#000" stroke-width="2" stroke-linecap="round" stroke-linejoin="round" stroke-miterlimit="10" d="M27.92 59.142l-1.667-.814s.059-3.636-.266-4.582c-.46-1.337-2.278-4.451-4.095-7.565-.713-1.222-2.696-1.317-2.675.92.008.874.838 2.983.4 3.881 0 0-5.221-2.272-8.014-4.244-1.738-1.228-4.4 1.033-1.163 3.379 1.431 1.038 4.16 2.449 5.956 3.327m-1.922 3.651c-3.818-1.771-6.919-3.916-8.013-4.957-2.152-2.049-.182-4.61 3.276-2.434"/><path fill="none" stroke="#000" stroke-width="2" stroke-linecap="round" stroke-linejoin="round" stroke-miterlimit="10" d="M24.408 65.64c-.848-.666-1.376-1.095-1.452-1.132-.898-.44-3.342-.028-9.417-3.505-1.534-.878-5.061-3.352-5.858-3.956-2.843-2.154-.622-3.852 1.623-2.755m35.5 4.85l1.667-.814s-.059-3.636.266-4.582c.46-1.337 2.277-4.451 4.095-7.565.713-1.222 2.696-1.317 2.675.92-.008.874-.838 2.983-.4 3.881 0 0 5.22-2.272 8.013-4.244 1.739-1.228 4.4 1.033 1.164 3.379-1.431 1.038-4.16 2.449-5.957 3.327m1.923 3.651c3.818-1.771 6.919-3.916 8.012-4.957 2.153-2.049.183-4.61-3.275-2.434"/><path fill="none" stroke="#000" stroke-width="2" stroke-linecap="round" stroke-linejoin="round" stroke-miterlimit="10" d="M48.316 65.64c.848-.666 1.376-1.095 1.452-1.132.898-.44 3.342-.028 9.417-3.505 1.534-.878 5.061-3.352 5.858-3.956 2.843-2.154.622-3.852-1.624-2.755"/></svg>