<svg xmlns="http://www.w3.org/2000/svg" viewBox="0 0 72 72"><circle fill="none" stroke="#FCEA2B" stroke-width="1.8" stroke-miterlimit="10" cx="34.414" cy="35.671" r="23"/><circle fill="#FCEA2B" cx="34.414" cy="35.671" r="23"/><path fill="#FFF" d="M11.84 40.694l.083-10.813 3.04-5.172 2.21-4.261 5.636-3.663 4.694-2.327 5.282-1.584 3.004-.203 6.608.999 6.7 3.349 1.039 2.537-6.99 3.218-7.788 3.78-7.194 4.29-5.95 4.15-6.673 5.958L13 43.488z"/><path fill="#FFF" d="M14.579 24.657l1.014-2.207 1.58-2.002 1.618-.56 2.286-.114 3.603-.164 2.806.303 3.227.046 4.77-.349 3.044.285 3.026.23 4.489.647 4.173.17 1.918.991 1.075.832 1.521 2.114 1.077 2.539v.642l-3.073-.11-4.81-.695-6.453-.748-4.354-.05-7.151-.511-6.361.31h-7.25l-1.775-.601z"/><path fill="none" stroke="#000" stroke-width="2" stroke-linecap="round" stroke-linejoin="round" stroke-miterlimit="10" d="M43.33 26.78c.56.97 1.38 1.78 2.38 2.34 1.29.89 2.87 1.27 4.43 1.07"/><path d="M27.99 34.65c0 1.44-1.16 2.61-2.6 2.61-1.21 0-2.24-.83-2.53-1.96 1.21-.93 2.52-1.89 3.91-2.86.73.46 1.22 1.28 1.22 2.21z"/><circle cx="42.638" cy="34.651" r="2.604"/><path fill="none" stroke="#000" stroke-width="2" stroke-linecap="round" stroke-linejoin="round" stroke-miterlimit="10" d="M31.522 46.559s5.733-1.069 11.663 2.094M12.91 43.85s3.79-3.84 9.95-8.55c1.21-.93 2.52-1.89 3.91-2.86 2.89-2.04 6.13-4.12 9.62-6.05m19.694 2.143c-15.94-3.537-41.949-1.937-41.949-1.937m3.645-6.646s21.583-1.554 34.953 1.983"/><path fill="none" stroke="#000" stroke-width="2" stroke-linecap="round" stroke-linejoin="round" stroke-miterlimit="10" d="M56.3 28.578c-2.99-9.232-11.659-15.907-21.886-15.907-12.703 0-23 10.297-23 23 0 2.881.53 5.64 1.497 8.181m1.587 3.332c3.979 6.867 11.408 11.487 19.916 11.487 12.702 0 23-10.298 23-23a23.17 23.17 0 0 0-.289-3.653"/></svg>