<svg xmlns="http://www.w3.org/2000/svg" viewBox="0 0 72 72"><path fill="none" stroke="#000" stroke-width="2" stroke-linecap="round" stroke-linejoin="round" stroke-miterlimit="10" d="M47.1 38.5c.1-.1.3-.2.5-.3 2-.6 3.9 1.4 3.3 3.4-.1.3-.2.6-.5.8"/><circle fill="#FCEA2B" cx="35.4" cy="35.7" r="22.9"/><circle fill="none" stroke="#FCEA2B" stroke-width="1.8" stroke-miterlimit="10" cx="35.4" cy="35.7" r="22.9"/><path fill="#FFF" d="M39.5 49l-.7-.8c-.7-.9-.6-2.2.2-2.9l17-14.4c.9-.7 2.2-.6 2.9.2l.7.8c.7.9.6 2.2-.2 2.9l-17 14.4c-.8.8-2.1.7-2.9-.2z"/><path fill="#EA5A47" d="M39.3 48.8l-.2-.3c-.6-.7-.5-1.7.2-2.3l8.6-7.3c.7-.6 1.7-.5 2.3.2l.2.3c.6.7.5 1.7-.2 2.3L41.6 49c-.7.6-1.7.5-2.3-.2z"/><path fill="none" stroke="#000" stroke-width="2" stroke-linecap="round" stroke-linejoin="round" stroke-miterlimit="10" d="M19.7 26.9c.7-1.4 1.9-2.4 3.4-3 1.4-.7 3-.8 4.5-.4m22.6 3.4c-1.6-2.8-4.8-4.1-7.9-3.4"/><path fill="none" stroke="#000" stroke-width="2" stroke-linecap="round" stroke-linejoin="round" stroke-miterlimit="10" d="M56.3 26.3c-3.6-8-11.6-13.6-20.9-13.6-12.6 0-22.9 10.2-22.9 22.9 0 12.6 10.2 22.9 22.9 22.9 10.6 0 19.5-7.2 22.1-16.9"/><circle cx="43.6" cy="34.1" r="2.7"/><circle cx="26.4" cy="34.1" r="2.7"/><path fill="none" stroke="#000" stroke-width="2" stroke-linecap="round" stroke-linejoin="round" stroke-miterlimit="10" d="M19.7 26.9c.7-1.4 1.9-2.4 3.4-3 1.4-.7 3-.8 4.5-.4m22.6 3.4c-1.6-2.8-4.8-4.1-7.9-3.4"/><path fill="none" stroke="#000" stroke-miterlimit="10" d="M39.5 49l-.7-.8c-.7-.9-.6-2.2.2-2.9l17-14.4c.9-.7 2.2-.6 2.9.2l.7.8c.7.9.6 2.2-.2 2.9l-17 14.4c-.8.8-2.1.7-2.9-.2z"/><path fill="none" stroke="#000" stroke-width="2" stroke-linecap="round" stroke-linejoin="round" stroke-miterlimit="10" d="M29 50.4c4.3-2.3 9.1-2.4 12.8 0"/><path fill="none" stroke="#000" stroke-width="2" stroke-miterlimit="10" d="M39.5 49l-.7-.8c-.7-.9-.6-2.2.2-2.9l17-14.4c.9-.7 2.2-.6 2.9.2l.7.8c.7.9.6 2.2-.2 2.9l-17 14.4c-.8.8-2.1.7-2.9-.2z"/></svg>