<svg xmlns="http://www.w3.org/2000/svg" xmlns:xlink="http://www.w3.org/1999/xlink" viewBox="0 0 72 72"><defs><path id="a" d="M1 1h1L1 2z"/></defs><defs><path id="c" d="M-1-1h-1l1-1z"/></defs><clipPath id="b"><use xlink:href="#a" overflow="visible"/></clipPath><clipPath id="d" clip-path="url(#b)"><use xlink:href="#c" overflow="visible"/></clipPath><path clip-path="url(#d)" fill="#FCEA2B" d="M9.75 1.42H65v56H9.75z"/><circle fill="#FCEA2B" cx="37" cy="29.42" r="23"/><path fill="#FCEA2B" d="M38.108 47.739l5.096-1.671 1.58.835v2.823l-2.26 1.108-2.407.789-3.026.534-.798-.291.34-3.207z"/><path fill="#FCEA2B" d="M17.55 60.038s-.7-3.559-.412-4.945c.287-1.386 3.215-8.98 3.706-10.239.49-1.258 1.988-6.275 3.332-6.607 1.343-.332 1.65.167 1.59.954l-.806 10.753 12.917-3.925s6.015-1.633 6.252-.44c.08.398.18 1.32-.652 1.876-1.655 1.107-5.84 2.724-5.84 2.724s1.58.878 1.335 1.83c-.246.952-.397 2.21-.72 2.262-.325.052 1.366.657 1.392 1.865.026 1.209-.532 1.767-1.375 2.023s1.447 1.361 1.52 1.874c.073.512.815 1.503-.517 1.907L28.84 65.12s-4.578 1.543-7.28-.095c-2.703-1.639-4.01-4.987-4.01-4.987z"/><path fill="none" stroke="#000" stroke-width="2" stroke-linecap="round" stroke-linejoin="round" stroke-miterlimit="10" d="M29.888 37.748c2.371-.667 11.877.536 14.06 2.066M23.36 15.777a6.306 6.306 0 0 1 4.398-1.073 6.304 6.304 0 0 1 4.204 1.74m20.168 3.348c-2.76-.656-5.367-.751-8.241-.26"/><path fill="none" stroke="#000" stroke-width="2" stroke-linecap="round" stroke-linejoin="round" stroke-miterlimit="10" d="M43.016 51.625C52.801 48.98 60 40.041 60 29.42c0-12.703-10.298-23-23-23-12.703 0-23 10.297-23 23 0 4.835 1.492 9.322 4.04 13.024"/><ellipse cx="46.099" cy="27.071" rx="2.874" ry="2.874"/><ellipse cx="29.161" cy="23.807" rx="2.874" ry="2.874"/><path fill="none" stroke="#000" stroke-width="2" stroke-linecap="round" stroke-linejoin="round" stroke-miterlimit="10" d="M36.485 62.797l-9.085 2.76c-4.447 1.352-8.566-1.296-9.917-5.742-1.3-4.276.56-7.76.56-7.76"/><path fill="none" stroke="#000" stroke-width="2" stroke-linecap="round" stroke-linejoin="round" stroke-miterlimit="10" d="M31.939 47.833l-6.948 2.111.818-10.756c.095-1.245-2.108-1.578-2.834.278l-4.931 12.59"/><path fill="none" stroke="#000" stroke-width="2" stroke-linecap="round" stroke-linejoin="round" stroke-miterlimit="10" d="M36.082 50.18l4.961-1.507c2.105-.64 3.602-1.905 3.326-2.813s-2.224-1.128-4.33-.488l-13.693 4.16m8.433 13.784l2.743-.834c1.509-.458 2.474-1.719 2.145-2.801-.329-1.083-1.469-1.704-2.533-1.38l-1.934.588m.45-4.304l1.912-.58c1.052-.32 1.645-1.462 1.319-2.537-.327-1.076-1.482-1.686-2.568-1.356l-1.972.6"/><path fill="none" stroke="#000" stroke-width="2" stroke-linecap="round" stroke-linejoin="round" stroke-miterlimit="10" d="M35.514 58.793l2.293-.697c1.26-.383 2.031-1.555 1.712-2.605s-1.445-1.646-2.502-1.324l-1.923.584"/></svg>