<svg xmlns="http://www.w3.org/2000/svg" viewBox="0 0 72 72"><path fill="#fcea2b" d="M33.2 13.457c-12.572 0-22.8 10.228-22.8 22.8 0 12.572 10.228 22.8 22.8 22.8 12.572 0 22.8-10.228 22.8-22.8 0-12.572-10.228-22.8-22.8-22.8z"/><path fill="#FFF" stroke-width="2" stroke-miterlimit="2" d="M37.945 46.914h-9.89c-1.28 0-2.327-1.485-2.327-3.3 0-1.815 1.047-3.3 2.327-3.3h9.89c1.28 0 2.328 1.485 2.328 3.3 0 1.815-1.048 3.3-2.328 3.3z"/><circle fill="none" stroke="#000" stroke-width="2" stroke-miterlimit="10" cx="33" cy="36.141" r="23"/><path d="M27.317 32.066a3.001 3.001 0 0 1-6 0c0-1.655 1.345-3 3-3s3 1.345 3 3m18 0a3.001 3.001 0 0 1-6 0c0-1.655 1.345-3 3-3s3 1.345 3 3"/><path fill="none" stroke="#000" stroke-width="2" stroke-miterlimit="2" d="M37.945 46.914h-9.89c-1.28 0-2.327-1.485-2.327-3.3h0c0-1.815 1.047-3.3 2.327-3.3h9.89c1.28 0 2.328 1.485 2.328 3.3h0c0 1.815-1.048 3.3-2.328 3.3z"/><path fill="none" stroke="#000" stroke-width="2" stroke-linecap="round" stroke-linejoin="round" stroke-miterlimit="10" d="M20 23.253l7 4m19-4l-7 4M52.295 8.97v4.324"/><circle cx="52.295" cy="15.97" r="1"/><path fill="none" stroke="#000" stroke-width="2" stroke-linecap="round" stroke-linejoin="round" stroke-miterlimit="10" d="M59.317 16.97l-1.064 7m4.18-7l-1.065 7m-4.333-5.05l7.081-.007m-7.546 3.088l7.08-.007"/></svg>