<svg xmlns="http://www.w3.org/2000/svg" viewBox="0 0 72 72"><circle fill="#FCEA2B" stroke="#FCEA2B" stroke-miterlimit="10" cx="37.5" cy="37" r="23"/><path fill="#EA5A47" d="M49.661 45.411c0 3.57-3.975 6.406-11.943 6.406-7.967 0-11.994-2.845-11.994-6.406h.094s12.137 3.063 23.683.066l.16-.066z"/><path fill="#92D3F5" d="M44.536 56.784c0 .733-.558 1.328-1.247 1.328-.688 0-1.246-.595-1.246-1.328v-4.387l3.261-1.223 2.74-1.63V61.02c0 .865-.784 1.567-1.75 1.567s-1.75-.702-1.75-1.567v-4.704"/><g fill="none" stroke="#000" stroke-width="2" stroke-linecap="round" stroke-linejoin="round" stroke-miterlimit="10"><path d="M22.966 27.92a6.306 6.306 0 0 1 3.391-3 6.304 6.304 0 0 1 4.53-.42m21.69 3.42a7.19 7.19 0 0 0-7.91-3.43"/><path d="M51.923 54.787c5.338-4.212 8.764-10.74 8.764-18.066 0-12.703-10.298-23-23-23-12.703 0-23 10.297-23 23 0 12.702 10.297 23 23 23 .368 0 .733-.009 1.096-.026"/><path d="M26.84 35.52c.62-.698 1.405-1.415 2.45-1.774 1.06-.364 2.117-.364 3.276-.249M48.72 35.52c-.621-.698-1.406-1.415-2.452-1.774-1.059-.364-2.116-.364-3.275-.249m6.668 11.914c0 3.57-3.975 6.406-11.943 6.406-7.967 0-11.994-2.845-11.994-6.406h.094s12.137 3.063 23.683.066l.16-.066z"/><path d="M44.536 56.784c0 .733-.558 1.328-1.247 1.328h0c-.688 0-1.246-.595-1.246-1.328v-4.387l3.261-1.223 2.74-1.63V61.02c0 .865-.784 1.567-1.75 1.567h0c-.966 0-1.75-.702-1.75-1.567v-4.704"/></g></svg>