<svg xmlns="http://www.w3.org/2000/svg" viewBox="0 0 72 72"><circle fill="#FCEA2B" cx="35.367" cy="35.499" r="23"/><circle fill="none" stroke="#FCEA2B" stroke-width="1.8" stroke-miterlimit="10" cx="35.367" cy="35.499" r="23"/><path fill="#B1CC33" d="M20.444 57.97l.73 2.508 2.334 1.585L25.8 63.53l3.026-.53 2.028.53 3.772-1.014 2.75.484h5.599l2.1-1.58 3.622-.294 1.477-1.506.874-3.187.128-3.678-3.502-2.335-.904-2.1-.413-4.64-3.776-4.06-3.056-1.099-3.994-.869-3.356.82-3.164.834-2.51 1.891-1.623 2.153-.902 3.02.704 2.85-.88 1.962-1.374 1.688z"/><g fill="none" stroke="#000" stroke-width="2" stroke-linecap="round" stroke-linejoin="round" stroke-miterlimit="10"><path d="M24.855 25.912l6.587 4.014-6.587 3.738m21.665-7.752l-6.588 4.014 6.587 3.738"/><path d="M53.587 49.538a22.9 22.9 0 0 0 4.78-14.038c0-12.704-10.297-23-23-23s-23 10.296-23 23c0 5.99 2.29 11.444 6.042 15.537"/><path d="M42.752 18.57a6.307 6.307 0 0 0 3 3.391 6.304 6.304 0 0 0 4.444.97M28.19 18.57a6.307 6.307 0 0 1-2.999 3.391 6.304 6.304 0 0 1-4.445.97m3.935 28.251a8.748 8.748 0 0 1-.352-.816 8.324 8.324 0 0 1-.527-2.914c0-5.412 5.252-9.8 11.73-9.8s11.73 4.388 11.73 9.8c0 1.169-.246 2.29-.695 3.33M28.648 61.319c-.177 1.227-1.571 2.21-2.847 2.21a2.534 2.534 0 0 1-2.534-2.533m-.281 0c-1.399 0-2.87-.886-2.87-2.285 0-1.4 1.135-2.534 2.534-2.534m2.031-4.995c-1.399 0-3.136 1.366-3.136 2.766 0 .875.444 1.646 1.118 2.102"/><path d="M33.346 61.483c-.238 1.144-1.485 1.852-2.786 1.582-1.077-.224-1.854-1.047-1.955-1.972m9.91.101A2.535 2.535 0 0 1 36.087 63c-1.1 0-2.262-.896-2.613-1.874m10.489-.13c0 1.4-1.135 2.534-2.534 2.534s-2.914-.937-2.914-2.336m8.215-10.376c2.46 0 5.27 1.91 5.27 3.646 0 1.175-.915 2.2-2.27 2.738m.081.312c.962 2.824-1.324 4.349-3.062 4.575a3.168 3.168 0 0 1-2.664-.914"/></g></svg>