<svg xmlns="http://www.w3.org/2000/svg" viewBox="0 0 72 72"><path fill="#FCEA2B" d="M36.2 13.316c-12.572 0-22.8 10.228-22.8 22.8 0 12.572 10.228 22.8 22.8 22.8 12.572 0 22.8-10.228 22.8-22.8 0-12.572-10.228-22.8-22.8-22.8z"/><path fill="#FFF" d="M31.78 31.463A4.464 4.464 0 1 1 27.317 27c2.463 0 4.463 2 4.463 4.463zm19.26-.629c0 3.364-2.73 6.091-6.09 6.091s-6.092-2.727-6.092-6.09c0-3.362 2.73-6.092 6.091-6.092s6.091 2.73 6.091 6.091zm-6.58 13.481c-.338.292-4.956 7.343-9.91 6.064-4.462-1.153-5.49-8.887-5.735-9.413l15.646 3.349z"/><path fill="#EA5A47" d="M43.31 44.407c-1.293 5.936-4.618 10.252-7.426 9.64s-4.037-5.92-2.744-11.856l10.17 2.216z"/><circle fill="none" stroke="#000" stroke-width="2" stroke-miterlimit="10" cx="36" cy="36" r="23"/><path fill="none" stroke="#000" stroke-width="2" stroke-miterlimit="10" d="M31.78 31.463A4.464 4.464 0 1 1 27.317 27c2.463 0 4.463 2 4.463 4.463"/><path d="M28.338 32.47a2 2 0 1 1-4.002-.002 2 2 0 0 1 4.002.001"/><path fill="none" stroke="#000" stroke-width="2" stroke-miterlimit="10" d="M51.04 30.834c0 3.364-2.73 6.091-6.09 6.091s-6.092-2.727-6.092-6.09c0-3.362 2.73-6.092 6.091-6.092s6.091 2.73 6.091 6.091"/><path d="M49.044 30.1a2.73 2.73 0 0 1-5.46 0 2.732 2.732 0 0 1 2.73-2.73 2.732 2.732 0 0 1 2.73 2.73"/><path fill="none" stroke="#000" stroke-width="2" stroke-linecap="round" stroke-linejoin="round" stroke-miterlimit="10" d="M39.084 21.942c.414-.344 2.246-1.792 4.91-1.637 2.16.126 3.61 1.233 4.09 1.637m-25.267 1.801c.413-.344 2.246-1.791 4.91-1.636 2.16.126 3.61 1.233 4.09 1.636M28.81 40.97c.23.47-.52 6.68 4.11 8.86m9.35-1.98c.01-.01.01-.02.01-.02 1.4-1.62 2.02-3.37 2.18-3.51m-15.645-3.354l15.646 3.349"/><path fill="none" stroke="#000" stroke-width="2" stroke-linecap="round" stroke-linejoin="round" stroke-miterlimit="10" d="M43.31 44.407c-1.293 5.936-4.618 10.252-7.426 9.64s-4.037-5.92-2.744-11.856"/></svg>