<svg xmlns="http://www.w3.org/2000/svg" viewBox="0 0 72 72"><circle fill="#FFF" cx="36.903" cy="38.734" r="23"/><path fill="#D22F27" d="M50.71 49.28s-1.58 8.43-13.81 8.76c-12.18-.44-13.81-8.76-13.81-8.76-.46-1.73-1.24-5.76 2.28-3.81 2.7 1.5 5.38 4.37 11.53 4.55 6.16-.18 8.83-3.05 11.53-4.55 3.52-1.95 2.75 2.08 2.28 3.81z"/><path fill="#FFF" d="M36.901 55.468c-6.062 0-9.93-3.31-10.911-4.915s.55-1.155.866-1.003c2.314 1.117 4.041 2.698 10.045 2.904m0 3.014c6.062 0 9.93-3.31 10.912-4.915s-.551-1.155-.867-1.003c-2.313 1.117-4.04 2.698-10.045 2.904"/><path fill="#D22F27" d="M14.341 30.573l-.806-2.035-.23-1.997-.04-2.381.595-2.939 1.902-2.591 1.997-2.727 4.071-.88 3.073.534 2.726.269.4 1.853-4.428 1.77-2.001 2.1-1.498 1.843-2.7 2.257-1.77 4.427zm31.855-14.715l2.097-.632 2.009-.06 2.376.162 2.878.84 2.422 2.114 2.548 2.22.534 4.13-.792 3.017-.498 2.694-1.88.242-1.391-4.561-1.922-2.172-1.71-1.648-2.022-2.88-4.262-2.139z"/><path fill="none" stroke="#000" stroke-width="2" stroke-linecap="round" stroke-linejoin="round" stroke-miterlimit="10" d="M24.386 23.908c2.899-1.554 6.193-1.613 8.655 0m7.802 0c2.9-1.554 6.194-1.613 8.656 0M50.71 49.28s-1.58 8.43-13.81 8.76c-12.18-.44-13.81-8.76-13.81-8.76-.46-1.73-1.24-5.76 2.28-3.81 2.7 1.5 5.38 4.37 11.53 4.55 6.16-.18 8.83-3.05 11.53-4.55 3.52-1.95 2.75 2.08 2.28 3.81zM14.533 30.667s-2.047-1.469-.602-3.124c0 0-2.278-2.013-.428-3.904 0 0-1.238-4.073 2.138-4.309 0 0-.39-4.072 4.08-3.598 0 0 2.501-1.802 4.355.248 0 0 2.533-1.607 3.843.403"/><circle fill="none" stroke="#000" stroke-width="2" stroke-linecap="round" stroke-linejoin="round" stroke-miterlimit="10" cx="36.903" cy="38.734" r="23"/><path fill="none" stroke="#000" stroke-width="2" stroke-linecap="round" stroke-linejoin="round" stroke-miterlimit="10" d="M58.843 30.667s2.047-1.469.602-3.124c0 0 2.279-2.013.428-3.904 0 0 1.238-4.073-2.138-4.309 0 0 .39-4.072-4.08-3.598 0 0-2.501-1.802-4.355.248 0 0-2.533-1.607-3.843.403"/><ellipse fill="none" stroke="#000" stroke-width="2" stroke-miterlimit="10" cx="28.713" cy="33.552" rx="3.5" ry="6.304"/><ellipse fill="none" stroke="#000" stroke-width="2" stroke-miterlimit="10" cx="45.171" cy="33.555" rx="3.5" ry="6.304"/><circle cx="36.784" cy="41.712" r="2.735"/><ellipse fill="none" stroke="#92D3F5" stroke-width="2.1" stroke-miterlimit="10" cx="28.713" cy="33.552" rx="3.5" ry="6.304"/><ellipse fill="none" stroke="#92D3F5" stroke-width="2.1" stroke-miterlimit="10" cx="45.171" cy="33.555" rx="3.5" ry="6.304"/><path d="M31.21 33.55c0 3.04-1.32 5.31-2.5 5.31s-2.5-2.27-2.5-5.31c0-3.03 1.32-5.3 2.5-5.3s2.5 2.27 2.5 5.3zm16.46.01c0 3.03-1.32 5.3-2.5 5.3s-2.5-2.27-2.5-5.3c0-3.04 1.32-5.31 2.5-5.31s2.5 2.27 2.5 5.31z"/><circle fill="#D22F27" cx="36.784" cy="41.712" r="2.735"/></svg>