<svg xmlns="http://www.w3.org/2000/svg" viewBox="0 0 72 72"><circle fill="#FCEA2B" cx="36.468" cy="40.942" r="23"/><path fill="#EA5A47" d="M50.693 51.177c-13.782 3.518-28.271-.077-28.271-.077l.278.06v.01c1.77 4.33 6.39 7.36 13.8 7.36 7.35 0 11.91-2.96 13.7-7.23l.493-.123z"/><circle fill="none" stroke="#FCEA2B" stroke-width="1.8" stroke-miterlimit="10" cx="36.468" cy="40.942" r="23"/><path fill="none" stroke="#FFF" stroke-width="4" stroke-linejoin="round" stroke-miterlimit="10" d="M22.436 49.269s14.489 3.594 28.271.077"/><path fill="#6A462F" d="M60.647 18.207l-2.76-2.114-3.671-.435-3.713 1.973-2.547 2.165-1.53-.61.411-6.573-3.062-2.59-3.503-1.38-2.093-.319-2.507.506-.624-.43-1.054-.306h-1.775l-2.604.979-2.976 1.59-1.86 1.308-.468 1.342.52 2.246.415 2.354-1.447 2.428-2.96-2.516-3.712-1.972-3.671.435-2.76 2.114-1.947 3.464.309 3.604 2.01 4.106 2.717 2.697 1.92-3.446L17.4 25.82l2.766-2.192c2.446.819 8.4 2.503 16.045 2.52 4.609.01 9.82-1.103 15.26-2.48l2.471 1.957 1.696 3.008 1.92 3.445 2.716-2.697 2.01-4.106.31-3.604-1.947-3.464z"/><path fill="none" stroke="#000" stroke-width="2" stroke-linecap="round" stroke-linejoin="round" stroke-miterlimit="10" d="M21.989 46.805s14.804 3.595 28.887.078m.196-.078c0 6.533-4.85 11.726-14.568 11.726-9.717 0-14.63-5.209-14.63-11.726"/><path fill="none" stroke="#000" stroke-width="2" stroke-linejoin="round" stroke-miterlimit="10" d="M22.422 51.1s14.489 3.595 28.271.077"/><ellipse cx="29.372" cy="35.76" rx="3" ry="5.404"/><ellipse cx="44.236" cy="35.764" rx="3" ry="5.404"/><path fill="none" stroke="#000" stroke-linecap="round" stroke-linejoin="round" stroke-miterlimit="10" d="M59.044 17.167s-4.007-3.859-10.036 1.646c0 0-3.806 3.666-13.49 3.707"/><path fill="none" stroke="#000" stroke-linecap="round" stroke-linejoin="round" stroke-miterlimit="10" d="M11.993 17.167S16 13.308 22.03 18.813c0 0 3.806 3.666 13.489 3.707m13.489-3.706s-3.806 3.665-13.49 3.706"/><path fill="none" stroke="#000" stroke-width="2" stroke-linecap="round" stroke-linejoin="round" stroke-miterlimit="10" d="M13.88 36.602a24.538 24.538 0 0 0-.412 4.34c0 12.702 10.296 23 23 23 12.702 0 23-10.298 23-23 0-1.485-.141-2.937-.41-4.344M14.14 31.83c1.17-3.12 3.16-5.8 5.59-8.03m37.84 7.9c-1.17-3-2.96-5.69-5.22-7.9"/><path fill="none" stroke="#000" stroke-width=".25" stroke-miterlimit="10" d="M24.72 19.86l.526-1.947-.415-2.354-.52-2.246.467-1.342 1.861-1.309 2.976-1.59 2.604-.978h1.775l1.054.306.624.43 2.507-.506 2.093.319 3.503 1.38 3.062 2.59-.41 6.573.345.84-.67.535-6.008 1.742H31.74l-4.746-.974z"/><path fill="none" stroke="#000" stroke-width="2" stroke-linecap="round" stroke-linejoin="round" stroke-miterlimit="10" d="M23.811 19.86s1.665-.416 1.422-2.627c-.073-.658-.355-1.628-.711-2.55-.64-1.65-.194-2.968 4.114-5.134 0 0 2.082-1.04 2.82-1.274 1.083-.342 3.26-.62 4.469.818M47.532 19.86s-1.595-.416-1.362-2.627c.07-.658.34-1.628.681-2.55.613-1.65.186-2.968-3.942-5.134 0 0-1.996-1.04-2.702-1.274-1.038-.342-3.124-.62-4.283.818"/><path fill="none" stroke="#000" stroke-width="2" stroke-linecap="round" stroke-linejoin="round" stroke-miterlimit="10" d="M13.883 32.273s-10.19-8.362-1.89-15.106c0 0 4.007-3.859 10.037 1.646 0 0 3.806 3.666 13.489 3.706m22.389 9.555s9.435-8.163 1.136-14.907c0 0-4.007-3.859-10.036 1.647 0 0-3.806 3.665-13.49 3.706m-15.814 1.268s15.768 5.57 32.668 0"/></svg>