<svg xmlns="http://www.w3.org/2000/svg" viewBox="0 0 72 72"><circle fill="#FCEA2B" cx="35.253" cy="36.534" r="23"/><path fill="#F1B31C" d="M24.457 21.77l7.986-1.2-3.905 7.07 3.61 7.224-7.93-1.53L18.463 39l-.996-8.014-7.167-3.723 7.314-3.424 1.326-7.966zm20.93 0l-7.986-1.2 3.905 7.07-3.61 7.224 7.93-1.53L51.38 39l.996-8.014 7.167-3.723-7.314-3.424-1.326-7.966z"/><path fill="#EA5A47" d="M48.99 46.89c-1.79 4.27-6.35 7.23-13.7 7.23-7.41 0-12.03-3.03-13.8-7.36 2.03.46 14.98 3.17 27.5.13z"/><path fill="#FFF" d="M49.86 42.4c0 1.6-.29 3.11-.87 4.49-12.52 3.04-25.47.33-27.5-.13-.55-1.35-.83-2.82-.83-4.36h.11s14.81 3.59 28.89.07l.2-.07z"/><g fill="none" stroke="#000" stroke-width="2" stroke-linejoin="round" stroke-miterlimit="10"><path stroke-linecap="round" d="M49.86 42.4c0 1.6-.29 3.11-.87 4.49-12.52 3.04-25.47.33-27.5-.13-.55-1.35-.83-2.82-.83-4.36h.11s14.81 3.59 28.89.07l.2-.07z"/><path d="M48.99 46.89c-1.79 4.27-6.35 7.23-13.7 7.23-7.41 0-12.03-3.03-13.8-7.36 2.03.46 14.98 3.17 27.5.13zm.49-.12l-.49.12m-27.5-.13c-.19-.05-.28-.07-.28-.07"/><path stroke-linecap="round" d="M45.807 16.093a22.902 22.902 0 0 0-10.554-2.56 22.9 22.9 0 0 0-11.076 2.838M12.447 33.53a23.215 23.215 0 0 0-.194 3.004c0 12.702 10.297 23 23 23 12.702 0 23-10.298 23-23 0-1.007-.065-2-.19-2.973"/><path stroke-linecap="round" d="M24.457 21.77l7.986-1.2-3.905 7.07 3.61 7.224-7.93-1.53L18.463 39l-.996-8.014-7.167-3.723 7.314-3.424 1.326-7.966zm20.93 0l-7.986-1.2 3.905 7.07-3.61 7.224 7.93-1.53L51.38 39l.996-8.014 7.167-3.723-7.314-3.424-1.326-7.966z"/></g></svg>