<svg xmlns="http://www.w3.org/2000/svg" viewBox="0 0 72 72"><path fill="#FCEA2B" d="M35.377 15.22c-11.626 0-21.084 9.459-21.084 21.084 0 11.626 9.458 21.084 21.084 21.084 11.625 0 21.083-9.458 21.083-21.084 0-11.625-9.458-21.083-21.083-21.083z"/><path d="M35.377 59.304c-12.682 0-23-10.317-23-23 0-12.68 10.318-23 23-23s23 10.32 23 23c0 12.683-10.318 23-23 23zm0-44.083c-11.626 0-21.084 9.458-21.084 21.083 0 11.626 9.458 21.084 21.084 21.084 11.625 0 21.083-9.458 21.083-21.084 0-11.625-9.458-21.083-21.083-21.083z"/><path d="M31.244 28.039a.955.955 0 0 1-.678-.281c-.04-.038-1.173-1.097-3.455-1.097s-3.416 1.06-3.463 1.104a.964.964 0 0 1-1.351-.018.954.954 0 0 1 .004-1.344c.067-.068 1.694-1.659 4.81-1.659 3.116 0 4.742 1.591 4.81 1.659a.958.958 0 0 1-.677 1.636zm12.398 1.377c-3.116 0-4.743-1.59-4.81-1.658a.958.958 0 1 1 1.355-1.355c.04.037 1.174 1.097 3.455 1.097 2.282 0 3.415-1.06 3.463-1.105a.964.964 0 0 1 1.351.019.954.954 0 0 1-.003 1.344c-.069.067-1.694 1.658-4.81 1.658z"/><circle cx="26.911" cy="34.807" r="2.556"/><circle cx="43.443" cy="34.807" r="2.556"/><path d="M41.639 47.366a.94.94 0 0 1-.367-.073c-1.688-.7-9.974-.7-11.665 0a.96.96 0 0 1-.733-1.77c2.15-.89 10.986-.89 13.132 0a.958.958 0 0 1-.367 1.843z"/></svg>