<svg xmlns="http://www.w3.org/2000/svg" viewBox="0 0 72 72"><circle fill="none" stroke="#FCEA2B" stroke-width="1.8" stroke-miterlimit="10" cx="36.326" cy="33.792" r="22.974"/><path fill="#FCEA2B" d="M59.3 33.792c0-12.688-10.286-22.974-22.974-22.974S13.352 21.104 13.352 33.792c0 9.225 5.44 17.175 13.284 20.83.729 1.377 1.018 1.724 1.11 1.807-.102.18-.485 1.41-1.904 7.793L35.62 66c.005-.569-.55-1.998.146-6.55.199-1.299 1.21-1.764 2.127-2.743C49.849 55.9 59.3 45.953 59.3 33.792z"/><circle cx="27.504" cy="28.375" r="2.602"/><circle cx="44.734" cy="28.375" r="2.602"/><path fill="none" stroke="#000" stroke-width="2" stroke-linecap="round" stroke-linejoin="round" stroke-miterlimit="10" d="M26.098 63.42c.986-4.156 1.687-6.963 1.687-6.963s-.281-.07-1.692-2.892c-.63-1.262-1.077-5.482-1.41-8.467-.314-2.804.108-3.593 1.106-3.593s1.224.816 1.715 2.182a21.708 21.708 0 0 0 1.278 2.806c1.498-4.443 3.57-8.189 4.989-9.977 1.995-2.516 4.559-.353 2.993 1.995-1.995 2.994-2.993 5.987-2.993 5.987"/><path fill="none" stroke="#000" stroke-width="2" stroke-linecap="round" stroke-linejoin="round" stroke-miterlimit="10" d="M36.764 38.512l.998-1.996c2.245-4.49 4.988-1.995 3.99 0-1.023 2.048-2.992 5.986-3.99 8.98"/><path fill="none" stroke="#000" stroke-width="2" stroke-linecap="round" stroke-linejoin="round" stroke-miterlimit="10" d="M35.459 65.167c-.006-2.074.068-4.15.307-5.717.266-1.742 1.996-1.982 2.994-3.977 2.993-5.986 1.828-8.314 3.99-13.968 1.128-2.948-1.56-3.715-3.12-.599"/><path fill="none" stroke="#000" stroke-width="2" stroke-linecap="round" stroke-linejoin="round" stroke-miterlimit="10" d="M43.047 55.773c9.375-2.882 16.2-11.599 16.223-21.92.03-12.695-10.237-23.01-22.931-23.04-12.695-.03-23.01 10.237-23.039 22.932-.016 7.045 3.138 13.357 8.12 17.585"/></svg>