<svg xmlns="http://www.w3.org/2000/svg" viewBox="0 0 72 72"><circle fill="none" stroke="#FCEA2B" stroke-width="1.8" stroke-miterlimit="10" cx="35.887" cy="34.056" r="23"/><path fill="#FCEA2B" d="M58.887 34.056c0-12.702-10.297-23-23-23-12.702 0-23 10.298-23 23 0 9.025 5.2 16.832 12.766 20.598.044 1.552.565 2.986 1.761 4.385 1.361 1.591 4.006 2.368 5.85 2.835 1.83.463 2.55-.307 6.375-3.014 1.205-.853 3.766-.887 5.721-2.145.292-.188 2 .412 2.146 0 .083-.235.341-1.664 0-2.146-.058-.082-.312-.205-.59-.326 7.133-3.905 11.971-11.48 11.971-20.187z"/><path fill="none" stroke="#000" stroke-width="2" stroke-linecap="round" stroke-linejoin="round" stroke-miterlimit="10" d="M51.41 51.028c4.595-4.205 7.477-10.252 7.477-16.972 0-12.703-10.298-23-23-23-12.703 0-23 10.297-23 23 0 7.322 3.42 13.844 8.752 18.057"/><circle cx="44.289" cy="25.778" r="2.556"/><circle cx="27.039" cy="25.778" r="2.556"/><path fill="none" stroke="#000" stroke-width="2" stroke-linecap="round" stroke-linejoin="round" stroke-miterlimit="10" d="M33.84 39.79c-1.43-.22-2.79-.73-4-1.52m12.1 0c-1.37.73-2.81 1.23-4.24 1.47M21.246 21.868a6.046 6.046 0 0 1 3.25-2.876 6.043 6.043 0 0 1 4.344-.404m21.751 3.28a6.893 6.893 0 0 0-7.582-3.289m-3.534 40.742c-3.804 3.252-10.35 3.38-12.776-.997 0 0-1.843-2.475-.24-7.234 0 0 .679-2.784 1.02-3.673.288-.747.723-1.254 2.862-1.43 2.542-.211 4.222-1.064 9.782.51 1.49.423 4.103 1.466 3.338 5.034 0 0-.246 2.323-2.392 1.607m5.097 4.133a1.927 1.927 0 0 0 .233-3.847m-5.33 0h5.33m-1.836 3.938c-1.597-.05-3.37.438-5.167 2.026m6.77-2.117l-1.648.09"/><path fill="none" stroke="#000" stroke-width="2" stroke-linecap="round" stroke-linejoin="round" stroke-miterlimit="10" d="M37.863 54.386a1.928 1.928 0 0 0 2.31.194c.787-.494 1.036-1.444.783-2.301-.311-1.054-.602-2.717-2.748-3.432m-3.576.715c2.146 0 2.919 4.465 2.919 4.465.465 1.791-.164 3.504-1.404 3.827-1.24.322-2.623-.87-3.088-2.66 0 0-.573-2.056-1.288-2.77m5.928-15.571a1.927 1.927 0 1 0-3.855-.001m-.004 8.715l.004-8.715m3.855.001l-.004 8.893"/></svg>