<svg xmlns="http://www.w3.org/2000/svg" viewBox="0 0 72 72"><circle fill="#B1CC33" cx="36.243" cy="35.69" r="23"/><path fill="none" stroke="#000" stroke-width="2" stroke-linecap="round" stroke-linejoin="round" stroke-miterlimit="10" d="M27.648 22.057a6.306 6.306 0 0 1-2.25 3.929 6.304 6.304 0 0 1-4.156 1.851m23.872-5.78a6.306 6.306 0 0 0 2.25 3.929 6.304 6.304 0 0 0 4.155 1.851"/><circle fill="none" stroke="#000" stroke-width="2" stroke-linecap="round" stroke-linejoin="round" stroke-miterlimit="10" cx="36.243" cy="35.69" r="23"/><circle cx="27.218" cy="33.671" r="2.604"/><circle cx="44.468" cy="33.671" r="2.604"/><path d="M41.179 46.372a.65.65 0 0 1-.3-.08c-1.4-.73-8.27-.73-9.67 0a.75.75 0 0 1-1-.54 1.11 1.11 0 0 1 .43-1.31c1.78-.93 9.11-.93 10.89 0 .43.283.608.826.43 1.31a.818.818 0 0 1-.78.62z"/><path d="M31.399 45.612a4.432 4.432 0 0 1-1.89 3.42 1.33 1.33 0 0 1-1.41-.06.558.558 0 0 1 0-1 3.332 3.332 0 0 0 .22-5 .56.56 0 1 1 .06-1 1.32 1.32 0 0 1 1.4.07 4.43 4.43 0 0 1 1.62 3.57zm9.681-.13a4.426 4.426 0 0 0 1.618 3.55c.432.27.979.27 1.41 0a.561.561 0 0 0 0-1 3.327 3.327 0 0 1 .16-5 .562.562 0 0 0 0-1 1.322 1.322 0 0 0-1.4 0 4.43 4.43 0 0 0-1.789 3.45z"/></svg>