<svg xmlns="http://www.w3.org/2000/svg" viewBox="0 0 72 72"><path d="M23.257 27.01a.497.497 0 0 0-.493.099l-3.051 2.707a.5.5 0 0 0 .179.85l3.81 1.221a.5.5 0 0 0 .643-.57l-.758-3.929a.5.5 0 0 0-.33-.379zm4.563-6.467l-3.948.684a.5.5 0 0 0-.326.778l2.71 3.899a.499.499 0 0 0 .892-.155l1.24-4.583a.5.5 0 0 0-.568-.623zm8.396-3.813a.498.498 0 0 0-.875.248l-.571 3.628a.501.501 0 0 0 .493.578l3.674.006h.002a.5.5 0 0 0 .38-.824l-3.103-3.636zm13.361 6.348a.498.498 0 0 0-.285-.414l-4.08-1.923a.498.498 0 0 0-.71.5l.417 4.402a.499.499 0 0 0 .778.367l3.662-2.48a.498.498 0 0 0 .218-.452zm3.855 6.882l-2.68-2.886a.5.5 0 0 0-.846.199l-1.138 3.851a.5.5 0 0 0 .601.627l3.819-.966a.5.5 0 0 0 .244-.825zm-14.795-1.999l-7.679.992a.5.5 0 0 0-.33.804l4.676 5.983a.5.5 0 0 0 .854-.11l3.002-6.975a.5.5 0 0 0-.523-.694z"/><path fill="#FCEA2B" d="M17.347 26.308c-2.49 3.653-3.946 10.064-3.946 14.808 0 12.572 10.227 22.8 22.8 22.8 12.57 0 22.799-10.228 22.799-22.8 0-4.702-1.551-10.482-4-14.116"/><path fill="#FFF" d="M28 55c.27-.356 3.31-8.218 8.421-8.004C41.026 47.19 43.65 54.537 44 55H28z"/><path fill="#E27022" d="M17 27c-1.333-2.333-3.667-6.667-5-9 4.316.165 4-.477 7.63.01.666-2 2.703-5.01 3.37-7.01l8 6c2-3.333 4-1.667 6-5 2.333 3.333 4.617 2.667 6.95 6 2-2 4.05 0 6.05-2l1 5 10-5c-1.667 3-4.333 8-6 11"/><path fill="#E27022" stroke="#E27022" stroke-linecap="round" stroke-linejoin="round" stroke-miterlimit="10" d="M23.855 31.411l-3.81-1.22 3.051-2.708z"/><path fill="#FCEA2B" stroke="#FCEA2B" stroke-linecap="round" stroke-linejoin="round" stroke-miterlimit="10" d="M26.666 25.619l-2.71-3.9 3.95-.683zm8.598-4.935l.572-3.629 3.102 3.635zm10.153 4.912L45 21.194l4.079 1.922z"/><path fill="#E27022" stroke="#E27022" stroke-linecap="round" stroke-linejoin="round" stroke-miterlimit="10" d="M53.066 30.3l-3.819.966 1.138-3.851zm-17.368 5.132l-4.676-5.983 7.68-.992z"/><path fill="none" stroke="#000" stroke-width="2" stroke-linecap="round" stroke-linejoin="round" stroke-miterlimit="10" d="M55.974 29.588A22.894 22.894 0 0 1 59 41c0 12.703-10.297 23-23 23S13 53.703 13 41c0-4.134 1.09-8.012 3-11.365"/><path d="M30.317 35.925a3.001 3.001 0 0 1-6 0c0-1.655 1.345-3 3-3s3 1.345 3 3m18 0a3.001 3.001 0 0 1-6 0c0-1.655 1.345-3 3-3s3 1.345 3 3"/><path fill="none" stroke="#000" stroke-width="2" stroke-linecap="round" stroke-linejoin="round" stroke-miterlimit="10" d="M28 55c.27-.356 1-8 8.421-8.004C43 46.993 43.65 54.537 44 55H28zM16 25l-4-7 7.63.01 2.841-6.99 7.846 5.61L37 12l6.95 6L50 16l1 5 10-5-5 9"/></svg>