<svg xmlns="http://www.w3.org/2000/svg" viewBox="0 0 72 72"><circle fill="none" stroke="#FCEA2B" stroke-width="1.8" stroke-miterlimit="10" cx="34.019" cy="38.664" r="22.976"/><path fill="#FCEA2B" d="M34.02 15.688c12.688 0 22.975 10.287 22.975 22.976 0 1.183-.09 2.346-.262 3.48 2.675 1.927 2.675 6.127-2.19 6.857C50.762 56.498 42.99 61.64 34.02 61.64c-12.689 0-22.975-10.287-22.975-22.976S21.33 15.688 34.019 15.688z"/><path fill="none" stroke="#000" stroke-width="2" stroke-linecap="round" stroke-linejoin="round" stroke-miterlimit="10" d="M18.987 29.94a6.306 6.306 0 0 1 3.664-2.658 6.304 6.304 0 0 1 4.55.018m21.395 1.636a7.19 7.19 0 0 0-7.607-4.056"/><path fill="none" stroke="#000" stroke-width="2" stroke-linecap="round" stroke-linejoin="round" stroke-miterlimit="10" d="M57.001 37.363c-.674-12.098-10.698-21.699-22.964-21.699-12.703 0-23 10.297-23 23 0 12.702 10.297 23 23 23 7.08 0 13.414-3.2 17.633-8.232"/><circle cx="25.287" cy="34.673" r="2.749"/><circle cx="42.537" cy="34.673" r="2.749"/><path fill="none" stroke="#000" stroke-width="2" stroke-linecap="round" stroke-linejoin="round" stroke-miterlimit="10" d="M37.76 53.3s-5.719-1.835-8.872 1.55m29.554-9.118c-.214 1.636-1.906 2.786-1.906 2.786-2.385 1.436-9.133-.796-9.133-.796-4.97-1.255-12.065-.67-12.065-.67m23.104-1.48c.027-1.815-1.493-3.175-1.493-3.175-2.226-1.579-9.189-.046-9.189-.046-5.385.692-12.082-.478-12.082-.478"/></svg>