<svg xmlns="http://www.w3.org/2000/svg" viewBox="0 0 72 72"><circle fill="#FCEA2B" cx="40.475" cy="32.526" r="22.824"/><circle fill="none" stroke="#FCEA2B" stroke-width="1.8" stroke-miterlimit="10" cx="40.475" cy="32.526" r="22.824"/><path fill="#FFF" d="M10.65 43.508s16.155 1.236 24.95-9.86c.665-.838 1.986-2.267 3.881-.972 0 0 9.323 7.945-10.97 28.666 0 0 .015-4.83-2.377-4.316-4.389.942-12.096 4.156-17.88 1.629 0 0 14.126-6.337 2.395-15.147z"/><g fill="none" stroke="#000" stroke-width="2" stroke-linecap="round" stroke-linejoin="round" stroke-miterlimit="10"><path d="M30.138 23.94l6.587 4.013-6.587 3.738m21.665-7.751l-6.587 4.013 6.587 3.738"/><path d="M39.734 55.509c.304.012.61.018.917.018 12.702 0 23-10.298 23-23 0-12.704-10.298-23-23-23-12.703 0-23 10.296-23 23 0 1.913.234 3.773.674 5.55"/><path d="M39.58 46.53l3.2 1.09 2.95-4.82 3.63 2.85 2.06-2.36"/><path d="M10.65 43.508s16.155 1.236 24.95-9.86c.665-.838 1.986-2.267 3.881-.972 0 0 9.323 7.945-10.97 28.666 0 0 .015-4.83-2.377-4.316-4.389.942-12.096 4.156-17.88 1.629 0 0 14.126-6.337 2.395-15.147z"/></g></svg>