<svg xmlns="http://www.w3.org/2000/svg" xmlns:xlink="http://www.w3.org/1999/xlink" viewBox="0 0 72 72"><defs><path id="a" d="M-9.952 16.67l.922-.387-.536 1.309z"/></defs><defs><path id="c" d="M-12.57 15.598l-.922.387.536-1.31z"/></defs><clipPath id="b"><use xlink:href="#a" overflow="visible"/></clipPath><clipPath id="d" clip-path="url(#b)"><use xlink:href="#c" overflow="visible"/></clipPath><path transform="rotate(-22.735 34.487 36.069)" clip-path="url(#d)" fill="#FCEA2B" d="M6.916 8.099h55.139V64.04H6.916z"/><path fill="#FCEA2B" d="M43.395 58.23C55.538 53.113 61.24 39.106 56.13 26.947c-5.11-12.16-19.098-17.87-31.24-12.752C12.743 19.313 7.042 33.318 12.153 45.48c5.11 12.16 19.097 17.869 31.241 12.751z"/><path fill="none" stroke="#FFF" stroke-width="4" stroke-linejoin="round" stroke-miterlimit="10" d="M24.46 49.319s14.716-2.305 26.03-10.886"/><path fill="#92D3F5" d="M53.973 30.753c.87 1.661 2.866 4.92 5.614 6.04 1.72.701 3.83-.188 4.53-1.906a3.48 3.48 0 0 0-1.905-4.53c-2.748-1.12-6.454-.184-8.24.396zm-37.52 15.835c-1.727.731-5.138 2.454-6.48 5.1-.839 1.658-.125 3.832 1.53 4.67a3.481 3.481 0 0 0 4.67-1.526c1.341-2.647.713-6.417.28-8.244z"/><path fill="#FFF" d="M49.809 35.883c.636 1.457.978 2.966.998 4.463-10.237 7.772-23.173 10.48-25.249 10.874-1.04-1.009-1.884-2.244-2.504-3.665l.1-.044s15.001-2.627 26.508-11.488l.147-.14z"/><path fill="#EA5A47" d="M50.807 40.346c.066 4.63-2.93 9.166-9.657 12.101-6.792 2.963-12.238 2.033-15.592-1.228 2.076-.392 15.012-3.101 25.249-10.873z"/><path fill="none" stroke="#000" stroke-width="2" stroke-linecap="round" stroke-linejoin="round" stroke-miterlimit="10" d="M21.15 32.379l7.612 1.143-4.611 5.995m16.923-15.535l-4.504 6.25 7.505.889"/><path fill="none" stroke="#000" stroke-width="2" stroke-linecap="round" stroke-linejoin="round" stroke-miterlimit="10" d="M54.01 24.88a23.158 23.158 0 0 0-.084-.146c-5.682-9.93-18-14.282-28.802-9.73-10.688 4.504-16.16 16.269-13.254 27.18.028.104.086.303.115.407"/><path d="M63.063 38.712a5.538 5.538 0 0 1-4.268.024c-4.54-1.85-7.133-7.911-7.241-8.168a1.048 1.048 0 0 1 .56-1.374c.257-.108 6.35-2.63 10.89-.78a5.58 5.58 0 0 1 3.055 7.265 5.529 5.529 0 0 1-2.996 3.033zm-9.09-7.96c.87 1.662 2.866 4.921 5.614 6.041 1.72.701 3.83-.188 4.53-1.906a3.48 3.48 0 0 0-1.905-4.53c-2.748-1.12-6.454-.184-8.24.396z"/><path fill="none" stroke="#000" stroke-width="2" stroke-linecap="round" stroke-linejoin="round" stroke-miterlimit="10" d="M21.896 55.713c6.076 3.693 14.035 4.678 21.087 1.706s11.89-9.259 13.501-16.19"/><path d="M7.777 54.996a5.538 5.538 0 0 1 .325-4.255c2.216-4.374 8.469-6.462 8.734-6.549a1.05 1.05 0 0 1 1.323.67c.087.266 2.101 6.544-.115 10.918a5.58 5.58 0 0 1-7.49 2.45 5.53 5.53 0 0 1-2.777-3.234zm8.676-8.408c-1.727.731-5.138 2.454-6.48 5.1-.839 1.658-.125 3.832 1.53 4.67a3.481 3.481 0 0 0 4.67-1.526c1.341-2.647.713-6.417.28-8.244z"/><path fill="none" stroke="#000" stroke-width="2" stroke-linecap="round" stroke-linejoin="round" stroke-miterlimit="10" d="M49.809 35.883c.636 1.457.978 2.966.998 4.463-10.237 7.772-23.173 10.48-25.249 10.874-1.04-1.009-1.884-2.244-2.504-3.665l.1-.044s15.001-2.627 26.508-11.488l.147-.14z"/><path fill="none" stroke="#000" stroke-width="2" stroke-linecap="round" stroke-linejoin="round" stroke-miterlimit="10" d="M50.807 40.346c.066 4.63-2.93 9.166-9.657 12.101-6.792 2.963-12.238 2.033-15.592-1.228 2.076-.392 15.012-3.101 25.249-10.873z"/></svg>