<svg xmlns="http://www.w3.org/2000/svg" viewBox="0 0 72 72"><path fill="#fcea2b" d="M35.936 12.582l-8.896 1.731-5.463 3.114-5.042 5.235L13 30.24v12.72l5.772 9.69 8.268 5.619L35.936 60l7.401-1.186 7.948-4.463 5.268-6.35 3.092-9.494-.773-8.226-3.927-8.154-4.34-4.454-7.473-3.978-7.196-1.113z" data-name="color"/><path d="M31.238 31.386a3.46 3.46 0 1 1-3.46-3.46 3.462 3.462 0 0 1 3.46 3.46"/><circle cx="36" cy="36" r="23" fill="none" stroke="#000" stroke-miterlimit="10" stroke-width="2"/><path d="M48 31.386a3.46 3.46 0 1 1-3.46-3.46 3.462 3.462 0 0 1 3.46 3.46"/><path d="M27 44.126c1.877-1.542 5.824-2.494 10-2.415 3.834.073 7.293 1.003 9 2.415M22 27c1.185-2.42 3-5 9-4m20 4c-1.185-2.42-3-5-9-4" fill="none" stroke="#000" stroke-linecap="round" stroke-linejoin="round" stroke-width="2"/><circle cx="26" cy="30" r="1" fill="#fff"/><circle cx="43" cy="30" r="1" fill="#fff"/></svg>