<svg xmlns="http://www.w3.org/2000/svg" viewBox="0 0 72 72"><path d="M36.2 13.316a23.342 23.342 0 1 0 23.342 23.342A23.368 23.368 0 0 0 36.2 13.316z" fill="#92d3f5" stroke="#92d3f5" stroke-miterlimit="2"/><path d="M43.82 57.636a23.12 23.12 0 0 1-14.642.335M50.915 18.49a22.99 22.99 0 0 1 7.55 12.553m-44.903-.118A23.012 23.012 0 0 1 47.365 16" fill="none" stroke="#000" stroke-linecap="round" stroke-miterlimit="10" stroke-width="2"/><path d="M30.317 30.925a3 3 0 1 1-3-3 3.001 3.001 0 0 1 3 3m18 0a3 3 0 1 1-3-3 3.001 3.001 0 0 1 3 3"/><path d="M11.65 36.29a13.229 13.229 0 0 0-1.089 5.535 36.287 36.287 0 0 0 3.224 13.743c.274.576.717.576.99 0A36.296 36.296 0 0 0 18 41.823h0C18 37.508 16.33 34 14.28 34c-.992-.002-1.926.812-2.63 2.29zm43 0a13.229 13.229 0 0 0-1.089 5.535 36.287 36.287 0 0 0 3.224 13.743c.274.576.717.576.99 0A36.296 36.296 0 0 0 61 41.823h0C61 37.508 59.33 34 57.28 34c-.992-.002-1.927.812-2.63 2.29zM21.358 52.218a5.43 5.43 0 0 0-.797 2.943 15.314 15.314 0 0 0 2.357 7.308.4.4 0 0 0 .724 0A15.321 15.321 0 0 0 26 55.16h0c0-2.294-1.22-4.16-2.72-4.16a2.35 2.35 0 0 0-1.922 1.218zm26 0a5.43 5.43 0 0 0-.797 2.943 15.314 15.314 0 0 0 2.357 7.308.4.4 0 0 0 .724 0A15.321 15.321 0 0 0 52 55.16h0c0-2.294-1.22-4.16-2.72-4.16a2.35 2.35 0 0 0-1.922 1.218z" fill="#fff" stroke="#000" stroke-miterlimit="10" stroke-width="2"/><g fill="#fff" stroke="#000" stroke-width="2"><path d="M44.5 49.27h-17a4.012 4.012 0 0 1-4-4h0a4.012 4.012 0 0 1 4-4h17a4.012 4.012 0 0 1 4 4h0a4.012 4.012 0 0 1-4 4z" stroke-miterlimit="2"/><path stroke-linecap="round" stroke-linejoin="round" d="M28 41.771v7m5-7v7m5-7v7m5-7v7"/></g><path d="M48.335 16.8c.795-.166 1.522-.885 1.665-2.8.299-3.989-9-4-9-4s-3 0-9-3-12 7-12 7-3 6-5 5-5 2-3 6c0 0 1 7 6 2s3-8 10-7 11 0 11-2 5-4 7-2a2.604 2.604 0 0 0 2.335.8" fill="#fff" stroke="#000" stroke-miterlimit="10" stroke-width="2"/></svg>