<svg xmlns="http://www.w3.org/2000/svg" viewBox="0 0 72 72"><path d="M59.3 34.792a22.974 22.974 0 1 0-32.663 20.83 8.287 8.287 0 0 0 1.11 1.807c-.104.18-.487 1.41-1.905 7.793L35.62 67a18.971 18.971 0 0 1 .146-6.55c.199-1.3 1.21-1.764 2.126-2.743A22.971 22.971 0 0 0 59.3 34.792z" fill="#fcea2b"/><circle cx="36.326" cy="34.792" r="22.974" fill="none" stroke="#fcea2b" stroke-miterlimit="10" stroke-width="1.8"/><g data-name="Yawning Face"><path d="M26.098 64.42c.986-4.156 1.687-6.963 1.687-6.963s-.281-.07-1.692-2.891c-.63-1.262-1.077-5.483-1.41-8.468-.314-2.803.108-3.593 1.106-3.593s1.224.816 1.715 2.183a21.708 21.708 0 0 0 1.278 2.806 36.384 36.384 0 0 1 4.989-9.978c1.995-2.516 4.559-.353 2.993 1.995a28.23 28.23 0 0 0-2.993 5.987" fill="none" stroke="#000" stroke-linecap="round" stroke-linejoin="round" stroke-width="2"/><path d="M36.764 39.512l.998-1.996c2.245-4.49 4.988-1.995 3.99 0a78.59 78.59 0 0 0-3.99 8.98" fill="none" stroke="#000" stroke-linecap="round" stroke-linejoin="round" stroke-width="2"/><path d="M35.459 66.167a40.06 40.06 0 0 1 .307-5.717c.266-1.742 1.996-1.982 2.994-3.977 2.993-5.986 1.828-8.314 3.99-13.968 1.128-2.948-1.56-3.715-3.12-.599m3.417 14.867A22.991 22.991 0 1 0 21.42 52.33" fill="none" stroke="#000" stroke-linecap="round" stroke-linejoin="round" stroke-width="2"/><path d="M48.08 29.775a1.003 1.003 0 0 1-.896-.553c-.01-.02-1.213-2.322-3.418-2.322-2.23 0-3.406 2.299-3.418 2.322a1 1 0 1 1-1.789-.894c.07-.14 1.754-3.428 5.207-3.428s5.137 3.287 5.207 3.428a1 1 0 0 1-.447 1.341 1.014 1.014 0 0 1-.445.106zm-15.75 0a1.003 1.003 0 0 1-.896-.553c-.01-.02-1.213-2.322-3.418-2.322-2.23 0-3.406 2.299-3.418 2.322a1 1 0 1 1-1.789-.894c.07-.14 1.754-3.428 5.207-3.428s5.137 3.287 5.207 3.428a1 1 0 0 1-.447 1.341 1.014 1.014 0 0 1-.445.106z"/><path d="M23 22c4.393-.138 7.893-1.393 8.778-3.125m17 3.125c-4.393-.138-7.893-1.393-8.778-3.125" fill="none" stroke="#000" stroke-linecap="round" stroke-linejoin="round" stroke-width="2"/></g></svg>