<svg xmlns="http://www.w3.org/2000/svg" viewBox="0 0 72 72"><path fill="#fcea2b" d="M35.936 12.582l-8.896 1.731-5.463 3.114-5.042 5.235L13 30.24v12.72l5.772 9.69 8.268 5.619L35.936 60l7.401-1.186 7.948-4.463 5.268-6.35 3.092-9.494-.773-8.226-3.927-8.154-4.34-4.454-7.473-3.978-7.196-1.113z" data-name="color"/><path d="M52.775 32.825c-1.077 1.101-3.115 3.487-3.293 5.916a2.921 2.921 0 0 0 2.637 3.053 2.858 2.858 0 0 0 3.054-2.636c.177-2.43-1.493-5.086-2.398-6.334z" fill="#92d3f5"/><path d="M28 41h-2l-1 1-1 1v4l1 1 3 1h18l2-2v-3l-1-2-3-1H28z"/><path d="M41.657 40.818c0 6.075-2.532 11-5.656 11s-5.656-4.925-5.656-11" fill="#ea5a47"/><circle cx="36" cy="36" r="23" fill="none" stroke="#000" stroke-miterlimit="10" stroke-width="2"/><path d="M30.322 30.92a3 3 0 1 1-2.998-3.002 3.001 3.001 0 0 1 2.998 3.002m18 .015a3 3 0 1 1-2.998-3.002 3.001 3.001 0 0 1 2.998 3.002"/><path d="M20.878 25.89a7.173 7.173 0 0 0 5.155-.448 7.078 7.078 0 0 0 3.106-3.125m22 3.573a7.173 7.173 0 0 1-5.156-.448 7.078 7.078 0 0 1-3.105-3.125" fill="none" stroke="#000" stroke-linecap="round" stroke-linejoin="round" stroke-width="2"/><path d="M41.74 41.818c0 6.075-2.532 11-5.656 11s-5.656-4.925-5.656-11" fill="none" stroke="#000" stroke-linecap="round" stroke-miterlimit="10" stroke-width="2"/><path d="M50.387 40.63a2.8 2.8 0 0 1-.826-1.994c0-2.479 2.344-4.85 2.443-4.95a.53.53 0 0 1 .75 0c.1.1 2.443 2.472 2.444 4.952h0a2.82 2.82 0 0 1-4.811 1.992z" fill="none" stroke="#000" stroke-miterlimit="10" stroke-width="2"/><path d="M31.8 49h-4.3a4.012 4.012 0 0 1-4-4h0a4.012 4.012 0 0 1 4-4h17a4.012 4.012 0 0 1 4 4h0a4.012 4.012 0 0 1-4 4h-2.122m-1.505 0h-.506m2.011 0h-1.505" fill="none" stroke="#000" stroke-miterlimit="2" stroke-width="2"/></svg>