<svg xmlns="http://www.w3.org/2000/svg" viewBox="0 0 72 72"><path fill="#fcea2b" d="M35.936 12.582l-8.896 1.731-5.463 3.114-5.042 5.235L13 30.24v12.72l5.772 9.69 8.268 5.619L35.936 60l7.401-1.186 7.948-4.463 5.268-6.35 3.092-9.494-.773-8.226-3.927-8.154-4.34-4.454-7.473-3.978-7.196-1.113z" data-name="color"/><circle cx="36" cy="36" r="23" fill="none" stroke="#000" stroke-miterlimit="10" stroke-width="2"/><path d="M30.317 32.925a3 3 0 1 1-3-3 3.001 3.001 0 0 1 3 3m18-2a3 3 0 1 1-3-3 3.001 3.001 0 0 1 3 3"/><path d="M21.264 27.629a7.173 7.173 0 0 1 4.47-2.607 7.077 7.077 0 0 1 4.339.765M41 27.077a7.174 7.174 0 0 0 4.91 1.637A7.078 7.078 0 0 0 50 27.077" fill="none" stroke="#000" stroke-linecap="round" stroke-linejoin="round" stroke-width="2"/><g fill="none" stroke="#000" stroke-linecap="round" stroke-linejoin="round" stroke-width="2"><path d="M24 41c-.256-.205-.48 8 5 8 5 0 4-8 9-5.6"/><path d="M49 41s-.89 6.145-5 6.4c-3.769.233-5.162-6.118-9-4"/></g></svg>