<svg xmlns="http://www.w3.org/2000/svg" viewBox="0 0 72 72"><path fill="#fcea2b" d="M35.936 12.582l-8.896 1.731-5.463 3.114-5.042 5.235L13 30.24v12.72l5.772 9.69 8.268 5.619L35.936 60l7.401-1.186 7.948-4.463 5.268-6.35 3.092-9.494-.773-8.226-3.927-8.154-4.34-4.454-7.473-3.978-7.196-1.113z" data-name="color"/><path d="M11.319 34.66a.351.351 0 0 1-.633 0 4.048 4.048 0 1 0-6.917 4.143l7.233 9.274 7.191-9.218.232-.342a4.048 4.048 0 1 0-7.106-3.857zm37-27a.351.351 0 0 1-.633 0 4.048 4.048 0 1 0-6.917 4.143l7.233 9.274 7.191-9.218.232-.342A4.048 4.048 0 1 0 48.32 7.66zm8 45a.351.351 0 0 1-.633 0 4.048 4.048 0 1 0-6.917 4.143l7.233 9.274 7.191-9.218.232-.342a4.048 4.048 0 1 0-7.106-3.857z" fill="#ffa7c0"/><path d="M14.963 32.366a4.05 4.05 0 0 1 3.462 6.15l-.232.343-7.19 9.218-.551-.706c7.868-10.752 4.511-15.005 4.511-15.005zm45 19a4.05 4.05 0 0 1 3.462 6.15l-.232.343-7.19 9.218-.551-.706c7.868-10.752 4.511-15.005 4.511-15.005zm-8-46a4.05 4.05 0 0 1 3.462 6.15l-.232.343-7.19 9.218-.551-.706C55.32 9.62 51.963 5.366 51.963 5.366z" fill="#e67a94"/><g data-name="line"><path d="M52.2 20.306a23.01 23.01 0 0 1 3.499 28.068M13.933 29.9a23.034 23.034 0 0 1 25.522-16.053m6.31 43.54a23.022 23.022 0 0 1-30.25-10.237m30.248-1.763a15.43 15.43 0 0 1-19.63 0" fill="none" stroke="#000" stroke-linecap="round" stroke-linejoin="round" stroke-width="2"/><path d="M31.832 34.775a1.003 1.003 0 0 1-.897-.553c-.01-.02-1.213-2.322-3.418-2.322-2.23 0-3.406 2.299-3.418 2.322a1 1 0 1 1-1.789-.894c.07-.14 1.754-3.428 5.207-3.428s5.137 3.287 5.207 3.428a1 1 0 0 1-.447 1.341 1.014 1.014 0 0 1-.445.106zm17.25 0a1.003 1.003 0 0 1-.897-.553c-.01-.02-1.213-2.322-3.418-2.322-2.23 0-3.406 2.299-3.418 2.322a1 1 0 1 1-1.789-.894c.07-.14 1.754-3.428 5.207-3.428s5.137 3.287 5.207 3.428a1 1 0 0 1-.447 1.341 1.014 1.014 0 0 1-.445.106z"/></g><path d="M52.04 50.366a4.05 4.05 0 0 0-3.462 6.15l.232.343 7.191 9.218 7.233-9.275a4.048 4.048 0 1 0-6.916-4.142.351.351 0 0 1-.633 0 4.021 4.021 0 0 0-3.645-2.294zm-45-18a4.05 4.05 0 0 0-3.462 6.15l.232.343 7.191 9.218 7.233-9.275a4.048 4.048 0 1 0-6.916-4.142.351.351 0 0 1-.633 0 4.021 4.021 0 0 0-3.645-2.294zm37-27a4.05 4.05 0 0 0-3.462 6.15l.232.343 7.191 9.218 7.233-9.275a4.048 4.048 0 1 0-6.916-4.142.351.351 0 0 1-.633 0 4.021 4.021 0 0 0-3.645-2.294z" fill="none" stroke="#000" stroke-linecap="round" stroke-linejoin="round" stroke-width="2"/></svg>