<svg xmlns="http://www.w3.org/2000/svg" viewBox="0 0 72 72"><path fill="#fcea2b" d="M35.444 13.582l-8.705 1.694-5.346 3.048-4.933 5.126L13 30.867v12.452l5.649 9.486 8.09 5.5L35.444 60l7.243-1.161 7.777-4.369 5.155-6.215 3.026-9.294-.756-8.053-3.843-7.982-4.247-4.36-7.313-3.895-7.042-1.089z" data-name="color"/><path fill="#f4aa41" d="M14.5 7.5l2 15 16-6-18-9z"/><path fill="#e27022" d="M26.421 13.46L32.5 16.5l-13.151 4.932"/><path fill="#ea5a47" d="M14.833 11.888l5.225-2.017 2.833 1.762L15 15l-.167-3.112z"/><path fill="#d22f27" d="M24.858 13.446L26 13l4 1-6.5 2.785"/><path fill="#ea5a47" d="M23.5 16.785L15.996 20l-.163-3.034 9.025-3.52"/><path d="M35.887 43.138s10.55 3.108.046 5.564c0 0 10.482 2.901.04 4.912M20.457 28.375a6.306 6.306 0 0 1 3.365-3.028 6.304 6.304 0 0 1 4.527-.459m21.717 3.242a7.19 7.19 0 0 0-7.937-3.366M22.891 35.399a8.94 8.94 0 0 1 8-.067m9.249-.077a8.941 8.941 0 0 1 8-.066m-2.755-18.875A23 23 0 1 1 15.98 24.75m18.414-10.678q.416-.018.836-.022a22.906 22.906 0 0 1 10.155 2.264" data-name="line" fill="none" stroke="#000" stroke-linecap="round" stroke-linejoin="round" stroke-width="2"/><path d="M16.822 22L14 7m19 9.266L14 7m2.822 15L33 16.266m28.383-3.633a4.876 4.876 0 0 1-.455 1.484 5.279 5.279 0 0 1-6.908 2.392m11.844 27.86a4.879 4.879 0 0 1-1.442-.575 5.28 5.28 0 0 1-1.82-7.081m-1.219 27.275a4.876 4.876 0 0 0-.455-1.484 5.279 5.279 0 0 0-6.908-2.392m-29.843-3.167a4.876 4.876 0 0 0-1.158-1.034 5.279 5.279 0 0 0-7.15 1.527" fill="none" stroke="#000" stroke-linecap="round" stroke-linejoin="round" stroke-width="2"/><path d="M61.649 26.48a1.5 1.5 0 0 0 0-3 1.5 1.5 0 0 0 0 3zm0 25a1.5 1.5 0 0 0 0-3 1.5 1.5 0 0 0 0 3zm-33 16a1.5 1.5 0 0 0 0-3 1.5 1.5 0 0 0 0 3zm-9-18a1.5 1.5 0 0 0 0-3 1.5 1.5 0 0 0 0 3zm24 16a1.5 1.5 0 0 0 0-3 1.5 1.5 0 0 0 0 3z"/><path d="M38 49h5.5s5.5 0 5.5-3c0-2.232-1.522-2.803-3.434-2.95" fill="none" stroke="#000" stroke-linecap="round" stroke-linejoin="round" stroke-width="2"/><path d="M61.649 26.48a1.5 1.5 0 0 0 0-3 1.5 1.5 0 0 0 0 3zm-18 39a1.5 1.5 0 0 0 0-3 1.5 1.5 0 0 0 0 3z" fill="#8967aa"/><path d="M28.649 67.48a1.5 1.5 0 0 0 0-3 1.5 1.5 0 0 0 0 3z" fill="#f4aa41"/><path d="M19.649 49.48a1.5 1.5 0 0 0 0-3 1.5 1.5 0 0 0 0 3zm42 2a1.5 1.5 0 0 0 0-3 1.5 1.5 0 0 0 0 3z" fill="#d22f27"/></svg>