<svg xmlns="http://www.w3.org/2000/svg" viewBox="0 0 72 72"><path data-name="Kangaroo Color 1" d="M63.601 52.62s-16.605 8.067-19.79 5.684c-7.696-5.759 2.489-21.457-7.754-27.098-7.808-4.301-9.386-.482-12.376-2.845-3.624-2.866-1.936-8.456-3.33-13.11-.367-1.228-.397-4.38-2.662-4.38-1.736 0-.822 3.175-1.332 4.134-1.185 2.23-8.803 2.367-7.988 6.184.503 2.356 3.551.515 6.657.666 2.389.116 2.85 9.332.776 13.03-.394.703-1.35 1.42-.753 1.96 1.161 1.052 6.082 4.021 9.674 7.66 3.05 3.09-4.813 16.59-4.813 16.59s1.96.153 2.51-.632c2.614-3.726 5.507-14.767 6.276-15.028 2.265-.768 9.284 1.308 9.201 1.79a15.59 15.59 0 0 0 .827 8.298c3.361 9.833 17.797 3.94 23.24.468 2.101-1.34 2.002-2.685 1.637-3.372z" fill="#a57939"/><path data-name="Kangaroo Color 2" d="M32.05 45.655c.58 2.585 1.435 13.52.047 15.151-.321.379-2.309.338-2.321.296-.75-2.534.338-16.085.338-16.085s1.785-.037 1.937.638z" fill="#6a462f"/><g fill="none" stroke="#000" stroke-linecap="round" stroke-linejoin="round" stroke-width="2"><path data-name="Kangaroo Line 1" d="M62.784 53.188s-14.51 8.17-18.973 5.116c-7.932-5.429 1.93-20.543-7.753-27.098-6.051-4.096-8.835.139-12.377-2.845-3.533-2.977-1.936-8.456-3.33-13.11-.367-1.228-.397-4.38-2.662-4.38-1.736 0-.822 3.175-1.332 4.134-1.185 2.23-8.803 2.367-7.988 6.184.503 2.356 3.551.515 6.657.666 2.708.132 3.81 13.272-.192 14.181-.856.195-3.612-1.91-4.47-.48"/><path data-name="Kangaroo Line 2" d="M37.898 46.24s-8.178-2.943-8.237-1.16c-.039 1.186 1.259 11.743.188 15.05h-4.08"/><path data-name="Kangaroo Line 3" d="M18.98 38.433a40.985 40.985 0 0 0 5.627 4.917c2.928 2.204-2.378 10.993-4.47 16.778h-4.372"/></g></svg>