<svg xmlns="http://www.w3.org/2000/svg" viewBox="0 0 72 72"><path data-name="Llama Color 1" d="M59.567 38.115c.24-.709-.607-.599-2.475-2.938-1.524-1.907-.995-3.76-2.77-5.778-4.281-4.865-19.676 3.788-25.331.624-4.15-2.322-5.492-13.165-7.269-17.575-.274-.68-.834-2.48-1.567-2.476-.758.003-1.244 1.912-1.751 2.476-1.136 1.265-6.218 1.151-6.004 3.196.166 1.592 4.965.675 6.162 1.738 3.578 3.18-.077 15.049 2.686 18.957a11.244 11.244 0 0 0 4.898 3.374c-.867 6.503 2.863 13.86 1.733 22.424a1.769 1.769 0 0 0 1.343-.052 3.18 3.18 0 0 0 1.236-1.326c1.483-4.19-1.695-20.894-.86-20.635 4.924 1.527 16.145.615 21.01-.798 2.503-.727 4.965 17.422 4.8 22.919 0 0 1.19 0 1.48-.312 2.706-2.905-2.291-17.116-2.001-22.248.04-.731.39-2.997 1.54-1.959 1.484 1.34 2.903 1.089 3.14.39z" fill="#a57939"/><path data-name="Llama Color 2" d="M22.604 37.636a14.745 14.745 0 0 0 1.446 1.378c.462.375.633-.069.718.768.259 2.574-1.501 23.065-5.087 22.462-1.792-.302 3.078-21.86 2.923-24.608z" fill="#6a462f"/><path data-name="Llama Color 3" d="M48.076 40.457s1.21-.75 1.736 0c.757 1.079-.867 22.37-3.953 21.79-1.782-.334 2.372-19.249 2.217-21.79z" fill="#6a462f"/><g fill="none" stroke="#000" stroke-linecap="round" stroke-linejoin="round" stroke-width="2"><path data-name="Llama Line 1" d="M59.284 37.347l-1.868-2.34c-1.524-1.907-.995-3.76-2.77-5.778-4.282-4.865-19.676 3.789-25.332.624-4.149-2.321-5.492-13.164-7.268-17.575-.274-.68-.276-2.456-1.595-2.456-1.129 0-1.217 1.892-1.723 2.456-1.137 1.266-6.121 1.5-6.005 3.196.157 2.289 4.966.675 6.163 1.738 3.578 3.18-.077 15.05 2.686 18.958a11.244 11.244 0 0 0 4.898 3.373c-.867 6.504 3.95 14.14 1.865 21.735"/><path data-name="Llama Line 2" d="M30.42 40.706c2.274 2.106 15.466.303 20.018-1.133a1.244 1.244 0 0 1 1.612 1.007c.627 4.79 4.572 14.35 3.564 20.698"/><path data-name="Llama Line 3" d="M48.076 40.297c.948 5.122-2.04 15.153-2.04 20.981"/><path data-name="Llama Line 4" d="M22.768 37.636c.948 5.58-2.91 17.292-2.91 23.642"/></g></svg>