<svg xmlns="http://www.w3.org/2000/svg" viewBox="0 0 72 72"><path d="M9.597 39.446c0-1.598.762-2.807 2.163-2.807l51.95-1.126c1.215 0 1.755 1.048 1.755 2.435h0c0 1.363-.305 2.389-1.952 2.355L11.41 41.685a2.069 2.069 0 0 1-1.812-2.239z" fill="#a57939" stroke="#a57939" stroke-miterlimit="10" stroke-width="1.935"/><path d="M17.567 41.267l.022 1.613.132 9.48s1.463 3.633 4.86 2.473a3.792 3.792 0 0 0 2.464-3.513V40.909zm25.384-.695l.032 2.306.132 9.48s1.463 3.633 4.86 2.474a3.792 3.792 0 0 0 2.464-3.513V40.907z" fill="#6a462f"/><path d="M17.941 19.537s20.506 1.052 28.543-1.685c0 0 13.041-.554 10.756 17.845 0 0-2.547 5.754-1.151 17.44 0 0 .065 4.882-4.545 4.054 0 0-3.258-.287-3.067-4.195L47.02 36.11s-5.782 4.173-17.468 0c0 0-1.436.811.157 17.43 0 0-.25 3.83-3.739 3.74a4.246 4.246 0 0 1-3.764-4.242s-.49-14.541-1.785-17.677z" fill="#6a462f"/><path d="M24.747 28.01a8.886 8.886 0 1 1-8.885-8.886 8.885 8.885 0 0 1 8.885 8.885z" fill="#6a462f"/><path d="M24.747 28.01a8.885 8.885 0 1 1-15.653-5.758c1.63-1.914 3.775 1.064 6.486 1.064 2.454 0 4.957-3.198 6.565-1.59a8.858 8.858 0 0 1 2.602 6.283z" fill="#a57939"/><path d="M22.065 54.988a4.08 4.08 0 0 1-.76.071 3.595 3.595 0 0 1-3.738-3.432V41.84" fill="none" stroke="#000" stroke-linecap="round" stroke-miterlimit="10" stroke-width="1.854"/><path d="M48.695 54.333a3.333 3.333 0 0 1-2.214.726 3.739 3.739 0 0 1-3.739-3.739l-.009-10.328m14.378-.518l6.994-.187m-34.563.925l17.893-.479m-36.026.965l9.265-.248m36.835-5.956l6.448-.058m-43.283.713c.918 5.26 1.558 17.393 1.558 17.393" fill="none" stroke="#000" stroke-linecap="round" stroke-miterlimit="10" stroke-width="1.935"/><path d="M56.089 53.542s-.72-9.117.037-14.446a16.035 16.035 0 0 1 1.115-3.4 15.186 15.186 0 0 0-1.346-12.072 10.624 10.624 0 0 0-2.044-2.794 9.104 9.104 0 0 0-2.973-2.008 8.143 8.143 0 0 0-5.521-.686h0c-10.124 2.658-17.097 1.652-17.097 1.652a50.214 50.214 0 0 0-8.444-.396q-.45.022-.86.052" fill="none" stroke="#000" stroke-linecap="round" stroke-miterlimit="10" stroke-width="1.935"/><path d="M22.232 53.542a3.739 3.739 0 1 0 7.478 0m26.379 0a3.739 3.739 0 0 1-7.478 0" fill="none" stroke="#000" stroke-miterlimit="10" stroke-width="1.935"/><path d="M29.71 53.542s-1.792-21.653 1.283-20.823m16.028-.501s1.411 18.07 1.59 21.324m-1.59-16.654s-11.375 2.962-14.777-1.192" fill="none" stroke="#000" stroke-linecap="round" stroke-miterlimit="10" stroke-width="1.935"/><path d="M24.31 57.716c-.006.83.408 2.482 3.862 2.268a.344.344 0 0 0 .145-.645 1.475 1.475 0 0 1-.76-1.934.104.104 0 0 0-.09-.146h-2.695a.459.459 0 0 0-.461.457zm26.944 0c-.007.83.407 2.482 3.86 2.268a.344.344 0 0 0 .146-.645 1.475 1.475 0 0 1-.76-1.934.104.104 0 0 0-.09-.146h-2.696a.459.459 0 0 0-.46.457zm-32.138-2.16c-.005.69.339 2.062 3.208 1.884a.286.286 0 0 0 .12-.536 1.225 1.225 0 0 1-.63-1.607.086.086 0 0 0-.076-.121H19.5a.38.38 0 0 0-.383.38zm25.842 0c-.006.69.338 2.062 3.207 1.884a.286.286 0 0 0 .121-.536 1.225 1.225 0 0 1-.631-1.607.086.086 0 0 0-.076-.121H45.34a.38.38 0 0 0-.382.38z"/><path fill="#a57939" stroke="#000" stroke-linecap="round" stroke-linejoin="round" stroke-width="1.935" d="M23.559 26.143l-4.705 1.325m-10.859-1.25l5.059 1.424"/><circle cx="16.103" cy="31.22" r="1"/><path d="M24.747 28.01a8.885 8.885 0 1 1-15.653-5.758c1.63-1.914 3.775 1.064 6.486 1.064 2.454 0 4.957-3.198 6.565-1.59a8.858 8.858 0 0 1 2.602 6.283z" fill="none" stroke="#000" stroke-miterlimit="10" stroke-width="1.935"/><path d="M24.747 28.01a8.886 8.886 0 1 1-8.885-8.886 8.885 8.885 0 0 1 8.885 8.885z" fill="none" stroke="#000" stroke-miterlimit="10" stroke-width="1.935"/></svg>