<svg xmlns="http://www.w3.org/2000/svg" viewBox="0 0 72 72"><path fill="#FFA7C0" d="M61.6 39.5a21.944 21.944 0 0 1-2.255-.85c-4.746-2.528-7.86-7.114-10.745-8.95-4.4-2.9-11.6-3.8-16.1-.3-2.1 1.6-3 3.8-3.5 5.2-.5.2-1.2.3-1.8-.1-.5-.3-1.1-1.2-.8-4.2.5-5.1 2.3-5.9 2-9.2-.3-2.4-1.4-4-2-4.8-1-1.3-2.5-3.5-4.7-3.3-1.7.1-2.8 1.5-3.1 2-1.8 0-3.2 1.1-3.7 2.5-.7 2.1 1.2 4.3 1.7 4.2.3-.1.1-1 .6-2.3.4-.9 1.1-.8 1.6-1.2 1 0 1.8.8 2.8.8.6 0 1.9-.7 1.9-.7.8.5 1 1.1 1.3 2.4.3 1.6.1 2.5-.6 3.9-.5 1.2-3 6.5-1.8 9.8.3 1 1.4 2.9 5.6 4.1.5.7 1.5 1.9 3.1 2.7 2.4 1.3 4.6 1.1 5.5 1 1.2 1.2 1.6 1 2.8 2.2 15.104 2.436 13.975-1.964 21.588-4.689 0 0 .547-.19.612-.211z"/><g fill="none" stroke="#000" stroke-width="2" stroke-linecap="round" stroke-linejoin="round" stroke-miterlimit="10"><path d="M42.5 45.7c1.3 3.2 2.6 6.4 3.9 9.5-.3 3.2-.4 4.1-.8 7.2"/><path d="M42.7 45.7c2.3 2.7 8.8 8 8.8 8s-11.6-.3-16.4-.5L33 55.3m-9.5-36.1s-.6.8-1.9.7c-1-.1-1.5-1.4-2.5-1.4-.8-.1-2.2 3.1-2.5 3.1-.5.1-2.4-2.1-1.7-4.2.5-1.4 1.9-2.5 3.7-2.5.3-.5 1.4-1.9 3.1-2 2.2-.2 3.7 2 4.7 3.3.6.8 1.7 2.4 2 4.8.3 3.3-1.5 4.1-2 9.2-.3 3 .3 3.9.8 4.2.6.4 1.3.3 1.8.1.5-1.4 1.4-3.6 3.5-5.2 4.5-3.5 11.7-2.6 16.1.3 3.3 2.1 3.2 4.1 7.8 7.2 2.5 1.7 4.7 2.6 6.3 3.1-8.3 2.7-12.3 5.5-16.8 5.7-2.5.1-8.1-2.2-9.2-3.4"/><path d="M28 38.5c.5.7 1.5 1.9 3.1 2.7 2.4 1.3 4.6 1.1 5.5 1M24.2 24.6c-.5 1.2-3 6.5-1.8 9.8.3 1 1.4 2.9 5.6 4.1"/></g></svg>