<svg xmlns="http://www.w3.org/2000/svg" viewBox="0 0 72 72"><path d="M26.07 38.096c-3 0-4-7-4-14 0-6 5-12 14-12s14 6 14 12c0 7-1 14-4 14" fill="#f4aa41" data-name="hair"/><path d="M25.007 31.096c-.102 7.999 4.063 14 11 14 7.063 0 11.063-6 11.063-14 0-5-3-10-3-10-8 0-10 3-16 1a17.077 17.077 0 0 0-3.063 9z" fill="#fcea2b" data-name="skin"/><path d="M17.03 60.958v-3.833c0-4.994 5.007-9 10-9q9 7.5 18 0c4.993 0 10 4.006 10 9v3.833z" fill="#b1cc33" data-name="color"/><path d="M47.078 60.958c-1.132-3.474-2.978-7.893-5.447-9.666H30.758a18.075 18.075 0 0 0-5.467 9.666z" fill="#3f3f3f"/><path d="M36.007 45.096c-7.19 0-7.158-3.49-7.158-3.49l-15.42-.023a51.938 51.938 0 0 1 4.319 8.445c1.487 3.72 9.07-4.73 9.566-1.903.797.338 2.802 3.604 7.954 3.604s5.759-2.346 10.168-3.716c5.048-1.015 7.405 5.734 8.892 2.015a51.946 51.946 0 0 1 4.319-8.445l-15.513.023s.073 3.49-7.127 3.49z" fill="#3f3f3f"/><path d="M35.715 32.706s-4.93 5.955-11.802 0c-.297-.32-.6-.672-.9-1.057 0 0-.476-.611-.889-1.26-.85-1.336-2.826-7.94-2.422-8.068.279-.088.66 3.224 2.905 4.145a2.048 2.048 0 0 0 .455.134 5.424 5.424 0 0 0 2.358-.147 14.662 14.662 0 0 1 7.013-.246 6.436 6.436 0 0 1 3.282 2.49h.005a5.804 5.804 0 0 1 2.922-2.513c2.429-.878 6.235-.077 7.373.268a5.413 5.413 0 0 0 2.358.148 2.042 2.042 0 0 0 .456-.134c2.244-.92 2.626-4.233 2.904-4.145.405.127-1.571 6.731-2.422 8.068-.413.648-.889 1.26-.889 1.26-.3.385-.602.737-.9 1.057a8.26 8.26 0 0 1-6.501 2.635 7.943 7.943 0 0 1-5.306-2.635z" fill="#5c9e31"/><path d="M28.279 41.605l-14.85-.022a51.938 51.938 0 0 1 4.318 8.446q.378.943.702 1.857m35.186-.022q.321-.903.693-1.835a51.946 51.946 0 0 1 4.319-8.446l-14.868.022" fill="none" stroke="#000" stroke-linejoin="round" stroke-width="2"/><path d="M41.943 30.096a2 2 0 1 1-2-2 2 2 0 0 1 2 2m-8 0a2 2 0 1 1-2-2 2 2 0 0 1 2 2"/><path d="M38.943 38.908a8.274 8.274 0 0 0-6 0m16.893-9.461c-.016.256-.03.455-.043.573-.472 4.55-1.593 8.076-3.723 8.076M22.098 26.055a69.605 69.605 0 0 1-.028-1.96c0-6 5-12 14-12s14 6 14 12c0 .163-.015.643-.04 1.266M26.07 38.096c-1.946 0-3.05-2.946-3.587-6.928" fill="none" stroke="#000" stroke-linecap="round" stroke-linejoin="round" stroke-width="2"/><path d="M46.38 26.35a35.94 35.94 0 0 0-2.31-6.255c-8 0-10 3-16 1a25.953 25.953 0 0 0-2.207 5.077m-.73 7.317c.816 6.773 5.432 11.607 10.874 11.607 5.456 0 10.228-5.068 10.965-12.1" fill="none" stroke="#000" stroke-linejoin="round" stroke-width="2"/><path d="M41.943 30.096a2 2 0 1 1-2-2 2 2 0 0 1 2 2m-8 0a2 2 0 1 1-2-2 2 2 0 0 1 2 2"/><path d="M20.587 53.667a11.896 11.896 0 0 1 4.048-3.359 11.752 11.752 0 0 1 3.307-1.088m1.304.487a10.357 10.357 0 0 0-6.77 7.525m29.201-3.322a11.896 11.896 0 0 0-4.048-3.359 11.752 11.752 0 0 0-3.307-1.088m-1.304.487a10.357 10.357 0 0 1 6.77 7.526m-7.396-6.827a26.435 26.435 0 0 1 4.19 6.312 26.104 26.104 0 0 1 1.195 2.999" fill="none" stroke="#000" stroke-linecap="round" stroke-miterlimit="10" stroke-width="2"/><path d="M16.97 60.002v-3c0-4.994 5.009-9 10-9q9 7.5 18 0c4.995 0 10 4.006 10 9v3" fill="none" stroke="#000" stroke-linecap="round" stroke-linejoin="round" stroke-width="2"/><path d="M29.981 50.6a21.017 21.017 0 0 0-4.292 6.282 20.546 20.546 0 0 0-1.043 2.962" fill="none" stroke="#000" stroke-linecap="round" stroke-miterlimit="10" stroke-width="2"/><path d="M35.715 32.706s-4.93 5.955-11.802 0c-.297-.32-.6-.672-.9-1.057 0 0-.476-.611-.889-1.26-.85-1.336-2.826-7.94-2.422-8.068.279-.088.66 3.224 2.905 4.145a2.048 2.048 0 0 0 .455.134 5.424 5.424 0 0 0 2.358-.147 14.662 14.662 0 0 1 7.013-.246 6.436 6.436 0 0 1 3.282 2.49h.005a5.804 5.804 0 0 1 2.922-2.513c2.429-.878 6.235-.077 7.373.268a5.413 5.413 0 0 0 2.358.148 2.042 2.042 0 0 0 .456-.134c2.244-.92 2.626-4.233 2.904-4.145.405.127-1.571 6.731-2.422 8.068-.413.648-.889 1.26-.889 1.26-.3.385-.602.737-.9 1.057a8.26 8.26 0 0 1-6.501 2.635 7.943 7.943 0 0 1-5.306-2.635z" fill="none" stroke="#000" stroke-linecap="round" stroke-linejoin="round" stroke-width="2"/></svg>