<svg xmlns="http://www.w3.org/2000/svg" viewBox="0 0 72 72"><path fill="#92D3F5" d="M54.8 58.8s2-14.4-10-14.4c-3.2 2.1-5.9 3.6-9 3.6h.1c-3.1 0-5.8-1.5-9-3.6-12 0-10 14.4-10 14.4"/><path fill="#61B2E4" d="M45.4 44c-3.1 2.1-5 3.2-9 3.8 12.9.4 12.9 7.2 13.6 11.1h5S57.2 44 45.4 44z"/><g fill="#6A462F"><path d="M47.3 29.8c.2 3.1-.4 6.2-1.9 8.9-.6 1-1.2 2-2.1 2.7-2.8 2.4-5.5 2.5-7.4 2.5h-.3c-1.9 0-4.6-.1-7.4-2.5-.8-.7-1.5-1.7-2.1-2.7-1.5-2.7-2.1-5.8-1.9-8.9.1-1 .1-2 .1-2.4.3 2.1 2.1 5.8 2.1 5.8s2 3 2.7-1.2c4.5-1.2 8.9-1.2 13.1 0 .8 4.2 2.7 1.2 2.7 1.2s1.8-3.7 2.1-5.8c.2.4.2 1.4.3 2.4zm-1.5-14.3c3 5.8 1.3 11.9 1.3 11.9V27c-1.8-7.2-3.8-8.6-5-8.7v-.4c1-.5 2.4-1.4 3.5-2.6l.2.2z"/><path d="M46.9 10.1c.8 2.2.1 3.9-1.2 5.3-1.1 1.2-2.5 2-3.5 2.5-.7.4-1.2.5-1.2.5-5.8 2.2-6.1 1.9-10.6 0 0 0-3.4-2.5-6.2 8.6v.4s-2.2-6.8 2-13.2c3.2-4.9 12.9-2.4 12.9-2.4l3.1-2.4 1.1 3.1 3.6-2.4z"/></g><path fill="#FCEA2B" d="M42.2 18.4c1.2.1 3.2 1.5 5 8.7v.4c-.3 2.1-2.1 5.8-2.1 5.8s-1.9 3-2.7-1.2c-4.2-1.2-8.6-1.2-13.1 0-.8 4.2-2.7 1.2-2.7 1.2s-1.8-3.7-2.1-5.8v-.4c2.8-11.1 6.2-8.6 6.2-8.6 4.4 1.9 4.8 2.2 10.6 0 0 0 .5-.2 1.2-.5l-.3.4z"/><path d="M54.8 58.9h-.2c-.5-.1-.9-.6-.8-1.1 0-.1.8-5.7-2.1-9.2-1.5-1.7-3.7-2.6-6.6-2.7-3.3 2.2-6 3.5-9.1 3.6h-.1c-3.1 0-5.8-1.4-9.1-3.6-2.9.1-5.1 1-6.6 2.7-3 3.4-2.1 9.1-2.1 9.2.1.5-.3 1.1-.8 1.1-.5.1-1.1-.3-1.1-.8 0-.3-1-6.6 2.6-10.8 1.9-2.2 4.8-3.4 8.4-3.4.2 0 .4.1.6.2 3.2 2.1 5.7 3.4 8.4 3.4s5.2-1.3 8.4-3.4c.2-.1.4-.2.6-.2 3.7 0 6.5 1.1 8.4 3.4 3.6 4.1 2.6 10.5 2.6 10.8-.5.5-.9.8-1.4.8zM40 25.1c1.1 0 2 .9 2 2s-.9 2-2 2-2-.9-2-2 .9-2 2-2zm-.1 9.8c.2.5 0 1.1-.5 1.3-1.1.6-2.3.8-3.5.8s-2.3-.3-3.4-.8c-.5-.2-.7-.8-.5-1.3s.8-.7 1.3-.4c1.7.9 3.4.9 5.1 0 .6-.3 1.2-.1 1.5.4zM32 25.1c1.1 0 2 .9 2 2s-.9 2-2 2-2-.9-2-2 .9-2 2-2z"/><path fill="none" stroke="#000" stroke-width="2" stroke-linecap="round" stroke-linejoin="round" stroke-miterlimit="10" d="M24.3 27.4c0 .4 0 1.4-.1 2.4-.2 3.1.4 6.2 1.9 8.9.6 1 1.3 2 2.1 2.7 2.8 2.4 5.6 2.5 7.4 2.5"/><path fill="none" stroke="#000" stroke-width="2" stroke-linecap="round" stroke-linejoin="round" stroke-miterlimit="10" d="M47.2 27.1v.4c-.3 2.1-2.1 5.8-2.1 5.8s-1.9 3-2.7-1.2c-4.2-1.2-8.6-1.2-13.1 0-.8 4.2-2.7 1.2-2.7 1.2s-1.8-3.7-2.1-5.8v-.4"/><path fill="none" stroke="#000" stroke-width="2" stroke-linecap="round" stroke-linejoin="round" stroke-miterlimit="10" d="M47.2 27.4c0 .4.1 1.4.1 2.4.2 3.1-.4 6.2-1.9 8.9-.6 1-1.2 2-2.1 2.7-2.8 2.4-5.5 2.5-7.4 2.5h-.3M24.3 27.4s-2.2-6.8 2-13.2c3.2-4.9 12.9-2.4 12.9-2.4l3.1-2.4 1.1 3.1 3.4-2.5c.8 2.2.1 3.9-1.2 5.3-1.1 1.2-2.5 2-3.5 2.5-.7.4-1.2.5-1.2.5-5.8 2.2-6.1 1.9-10.6 0 0 0-3.4-2.5-6.2 8.6M42 18.3h.2c1.2.1 3.2 1.5 5 8.7m-1.4-11.5c3 5.8 1.3 11.9 1.3 11.9"/></svg>