<svg xmlns="http://www.w3.org/2000/svg" viewBox="0 0 68.635 68.635"><path d="M24.365 36.7c-3 0-4-7-4-14 0-6 5-12 14-12s14 6 14 12c0 7-1 14-4 14" fill="#f1b31c"/><path d="M52.954 58.184A.9.9 0 0 1 52 57.23v-2.86c0-4.29-4.29-8.388-8.294-8.58-5.91 4.767-11.916 4.767-17.826 0-4.004.192-9.247 4.29-9.247 8.58v2.86a.9.9 0 0 1-.953.954m7.585-28.892c-.1 7.674 4.1 13.43 11 13.43 7.1 0 11.1-5.756 11.1-13.43 0-4.796-3-9.592-3-9.592-8 0-10 2.878-16 .96a16.206 16.206 0 0 0-3.1 8.632z" fill="#fcea2b"/><path d="M29 58.184s-.91-3.608-.91-4.18l-.017-6.262c0-4.29-3.444-4.722-3.444-4.722l-3.38 2.871-.734 8.356.13 3.937zm10.65 0s.91-3.608.91-4.18l.016-6.262c0-4.29 3.444-4.722 3.444-4.722l3.38 2.871.734 8.356-.13 3.937z" fill="#92d3f5"/><path d="M20.634 57.23l-.08-8.291c0-.955.078-2.634.713-3.164a5.278 5.278 0 0 1 1.573-.502c.901-.314 1.384-2.763 2.098-2.868.579-.085 2.921 2.764 3.064 2.9a6.03 6.03 0 0 1 .115 2.168 28.13 28.13 0 0 0-.225 6.056c.1.879.837 3.7.837 3.7m19.285.001l.08-8.291c0-.955-.078-2.634-.713-3.164a5.277 5.277 0 0 0-1.573-.502c-.9-.314-1.384-2.763-2.098-2.868-.579-.085-2.92 2.764-3.064 2.9a6.029 6.029 0 0 0-.115 2.168 28.117 28.117 0 0 1 .226 6.056c-.1.879-.837 3.7-.837 3.7M31.505 36.5a7.796 7.796 0 0 0 6 0" fill="none" stroke="#000" stroke-linecap="round" stroke-linejoin="round" stroke-width="2"/><path d="M32.459 28.907A1.907 1.907 0 1 1 30.552 27a1.912 1.912 0 0 1 1.907 1.907m7.625 0A1.907 1.907 0 1 1 38.178 27a1.912 1.912 0 0 1 1.907 1.907"/><path d="M23.375 28.216c0 7.626 5.366 14.715 11.085 14.715s10.486-5.72 10.486-13.345c0-4.767-.756-6.296-2.58-10.886 0 0-5.448.486-6.509.734-1.696.392-4.049 1.129-6.067.942a20.196 20.196 0 0 1-3.425-.676c-1.85 4-2.99 7.599-2.99 8.516z" fill="none" stroke="#000" stroke-linejoin="round" stroke-width="2"/><path d="M28.22 47.532A11.388 11.388 0 0 0 36 49.236h0a12.336 12.336 0 0 0 3.967-1.394M16.26 57.23v-2.86a8.919 8.919 0 0 1 .575-2.737c.447-1.327 1.107-2.268 3.172-3.634M24.365 36.7c-3 0-4-7-4-14 0-6 5-12 14-12s14 6 14 12c0 7-1 14-4 14m8.087 20.53v-2.86a8.918 8.918 0 0 0-.575-2.737c-.447-1.327-1.107-2.267-3.172-3.633" fill="none" stroke="#000" stroke-linecap="round" stroke-linejoin="round" stroke-width="2"/></svg>