<svg xmlns="http://www.w3.org/2000/svg" viewBox="0 0 72 72"><path d="M25.69 38.057c-3 0-4-7-4-14 0-6 5-12 14-12s14 6 14 12c0 7-1 14-4 14" fill="#3f3f3f" data-name="hair"/><path d="M24.626 30.557c-.102 8 4.064 14 11 14 7.064 0 11.064-6 11.064-14 0-5-3-10-3-10-8 0-10 3-16 1a17.077 17.077 0 0 0-3.064 9z" fill="#fcea2b" data-name="skin"/><path d="M35.626 45.057c-3.431-.066-8.607-5.658-8.607-5.658l-13.628-.02a82.137 82.137 0 0 1 4.319 8.445 50.06 50.06 0 0 1 2.834 9.945h30.912a50.06 50.06 0 0 1 2.834-9.945 83.77 83.77 0 0 1 4.319-8.445L44.66 39.4s-5.532 5.725-9.035 5.657z" fill="#d22f27"/><path d="M17.176 61.013V57.18c0-4.994 5.008-9 10-9q9 7.5 18 0c4.994 0 10 4.006 10 9v3.833z" fill="#3f3f3f" data-name="color"/><path d="M31.643 60.958h8.975c3.589-2.9 5.592-13.538 5.592-13.538a15.495 15.495 0 0 1-20.137.019s1.995 10.594 5.57 13.52z"/><path d="M26.457 39.398l-13.066-.02a51.95 51.95 0 0 1 4.319 8.446c.52 1.303.964 2.565 1.34 3.778m33.953-.17c.365-1.16.79-2.366 1.287-3.608a51.95 51.95 0 0 1 4.319-8.445l-13.884.021" fill="none" stroke="#000" stroke-linejoin="round" stroke-width="2"/><path d="M41.563 30.057a2 2 0 1 1-2-2 2 2 0 0 1 2 2m-8 0a2 2 0 1 1-2-2 2 2 0 0 1 2 2"/><path d="M32.554 39.029a6.373 6.373 0 0 1 6 0" fill="none" stroke="#000" stroke-linecap="round" stroke-linejoin="round" stroke-width="2"/><path d="M38 38.49a6.551 6.551 0 0 1 .738.337" fill="none" stroke="#000" stroke-linecap="round" stroke-linejoin="round"/><path d="M17.117 60.057v-3c0-4.994 5.008-9 10-9q9 7.5 18 0c4.994 0 10 4.006 10 9v3m-29.427-22c-3 0-4-7-4-14 0-6 5-12 14-12s14 6 14 12c0 7-1 14-4 14" fill="none" stroke="#000" stroke-linecap="round" stroke-linejoin="round" stroke-width="2"/><path d="M41.563 30.057a2 2 0 1 1-2-2 2 2 0 0 1 2 2m-8 0a2 2 0 1 1-2-2 2 2 0 0 1 2 2"/><path d="M24.626 31.057c-.102 8 4.936 14 11 14 5.937 0 11.064-6 11.064-14 0-5-3-11-3-11-8 0-10 3-16 1 0 0-3 5-3.064 10z" fill="none" stroke="#000" stroke-linejoin="round" stroke-width="2"/><path d="M32.546 39.065a6.374 6.374 0 0 1 6 0" fill="none" stroke="#000" stroke-linecap="round" stroke-linejoin="round" stroke-width="2"/><path d="M32.473 38.864a6.546 6.546 0 0 1 6.162 0" fill="none" stroke="#000" stroke-linecap="round" stroke-linejoin="round"/><path d="M33.563 38.733l.314 2.393.827-2.363-.091-.03h-1.05zm3.894 0l-.157 2.393-.827-2.363-.067-.03h1.051z" stroke="#000" stroke-linecap="round" stroke-linejoin="round"/></svg>