<svg xmlns="http://www.w3.org/2000/svg" viewBox="0 0 72 72"><path fill="#92D3F5" d="M55.062 58.967s2-15.076-10-15.076c-5.57-.138-12.393-.028-17.875 0-12 0-10 14.962-10 14.962"/><path fill="#61B2E4" d="M43.962 43.863c-3.17 2.113-3.775 4.049-7.838 4.637 13.063.412 13.063 6.452 13.825 10.452h5.113s2.534-15.495-11.1-15.09z"/><path fill="#92D3F5" d="M46.116 18.879c-.218-4.252-1.89-11.35-10.57-11.567-11.954 0-14.579 11-14.579 11l-.996 1.993-.622 1.242-5.382 2.182h4.461l-1.592 5.679a2.81 2.81 0 0 0-.224 1.889l2.93 10.753c.08.343.562.359.663.021l.197-7.665c-.038-.904.21-1.519.615-2.327l.95.366 8.02-8.716h27.98l-11.851-4.85z"/><path fill="#61B2E4" d="M18.428 23.729l-1.592 5.679a2.81 2.81 0 0 0-.224 1.889l2.93 10.753c.08.343.562.359.663.021l.197-7.665c-.038-.904.21.239.615-.57l.95-1.277 8.02-8.83h15.839m7.414 14.774a5.002 5.002 0 0 1 1.947-9.607 5 5 0 0 1 2.34 9.419"/><path fill="#A57939" d="M57.187 58.964V38.258h-4v20.706"/><path fill="#92D3F5" d="M55.187 30.566c-1.105 0-2.34 1.15-2.34 1.15 1.382-.335 3.549-.358 4.68 0 0 0-1.236-1.15-2.34-1.15z"/><path fill="#D0CFCE" d="M35.882 51.312c13.422-9.694 13.094-22.148 11.7-27.583h-1.7s1.581 7.897-9.758 7.897-9.496-7.897-9.496-7.897h-1.746c-1.602 4.745-2.397 15.674 11 27.583z"/><path fill="#FCEA2B" d="M25.532 24.175l2.158 4.72c2.159 1.904 4.844 2.87 8.277 2.503 3.37.173 6.095-.204 7.76-1.485l2.607-5.933"/><path fill="none" stroke="#000" stroke-width="2" stroke-linecap="round" stroke-linejoin="round" stroke-miterlimit="10" d="M25.305 45.01C15.228 46.2 17.03 57.911 17.03 57.911m36.16-9.121c-1.14-1.74-2.97-3.18-5.88-3.68M18.967 22.312l-2.13 7.096a2.81 2.81 0 0 0-.225 1.889l2.93 10.753c.08.343.562.359.663.021l.197-7.665a3.6 3.6 0 0 1 .2-1.384m15.28 18.29c13.422-9.694 13.094-22.148 11.7-27.583h-1.7s1.581 7.897-9.758 7.897-9.496-7.897-9.496-7.897h-1.746c-1.602 4.745-2.397 15.674 11 27.583z"/><path d="M41.967 26.95a2 2 0 1 1-4.001 0 2 2 0 0 1 4.001 0m-8 0a2 2 0 1 1-4.001 0 2 2 0 0 1 4.001 0m2 10.003c-1.152 0-2.304-.286-3.447-.858a1 1 0 1 1 .894-1.789c1.718.86 3.388.86 5.106 0a1 1 0 0 1 .894 1.79c-1.143.571-2.295.857-3.447.857z"/><path fill="none" stroke="#000" stroke-width="2" stroke-linecap="round" stroke-linejoin="round" stroke-miterlimit="10" d="M53.24 38.503a5.002 5.002 0 0 1 1.947-9.607 5 5 0 0 1 2.34 9.419M26.864 15.504c-.708 1.808-.897 3.375-.897 3.375h-.035l-11.965 4.85h44l-11.85-4.85c-.22-4.252-2.23-11.35-10.912-11.567-12.97 0-15.234 13.47-15.234 13.47m37.216 37.182V38.518h-4v19.446"/></svg>