<svg xmlns="http://www.w3.org/2000/svg" viewBox="0 0 72 72"><g fill="#f4aa41"><path d="M25.158 37.945c-3 0-4-7-4-14 0-6 5-12 14-12s14 6 14 12c0 7-1 14-4 14"/><path d="M25.158 37.945c-3 0-4-7-4-14 0-6 5-12 14-12s14 6 14 12c0 7-1 14-4 14"/></g><g fill="#fcea2b"><path d="M16.217 60.901v-3.833c0-4.994 5.008-9 10-9q9 7.5 18 0c4.994 0 10 4.006 10 9v3.833zm7.878-30.456c-.102 8 4.063 14 11 14 7.063 0 11.063-6 11.063-14 0-5-3-10-3-10-8 0-10 3-16 1a17.077 17.077 0 0 0-3.063 9z"/><path d="M24.095 30.445c-.102 8 4.063 14 11 14 7.063 0 11.063-6 11.063-14 0-5-3-10-3-10-8 0-10 3-16 1a17.077 17.077 0 0 0-3.063 9z"/></g><path d="M63.365 31.245c-.28 1.27-.71 3.29-1.17 5.77-.46 2.52-.94 5.17-1.32 8.5-.67 6.01-1.06 9.01-1.05 10.01a14.607 14.607 0 0 1-.45 3.05 2.703 2.703 0 0 1-.2.52 1.993 1.993 0 0 1-.17.24 11.96 11.96 0 0 1-2.23 1.57h-2.56v-3.84c0-4.99-5-9-10-9a15.078 15.078 0 0 1-7.54 3.65 20.59 20.59 0 0 1 4.51-7.2c1.35-1.35 6.54-4.33 16.87-10.25 2.22-1.27 4.06-2.32 5.31-3.02zm-29.6 20.47a15.025 15.025 0 0 1-7.55-3.65c-4.99 0-10 4.01-10 9v3.84h-2.55a11.814 11.814 0 0 1-2.24-1.57 2.842 2.842 0 0 1-.16-.24 1.767 1.767 0 0 1-.2-.52 14.343 14.343 0 0 1-.46-3.05c.02-1-.38-4-1.05-10.01-.37-3.33-.85-5.98-1.32-8.5-.46-2.48-.88-4.5-1.16-5.77 1.24.7 3.08 1.75 5.3 3.02 10.33 5.92 15.52 8.9 16.87 10.25a20.674 20.674 0 0 1 4.37 6.81z" fill="#b1cc33"/><path d="M46.778 48.115l-1.894-.359a13.069 13.069 0 0 1-4.776 3.438 10.594 10.594 0 0 1-4.634.748 13.335 13.335 0 0 1-4.635-.988 13.1 13.1 0 0 1-4.775-3.522l-1.894.368c2.241 5.244 1.392 10.873.95 13.102h20.707c-.442-2.175-1.29-7.67.95-12.787z" fill="#a57939"/><path fill="#fcea2b" d="M61.343 50.065l-2.151-3.648-4.225-.296 2.805-3.174-1.024-4.11 3.885 1.687 3.592-2.244-.404 4.216 3.244 2.724-4.134.918-1.588 3.927z"/><path d="M46.158 48.115l-1.894-.359a13.067 13.067 0 0 1-4.775 3.438 10.594 10.594 0 0 1-4.634.748 13.335 13.335 0 0 1-4.635-.988 13.098 13.098 0 0 1-4.775-3.522l-1.894.368c2.241 5.243 1.392 10.873.95 13.102h20.707c-.442-2.175-1.29-7.67.95-12.787z" fill="#a57939"/><path d="M33.765 51.715a15.025 15.025 0 0 1-7.55-3.65c-4.99 0-10 4.01-10 9v3.84h-2.55a11.814 11.814 0 0 1-2.24-1.57 2.842 2.842 0 0 1-.16-.24 1.767 1.767 0 0 1-.2-.52 14.343 14.343 0 0 1-.46-3.05c.02-1-.38-4-1.05-10.01-.37-3.33-.85-5.98-1.32-8.5-.46-2.48-.88-4.5-1.16-5.77 1.24.7 3.08 1.75 5.3 3.02 10.33 5.92 15.52 8.9 16.87 10.25a20.674 20.674 0 0 1 4.37 6.81z" fill="#b1cc33"/><path fill="#fcea2b" d="M61.343 50.065l-2.151-3.648-4.225-.296 2.805-3.174-1.024-4.11 3.885 1.687 3.592-2.244-.404 4.216 3.244 2.724-4.134.918-1.588 3.927z"/><path d="M41.031 29.945a2 2 0 1 1-2-2 2 2 0 0 1 2 2m-8 0a2 2 0 1 1-2-2 2 2 0 0 1 2 2"/><path d="M32.031 38.195a8.274 8.274 0 0 0 6 0M12.16 58.657c-.097-.188-.762-1.511-.907-1.88-1.587-4.025-.647-6.937-3.015-19.76-.459-2.483-.887-4.5-1.166-5.773 1.242.705 3.083 1.751 5.308 3.025 13.963 7.999 14.884 8.02 16.867 10.249a24.455 24.455 0 0 1 4.15 6.597m-8.239-13.17c-3 0-4-7-4-14 0-6 5-12 14-12s14 6 14 12c0 7-1 14-4 14" fill="none" stroke="#000" stroke-linecap="round" stroke-linejoin="round" stroke-width="2"/><path d="M41.031 29.945a2 2 0 1 1-2-2 2 2 0 0 1 2 2m-8 0a2 2 0 1 1-2-2 2 2 0 0 1 2 2"/><path d="M24.095 30.945c-.102 8 4.936 14 11 14 5.936 0 11.063-6 11.063-14 0-5-3-11-3-11-8 0-10 3-16 1 0 0-3 5-3.063 10z" fill="none" stroke="#000" stroke-linejoin="round" stroke-width="2"/><path d="M32.031 38.195a8.274 8.274 0 0 0 6 0m-.651 12.702a24.377 24.377 0 0 1 4.055-6.379c1.983-2.229 2.903-2.25 16.866-10.248 2.225-1.274 4.066-2.32 5.309-3.025a171.69 171.69 0 0 0-1.055 5.178m-4.033 22.234c.097-.187.761-1.511.907-1.88a14.596 14.596 0 0 0 1.03-4.348m-1.633-4.785l-8.429 14.141" fill="none" stroke="#000" stroke-linecap="round" stroke-linejoin="round" stroke-width="2"/><path fill="none" stroke="#000" stroke-linecap="round" stroke-linejoin="round" stroke-width="2" d="M61.343 50.065l-2.151-3.648-4.225-.296 2.805-3.174-1.024-4.11 3.885 1.687 3.592-2.244-.404 4.216 3.244 2.724-4.134.918-1.588 3.927z"/><path d="M41.031 29.945a2 2 0 1 1-2-2 2 2 0 0 1 2 2m-8 0a2 2 0 1 1-2-2 2 2 0 0 1 2 2"/><path d="M32.031 38.195a8.274 8.274 0 0 0 6 0M12.16 58.657c-.097-.188-.762-1.511-.907-1.88-1.587-4.025-.647-6.937-3.015-19.76-.459-2.483-.887-4.5-1.166-5.773 1.242.705 3.083 1.751 5.308 3.025 13.963 7.999 14.884 8.02 16.867 10.249a24.455 24.455 0 0 1 4.15 6.597m-8.239-13.17c-3 0-4-7-4-14 0-6 5-12 14-12s14 6 14 12c0 7-1 14-4 14" fill="none" stroke="#000" stroke-linecap="round" stroke-linejoin="round" stroke-width="2"/><path d="M41.031 29.945a2 2 0 1 1-2-2 2 2 0 0 1 2 2m-8 0a2 2 0 1 1-2-2 2 2 0 0 1 2 2"/><path d="M24.095 30.945c-.102 8 4.936 14 11 14 5.936 0 11.063-6 11.063-14 0-5-3-11-3-11-8 0-10 3-16 1 0 0-3 5-3.063 10z" fill="none" stroke="#000" stroke-linejoin="round" stroke-width="2"/><path d="M32.031 38.195a8.274 8.274 0 0 0 6 0m-.651 12.702a24.377 24.377 0 0 1 4.055-6.379c1.983-2.229 2.903-2.25 16.866-10.248 2.225-1.274 4.066-2.32 5.309-3.025a171.69 171.69 0 0 0-1.055 5.178m-4.033 22.234c.097-.187.761-1.511.907-1.88a14.596 14.596 0 0 0 1.03-4.348m-1.633-4.785l-8.429 14.141" fill="none" stroke="#000" stroke-linecap="round" stroke-linejoin="round" stroke-width="2"/><path fill="none" stroke="#000" stroke-linecap="round" stroke-linejoin="round" stroke-width="2" d="M61.343 50.065l-2.151-3.648-4.225-.296 2.805-3.174-1.024-4.11 3.885 1.687 3.592-2.244-.404 4.216 3.244 2.724-4.134.918-1.588 3.927zM16.217 60.068v-3c0-4.994 5.008-9 10-9q9 7.5 18 0a10.65 10.65 0 0 1 8.666 4.668"/><path d="M23.55 48.43s.736 1.452.688 5.948c-.015 1.353-.2 3.38-.397 5.328M46.725 48.43s-.736 1.452-.687 5.948c.014 1.353.199 3.38.397 5.328" fill="none" stroke="#000" stroke-linecap="round" stroke-linejoin="round" stroke-width="2"/></svg>