<svg xmlns="http://www.w3.org/2000/svg" viewBox="0 0 72 72"><circle fill="none" stroke="#FCEA2B" stroke-width="1.8" stroke-miterlimit="10" cx="35.327" cy="35.593" r="22.976"/><circle fill="#FCEA2B" cx="35.327" cy="35.593" r="22.976"/><path fill="none" stroke="#000" stroke-width="2" stroke-linecap="round" stroke-linejoin="round" stroke-miterlimit="10" d="M28.223 43.912c2.369-.666 11.864.535 14.045 2.063M21.701 22.963a6.3 6.3 0 0 1 4.394-1.072 6.297 6.297 0 0 1 4.2 1.738m18.149 3.313c-2.415-1.724-5.351 0-8.233-.26"/><ellipse cx="43.15" cy="33.246" rx="2.603" ry="2.603"/><ellipse cx="26.23" cy="29.985" rx="2.603" ry="2.603"/><path fill="none" stroke="#000" stroke-width="2" stroke-linecap="round" stroke-linejoin="round" stroke-miterlimit="10" d="M54.999 47.557a22.868 22.868 0 0 0 3.353-11.903c.03-12.69-10.234-23-22.923-23.03-12.69-.03-23 10.233-23.029 22.922-.03 12.69 10.232 23 22.922 23.03a22.874 22.874 0 0 0 13.866-4.614"/><circle fill="none" stroke="#000" stroke-width="2" stroke-linecap="round" stroke-linejoin="round" stroke-miterlimit="10" cx="43.328" cy="30.434" r="9.421"/><path fill="none" stroke="#000" stroke-width="2" stroke-linecap="round" stroke-linejoin="round" stroke-miterlimit="10" d="M53.087 30.58s2.213.552 1.924 4.014-3.569 7.962-3.569 7.962-2.02 2.362-1.46 4.322c.716 2.506 4.314 6.436 4.18 8.61"/></svg>