<svg version="1.1" id="emoji" xmlns="http://www.w3.org/2000/svg" x="0" y="0" viewBox="0 0 72 72" xml:space="preserve"><style>.st6{fill:none;stroke:#000;stroke-width:2;stroke-linecap:round;stroke-linejoin:round;stroke-miterlimit:10}</style><path d="M33.2 33.2L48 24l-9.2 14.8" id="line-supplement"/><g id="color"><circle cx="36" cy="36" r="24" fill="#fcea2b"/><path d="M53 19c4.3 4.3 7 10.3 7 17 0 13.3-10.7 24-24 24-6.6 0-12.6-2.7-17-7" fill="#f1b31c"/><path fill="#fff" d="M33.2 33.2L24 48l14.8-9.2"/><path fill="#ea5a47" d="M33.2 33.2L48 24l-9.2 14.8"/></g><g id="line"><circle class="st6" cx="36" cy="36" r="24"/><path class="st6" d="M33.2 33.2L24 48l14.8-9.2"/><path class="st6" d="M33.2 33.2L48 24l-9.2 14.8M36 21v-5m0 40v-5m15-15h5m-40 0h5"/></g></svg>