<svg xmlns="http://www.w3.org/2000/svg" viewBox="0 0 72 72"><g fill="#d0cfce"><path d="M46.16 18.741l-.012.006a9.819 9.819 0 0 0-3.49-6.138l-.311-.243a10.149 10.149 0 0 0-1.245-.79l-.338-.173a1.714 1.714 0 0 0-.098-.045l-.293-.132a1.704 1.704 0 0 0-.244-.104l-.245-.094a1.708 1.708 0 0 0-.193-.067v-.001a6.138 6.138 0 0 0-.31-.099l-.028-.008c-.15-.047-.3-.092-.394-.112a7.118 7.118 0 0 0-.455-.11 1.788 1.788 0 0 0-.178-.035l-.115-.019a2.486 2.486 0 0 0-.166-.027 3.545 3.545 0 0 0-.356-.048 9.862 9.862 0 0 0-2.256-.018 4.513 4.513 0 0 0-.377.05 6.337 6.337 0 0 0-.274.044l-.11.018a1.63 1.63 0 0 0-.191.039 8.251 8.251 0 0 0-.838.218c-.295.091-.59.194-.867.307a1.556 1.556 0 0 0-.147.068l-.288.13-.083.038a10.067 10.067 0 0 0-1.594.969l-.374.291a9.76 9.76 0 0 0-3.551 7.54 8.54 8.54 0 0 0 .057 1.038 1.71 1.71 0 0 0 1.692 1.49 1.496 1.496 0 0 0 .771-.203 1.9 1.9 0 0 0 .917-1.824c-.006-.062-.009-.125-.013-.196-.006-.101-.005-.204-.005-.306a6.319 6.319 0 0 1 2.253-4.858l.303-.237a6.676 6.676 0 0 1 1.035-.628l.287-.129c.035-.014.07-.03.104-.047a7.35 7.35 0 0 1 .533-.182 5.048 5.048 0 0 1 .546-.141l.04-.01.306-.048c.057-.01.114-.021.214-.03a6.003 6.003 0 0 1 1.446.004l.09.01.297.044.151.025c.018.005.293.077.31.08l-.258-.068c.09.016.175.04.316.077.072.016.144.04.216.062l.057.017a.971.971 0 0 0 .069.02l.204.07.007.003.056.022c.058.023.115.045.171.065.02.01.042.02.063.028l.545.262a6.407 6.407 0 0 1 .777.496l.242.188a6.35 6.35 0 0 1 2.247 3.994.849.849 0 0 1-.843.958 13.213 13.213 0 0 1-4.119-.625.936.936 0 0 0-1.12 1.31c1.197 2.364 3.734 5.69 8.316 4.843a1.604 1.604 0 0 0 1.28-1.562 39.807 39.807 0 0 0-.139-5.466z"/><ellipse cx="36.489" cy="57.306" rx="4.725" ry="4.701"/></g><g fill="none" stroke="#000" stroke-width="2"><path d="M41.143 58.223s7.444-25.205 10.48-35.007" stroke-linecap="round" stroke-linejoin="round"/><path d="M26.796 21.234c.675 7.282 4.972 36.496 4.972 36.496" stroke-miterlimit="10"/><ellipse cx="36.489" cy="57.306" rx="4.725" ry="4.701" stroke-miterlimit="10"/><ellipse cx="36.51" cy="57.306" rx="1.667" ry="1.675" stroke-miterlimit="10"/><path d="M46.16 18.741l-.012.006a9.819 9.819 0 0 0-3.49-6.138l-.311-.243a10.149 10.149 0 0 0-1.245-.79l-.338-.173a1.714 1.714 0 0 0-.098-.045l-.293-.132a1.704 1.704 0 0 0-.244-.104l-.245-.094a1.708 1.708 0 0 0-.193-.067v-.001a6.138 6.138 0 0 0-.31-.099l-.028-.008v0c-.15-.047-.3-.092-.394-.112a7.118 7.118 0 0 0-.455-.11 1.788 1.788 0 0 0-.178-.035l-.115-.019a2.486 2.486 0 0 0-.166-.027 3.545 3.545 0 0 0-.356-.048 9.862 9.862 0 0 0-2.256-.018 4.513 4.513 0 0 0-.377.05 6.337 6.337 0 0 0-.274.044l-.11.018a1.63 1.63 0 0 0-.191.039 8.251 8.251 0 0 0-.838.218c-.295.091-.59.194-.867.307a1.556 1.556 0 0 0-.147.068l-.288.13-.083.038a10.067 10.067 0 0 0-1.594.969l-.374.291a9.76 9.76 0 0 0-3.551 7.54 8.54 8.54 0 0 0 .057 1.038 1.71 1.71 0 0 0 1.692 1.49 1.496 1.496 0 0 0 .771-.203 1.9 1.9 0 0 0 .917-1.824c-.006-.062-.009-.125-.013-.196-.006-.101-.005-.204-.005-.306a6.319 6.319 0 0 1 2.253-4.858l.303-.237a6.676 6.676 0 0 1 1.035-.628l.287-.129c.035-.014.07-.03.104-.047a7.35 7.35 0 0 1 .533-.182 5.048 5.048 0 0 1 .546-.141l.04-.01.306-.048c.057-.01.114-.021.214-.03a6.003 6.003 0 0 1 1.446.004l.09.01.297.044.151.025c.018.005.293.077.31.08l-.258-.068c.09.016.175.04.316.077.072.016.144.04.216.062l.057.017a.971.971 0 0 0 .069.02l.204.07.007.003.056.022c.058.023.115.045.171.065.02.01.042.02.063.028l.545.262a6.407 6.407 0 0 1 .777.496l.242.188a6.35 6.35 0 0 1 2.247 3.994.849.849 0 0 1-.843.958 13.213 13.213 0 0 1-4.119-.625.936.936 0 0 0-1.12 1.31c1.197 2.364 3.734 5.69 8.316 4.843a1.604 1.604 0 0 0 1.28-1.562 39.807 39.807 0 0 0-.139-5.466z" stroke-miterlimit="10"/><path d="M46.16 18.741l-.012.006a9.819 9.819 0 0 0-3.49-6.138l-.311-.243a10.149 10.149 0 0 0-1.245-.79l-.338-.173a1.714 1.714 0 0 0-.098-.045l-.293-.132a1.704 1.704 0 0 0-.244-.104l-.245-.094a1.708 1.708 0 0 0-.193-.067v-.001a6.138 6.138 0 0 0-.31-.099l-.028-.008v0c-.15-.047-.3-.092-.394-.112a7.118 7.118 0 0 0-.455-.11 1.788 1.788 0 0 0-.178-.035l-.115-.019a2.486 2.486 0 0 0-.166-.027 3.545 3.545 0 0 0-.356-.048 9.862 9.862 0 0 0-2.256-.018 4.513 4.513 0 0 0-.377.05 6.337 6.337 0 0 0-.274.044l-.11.018a1.63 1.63 0 0 0-.191.039 8.251 8.251 0 0 0-.838.218c-.295.091-.59.194-.867.307a1.556 1.556 0 0 0-.147.068l-.288.13-.083.038a10.067 10.067 0 0 0-1.594.969l-.374.291a9.76 9.76 0 0 0-3.551 7.54 8.54 8.54 0 0 0 .057 1.038 1.71 1.71 0 0 0 1.692 1.49 1.496 1.496 0 0 0 .771-.203 1.9 1.9 0 0 0 .917-1.824c-.006-.062-.009-.125-.013-.196-.006-.101-.005-.204-.005-.306a6.319 6.319 0 0 1 2.253-4.858l.303-.237a6.676 6.676 0 0 1 1.035-.628l.287-.129c.035-.014.07-.03.104-.047a7.35 7.35 0 0 1 .533-.182 5.048 5.048 0 0 1 .546-.141l.04-.01.306-.048c.057-.01.114-.021.214-.03a6.003 6.003 0 0 1 1.446.004l.09.01.297.044.151.025c.018.005.293.077.31.08l-.258-.068c.09.016.175.04.316.077.072.016.144.04.216.062l.057.017a.971.971 0 0 0 .069.02l.204.07.007.003.056.022c.058.023.115.045.171.065.02.01.042.02.063.028l.545.262a6.407 6.407 0 0 1 .777.496l.242.188a6.35 6.35 0 0 1 2.247 3.994.849.849 0 0 1-.843.958 13.213 13.213 0 0 1-4.119-.625.936.936 0 0 0-1.12 1.31c1.197 2.364 3.734 5.69 8.316 4.843a1.604 1.604 0 0 0 1.28-1.562 39.807 39.807 0 0 0-.139-5.466z" stroke-miterlimit="10"/><path d="M46.16 18.741l-.012.006a9.819 9.819 0 0 0-3.49-6.138l-.311-.243a10.149 10.149 0 0 0-1.245-.79l-.338-.173a1.714 1.714 0 0 0-.098-.045l-.293-.132a1.704 1.704 0 0 0-.244-.104l-.245-.094a1.708 1.708 0 0 0-.193-.067v-.001a6.138 6.138 0 0 0-.31-.099l-.028-.008v0c-.15-.047-.3-.092-.394-.112a7.118 7.118 0 0 0-.455-.11 1.788 1.788 0 0 0-.178-.035l-.115-.019a2.486 2.486 0 0 0-.166-.027 3.545 3.545 0 0 0-.356-.048 9.862 9.862 0 0 0-2.256-.018 4.513 4.513 0 0 0-.377.05 6.337 6.337 0 0 0-.274.044l-.11.018a1.63 1.63 0 0 0-.191.039 8.251 8.251 0 0 0-.838.218c-.295.091-.59.194-.867.307a1.556 1.556 0 0 0-.147.068l-.288.13-.083.038a10.067 10.067 0 0 0-1.594.969l-.374.291a9.76 9.76 0 0 0-3.551 7.54 8.54 8.54 0 0 0 .057 1.038 1.71 1.71 0 0 0 1.692 1.49 1.496 1.496 0 0 0 .771-.203 1.9 1.9 0 0 0 .917-1.824c-.006-.062-.009-.125-.013-.196-.006-.101-.005-.204-.005-.306a6.319 6.319 0 0 1 2.253-4.858l.303-.237a6.676 6.676 0 0 1 1.035-.628l.287-.129c.035-.014.07-.03.104-.047a7.35 7.35 0 0 1 .533-.182 5.048 5.048 0 0 1 .546-.141l.04-.01.306-.048c.057-.01.114-.021.214-.03a6.003 6.003 0 0 1 1.446.004l.09.01.297.044.151.025c.018.005.293.077.31.08l-.258-.068c.09.016.175.04.316.077.072.016.144.04.216.062l.057.017a.971.971 0 0 0 .069.02l.204.07.007.003.056.022c.058.023.115.045.171.065.02.01.042.02.063.028l.545.262a6.407 6.407 0 0 1 .777.496l.242.188a6.35 6.35 0 0 1 2.247 3.994.849.849 0 0 1-.843.958 13.213 13.213 0 0 1-4.119-.625.936.936 0 0 0-1.12 1.31c1.197 2.364 3.734 5.69 8.316 4.843a1.604 1.604 0 0 0 1.28-1.562 39.807 39.807 0 0 0-.139-5.466z" stroke-miterlimit="10"/><path d="M46.16 18.741l-.012.006a9.819 9.819 0 0 0-3.49-6.138l-.311-.243a10.149 10.149 0 0 0-1.245-.79l-.338-.173a1.714 1.714 0 0 0-.098-.045l-.293-.132a1.704 1.704 0 0 0-.244-.104l-.245-.094a1.708 1.708 0 0 0-.193-.067v-.001a6.138 6.138 0 0 0-.31-.099l-.028-.008v0c-.15-.047-.3-.092-.394-.112a7.118 7.118 0 0 0-.455-.11 1.788 1.788 0 0 0-.178-.035l-.115-.019a2.486 2.486 0 0 0-.166-.027 3.545 3.545 0 0 0-.356-.048 9.862 9.862 0 0 0-2.256-.018 4.513 4.513 0 0 0-.377.05 6.337 6.337 0 0 0-.274.044l-.11.018a1.63 1.63 0 0 0-.191.039 8.251 8.251 0 0 0-.838.218c-.295.091-.59.194-.867.307a1.556 1.556 0 0 0-.147.068l-.288.13-.083.038a10.067 10.067 0 0 0-1.594.969l-.374.291a9.76 9.76 0 0 0-3.551 7.54 8.54 8.54 0 0 0 .057 1.038 1.71 1.71 0 0 0 1.692 1.49 1.496 1.496 0 0 0 .771-.203 1.9 1.9 0 0 0 .917-1.824c-.006-.062-.009-.125-.013-.196-.006-.101-.005-.204-.005-.306a6.319 6.319 0 0 1 2.253-4.858l.303-.237a6.676 6.676 0 0 1 1.035-.628l.287-.129c.035-.014.07-.03.104-.047a7.35 7.35 0 0 1 .533-.182 5.048 5.048 0 0 1 .546-.141l.04-.01.306-.048c.057-.01.114-.021.214-.03a6.003 6.003 0 0 1 1.446.004l.09.01.297.044.151.025c.018.005.293.077.31.08l-.258-.068c.09.016.175.04.316.077.072.016.144.04.216.062l.057.017a.971.971 0 0 0 .069.02l.204.07.007.003.056.022c.058.023.115.045.171.065.02.01.042.02.063.028l.545.262a6.407 6.407 0 0 1 .777.496l.242.188a6.35 6.35 0 0 1 2.247 3.994.849.849 0 0 1-.843.958 13.213 13.213 0 0 1-4.119-.625.936.936 0 0 0-1.12 1.31c1.197 2.364 3.734 5.69 8.316 4.843a1.604 1.604 0 0 0 1.28-1.562 39.807 39.807 0 0 0-.139-5.466z" stroke-miterlimit="10"/><path d="M46.16 18.741l-.012.006a9.819 9.819 0 0 0-3.49-6.138l-.311-.243a10.149 10.149 0 0 0-1.245-.79l-.338-.173a1.714 1.714 0 0 0-.098-.045l-.293-.132a1.704 1.704 0 0 0-.244-.104l-.245-.094a1.708 1.708 0 0 0-.193-.067v-.001a6.138 6.138 0 0 0-.31-.099l-.028-.008v0c-.15-.047-.3-.092-.394-.112a7.118 7.118 0 0 0-.455-.11 1.788 1.788 0 0 0-.178-.035l-.115-.019a2.486 2.486 0 0 0-.166-.027 3.545 3.545 0 0 0-.356-.048 9.862 9.862 0 0 0-2.256-.018 4.513 4.513 0 0 0-.377.05 6.337 6.337 0 0 0-.274.044l-.11.018a1.63 1.63 0 0 0-.191.039 8.251 8.251 0 0 0-.838.218c-.295.091-.59.194-.867.307a1.556 1.556 0 0 0-.147.068l-.288.13-.083.038a10.067 10.067 0 0 0-1.594.969l-.374.291a9.76 9.76 0 0 0-3.551 7.54 8.54 8.54 0 0 0 .057 1.038c.11.862 0 1.747 1.692 1.49a1.986 1.986 0 0 0 .771-.203 1.9 1.9 0 0 0 .917-1.824c-.006-.062-.009-.125-.013-.196-.006-.101-.005-.204-.005-.306a6.319 6.319 0 0 1 2.253-4.858l.303-.237a6.676 6.676 0 0 1 1.035-.628l.287-.129c.035-.014.07-.03.104-.047a7.35 7.35 0 0 1 .533-.182 5.048 5.048 0 0 1 .546-.141l.04-.01.306-.048c.057-.01.114-.021.214-.03a6.003 6.003 0 0 1 1.446.004l.09.01.297.044.151.025c.018.005.293.077.31.08l-.258-.068c.09.016.175.04.316.077.072.016.144.04.216.062l.057.017a.971.971 0 0 0 .069.02l.204.07.007.003.056.022c.058.023.115.045.171.065.02.01.042.02.063.028l.545.262a6.407 6.407 0 0 1 .777.496l.242.188a6.35 6.35 0 0 1 2.247 3.994.849.849 0 0 1-.843.958 13.213 13.213 0 0 1-4.119-.625.936.936 0 0 0-1.12 1.31c1.197 2.364 3.734 5.69 8.316 4.843a1.604 1.604 0 0 0 1.28-1.562 39.807 39.807 0 0 0-.139-5.466z" stroke-miterlimit="10"/></g></svg>