<svg xmlns="http://www.w3.org/2000/svg" viewBox="0 0 72 72"><path d="M44.657 55.58c3.438-2.324 10.074-7.362 10.074-7.362V18.943c-1.768 1.579-7.596 4.399-10.074 5.156" fill="#d0cfce"/><ellipse cx="32.077" cy="20.467" rx="3.554" ry="1.623" fill="#fff"/><g fill="none" stroke="#000" stroke-width="2"><ellipse cx="32.406" cy="20.848" rx="15.137" ry="5.534" stroke-miterlimit="10"/><path d="M17.27 51.916c0 3.062 6.777 5.532 15.133 5.532 8.367 0 12.85-1.792 16.52-4.377M17.269 20.558v31.361" stroke-miterlimit="10"/><g stroke-linecap="round" stroke-linejoin="round"><path d="M32.406 26.382v2.5"/><path stroke-dasharray="5.2132 5.2132" d="M32.406 34.095v18.246"/><path d="M32.406 54.948v2.5"/></g><path stroke-miterlimit="10" d="M47.547 23.014v-2.17"/><path d="M44.657 24.099s7.239-2.658 10.036-5.156v29.275s-5.212 5.651-11.538 7.824" stroke-linecap="round" stroke-linejoin="round"/><ellipse cx="32.077" cy="20.844" rx="3.554" ry="1.623" stroke-linecap="round" stroke-linejoin="round"/></g></svg>