<svg xmlns="http://www.w3.org/2000/svg" viewBox="0 0 72 72"><path d="M25.503 19.613a5 5 0 1 1 5.796-6.878m13.661 6.878a5 5 0 1 0-5.795-6.878" fill="#6a462f"/><ellipse cx="35.232" cy="43.081" rx="12.5" ry="14" fill="#a57939"/><circle cx="25.415" cy="57.15" r="6" fill="#6a462f"/><circle cx="45.049" cy="57.15" r="6" fill="#6a462f"/><path fill="#a57939" d="M21.232 42.38l-5.881-.363 4.161-9.249 5.903-4.798 3.144 2.1-5.531 5.017-1.796 7.293zm28 0l5.882-.363-4.161-9.249-5.904-4.798-3.144 2.1 5.531 5.017 1.796 7.293z"/><circle cx="52.252" cy="43.949" r="3" fill="#6a462f"/><circle cx="18.212" cy="43.949" r="3" fill="#6a462f"/><circle cx="35.232" cy="21.93" r="10" fill="#a57939"/><ellipse cx="35.232" cy="27.351" rx="4.8" ry="4" fill="#6a462f"/><path d="M15.213 43.95c0-7.215 5.378-13.063 11.3-16.28" fill="none" stroke="#000" stroke-linecap="round" stroke-linejoin="round" stroke-width="2"/><circle cx="35.232" cy="26.512" r="1.5"/><path d="M36.052 26.607a2 2 0 0 0 2.71 2.928m-4.35-2.928a2 2 0 0 1-2.709 2.928" fill="none" stroke="#000" stroke-linecap="round" stroke-linejoin="round"/><circle cx="35.232" cy="21.93" r="10" fill="none" stroke="#000" stroke-linecap="round" stroke-linejoin="round" stroke-width="2"/><path d="M24.501 50.285a14.695 14.695 0 0 1-2.269-7.905 14.184 14.184 0 0 1 6.804-12.31m-3.533-10.457a5 5 0 1 1 5.796-6.878m7.867-.002a5 5 0 1 1 5.796 6.88" fill="none" stroke="#000" stroke-linecap="round" stroke-linejoin="round" stroke-width="2"/><circle cx="25.415" cy="57.15" r="6" fill="none" stroke="#000" stroke-linecap="round" stroke-linejoin="round" stroke-width="2"/><ellipse cx="35.232" cy="27.351" rx="4.8" ry="4" fill="none" stroke="#000" stroke-linecap="round" stroke-linejoin="round" stroke-width="2"/><circle cx="18.212" cy="43.949" r="3" fill="none" stroke="#000" stroke-linecap="round" stroke-linejoin="round" stroke-width="2"/><path d="M38.898 57.08a15.121 15.121 0 0 1-7.134.049" fill="none" stroke="#000" stroke-linecap="round" stroke-linejoin="round" stroke-width="2"/><circle cx="30.98" cy="19.984" r="2"/><circle cx="39.484" cy="19.984" r="2"/><path d="M55.252 43.95c0-7.215-5.379-13.063-11.301-16.28m2.012 22.615a14.695 14.695 0 0 0 2.27-7.905 14.184 14.184 0 0 0-6.804-12.31" fill="none" stroke="#000" stroke-linecap="round" stroke-linejoin="round" stroke-width="2"/><circle cx="45.049" cy="57.15" r="6" fill="none" stroke="#000" stroke-linecap="round" stroke-linejoin="round" stroke-width="2"/><circle cx="52.252" cy="43.949" r="3" fill="none" stroke="#000" stroke-linecap="round" stroke-linejoin="round" stroke-width="2"/></svg>