<svg xmlns="http://www.w3.org/2000/svg" viewBox="0 0 72 72"><path fill="#FFF" d="M60.5 32.5h-56l-1-8h58z"/><path fill="#6A462F" d="M4.322 32.23c1.512 10.341 6.015 18.773 13.793 23.45h29.094c7.779-4.677 12.282-13.109 13.793-23.45H4.323z"/><path fill="#A57939" d="M49.219 32.23H4.322c1.512 10.341 6.015 18.773 13.793 23.45h13.074c9.586-5.016 15.596-17.453 18.03-23.45z"/><g fill="none" stroke="#000" stroke-width="2" stroke-linecap="round" stroke-linejoin="round" stroke-miterlimit="10"><path d="M61.413 28.632c4.022 1.676 6.85 5.644 6.85 10.273 0 6.145-4.981 11.125-11.125 11.125-1.06 0-2.084-.148-3.054-.424"/><path d="M28.595 24h32.993c0 14.047-4.62 25.812-14.379 31.68H18.114C8.357 49.812 3.737 38.047 3.737 24h24.858z"/></g></svg>