<svg xmlns="http://www.w3.org/2000/svg" viewBox="0 0 72 72"><path fill="#FFF" d="M40.371 16.92a14.934 14.934 0 0 0-4.336-.645h-.03a15.731 15.731 0 0 0-3.12.324 15.412 15.412 0 0 0-9.096 5.832 17.022 17.022 0 0 0-3.266 7.59 17.404 17.404 0 0 0 4.02 14.42l.111.126c.884.996 2.094 2.362 2.094 3.814l-.018 4.178a.838.838 0 0 1-.838.837 25.063 25.063 0 0 0 5.873 2.124c3.193.72 6.514.629 9.662-.263 2.693-12.712 1.982-25.99-1.056-38.337z"/><path fill="#d0cfce" d="M46.826 20.812a15.5 15.5 0 0 0-6.455-3.893c3.038 12.348 3.75 25.626 1.054 38.332a22.514 22.514 0 0 0 4.69-1.902.846.846 0 0 1-.849-.825l-.058-4.14c0-1.383 1.173-2.673 2.028-3.616.122-.134.237-.26.341-.38 5.906-6.861 5.582-17.1-.746-23.575h-.005z"/><path fill="#3F3F3F" d="M29.215 35.24a4 4 0 1 0 0 8 4 4 0 0 0 0-8zm13.692 0a4 4 0 1 0 0 8 4 4 0 0 0 0-8z"/><path fill="#FFF" stroke-width="2" stroke-linecap="round" stroke-linejoin="round" d="M52.86 20.665a460.015 460.015 0 0 1 2.416-2.39s1.943 1.84 3.27 1.443c1.373-.41 2.156-1.808 2.035-2.954-.167-1.588-2.11-3.04-4.438-2.556.406-1.513.068-3.062-.933-3.995-1.654-1.54-4.078-.479-4.99.918C49 13 51.794 14.794 51.794 14.794a410.45 410.45 0 0 0-2.176 2.151M19.524 46.908c-1.55 1.54-2.6 2.58-2.92 2.89-.655-1.302-2.133-1.943-3.459-1.546-1.374.411-2.157 1.808-2.036 2.954.168 1.589 2.11 3.04 4.438 2.556-.405 1.513-.068 3.062.934 3.995 1.654 1.54 4.329.614 4.99-.918.468-1.088.192-2.297-1.439-3.505.26-.252 1.006-.99 2.11-2.087m-3.184-30.455a489.893 489.893 0 0 0-2.543-2.516s-1.944 1.839-3.27 1.442c-1.374-.411-2.157-1.808-2.036-2.954.168-1.589 2.11-3.04 4.438-2.556-.405-1.513-.068-3.062.934-3.995 1.653-1.54 4.078-.479 4.99.918 1.22 1.869-1.574 3.663-1.574 3.663a498.3 498.3 0 0 1 2.448 2.421m29.997 29.867a535.186 535.186 0 0 0 2.745 2.716c.655-1.302 2.132-1.943 3.458-1.546 1.374.411 2.157 1.808 2.036 2.954-.167 1.589-2.11 3.04-4.438 2.556.406 1.513.068 3.062-.933 3.995-1.654 1.54-4.33.614-4.99-.918-.469-1.088-.193-2.297 1.438-3.505-.257-.25-.99-.975-2.078-2.055"/><g fill="none" stroke="#000" stroke-width="2"><path stroke-linecap="round" stroke-linejoin="round" d="M46.1 52.473l-.058-4.14c0-1.215 1.382-2.543 2.161-3.435a18.046 18.046 0 0 0 4.432-11.928c0-9.716-7.45-17.594-16.63-17.575a16.518 16.518 0 0 0-3.287.341c-6.609 1.355-11.875 7.083-13.023 14.106a18.22 18.22 0 0 0 4.224 15.11c.768.87 1.995 2.195 1.995 3.385l-.018 4.173m3.32-1.429v4.004m4.786-3.112v4.005m8.906-4.897v4.004m-4.342-3.112v4.005"/><path stroke-linecap="round" stroke-linejoin="round" d="M33.548 48.742l2.455-4.899 2.936 4.899"/><circle stroke-miterlimit="10" cx="29.216" cy="39.2" r="4.188"/><circle stroke-miterlimit="10" cx="42.908" cy="39.2" r="4.188"/><path stroke-linecap="round" stroke-linejoin="round" d="M52.86 20.665a460.015 460.015 0 0 1 2.416-2.39s1.943 1.84 3.27 1.443c1.373-.41 2.156-1.808 2.035-2.954-.167-1.588-2.11-3.04-4.438-2.556.406-1.513.068-3.062-.933-3.995-1.654-1.54-4.078-.479-4.99.918C49 13 51.794 14.794 51.794 14.794a410.45 410.45 0 0 0-2.176 2.151M19.524 46.908c-1.55 1.54-2.6 2.58-2.92 2.89-.655-1.302-2.133-1.943-3.459-1.546-1.374.411-2.157 1.808-2.036 2.954.168 1.589 2.11 3.04 4.438 2.556-.405 1.513-.068 3.062.934 3.995 1.654 1.54 4.329.614 4.99-.918.468-1.088.192-2.297-1.439-3.505.26-.252 1.006-.99 2.11-2.087m-3.184-30.455a489.893 489.893 0 0 0-2.543-2.516s-1.944 1.839-3.27 1.442c-1.374-.411-2.157-1.808-2.036-2.954.168-1.589 2.11-3.04 4.438-2.556-.405-1.513-.068-3.062.934-3.995 1.653-1.54 4.078-.479 4.99.918 1.22 1.869-1.574 3.663-1.574 3.663a498.3 498.3 0 0 1 2.448 2.421m29.997 29.867a535.186 535.186 0 0 0 2.745 2.716c.655-1.302 2.132-1.943 3.458-1.546 1.374.411 2.157 1.808 2.036 2.954-.167 1.589-2.11 3.04-4.438 2.556.406 1.513.068 3.062-.933 3.995-1.654 1.54-4.33.614-4.99-.918-.469-1.088-.193-2.297 1.438-3.505-.257-.25-.99-.975-2.078-2.055"/></g></svg>