<svg xmlns="http://www.w3.org/2000/svg" viewBox="0 0 72 72"><g fill="#f4aa41"><circle cx="35.665" cy="38.623" r="5.25"/><path d="M15.207 50.434a23.556 23.556 0 0 0 5.578 6.537l9.24-11.1a9.146 9.146 0 0 1-3.457-5.988l-14.233 2.452a23.554 23.554 0 0 0 2.872 8.1zm40.916 0a23.556 23.556 0 0 0 2.872-8.099l-14.233-2.452a9.147 9.147 0 0 1-3.457 5.988l9.24 11.1a23.556 23.556 0 0 0 5.578-6.537zM35.665 15a23.555 23.555 0 0 0-8.45 1.563l4.993 13.552a9.147 9.147 0 0 1 6.914 0l4.993-13.552A23.555 23.555 0 0 0 35.665 15z"/></g><g fill="none" stroke="#000" stroke-miterlimit="10" stroke-width="2"><circle cx="35.665" cy="38.623" r="5.25"/><path d="M15.207 50.434a23.556 23.556 0 0 0 5.578 6.537l9.24-11.1a9.146 9.146 0 0 1-3.457-5.988l-14.233 2.452a23.554 23.554 0 0 0 2.872 8.1zm40.916 0a23.556 23.556 0 0 0 2.872-8.099l-14.233-2.452a9.147 9.147 0 0 1-3.457 5.988l9.24 11.1a23.556 23.556 0 0 0 5.578-6.537zM35.665 15a23.555 23.555 0 0 0-8.45 1.563l4.993 13.552a9.147 9.147 0 0 1 6.914 0l4.993-13.552A23.555 23.555 0 0 0 35.665 15z"/></g></svg>