<svg xmlns="http://www.w3.org/2000/svg" viewBox="0 0 72 72"><path fill="#FCEA2B" d="M35.25 12.55l-8.63 1.68-5.3 3.02-4.89 5.08L13 29.68v12.34l5.6 9.4 8.02 5.45 8.63 1.68 7.18-1.15 7.71-4.33 5.11-6.16 3-9.21-.75-7.98-3.81-7.91-4.21-4.32-7.25-3.86z"/><g fill="none" stroke="#000" stroke-width="2" stroke-linecap="round" stroke-linejoin="round" stroke-miterlimit="10"><path d="M41.052 47.568c-1.124 1.268-3.05 2.08-5.782 2.08-2.711 0-4.64-.803-5.775-2.055M20.53 26.75a6.306 6.306 0 0 1 3.39-3 6.304 6.304 0 0 1 4.53-.42m21.69 3.42a7.19 7.19 0 0 0-7.91-3.43M22.905 33.794s3.932-2.17 8 0m9.25 0s3.932-2.17 8 0"/><ellipse cx="35.421" cy="35.549" rx="23" ry="23"/></g></svg>