<svg xmlns="http://www.w3.org/2000/svg" viewBox="0 0 72 72"><path d="M36 39.444c-4.335 4.335-8.84 9.095-15.727 9.095-7.14 0-12.24-5.27-12.24-12.58a12.683 12.683 0 0 1 12.921-12.582c6.29 0 10.966 5.015 15.046 9.096 4.335-4.336 8.84-9.096 15.727-9.096 7.225 0 12.24 5.27 12.24 12.581A12.684 12.684 0 0 1 51.046 48.54c-6.29 0-10.966-5.015-15.046-9.095zm-3.4-3.486c-3.315-3.06-6.8-7.48-11.73-7.48a7.49 7.49 0 0 0-7.48 7.48 7.127 7.127 0 0 0 7.225 7.48c4.844 0 8.754-4.165 11.985-7.48zm26.013 0a7.127 7.127 0 0 0-7.226-7.48c-4.846 0-8.756 4.165-11.986 7.48 3.315 3.06 6.8 7.48 11.73 7.48a7.491 7.491 0 0 0 7.481-7.48z" fill="#9b9b9a"/><g stroke="#000" stroke-width="2"><path d="M36 39.485c-4.335 4.335-8.84 9.096-15.727 9.096-7.14 0-12.24-5.27-12.24-12.581a12.683 12.683 0 0 1 12.921-12.581c6.29 0 10.966 5.015 15.046 9.096 4.335-4.336 8.84-9.096 15.727-9.096 7.225 0 12.24 5.27 12.24 12.581a12.684 12.684 0 0 1-12.921 12.581c-6.29 0-10.966-5.016-15.046-9.096zM32.6 36c-3.315-3.06-6.8-7.48-11.73-7.48A7.49 7.49 0 0 0 13.39 36a7.127 7.127 0 0 0 7.225 7.48c4.844 0 8.754-4.165 11.985-7.48zm26.013 0a7.127 7.127 0 0 0-7.226-7.48c-4.846 0-8.756 4.165-11.987 7.48 3.315 3.06 6.8 7.48 11.73 7.48A7.491 7.491 0 0 0 58.612 36z" fill="none"/><path stroke-linecap="round" stroke-linejoin="round" d="M32.6 36l3.4-3.485m0 6.97L39.4 36"/></g></svg>