<svg xmlns="http://www.w3.org/2000/svg" viewBox="0 0 72 72"><path fill="#61b2e4" stroke-width="2" stroke-linecap="round" stroke-linejoin="round" stroke-miterlimit="10" d="M60 61H12a1 1 0 0 1-1-1V12a1 1 0 0 1 1-1h48a1 1 0 0 1 1 1v48a1 1 0 0 1-1 1z"/><path fill="#FFF" stroke-width="2" stroke-linecap="round" stroke-linejoin="round" stroke-miterlimit="10" d="M35.812 36.312l5.888.983c.937.157 2.057.515 2.8 1.107.589.47 1.113 1.099 1.113 1.848 0 1.567-.737 11.44-1.113 12-1.116 1.66-2.582.668-2.84-.242-.328-1.164.145-10.272.145-10.272l-10.273.568s-1.712 0-1.712-1.712-.288-10.273 2.28-14.553c2.568-4.28 5.993-.856 4.28 2.568-1.712 3.424-.568 7.705-.568 7.705z"/><circle fill="#FFF" stroke-width="2" stroke-linecap="round" stroke-linejoin="round" stroke-miterlimit="10" cx="38.5" cy="19.028" r="3"/><path fill="none" stroke="#FFF" stroke-width="2" stroke-linecap="round" stroke-linejoin="round" stroke-miterlimit="10" d="M34.469 26.313l-7.34 4.299a1 1 0 0 0-.478 1.107l.177 6.031"/><path fill="#FFF" d="M30.953 29.53s1.015-.546.723.701l1.307-.969-.424-1.2-1.606 1.468z"/><g fill="none" stroke="#000" stroke-width="2" stroke-linecap="round" stroke-linejoin="round" stroke-miterlimit="10"><path d="M60 61H12a1 1 0 0 1-1-1V12a1 1 0 0 1 1-1h48a1 1 0 0 1 1 1v48a1 1 0 0 1-1 1z"/><path d="M35.812 36.312l5.888.983c.937.157 2.057.515 2.8 1.107.589.47 1.113 1.099 1.113 1.848 0 1.567-.737 11.44-1.113 12-1.116 1.66-2.582.668-2.84-.242-.328-1.164.145-10.272.145-10.272l-10.273.568s-1.712 0-1.712-1.712-.288-10.273 2.28-14.553c2.568-4.28 5.993-.856 4.28 2.568-1.712 3.424-.568 7.705-.568 7.705z"/><circle cx="38.5" cy="19.028" r="3"/><path d="M37 45c0 5.617-4.631 10.153-10.284 9.996-5.218-.145-9.568-4.495-9.712-9.713a10.002 10.002 0 0 1 6.03-9.466"/><path d="M33.092 24.78l-7.851 5.112a1 1 0 0 0-.43 1.077l1.772 7.246"/></g></svg>