<svg xmlns="http://www.w3.org/2000/svg" viewBox="0 0 72 72"><circle fill="#FFF" cx="36" cy="26.318" r="12.3"/><circle fill="#FFF" cx="36" cy="53.007" r="15.85"/><path fill="#D0CFCE" d="M36 14.018c8.894 0 8.894 24.6 0 24.6 6.793 0 12.3-5.507 12.3-12.3 0-6.793-5.507-12.3-12.3-12.3z"/><path fill="#D0CFCE" d="M36 37.157c9.16 0 9.16 31.7 0 31.7 8.754 0 15.85-7.096 15.85-15.85S44.754 37.157 36 37.157z"/><path fill="#3F3F3F" d="M28.533 2.997h14.935v12.168H28.533z"/><path fill="none" stroke="#000" stroke-width="2" stroke-linecap="round" stroke-linejoin="round" stroke-miterlimit="10" d="M43.508 39.999l24.491-8.102m-7 2.316l3.121-8.3"/><circle cx="36.001" cy="48.989" r="2"/><circle cx="36.001" cy="55.989" r="2"/><circle cx="36.001" cy="62.989" r="2"/><circle cx="31.873" cy="23.326" r="1.75"/><circle cx="40.129" cy="23.326" r="1.75"/><path fill="none" stroke="#000" stroke-width="1.8" stroke-linecap="round" stroke-linejoin="round" stroke-miterlimit="10" d="M41.347 30.702a8.569 8.569 0 0 1-5.096 1.694 8.361 8.361 0 0 1-5.096-1.695"/><path fill="none" stroke="#000" stroke-width="2" stroke-linecap="round" stroke-linejoin="round" d="M25.704 15.165h20.594M28.533 2.997h14.935v12.168H28.533z"/><path fill="none" stroke="#000" stroke-width="2" stroke-linecap="round" stroke-linejoin="round" stroke-miterlimit="10" d="M44.443 18.755a11.46 11.46 0 0 1 3.057 7.808c0 6.351-5.149 11.5-11.5 11.5s-11.5-5.149-11.5-11.5c0-3.015 1.16-5.76 3.059-7.81m.933 21.248L4.001 31.9m7 2.315L7.88 25.916m39.302 17.076A14.94 14.94 0 0 1 51 52.989c0 8.284-6.716 15-15 15s-15-6.716-15-15c0-3.84 1.443-7.344 3.817-9.997"/></svg>