<svg xmlns="http://www.w3.org/2000/svg" viewBox="0 0 72 72"><path fill="#fcea2b" d="M53.557 36.208l1.25-27.666-1.875-3.25-3.625.375-2.375 5.625-2.375 17.375-1.5 1.75-2.125-2.25-2.75-20.875-2.75-2-3.542.666-.666 3.917 1.513 19.97-1.168 1.209-2.345-.93-2.584.834-1.083 1.917-.75 2-2.167-1.25-2.25.25-1.583 1.75-.667 2-1.445 6.72.991 7.743 2.538 5.287 6 6.917 8.333 2.666 7.583-.916 7.667-4.5 3.167-5 .916-12.084z"/><g fill="none" stroke="#000" stroke-width="2" stroke-linecap="round"><path stroke-linejoin="round" d="M52.621 31.126l1.8-22.18c.178-2.193-1.252-3.987-3.177-3.987a4.474 4.474 0 0 0-4.05 3.96l-2.42 17.357c-.3 2.179-1.278 3.962-2.166 3.962s-1.845-1.785-2.126-3.967l-2.23-17.345a4.421 4.421 0 0 0-4.013-3.97c-1.926 0-3.287 1.787-3.025 3.97l2.527 21.032M53.633 50.08c0 9.873-8.02 16.879-17.893 16.879m-14.499-18.49a3.786 3.786 0 0 1-3.5-4v-7a3.531 3.531 0 1 1 7 0v7a3.786 3.786 0 0 1-3.5 4z"/><path stroke-linejoin="round" d="M43.741 47.29v-2.332c0-1.1-1.789-2.2-3.976-2.441l-1.049-.117c-2.187-.242-3.976-1.851-3.976-3.774s1.8-3.334 4-3.334h10a4.164 4.164 0 0 1 4.235 3.826l.657 11.213m-15.669.026c1.63-1.48 3.624-2.5 5.777-2.958m-15.499 5.839a3.786 3.786 0 0 1-3.5-4v-15a3.531 3.531 0 1 1 7 0v15a3.786 3.786 0 0 1-3.5 4z"/><path stroke-miterlimit="10" d="M18.527 52.1c1.142 8.601 8.54 14.986 17.214 14.858 9.667 0 17.893-6.833 17.893-16.878"/></g></svg>