<svg xmlns="http://www.w3.org/2000/svg" viewBox="0 0 72 72"><path fill="#EA5A47" d="M43.832 36.082l2.926-2.973L56.97 22.72l-7.876-8.013-10.218 10.395-2.781 2.826-.359.361-13.28-13.509-7.875 8.013 13.048 13.275.227.23-3.123 3.173-11.092 11.285 7.876 8.013 11.095-11.286 2.852-2.899.267-.274 14.293 14.542 7.877-8.013-14.288-14.536z"/><path fill="none" stroke="#000" stroke-width="2" stroke-linecap="round" stroke-linejoin="round" stroke-miterlimit="10" d="M43.832 36.082l2.926-2.973L56.97 22.72l-7.876-8.013-10.218 10.395-2.781 2.826-.359.361-13.28-13.509-7.875 8.013 13.048 13.275.227.23-3.123 3.173-11.092 11.285 7.876 8.013 11.095-11.286 2.852-2.899.267-.274 14.293 14.542 7.877-8.013-14.288-14.536z"/></svg>