<svg xmlns="http://www.w3.org/2000/svg" viewBox="0 0 72 72"><path fill="#EA5A47" d="M31 60h10v6H31z"/><path fill="#FCEA2B" d="M46.602 29.825l-2.962-5.387L42 15l-.43.517-2.69-3.919-4.848-2.783-5.297-.808-6.016 1.975-4.22 3.502-2.244 6.464.18 13.917 2.962 1.167 2.065-1.436 1.257.898 2.694.538 2.245-1.257 1.706 1.616 3.853-.537-.106 5.725.176 4.713.026 4.398A2.968 2.968 0 0 0 33 51a3 3 0 0 0 3 3c.115 0 .223-.021.335-.034l.443.21.638-.547c.384-.207.717-.49.977-.837l.755-.647V39.168l-.07-11.214.322 3.731 1.215 2.049 4.64 2.376 2.874-2.245-1.527-4.04zM33.44 49.364l.003.088c-.018.03-.032.061-.05.091l.047-.18z"/><path d="M16.004 21.435c0-7.463 6.05-13.513 13.513-13.513s13.514 6.05 13.514 13.513m-27.027.718v9.854m5.742.241a2.874 2.874 0 1 1-5.743-.241m11.489.433a2.874 2.874 0 1 1-5.744-.242m5.74.352a2.874 2.874 0 1 1-5.73-.462m11.512.744a2.874 2.874 0 1 1-5.736-.368m19.659-1.458a2.874 2.874 0 1 1-4.135 3.993M39.02 51.204a2.874 2.874 0 1 1-5.75 0m.001-18.342v18.342m5.748 0V28.383m2.432 4.798l1.608 1.818m-.029-13.717c-.059 3.575 1.108 6.059 2.712 7.819m-.045-.05l1.496 1.955M20 65h8m16 0h8m-21 0v-5m10 5v-5m-11 0h12" fill="none" stroke="#000" stroke-width="2" stroke-linecap="round" stroke-linejoin="round" stroke-miterlimit="10"/></svg>