<svg xmlns="http://www.w3.org/2000/svg" viewBox="0 0 72 72"><path fill="#D0CFCE" d="M22.4 29.1s-.7-.4-1.2-5h7s-.3 3.9-1.4 5"/><path fill="#A57939" d="M16 29.1h40v3.8H16zM64 16h4v40h-4zM34 33h4v23h-4zm10 4.5h4V56h-4z"/><path fill="#A57939" d="M44 37.1h20v4H44zM4 16h4v40H4zm20 21.5h4V56h-4z"/><path fill="#A57939" d="M8 37.1h20v4H8z"/><g fill="none" stroke="#000" stroke-width="2" stroke-linecap="round" stroke-linejoin="round" stroke-miterlimit="10"><path d="M22.4 29.1s-.7-.4-1.2-5h7s-.3 3.9-1.4 5m-10.8 0h40v3.8H16zM64 16h4v40h-4zM34 33h4v23h-4zm10 4.5V56h4V41.1"/><path d="M44 37.1h20v4H44zM23 19.4s.6-2 0-4m2.8 4s.6-1.8 0-3.5M4 16h4v40H4zm24 21.5V56h-4V41.1"/><path d="M8 37.1h20v4H8z"/></g></svg>